<?xml version="1.0" encoding="UTF-8"?><svg id="Calque_6" xmlns="http://www.w3.org/2000/svg" viewBox="0 0 500 500"><defs><style>.cls-1{fill:#e3fdfc;}.cls-2{fill:#fffcfc;}.cls-3{fill:#fff7f7;}.cls-4{fill:#ffc5c6;}.cls-5{fill:red;}.cls-6{fill:#806c7a;}.cls-7{fill:#816d7b;}.cls-8{fill:#747171;}.cls-9{fill:#7e6a78;}.cls-10{fill:#806b7a;}.cls-11{fill:#323232;}.cls-12{fill:#333;}.cls-13{fill:#301010;}.cls-14{fill:#cdfdfb;}.cls-15{fill:#aca6a7;}.cls-16{fill:#afaaab;}.cls-17{fill:#a4a4a4;}.cls-18{fill:#defffe;}.cls-19{fill:#e0fffe;}.cls-20{fill:#e0fdfc;}.cls-21{fill:#d60001;}.cls-22{fill:#dffefd;}.cls-23{fill:#b0abac;}.cls-24{fill:#d70001;}.cls-25{fill:#d80000;}.cls-26{fill:#150506;}.cls-27{fill:#170607;}.cls-28{fill:#1d7776;}.cls-29{fill:#133130;}.cls-30{fill:#220c0c;}.cls-31{fill:#230303;}.cls-32{fill:#3ff6f2;}.cls-33{fill:#3ff5f1;}.cls-34{fill:#40f5f1;}.cls-35{fill:#403e3f;}.cls-36{fill:#403c3f;}.cls-37{fill:#160606;}.cls-38{fill:#1a6d6b;}.cls-39{fill:#381a1a;}.cls-40{fill:#361111;}.cls-41{fill:#41ede9;}.cls-42{fill:#181a1b;}.cls-43{fill:#3bf4f0;}.cls-44{fill:#1c4342;}.cls-45{fill:#1b0909;}.cls-46{fill:#1a1a1a;}.cls-47{fill:#5b5a5a;}.cls-48{fill:#5b0006;}.cls-49{fill:#2b2b2b;}.cls-50{fill:#636162;}.cls-51{fill:#2a2729;}.cls-52{fill:#2e1010;}.cls-53{fill:#37f5f1;}.cls-54{fill:#3af3ef;}.cls-55{fill:#4ae3e0;}.cls-56{fill:#494848;}.cls-57{fill:#83737e;}.cls-58{fill:#313031;}.cls-59{fill:#7b6775;}.cls-60{fill:#515050;}</style></defs><path class="cls-26" d="m334.11,189.16c-.81,10.11-2.54,20.07-5.06,29.89-1.63,1.97.53,3.89.08,5.85-.46,4.33-3.13,7.98-3.78,12.25-.09,1-.21,2-.54,2.96-3.85,7.41-6.33,15.41-9.94,22.92-7,13.35-13.82,26.8-22.82,38.98-1.07,1.43-2.05,2.93-3.03,4.43-.71,1.09-1.5,2.12-2.18,3.24-1.1,1.6-2.1,3.27-3.3,4.79-1.43,1.32-2.29,3.04-3.18,4.73-1.71,1.64-2.84,3.91-5.24,4.79-.39.61-.79,1.23-1.18,1.84-1.63,3.83-3.5,7.45-7.99,8.64-.8-.17-1.29-.67-1.49-1.46-.06-2.5,1.68-4.11,2.93-5.96,14.58-16.99,26.4-35.81,36.9-55.51,13.57-25.48,22.53-52.42,25.88-81.16.7-5.93.72-11.86-.04-17.77-1.02-3.96-1.35-8.1-2.9-11.93-1.95-6.49-4.47-12.72-8.87-18.02-1.21-1.87-2.84-3.52-3.12-5.88.2-1,.28-2.14,1.83-1.75,10.45,11.23,15.24,24.9,17.13,39.82.38,4.77.67,9.54-.08,14.31Z"/><path class="cls-56" d="m438.98,349.03c-.39-.72-1.03-.98-1.81-1-.16-.16-.28-.32-.35-.49.04-.02.09-.04.14-.06,1.85-.75,2.23.21,2.02,1.55Z"/><path class="cls-27" d="m264.95,332.82c.4.4.8.8,1.2,1.21-.39,4.64-4.12,7.36-6.49,10.78-2.79,4.03-6.3,7.57-9.72,11.13-1.93.47-1.94,2.53-3.08,3.67-5.58,8.99-12.41,16.87-20.8,23.36-.72,0-1.06.35-1.03,1.07-3.62,3-6.04,7.48-10.96,8.89-.15-.18-.3-.36-.45-.54.2-3.85,3.2-6.1,5.48-8.45,5.5-5.69,10.77-11.58,16.12-17.41,2.08-2.33,3.79-4.98,6.15-7.07,2.11-1.94,4.06-4.02,5.61-6.45.27-.37.57-.71.88-1.04,2.53-2.38,4.38-5.3,6.43-8.06.65-.92,1.43-1.73,2.18-2.56,1.36-1.43,2.3-3.2,3.69-4.61.43-.49.87-.97,1.28-1.47,1-1.05,1.5-2.82,3.49-2.45Z"/><path class="cls-50" d="m438.98,349.03c-.39-.72-1.03-.98-1.81-1-.16-.16-.28-.32-.35-.49.04-.02.09-.04.14-.06,1.85-.75,2.23.21,2.02,1.55Z"/><path class="cls-50" d="m448.79,335.93c-.3-.68-.6-1.37-.91-2.05v-.04c.82.39.61,1.4.91,2.09Z"/><path class="cls-49" d="m427.94,197.31c-1.58-.3-2.99-1.51-1.01-2.33,3.32-1.37,6.49-4.04,10.7-2.8,0,2.63-2.88,2.26-3.8,3.8-1.96.44-3.93.88-5.89,1.32Z"/><path class="cls-8" d="m335.18,182.03c-.01.67-.02,1.33-.03,2-.06,1.33-.12,2.67-.18,4-.28.38-.57.75-.85,1.13.03-4.77.05-9.54.08-14.31,1.92,2.18.05,4.88.99,7.19Z"/><path class="cls-37" d="m58.96,180.94c.07-8.99,11.25-23.39,22.97-27.08,9.44-2.98,18.78-2.68,28.43-1.2,11.64,1.79,22.44,5.94,32.79,11.06,8.97,4.44,17.28,10.23,25.88,15.42.53.65.64,1.33.16,2.06-2.8,1.24-4.76-.69-6.81-1.94-5.4-3.26-10.57-6.91-16.37-9.49-3.2-1.61-6.26-3.53-9.78-4.45-8.28-2.45-16.05-6.53-24.76-7.61-.82-.1-1.64-.25-2.48-.27-4.33-.22-8.49-2.01-12.91-1.27-1.51.19-3.02.19-4.53.2-1.67-.04-3.31.12-4.92.58-1.33.28-2.66.54-3.92,1.07-.82.36-1.65.7-2.47,1.04-2.5,1.04-4.36,3.03-6.64,4.39-.73.48-1.47.94-2.09,1.57-1.8,1.99-4.1,3.59-4.88,6.37-2.46,5.41-3.88,11.07-4.23,17-.1,1.76.1,3.64-1.47,4.99-.91.27-1.72.2-2.27-.7.03-3.92-.49-7.84.29-11.74Z"/><path class="cls-31" d="m59.3,193.02c.53,0,1.07,0,1.6,0,.69.34,1.05.96,1.35,1.63.31.66.55,1.35.73,2.06.48,2.14.21,4.39,1,6.49.87,4.17,2.43,8.15,3.31,12.32.86,3.84,2.23,7.51,3.61,11.19.94,2.26,1.71,4.59,2.53,6.9,4.61,11.15,10.03,21.91,15.54,32.63.97,1.89,2.29,3.69,1.67,6.03-.41.72-.88,1.28-1.82.85-4.32-5.44-6.93-11.82-9.76-18.06-.45-.98-1.04-1.6-1.91-2.08-1.07-.74-1.24-1.79-1.06-2.97-3.6-8.21-8.3-16.14-10.52-24.7-2.57-9.9-7.03-19.49-6.77-30.06-.18-.81-.48-1.65.5-2.21Z"/><path class="cls-30" d="m317.06,135.03c-.85.42-1.04,1.19-1.09,2.04-3.58.18-4.92-3.04-7.01-4.89-13.36-11.9-28.85-14.32-45.12-6.84-3.47,1.6-6.76,3.49-10.06,5.4-1.53.88-2.99,2.23-5.02,1.32-.41-.77-.29-1.52.12-2.25,9.45-7.66,20.37-12.12,32.38-12.53,14.81-.5,26.72,6.06,35.78,17.74Z"/><path class="cls-52" d="m248.9,129.81c.06.83.11,1.65.17,2.48.27.94-.21,1.65-.74,2.34-1.01,1.12-2.08,2.17-3.1,3.28-2.2,2.24-4.47,4.42-6.6,6.72-2.23,3.06-5.03,5.66-7.12,8.83-3.84,4.83-7.04,10.12-10.83,14.99-.83,1.2-1.41,2.68-3.17,2.82-1.46-.9-1.12-2.07-.5-3.29,8.59-14.44,18.51-27.75,31.91-38.17Z"/><path class="cls-45" d="m168.88,181.49c.05-.78.1-1.57.15-2.35,11.93,7.37,21.43,16.83,26.2,30.38.08.22.5.32.77.47,1.4.2,1.08,2.26,2.56,2.38.58,2.21.14,3.98-2.17,4.91-1.92-.79-2.45-2.67-3.15-4.29-4.69-10.75-11.55-19.75-20.96-26.81-1.57-1.18-3.26-2.4-3.39-4.68Z"/><path class="cls-39" d="m197.95,212.04c-1.84.45-1.11-1.56-1.96-2.05,2.61-5.69,5.26-11.35,7.81-17.06,3.84-8.61,7.83-17.14,13.19-24.94.21,1.02.42,2.05.62,3.07,1.55,2.2-.42,3.63-1.25,5.23-4.42,8.53-8.99,17-12.6,25.92-1.15,2.66-2.65,5.16-3.59,7.92-.34,1-.61,2.3-2.23,1.91Z"/><path class="cls-29" d="m386.97,187.14c1.69-1.25,3.16-1.44,5.35-.47,6.92,3.06,13.11,7.4,19.8,10.83,2.58,1.32,2.36,3.35,1.24,5.4-.77,1.42-1.91,2.65-2.9,3.96-2.55,3.4-5.79,6.47-5.45,11.27-1.34-1.04-3.2-1.52-3.75-3.43-.09-.98.32-1.78.9-2.53,2.41-2.67,3.74-6.13,6.43-8.48-4.61,2.2-10.53,1.75-13.83,6.62-1.07-.08-1.59-.88-2.16-1.61-2.45-2.27-5.6-1.08-8.39-1.64-1.58-.32-1.8.94-1.93,2.14-.19,1.75.1,3.62-1.26,5.08-.72.36-1.43.36-2.15.01-1.56-1.75-1.14-3.93-1.25-5.99-.11-1.93.01-3.91-1.91-5.16-.9-.86-2-1.59-2.23-2.96.03-.83.45-1.39,1.19-1.74,2.17-.6,3.65.94,5.39,1.71.85.4,1.72.74,2.58,1.09,2.28,1.25,4.71,1.71,7.28,1.47,2.34-.07,2.61-1.5,2.26-3.38-.57-3.06-1.08-6.14-2.47-8.97-.47-1.46-3-1.17-2.76-3.23Z"/><path class="cls-60" d="m448.79,335.93c-.3-.68-.6-1.37-.91-2.05v-.04c.82.39.61,1.4.91,2.09Z"/><path class="cls-42" d="m403.94,223.02c-.82.37-.96,1.13-1.08,1.9-.82,3-3,4.58-5.81,5.39-2.09.61,1.12,1.03,0,1.55-.87,1.18-2.16,1.31-3.47,1.37-7.31-.64-13.97-4.27-21.35-4.55-1.45-1.11-3.14-2.08-2.53-4.38,2.96-2.39,6.05-.43,8.98-.02,3.75.51,7.4,1.76,11.16,2.25,4.05.53,7.81-.41,9.81-4.22,1.71-3.27-1.23-.86-1.93-1.24-3.57.72-6.97-.37-10.41-.9-.48-.09-.95-.22-1.4-.37-3.45-2.1-6.9-2.27-10.36-.01-2.51.52-4.32-.96-6.21-2.25,1.52,1.99,2.23,4.02.8,6.33-.35.38-.77.6-1.28.68-3.72-1.11-3.45-4.67-4.55-7.39-.09-.8.09-1.52.64-2.13.41-.97,1.03-1.72,2.11-1.99,1.62-.18,2.29-2,3.86-2.27,2.13,2.62,4.03,5.83,8.23,3.29.72-.07,1.43-.14,2.15-.2.39-.25.82-.38,1.29-.36.45.1.86.27,1.25.51,1.53,1.39,3.35,1.97,5.4,1.89,1.34.06,2.62.41,3.92.71,1.29.22,2.55.15,3.75-.47,1.62-.49,2.9-2.49,4.94-1.11,1.35.74,3.48.69,3.17,3.12-.07,1.69.18,3.46-1.08,4.89Z"/><path class="cls-44" d="m370.86,211.05c-1,1.16-1.91,2.51-3.79,1.97,1.27-.73,1.44-1.57.99-3.09-1.32-4.39-2.04-8.97-3.54-13.29-.83-2.39.07-3.88,1.77-4.23,6.99-1.42,13.46-4.83,20.68-5.29.88,1.52,3.2.17,3.94,1.98-2.09,3.01-3.43,6.68-7.21,8.21-1.16-.28-1.39-1.13-1.33-2.16.29-1.48,1.29-2.62,2.17-4.39-2.72.35-4.96,1-7.1,2.08-1.4.86-3.07.98-4.52,1.61-1.71.74-.36,1.36.32,1.92.88.67,2.06,1.13,1.83,2.58-.42.46-.83.92-1.25,1.38-4.03-.38-4.28,1.69-3.03,4.71.42,1.59,1.15,3.12.89,4.84-.14.47-.42.86-.81,1.16Z"/><path class="cls-58" d="m364.96,215.01c.02.63.03,1.25.05,1.88-.72,1.02-1.82,1.26-2.96,1.4-9.33.13-18.11,2.96-26.94,5.53-2.32.68-4.5,2.17-7.1,1.25.3-2.01-.81-4.28,1.05-6.02-.37,3.61,1.75,2.56,3.55,1.82,10.38-4.23,21.21-5.88,32.36-5.86Z"/><path class="cls-40" d="m214.08,392.92c-4.16,3.53-7.05-.94-9.43-2.41-17.8-10.98-35.24-22.55-50.55-36.94-6.11-5.75-12.53-11.19-18-17.6.53-.89,1.34-1.32,2.36-1.4,2.63.58,4.08,2.74,5.79,4.49,10.8,11.03,22.49,21.02,34.9,30.19,1.75,1.43,3.48,2.88,5.45,4.02,4.75,2.68,8.89,6.26,13.6,8.99,1.61,1.24,3.4,2.2,5.19,3.14,3.53,2.5,7.65,4.16,10.61,7.48l.09.05Z"/><path class="cls-13" d="m138.04,335.12c-.65.28-1.29.56-1.94.84-12.58-12.03-23.24-25.66-33.22-39.86-5.18-7.36-10-14.95-14.06-23,.43-.41.87-.83,1.3-1.24,2.4-.23,2.96,1.76,3.73,3.28,1.28,2.51,3.15,4.6,4.6,6.97.26.38.49.79.72,1.19,9.74,16.25,21.84,30.69,34.26,44.89,1.83,2.1,3.94,4.03,4.6,6.92Z"/><path class="cls-24" d="m242.02,360c-1.77,2.5-3.6,4.95-6.03,6.88-2.17-3.02.1-4.85,1.84-6.82,1.59-1.81,2.85-3.18-.63-4.71-3.07-1.35-.56-3.67.49-4.74,4.99-5.09,8.99-10.98,13.71-16.29,3.28-3.69,7.01-7.06,8.67-11.94,2.89-5.9,7.66-10.44,11.43-15.71,21.23-29.67,36.97-61.93,46.58-97.15.7-2.56,1.33-5.17,2.83-7.44,1.19-1.27,1.61-2.82,1.82-4.5,1.24-9.78,3.27-19.48,2.87-29.43-.12-2.88-.5-6.05,2.39-8.14,2.37,3.65,2.12,7.99,3.12,12,.58,6.35.58,12.7,0,19.05-3.13,32.96-15.14,62.83-31.36,91.35-9.21,16.2-19.5,31.54-31.78,45.55-2.86,2.02-4.57,4.89-5.97,7.99-.32.34-.64.68-.96,1.02-2.51.73-3.07,3.02-4.03,5-.3.99-1.01,1.59-1.89,2.03-1.51.87-1.78,3.36-4.11,3.17-.87-.57-.58-2.6-2.25-2.05-1.48.49-2.33,1.84-2.6,3.32-.31,1.74,1.98.69,2.32,1.88.38.98.13,1.86-.43,2.69l.02-.02c-2.81,1.65-4.61,4.17-6.04,7.01Z"/><path class="cls-5" d="m321,203.02c-3.36,15.76-9.13,30.71-15.27,45.55-6.01,14.52-13.29,28.33-21.74,41.58-6.4,10.03-12.92,19.95-20.64,29.03-.95,1.12-1.58,2.51-2.36,3.77-6.86,8.96-14.92,16.85-22.51,25.15-11.71,12.81-24.24,24.86-35.5,38.09-2.02-.45-3.7-1.49-5.03-3.07-.34-.42-.43-.89-.29-1.4,2.99-4.21,6.55-7.98,10.13-11.62,7.71-7.82,15.02-16,22.68-23.85,10.19-10.45,20.03-21.22,29.49-32.33,9.73-11.43,17.71-24.11,25.23-37.04,12.41-21.33,21.85-44.01,28.5-67.75,6.69-23.88,5.72-47.62-2.82-70.98-.28-.78-.33-1.85-1.09-2.17-8.07-3.37-13.95-11.09-23.89-10.93-10.23.16-19.82,1.63-28.18,7.98-1.32,1-2.55,2.3-4.19,2.65-2.06.44-4.53,1.61-5.56-1.66.36-.58.72-1.15,1.09-1.73,7.01-4.68,14.17-9.14,22.47-11.12,16.43-3.92,30.26.78,41.65,13.08.9.97,1.86,1.88,2.79,2.82,1,1.65,2.01,3.31,3.01,4.96,3.47,6.27,4.57,13.33,5.1,20.16.92,11.72,1.03,23.56-1.1,35.26-.36,1.99-.82,3.89-1.99,5.57Z"/><path class="cls-23" d="m328,225.07c10.94-4.09,21.93-7.98,33.85-7.89,2.23,2.32,4.08,4.77,2.86,8.29-12.64,1.7-24.62,5.59-36.15,10.98-1.4.65-2.85,1.95-4.53.49,1.32-3.95,2.65-7.91,3.97-11.86Z"/><path class="cls-16" d="m282.86,313.89c1.1-1.59,2.2-3.19,3.3-4.78,3.02,1.05,2.44,3.92,2.99,6.14,3.46,14.15,8.58,27.52,17.73,39.08,1.03,1.31,2.19,2.49,3.46,3.57,1.46,1.34,3.4,2.21,4.15,4.25.17,1.15-.23,1.99-1.35,2.42-6.3-1.54-9.45-6.95-13.31-11.28-6.36-7.11-10.31-15.77-14.16-24.43-.65-5.05-4.38-9.52-2.81-14.98Z"/><path class="cls-25" d="m321,203.02c.62-6.39,1.91-12.67,2.14-19.17.51-14.19-1.26-28.04-4.15-41.83,4.89,5.05,7.41,11.28,9,17.98-.74,2.54-1.23,5.1-1.02,7.77.82,10.59-1.85,20.85-3.03,31.25-.2,1.81-.61,3.65-2.93,3.99Z"/><path class="cls-7" d="m309.96,359.02c-9-8.06-13.99-18.6-17.88-29.7-2.32-6.62-3.97-13.47-5.92-20.21.62-1.02,1.23-2.05,1.85-3.07,2.67.24,2.23,2.58,2.49,4.12,2.04,11.81,6.85,22.43,13.42,32.34.79,2.36,2.37,4.22,3.8,6.21,2.18,3.04,4.09,6.32,2.23,10.32Z"/><path class="cls-51" d="m303,342.92c-7.56-10.45-12.18-22.09-14.01-34.84-.12-.81-.01-1.66-.97-2.05.95-1.35,1.89-2.71,2.84-4.06.32,14.22,6.2,26.53,13.34,38.36,1.24,2.05,3.23,3.64,4.88,5.45.41.66.53,1.34.19,2.07-4,.79-4.3-3.13-6.26-4.93Z"/><path class="cls-11" d="m324.02,236.93c7.68-2.32,14.64-6.43,22.41-8.65,6.06-1.73,12.14-2.84,18.37-3.41,1.14-1.37,2.76-.32,4.07-.82.45-.07.91-.14,1.36-.21,0,0-.07-.06-.07-.06-.64,1.91,1.83,2.46,1.8,4.11-7.47-2.06-14.62-.15-21.76,1.77-9.14,2.46-17.79,6.16-26.25,10.35.02-1.02.04-2.04.06-3.07Z"/><path class="cls-47" d="m282.86,313.89c1.36,5.03,2.72,10.06,4.09,15.1-.95.8.11,2.24-.96,2.99-2.62-2.97-2.5-7-3.96-10.43-.52-1.23-.75-2.39-2.15-2.85-.37-2.45,1.35-3.6,2.98-4.82Z"/><path class="cls-48" d="m331.1,191.06c0-6.35,0-12.7,0-19.05,1.46,6.35,1.37,12.7,0,19.05Z"/><path class="cls-21" d="m261.99,335.95c.55-3.74,2.02-6.8,5.97-7.99-1.01,1.62-2.01,3.24-3.02,4.86-.98,1.05-1.97,2.09-2.95,3.14Z"/><path class="cls-50" d="m447.88,333.88c.31.68.61,1.37.91,2.05-1.91,4.09-4.88,7.46-7.55,11.04-.27.23-.39.52-.36.87-.62.41-2.94,4.95-3.57,5.37-.01-.02-3.19-.7-3.2-.72.21-1.34,4.7-5.76,2.85-5.01-.05.02-.1.04-.14.06-.2-.46-.1-.94.23-1.28,3.77-3.93,6.06-9.08,10.39-12.54.17.03.32.07.44.12v.04Z"/><path class="cls-50" d="m438.89,349.05c.28.67-.55,2.34-.83,2.92-1,2.05-2.91,3.63-4.68,5.01-15.82,12.34-34.39,21.54-54.22,24.63-15.83,2.47-32.47.88-47.27-5.43-13.4-5.71-25.91-12.62-34.83-24.52-3.24-4.32-5.98-9.01-8.33-13.87-.94-1.94-1.84-3.88-2.76-5.82.07-1.08-.19-2.27.97-2.99,4.94,13.26,12.84,24.47,23.36,33.9.79.7,1.57,1.19,2.65,1.08,5.26,1.33,10.19,3.26,13.99,7.31l.39-.15c7.03.36,13.28,3.72,20.07,5.19,23.05,5,44.71,1.81,65.2-9.74,7.56-4.43,14.34-9.85,20.55-16.02,1.12-1.11,2.15-2.36,3.66-3.02.07.17.19.33.35.49.51.51,1.29.1,1.72,1.02Z"/><path class="cls-50" d="m450.49,331.94c-.72,1.29-.35,3-1.7,3.99-.3-.69-.09-1.7-.91-2.09-.36-3.85,1.91-6.95,3.12-10.3,9.85-27.29,3.01-50.77-15.65-71.92-8.83-10.01-19.26-17.77-30.69-24.38-.89-.57-1.68-1.23-2.13-2.21-.11-1.08-.24-2.18,1.41-2.01,8.32,5.03,16.84,9.77,24.09,16.39,11.89,10.86,22.12,22.97,27.25,38.54,6.13,18.62,4.79,36.71-4.79,53.99Z"/><path class="cls-23" d="m405.04,226.14c17.03,9.03,30.99,21.49,41.3,37.79,8.02,12.69,11.58,26.89,10.39,41.7-.79,9.82-3.9,19.45-8.84,28.25-3.57,4.72-7.15,9.43-10.72,14.15-6.75,7.46-14.34,13.91-23.03,19.04-1,.46-1.39-.15-1.67-.95.18-3.06,2.59-4.44,4.64-6.07,9.23-7.35,17.71-15.18,23.54-25.82,5.42-9.88,7.54-20.29,7.98-31.28,1.15-16.31-2.72-31.2-12.62-44.34-7.75-10.28-17.75-17.66-29.63-22.52-2.29-.94-4.58-1.84-6.45-3.52.09-3.42,2.79-4.77,5.12-6.43Z"/><path class="cls-15" d="m412.9,365.85c.41.4.82.81,1.23,1.21-9.95,6.72-21.2,9.83-32.85,11.83-17.85,3.06-34.88-.55-51.61-6.47-.78-.27-1.57-.49-2.36-.74-4.79-2.57-9.57-5.15-14.36-7.72.8-.41,1-1.13,1.01-1.95,1.64-.66,2.94.3,4.17,1.04,13.08,7.9,27.47,12.09,42.5,12.93,13.85.78,27.96.83,40.62-6.68,3.77-1.5,7.24-4.05,11.64-3.47Z"/><path class="cls-46" d="m392.46,156.92c1.09,4.35-1.73,7-1.57,10.23.05.96-1.15.96-1.97.86-1.17-.14-1.18-1.1-.94-1.83.98-2.97,1.66-6.12,4.48-9.26Z"/><path class="cls-12" d="m411.11,180.53c2.69-2.74,4.98-6.15,10.56-6.69-3.49,3.7-5.99,6.68-10.56,6.69Z"/><path class="cls-11" d="m356.34,169.71c4.74.93,7.43,4.67,10.49,7.84.28.29.09,1.37-.24,1.81-.5.66-1.23.16-1.69-.26-3.08-2.88-6.59-5.37-8.57-9.39Z"/><path class="cls-25" d="m202.98,386.19c1.61-6.16,6.79-9.72,10.8-13.9,6.51-6.79,12.71-13.89,19.4-20.49,9.51-9.39,17.58-20.17,27.81-28.85-.23,2.47-1.74,4.18-3.34,5.91-6.39,6.87-11.53,14.82-18.32,21.36-1.15,1.11-1.85,2.68-2.78,4.07,1.46.88,3.68-1.6,4.28,1.12.38,1.74.6,3.59-1.38,4.86-2.36,1.51-3.92,3.56-3.46,6.61-5.47,7.74-12.98,13.67-18.77,21.12-1.19,1.53-2.95,2.73-3.22,4.88-4.11-1.51-7.64-3.96-11.01-6.68Z"/><path class="cls-21" d="m251,346.96c1.77-.43,1.87-3.18,4.11-2.96-1.82,3.42-4.04,6.53-7.07,9.02-.01-1.02-.03-2.04-.04-3.06.09-1.9,1.09-2.9,3-3Z"/><path class="cls-21" d="m242.02,360c.01-4.06,1.92-6.48,6.04-7.01-1.42,2.84-3.64,5.01-6.04,7.01Z"/><path class="cls-21" d="m257,341.97c-.19-2.9.22-5.32,4.03-5-1.34,1.67-2.69,3.33-4.03,5Z"/><path class="cls-5" d="m315.24,147.63c-1.58-5.44-.62-13.57-9.63-14.6-.78-.09-1.53-1.24-2.14-2.01-5.62-7.11-14.14-7.67-21.64-7.36-9.51.39-19.29,2.47-26.71,9.76-2.17,2.13-4.6,2.36-7.14.6-1.03.92-2.06,1.83-3.09,2.75-.78,3.97-3.19,6.34-7.13,7.19-1.7,3.5-5.65,5.21-7.11,8.9.28,3.19-.83,5.99-3.11,8.02-2.63,2.35-4.54,5.21-6.6,7.97-1.63,3.41-2.17,7.13-4.08,10.55-6.16,11.04-11.96,22.3-15.4,34.58-.16.45-.31.89-.44,1.36-2.86,5.12-6.86,5.78-10.56,1.49-1.95-2.26-4.11-4.36-5.73-6.9-.42-.55-.9-1.05-1.45-1.47-3.67-2.63-6.85-5.75-9.48-9.43-.27-.37-.57-.72-.91-1.03-5.33-4.75-11.08-8.97-16.92-13.07-.36-.28-.74-.54-1.14-.76-2.9-1.27-5.14-3.54-7.86-5.07-5.18-3.92-11.46-5.97-16.7-9.81-3.11-1.92-7.11-2.23-9.66-5.2-7.55-4.7-15.94-7.1-24.55-8.87h-5c-1.47,1.4-3.14,1.62-4.98.9-1.52-.3-2.85.05-4.02,1.06-2.09,3.37-3.95,6.98-8.75,7-.81.01-1.44.71-1.9,1.45-4.62,7.29-7.39,15.18-7.48,23.86-.02,2.42-1,4.08-2.69,5.54.19.36.39.71.58,1.07,2.95,1.87.97,4.61,1.23,6.96.09,4.56,1.97,8.67,3.17,12.96,5.46,2.23,3.34,7.09,3.83,11.04.26,2.49,1.25,4.73,2.3,6.95,1.19,3.04,2.35,6.07,3.82,9.02,4.8,9.54,9.32,19.22,13.95,28.84,3.52,3.11,4.25,8.16,7.84,11.23,4.53,1.13,5.78,5.38,8.4,8.45,4.25,4.98,7.87,10.17,10.82,16.03,2.1,4.17,4.44,8.55,9.55,10.29,2.32.8,3.5,2.96,4.01,5.39.69,3.36,2.69,5.67,5.86,6.9,2.11.81,3.54,2.36,5.03,3.96,4.27,4.58,9.51,8.32,11.95,14.46.5,1.27,2.12,1.47,3.36,1.96,7.9,3.16,12.99,10.11,19.79,14.76,1.61,1.1,1.36,3.33,2.15,4.96,1.27,1.84,3.12,2.89,5.11,3.77,2.39-.77,4.4.33,6.62,1.03,3.71,1.17,4.4,5.21,7.41,6.89,1.01-.85,2.12-1.61,3.03-2.56,10.9-11.53,21.93-22.96,32.54-34.76,2.35-2.62,5.78-4.1,7.45-7.07,2.89-5.13,7.35-9.01,11.27-12.95,11.24-11.28,19.91-24.41,28.35-37.59,6.97-10.86,13.94-21.92,18.17-34.42,3.88-11.47,9.96-22.08,13.44-33.79,3.83-12.87,6.74-25.73,6.87-39.31.1-10.88-.9-21.58-3.9-31.87Zm-224.51,24.93c.03,3.17-2.67,5.46-2.77,8.59.15.65.33,1.3.51,1.96-1,2.57-2.93,4.88-2.22,7.92-.25.14-.54.27-.84.39-1.06,3.69-1.3,7.27,1.42,10.45.43.26.84.52,1.21.79.05,1.75.11,3.51.17,5.27-.13.11-.28.23-.43.34-.02,1.04.5,1.77,1.33,2.32.12.04.23.08.34.12.42,2.46,1.7,4.61,2.61,6.89-.18.23-.36.46-.55.71-.59,1.98.1,3.37,1.95,4.22.28.01.55.03.8.06,1.41,3.02,1.19,6.84,3.98,9.2-.06.2-.1.39-.12.6.66,4.29,1.87,8.31,5.5,11.13.04.02.08.05.11.07-.63,1.26.2,2.45.69,3.56,1.64,3.81,2.5,7.91,4.41,11.62.94,1.83,1.42,3.99-.4,5.5-1.83,1.52-3.56.08-4.84-1.13-6.48-6.15-13.51-11.92-16.79-20.65-2.16-5.75-5.37-11.03-7.29-16.89-.43-1.3-.82-2.94-2.3-3.46,0-.06.03-.12.04-.18.11-2.12-.22-4.13-1.56-5.87-.26-.15-.51-.3-.74-.44.35-2.53-1.22-4.6-1.88-6.89.12-.19.26-.38.4-.58.6-1.11.69-2.27.37-3.47-.12-.33-.27-.64-.47-.92-.01.04-.02.09-.03.13l-.17.25-.29-.08c-.33-.55-.64-1.1-.9-1.66.27.35.64.69,1.12,1.03.01.01.03.02.04.03.08.1.16.2.23.3,1.49-5.92.41-11.93.6-17.9-.12.47-.24.94-.36,1.41-.3,2.12,6.84,1.28,5.3,3.08-.09-.12-2.79-2.94-2.86-3.06.51-1.97-2.93,1.95-2.43-.02.06-.48.17-.96.36-1.41.01-.15,0-.3-.03-.45.08-.05.17-.11.26-.16.27-.39.42-.82.47-1.29-.06-.12-.13-.25-.18-.37,2.32-4.87,2.86-10.83,8.5-13.64,1.14-1.15,3-.58,4.29-1.35.06.03.11.06.17.09,1.41,1.01,3.54,1.41,3.28,3.84Zm-18.86,25.47c.03.22.07.43.14.64-.31.52-.52,1.04-.6,1.55-.04-.7.1-1.42.46-2.19Z"/><path class="cls-5" d="m72.01,198.67c-.31.52-.52,1.04-.6,1.55-.04-.7.1-1.42.46-2.19.03.22.07.43.14.64Z"/><path class="cls-5" d="m73.37,203.79s-.02.09-.03.13l-.17.25-.29-.08c-.33-.55-.64-1.1-.9-1.66.27.35.64.69,1.12,1.03.01.01.03.02.04.03.08.1.16.2.23.3Z"/><path class="cls-25" d="m168.88,181.49c7.32,6.35,15.18,12.2,20.05,20.86,2.65,4.72,4.91,9.67,7.34,14.51-3.61.9-4.92-2.23-6.56-4.15-20.85-24.34-47.15-40.78-76.32-53.16-1.69-.72-4.12-.66-4.34-3.36,7.51.36,14.52,2.79,21.32,5.67,2.2.93,4.41,1.72,6.66,2.46,2.04,3.49,6.36,2.55,9.1,4.68,5.96,1.64,10.6,5.72,15.88,8.62,2.3,1.26,4.57,2.57,6.86,3.86Z"/><path class="cls-5" d="m109.05,156.19c5.7,2.58,11.45,5.05,17.08,7.76,16.71,8.07,32.61,17.61,46.64,29.71,6.15,5.3,12.14,11.14,17.25,17.68,1.68,2.15,3.42,4.53,6.25,5.52,1.16-1.4,2-2.91,1.68-4.82,1.58-3.39,3.15-6.78,4.73-10.18,3.8.23,3.53,3.24,2.03,4.69-2.63,2.55-2.42,5.47-2.7,8.47-3.04,6.18-8.54,6.81-12.49,1.35-1.65-2.29-4.04-3.91-5.5-6.34-.33-.33-.67-.67-1-1-3.71-2.96-7.04-6.29-10-10-5.33-5.52-11.58-9.86-17.99-13.99-2.83-1.4-4.93-3.97-8-5-5.62-3.4-12.04-5.46-16.99-10-2.94-2.46-7.01-2.65-10-5-7.23-3.98-14.81-6.99-23.03-8.26-.39-.06-.64-1.02-.96-1.56,2.95-1.64,5.82.22,8.74.22,1.42,0,2.84.48,4.25.75Z"/><path class="cls-5" d="m82.06,157.18c-.31,4.75-2.34,7.82-7.56,7.9-.62,0-1.76.36-1.76.56-.06,4.07-4.95,5.9-5.11,9.02-.28,5.45-3.56,10.36-2.32,15.99.66,3-.69,4.8-4.07,4.37-.11-.67-.22-1.34-.33-2.01.17-6.26.93-12.38,2.93-18.39.6-1.82,1.38-3.25,2.59-4.58,2.18-1.52,4.12-3.23,4.62-6.04.29-1.1,1.17-1,2-.99,3.52.12,5.12-2.56,7.01-4.82.67-.33,1.33-.67,2-1Z"/><path class="cls-5" d="m80.06,158.19c-1.21,5.16-2.81,6.26-7.01,4.82,1.83-2.34,4-4.19,7.01-4.82Z"/><path class="cls-25" d="m146.14,169c-1.9-.33-3.8-.82-5.71-.93-2.5-.15-3.47-1.4-3.39-3.75,3.25,1.14,6.52,2.25,9.1,4.68Z"/><path class="cls-5" d="m71.05,164.01c.2,3.34.25,6.58-4.62,6.04-.19-3.34,3.2-3.94,4.62-6.04Z"/><path class="cls-5" d="m91.06,155.22c-1.08,3.52-2.73,3.86-4.98.9,1.55-.93,3.19-1.32,4.98-.9Z"/><path class="cls-5" d="m66.22,216.02c4.43.42,6.39,3.25,5.1,7.41-.38,1.23-.85,2.42-1.27,3.64-1.93-3.45-2.83-7.27-3.83-11.04Z"/><path class="cls-5" d="m61.82,196.1c5.07,1.5,3.13,4.24,1.23,6.97-1.42-2.14-.72-4.66-1.23-6.97Z"/><path class="cls-5" d="m202.02,215.02c-.53-3.12-2.05-6.16,2.05-8.59,1.94-1.14.91-3.56-1.39-4.57,3.65-9.44,8.46-18.33,13.2-27.24.62-1.17,1.16-2.38,1.73-3.57.78-1.03,1.57-2.07,2.35-3.1.9-.04,1.52.43,2.05,1.09-1.84,10.63-8.96,18.95-12.89,28.73-2.29,5.7-4.08,11.78-7.1,17.25Z"/><path class="cls-5" d="m222.01,169.04c-.86-.02-1.62-.25-2.05-1.09,3.24-5.25,6.54-10.47,10.69-15.08,3.26,3.37.25,6.32-1.53,8.12-2.53,2.57-4.63,5.47-7.11,8.05Z"/><path class="cls-5" d="m244.89,136.77q.24,7.39-7.13,7.19c2.38-2.4,4.75-4.79,7.13-7.19Z"/><path class="cls-43" d="m396.69,217.17c-1,1.18-2.35.62-3.56.71-1.99-3.2-.27-5.59,1.73-7.93,2.63-7.5,10.21-4.58,15.07-7.5-2.56,3.58-4.07,7.68-7.29,10.54-1.06-1.21-.37-2.87-.9-4.49-3.05,2.36-3.85,5.63-5.04,8.66Z"/><path class="cls-54" d="m388.8,216.86c-2.78.73-4.51-.75-5.97-2.82.95-1.64,5.11-1.03,3.83-3.38-1.25-2.28-2.47.07-2.9,1.7-.17.65-.34,1.26-.85,1.73-.54-.09-1.07-.18-1.61-.26-.26-2.77-1.33-6.22.28-8.06,1.01-1.16,4.82-.13,7.3.32,1.65.31,4.1-1.18,4.87,1.72-.75,3.51.15,7.93-4.96,9.04Z"/><path class="cls-53" d="m370.86,211.05l.25-1.14c4.46-.41,3.39-4.09,4.01-6.78.18-.43.46-.79.83-1.07,2.06.63,3.25,1.59,2.93,4.17-.31,2.55.15,5.2.27,7.81-4.32,4.55-5.69,4.06-8.3-2.99Z"/><path class="cls-32" d="m383.91,197.01c2.31-2.65,3.65-6.17,7-7.9.98,3.55,2.07,7.08,2.92,10.66.75,3.17-.04,5.17-3.91,4.04-2.01-2.02-.34-4.77-1.22-7-1.95-.42-2.86,1.93-4.66,1.4-.26-.24-.36-.5-.31-.78.05-.28.11-.43.18-.43Z"/><path class="cls-1" d="m383.95,197.85c2.11-.57,2.94-4.29,5.03-3.27,2.58,1.26.75,4.46,1.09,6.78.12.8-.09,1.64-.14,2.46-2.73.06-5.64.85-7.72-1.83-.77-1.95-.73-3.56,1.75-4.13Z"/><path class="cls-34" d="m376.63,192.01c3.05-1.87,6.44-2.42,10.58-2.99-1.65,2.45-2.91,4.31-4.17,6.18-1.2,1.75-.7,4.48-3.17,5.51-2.03.6-2.99-1.76-4.81-1.73-.72-.6-1.44-1.2-2.15-1.8,1.89-1.97,5.56-1.53,6.42-4.75-.95.65-1.87.51-2.7-.41Z"/><path class="cls-22" d="m396.69,217.17c-1.24-4.39,2.02-6.96,4.14-9.94.42-.6,1.48-1.01,2.21-.37.4.35.61,1.19.54,1.76-.2,1.47-.62,2.92-.95,4.37-.26.67-.52,1.35-.78,2.02-2.18-.37-2.93,2.68-5.16,2.16Z"/><path class="cls-20" d="m401.34,194.87c1.7-.13,2.33,1.29,3.29,2.24,1.75,1.11,2.42,2.33.42,3.85-1.33,1.21-2.98,1.09-4.59,1.11-3.72-.7-3.83-4.22-3.66-6.45.25-3.19,2.87-1.1,4.55-.75Z"/><path class="cls-41" d="m401.34,194.87c-4.29-.08-4.91.81-2.96,4.46.53,1,1.37,1.83,2.08,2.74-1.67,1.3-3.29,2.22-3.58-1.02-.33-3.61-1.86-6.88-2.98-11.04,3.11,1.37,5.49,2.76,7.46,4.86Z"/><path class="cls-33" d="m375.96,202.06c-.04.4-.08.81-.12,1.21-2.07.33-3.95,1.2-5.83,2.08-.71-2.24-1.42-4.48-2.35-7.43,2.49.98,4.32,1.7,6.16,2.42.72.57,1.43,1.14,2.15,1.71Z"/><path class="cls-38" d="m388.8,216.86c3.72-1.88,2.81-6.3,4.96-9.04.36.71.73,1.42,1.09,2.13.11,2.79-2.35,5.02-1.73,7.93-1.44-.34-2.88-.68-4.32-1.02Z"/><path class="cls-28" d="m379.88,200.7c.57-2.12,1.46-4.05,3.17-5.51.03.73,0,1.49.87,1.82.05.28.06.56.03.84-1.73.89-.54,3.02-1.75,4.13-1.12.19-1.86-.29-2.32-1.29Z"/><path class="cls-55" d="m405.05,200.96c.68-1.37.12-2.61-.41-3.85,2.32-.55,3.71.84,5.07,2.42-1.44.95-2.92,1.58-4.66,1.43Z"/><path class="cls-9" d="m405.04,226.14c-1.09,2.42-2.95,4.17-4.99,5.76-1.44,1.27-2.34.24-3.24-.76-.34-.29-1.8-.45-.49-1.04,2.65-1.21,4.32-3.52,6.55-5.18.73.41,1.45.82,2.18,1.23Z"/><path class="cls-35" d="m396.8,231.13c1.08.25,2.16.51,3.24.76,9.34,4.78,19.24,8.49,27.22,15.75,16.33,14.88,24.11,33.1,22.48,55.23-1.27,6.46-1.75,13.11-4.8,19.12-1.35,3.43-3.39,6.47-5.56,9.4-.88,1.19-1.41,3.24-3.69,2.46-.37-.76-.2-1.48.14-2.19,3.71-6.17,7.01-12.52,9.14-19.44,1.33-4.3,2.15-8.65,2.1-13.16.58-3.72.65-7.44-.03-11.16-3.83-20.11-13.41-36.2-32.07-45.96-6.34-4.77-14.05-6.62-21.1-9.89.98-.3,2.23.24,2.94-.93Z"/><path class="cls-16" d="m370.24,223.83c.64-2.32-1.83-4.21-.87-6.94,2.24.61,4.04,2.78,6.57,2.06,3.34-.9,6.66-.59,9.98.11h0c3.91,1.5,7.91,2.01,12.04,1.02,1.45-.68,2.91-1.35,4.55-2.12-1.38,7.83-6.66,11.31-14.43,9.72-5.99-1.23-11.95-2.6-17.91-3.91,0,0,.07.06.07.06Z"/><path class="cls-59" d="m368.88,224.05c-1.12,1.48-2.66.83-4.07.82-.99-2.57-1.97-5.13-2.96-7.7,1.05-.09,2.1-.19,3.15-.28,2.2,1.9.98,5.64,3.88,7.16Z"/><path class="cls-57" d="m385.92,219.06c-3.34,1.06-6.66.51-9.98-.11,3.36-3.47,6.69-2.92,9.98.11Z"/><path class="cls-57" d="m397.97,220.08c-4.16,1.41-8.26,2.1-12.04-1.02,4.09-.62,7.9,2.11,12.04,1.02Z"/><path class="cls-18" d="m370,205.35c1.38-2.27,2.96-3.98,5.83-2.08.05,1.16.03,2.33.15,3.48.45,4.29-1.38,4.98-4.87,3.16-.34-1.53-1.44-2.87-1.11-4.56Z"/><path class="cls-14" d="m376.63,192.01c1.12.67,3.33-1.03,3.54,1.23.17,1.74-1.33,3.03-2.93,3.53-1.35.43-2.89.28-4.34.39-1.27-.47-3.4-.86-3.24-2.04.21-1.58,2.09-2.45,3.89-2.17,1.26.19,2.23-.03,3.08-.94Z"/><path class="cls-5" d="m97.91,283.09c3.99-.44,6.46.98,7.85,5.08,1.43,4.23,5.32,6.98,7.96,10.51,3.18,4.26,4.24,9.57,7.93,13.61,1.3,1.42,2.4,2.8,4.12,3.54,3.42,1.47,5.88,3.56,6.32,7.58.31,2.84,2.08,4.72,4.87,5.56.78.23,1.83.32,2.25.87,4.42,5.69,11.25,9.25,14.32,16.14.5,1.13.47,2.62,2.24,2.97,4.5.9,7.95,3.28,11.1,6.75,2.9,3.19,6.95,5.32,10.34,8.1,2.01,1.65,3.43,3.72,1.66,6.47-13.67-9.4-25.75-20.66-37.53-32.27-1.04-1.02-1.72-2.48-3.31-2.87-14.45-16.51-29.45-32.61-40.13-52.04Z"/><path class="cls-5" d="m183.99,374.03c1-2.11,2.49-2.4,4.5-1.35,4.1,2.15,8.76,3.7,9.53,9.26-.02.39-.05.79-.07,1.18-5.18-2.23-9.26-6.13-13.96-9.1Z"/><path class="cls-25" d="m251,346.96l-3,3c-1.17.14-1.85,2.36-3.3.96-1.16-1.12-.56-2.35.3-3.48.59-.77.99-1.68,1.6-2.43.92-1.13,1.91-2.4,3.64-1.79,2.21.78.6,2.47.76,3.74Z"/><path class="cls-10" d="m435.97,334.05c3.12-3.72,5.53-7.9,7.97-12.07,1.78,2.14,1.11,4.26.05,6.45-3.49,7.25-8.87,13.08-13.82,19.3-7.73,9.7-17.84,16.04-28.22,22.2-5.9,5.39-13.51,6.14-20.8,6.87-12.94,1.3-25.73,1.19-38.62-2.47-10.19-2.9-19.65-6.78-28.55-12.31-1.34-1-2.67-2-4.01-3-.51-4.23-1.19-8.33-4.71-11.37-1.37-1.18-2.12-2.86-2.26-4.73,1.99,1.74,3.98,3.48,5.97,5.22,4.31,2.47,7.71,6.12,11.86,8.86,15.98,10.53,33.22,15.19,52.41,13.24,10.08-1.02,19.45-3.84,28.51-8.08,1.64-.77,3.47-1.28,4.05-3.33.85-.99,1.99-1.4,3.23-1.62,8.01-2.59,13.52-8.55,18.85-14.52,2.63-2.95,5.26-5.88,8.09-8.63Z"/><path class="cls-36" d="m405.8,358.83c2.46,2.41-.33,2.78-1.5,3.32-6.76,3.15-13.6,6.03-20.93,7.72-18.63,4.31-36.64,2.31-53.5-6.37-7.62-3.93-15.73-7.82-20.9-15.36.03-.79.07-1.57.1-2.36,11.59,11.91,25.74,19.11,41.87,22.61,1.92.42,3.91.46,5.87.68,5.41.59,10.81.76,16.21-.07,11.94-.11,22.43-4.91,32.78-10.17Z"/><path class="cls-36" d="m435.97,334.05c-6.65,9.69-14.47,18.15-24.92,23.86-.84.46-1.88,1.05-2.02-.71,10.47-6.9,19.13-15.7,26.8-25.54.05.79.1,1.59.14,2.38Z"/><path class="cls-17" d="m447.03,287.91c1.19,3.72,1.53,7.43.03,11.16-.01-3.72-.02-7.44-.03-11.16Z"/><path class="cls-6" d="m401.94,369.94c1.61-4.77,6.54-5.31,10.06-7.24,4.74-2.61,8.94-6.11,12.04-9.93,5.28-6.5,11.63-12.11,16.14-19.32,2.3-3.67,4.2-7.08,3.74-11.46,1.93-6.37,3.87-12.74,5.8-19.1.32,13.22-3.61,25.16-10.52,36.32-5.43,8.76-13.15,15.21-20.99,21.55-1.94,1.57-3.85,3.09-5.32,5.1-3.65,1.36-7.31,2.72-10.96,4.09Z"/><path class="cls-2" d="m103.67,243.28c.6,1.36,1.22,2.71,1.84,4.06,2.24,4.83,6.24,10.34,5.4,15.95-.21,1.41-.95,2.88-2.28,3.37-1.84.67-3.73-.75-5.17-2.08-3.52-3.23-7.06-6.48-10.18-10.1-6.88-7.98-10.73-17.64-14.47-27.37-1.29-3.36-2.58-6.72-3.83-10.1-.67-1.79-1.32-3.6-1.72-5.47-1.01-4.71-.35-9.53-.14-14.29s-.5-9.31.76-14.06c1.55-5.81,3.36-11.71,9.4-14.22,3.33-.23,6.74-.64,8.61,3.14,1.18,2.37-1.49,4.85-2.2,7-1.44,4.41-3.26,8.84-3.58,13.52s1.14,9.53,2.34,13.89c.44,1.61.94,3.23,1.86,4.63.47.72,1.05,1.37,1.41,2.15.55,1.2.51,2.58.66,3.89.59,5.18,4.24,8.62,6.21,13.18,1.83,4.25,3.2,8.68,5.08,12.91Z"/><path class="cls-3" d="m132.68,289.14c.51,1.95,1.01,3.9,1.52,5.85.88,4.35-1.33,7.02-5.69,6.46-4.61-.59-8.58-2.42-10.46-7.15-2.64-.79-3.29-3.12-4.13-5.31-1.75-1.34-3.37-2.76-3.35-5.23-.29-4.66,2.6-6.59,6.53-7.63,2.45-.86,4.5,1.33,6.89.88,4,3.25,7.57,6.81,8.69,12.12Z"/><path class="cls-5" d="m118.04,294.29c2.07,1.89,4.29,3.54,6.7,5.02,4.56,2.8,8.62,1.07,9.46-4.33,3.53-.16,4.28,1.95,3.67,4.81-.49,2.29-5.66,4.82-7.68,3.51-2.17-1.41-4.34-1.25-6.61-1.32-6.05-.21-7.22-1.85-5.54-7.68Z"/><path class="cls-5" d="m132.68,289.14c-2.9-4.04-5.8-8.08-8.69-12.12,5.13-1.43,6.97,3.74,10.4,5.6,1.63.88,1.53,4.96-1.71,6.52Z"/><path class="cls-5" d="m184.02,210.02c1.71,1.56,3.62,2.96,5.1,4.72,4.98,5.96,8.14,6.08,12.9.27-1.2,5.72-6.6,8.08-10.92,4.16-2.77-2.51-5.86-5.24-7.08-9.16Z"/><path class="cls-5" d="m155.04,185.03c7.08,3.27,13.4,7.53,17.99,13.99-6.15-4.47-12.33-8.9-17.99-13.99Z"/><path class="cls-4" d="m72.01,198.67c-.31.52-.52,1.04-.6,1.55-.04-.7.1-1.42.46-2.19.03.22.07.43.14.64Z"/><path class="cls-4" d="m73.14,203.49c.08.1.16.2.23.3-.01.04-.02.09-.03.13l-.17.25-.29-.08c-.33-.55-.64-1.1-.9-1.66.27.35.64.69,1.12,1.03.01.01.03.02.04.03Z"/><path class="cls-5" d="m195.44,233.96c-1.84.04-2.39-.96-2.39-2.51,0-1.65.79-2.38,2.42-2.4,1.95-.03,2.61.98,2.51,2.79-.09,1.75-1.13,2.22-2.54,2.13Z"/><path class="cls-5" d="m110.07,280.99c-2.22-1.19-2.79-3.13-1.24-4.92,1.42-1.64,3.5-1.72,5.24.02-.1,2.64-2.38,3.51-4.01,4.9Z"/><path class="cls-5" d="m111.02,284.04c.97,1.64,2.62,2.89,2.89,4.95-1.65,0-3.35.18-4.59-1.29-1.45-1.71-2.04-3.21.95-3.81.32-.34.57-.3.74.14Z"/><path class="cls-5" d="m173.03,199.03c3.74,2.92,7.07,6.25,10,10-4.54-2.12-7.87-5.46-10-10Z"/><path class="cls-5" d="m72.01,198.67c-.31.52-.52,1.04-.6,1.55-.04-.7.1-1.42.46-2.19.03.22.07.43.14.64Z"/><path class="cls-5" d="m73.1,203.46c-.04.21-.12.42-.22.63-.33-.55-.64-1.1-.9-1.66.27.35.64.69,1.12,1.03Z"/><path class="cls-5" d="m120.05,165.04c3.44,1.45,7.5,1.67,10,5-3.45-1.43-7.49-1.69-10-5Z"/><path class="cls-5" d="m147.04,180.04c3.7.01,5.66,2.81,8,5-3.48-.37-5.49-3.07-8-5Z"/><path class="cls-19" d="m382.91,214.1c-.17-.81-.43-1.61-.5-2.42-.18-2.3,1.15-3.34,3.26-3.45,1.98-.11,3.13.89,3.17,2.94.05,2.43-1.36,3.14-3.54,2.95-.82-.07-1.65-.05-2.48-.07,0,0,.08.06.08.06Z"/></svg>