<?xml version="1.0" encoding="UTF-8"?><svg id="Calque_2" xmlns="http://www.w3.org/2000/svg" viewBox="0 0 500 500"><defs><style>.cls-1{fill:#f6f6f6;}.cls-2{fill:#f2f1f2;}.cls-3{fill:#fc0001;}.cls-4{fill:#f8f7f8;}.cls-5{fill:#fff5f6;}.cls-6{fill:#ffd4d5;}.cls-7{fill:#fafafa;}.cls-8{fill:#ffcccd;}.cls-9{fill:red;}.cls-10{fill:#919191;}.cls-11{fill:#806c7b;}.cls-12{fill:#816d7b;}.cls-13{fill:#816d7c;}.cls-14{fill:#816e7b;}.cls-15{fill:#816e7c;}.cls-16{fill:#7f6b79;}.cls-17{fill:#7f6a79;}.cls-18{fill:#7f6e7b;}.cls-19{fill:#7f6c7a;}.cls-20{fill:#686868;}.cls-21{fill:#686065;}.cls-22{fill:#999196;}.cls-23{fill:#7e6c79;}.cls-24{fill:#7d6a78;}.cls-25{fill:#7d6c79;}.cls-26{fill:#332e31;}.cls-27{fill:#afaaac;}.cls-28{fill:#aeaaab;}.cls-29{fill:#aeaeae;}.cls-30{fill:#afabac;}.cls-31{fill:#aba6a7;}.cls-32{fill:#d60001;}.cls-33{fill:#d70001;}.cls-34{fill:#b0acad;}.cls-35{fill:#d80001;}.cls-36{fill:#140808;}.cls-37{fill:#121111;}.cls-38{fill:#171517;}.cls-39{fill:#171515;}.cls-40{fill:#161416;}.cls-41{fill:#211d20;}.cls-42{fill:#201d1f;}.cls-43{fill:#201f20;}.cls-44{fill:#414040;}.cls-45{fill:#151515;}.cls-46{fill:#110f11;}.cls-47{fill:#1e0e0e;}.cls-48{fill:#1e0404;}.cls-49{fill:#363435;}.cls-50{fill:#181415;}.cls-51{fill:#0a0a0a;}.cls-52{fill:#3e3a3d;}.cls-53{fill:#1a1719;}.cls-54{fill:#706e6f;}.cls-55{fill:#717171;}.cls-56{fill:#949494;}.cls-57{fill:#726c6f;}.cls-58{fill:#463b43;}.cls-59{fill:#898587;}.cls-60{fill:#646263;}.cls-61{fill:#5b5b5b;}.cls-62{fill:#262225;}.cls-63{fill:#262626;}.cls-64{fill:#3d3a3b;}.cls-65{fill:#343333;}.cls-66{fill:#84727f;}.cls-67{fill:#605f60;}.cls-68{fill:#605e5e;}.cls-69{fill:#757173;}.cls-70{fill:#7a7778;}.cls-71{fill:#5e5a5b;}.cls-72{fill:#525151;}.cls-73{fill:#836f7d;}</style></defs><path class="cls-45" d="m374,303.58c-.58.45-1.96-.25-1.78,1.25.37,7.12.93,12.5.65,20.76s1.12,25.35-2.99,27.93c-6.13,3.85-15.94,11.69-22.11,15.67-8.5,5.48-16.49,11.69-24.82,17.42-7.85,5.39-16.49,11.75-25.4,15.13-13.89,5.26-29.31,2.5-43.75,2.43-3.45-.02-36.34-.34-36.34,0,0-.62,22.86-2.85,22.86-3.47-.05-.06-.1-.11-.16-.16.06-.11.14-.21.23-.32,2.23-1.48,4.77-1.13,7.22-1.15,11.74-.05,23.47.04,35.2-.05,2.56-.02,5.45.47,6.93-2.58.8-1.73.58-3.5.2-5.28.41-10.27-1.05-20.46-1.53-30.69-.08-1.79-.17-3.45-2.69-3.02-.78.07-1.53,0-2.24-.33-.38-.29-.67-.65-.83-1.08-3.21-.32-6.43.16-9.64-.04-1.77-.11-3.69.2-4.92-1.61,1.08-2.74,3.54-1.85,5.48-1.92,5.8-.21,11.6.2,17.37-.99,4.45-.92,8.93-2.08,12.51-4.7,15.3-11.19,32.23-19.83,47.63-30.86,4.59-3.29,8.81-7.06,13.43-10.31,1.99-1.41,2.34-2.41-.61-2.69-19.8-2.03-39.64-1.74-59.48-1.63-4.05.03-8.21-.78-13.4,1.18,7.39,3.85,11.43,9.44,13.31,16.58,2.47,6.57,1.1,10.57-4.91,14.18-5.67,3.4-12.05,4.6-18.42,5.59-13.56,2.09-27.12,4.32-40.91,4.31-6.59.27-13.19.05-19.78.03-4.32.04-8.67-.58-12.94.58-10.84,1.29-21.52-.26-32.13-2.12-3.46-.61-7.17-1.87-8.46-6.01-.01-.89.24-1.66,1.04-2.15,2.95-.36,4.25,3.03,7.03,3.09,6.71,2.39,13.78,1.39,20.66,2.19,5.72.95,11.43.99,17.14-.11,4.77-.51,9.56-.33,14.34-.41,3.47.1,6.96.5,10.38-.53,3.39-.57,6.81-.25,10.22-.35,14.41-1.01,28.71-2.84,42.78-6.28,2.26-.56,4.52-1.12,6.48-2.46,2.91-1.98,4.4-4.03,2.21-7.79-2.04-3.51-2.33-8.03-6.14-10.53-1.49-.9-3.22-1.21-4.78-1.94-1.1-.72-1.68-1.77-1.96-3.01-.25-1.34-.43-2.7-1.1-3.93-1.85-3.83-4.6-6.45-9.08-6.77-.95-.36-1.7-.94-2.15-1.88-.24-.77-.17-1.48.43-2.07,4.96.67,9.36,2.54,12.95,6.1,6.68,1.22,13.42.23,20.13.55,7.81-1.7,15.75-.53,23.61-1.01,9.61-.06,19.22-.2,28.82.29,5.39.98,10.61,2.58,15.72,4.55,1.66,2.16-.52,1.92-1.51,2.41Z"/><path class="cls-45" d="m240.16,400.55c2.69,2.73-13.26,3.44-14.24,3.47-20.15.58-40.3,1.22-60.45,1.91-19.85.68-39.8,3.24-59.68,2.79-5.87-.13-11.8.85-13.14-6.14-.66-3.44-.6-6.82.51-10.15.06-8.41-.04-16.83.06-25.24.43-.98.46-2.47,1.94-2.38,1.41.08,1.5,1.5,1.7,2.55.39,2.07.33,4.18.26,6.28.09,8.59-.3,17.2.98,25.78.57,3.83,2.01,5.23,6.14,5.1,33.61-1.1,67.05-5.56,100.77-4.56,9.57.28,19.18-1.03,28.8-.85,2.2.05,4.57-.38,6.36,1.44Z"/><path class="cls-36" d="m213.23,99.96c13.65-8.92,34.18-7.75,42.98,6.48,5.8,9.38,5.29,19.09,1.41,29.01-1.64,4.2-4.17,7.88-6.34,11.78-3.41,2.32-6.04,5.73-10.17,7.07-1.39.45.55,1.2.08,1.85-.6.66-.18,1.75-1.01,2.31-.45.07-.86-.02-1.24-.27-.74-.81-1.47-1.64-2.72-1.59-4.43-.28-8.89.47-13.29-.52-1.58-.68-2.73-1.7-2.86-3.54,1.28-1.72,3.32-.9,4.94-1.48,3.92-.38,7.85-.17,11.77-.21,2.21-.02,4.21-.44,5.87-1.97,1.26-1.08,2.62-2.03,3.94-3.02.36-.28.73-.54,1.11-.79,1.91-1.35,2.86-3.35,3.69-5.44.88-2.19,2.06-4.25,2.91-6.45,2.57-8.55,3.16-16.9-2.3-24.68-1.2-1.46-2.47-2.85-3.68-4.3-1.76-1.93-3.94-3.15-6.43-3.87-7.64-2.78-15.17-2.29-22.64.63-1.82.71-3.51,1.87-5.57,1.9-2.43-.6-1.02-1.81-.47-2.89Z"/><path class="cls-39" d="m239.4,158.14c.26,0,.51.01.77,0,1.52,4.61-.02,9.4.83,14.05-1.27,2.17-.34,4.52-.56,6.78,1.03,4.34-.34,8.82.74,13.16.16,16.61,1.29,33.17,2.21,49.75,1.12,3.64-.29,7.47.78,11.11.03.5.1,1,.07,1.49-.37,4.93-.36,9.5,6.55,9.56,1.18.01,2.4,1.02,3.52,1.71,4.13,2.57,3.66,9.32,7.43,10.71,4.58,1.69,7.58,4.3,10.28,7.8,1.42,1.83,2.41,3.96,2.28,6.41-.03.59-.07,1.17-.1,1.76-.13.19-.27.37-.4.56-1.27-.25-1.86-1.31-2.6-2.2-2.75-4.8-5.57-9.46-11.42-11.18-2.01-.59-3.11-2.42-3.79-4.37-1.74-5.01-5.01-8.13-10.48-8.6-3.66-1.23-3.36-4.73-4.35-7.5-1.8-11.56-2.12-23.22-2.23-34.88-.19-4.39.57-8.82-.6-13.16-.44-2.06-.34-4.16-.39-6.24.01-3.88,0-7.76,0-11.63-.13-5.89.39-11.79-.33-17.67-.09-.6-.09-1.19-.02-1.79.65-3.38.23-6.8.39-10.2.09-1.91-.28-3.96,1.45-5.43Z"/><path class="cls-50" d="m220.36,152.15c.67,1.03,1.34,2.05,2,3.08,1.39,1.51,1.27,3.43,1.4,5.27.83,3.02,1.25,6.08.96,9.21.27,3.3,1.21,6.52,1.1,9.87,1.88,17.94,2.29,35.96,3.12,53.96.26,5.6.96,11.2.86,16.84-.04,2.14.21,4.34-1.08,6.27-1.7,1.05-1.97-.37-2.21-1.41-.39-1.75.03-3.61-.56-5.35-1.4-4.13-1.15-8.81-1.41-13.13l-.94-15.85c-.16-2.68-.32-5.35-.47-8.03-.23-3.83-.45-7.67-.84-11.49-.84-8.28-2.44-16.51-2.34-24.83.07-5.74-1.08-10.87-1.49-16.47-.3-4.06-2.08-6.65-5.43-8.67-2.21-1.34-4.43-2.9-4.99-5.77.21-1.16,1-1.71,2.07-1.97,4.38,1.66,7.62,4.71,10.25,8.49Z"/><path class="cls-65" d="m397.95,265.09c11.16-.04,22.4-1.55,33.4,1.74,10,3,12.93,9.92,7.47,18.68-2.58,4.14-5.84,7.91-10.98,9.21-.68-.23-1.23-.57-1.25-1.39.57-1.61,2.1-2.33,3.21-3.44,2.55-1.86,4.97-3.8,6.56-6.64,3.32-5.96,1.77-10.37-4.66-12.91-1.86-.74-3.8-1.11-5.8-1.26-3.73-1.14-7.56-.68-11.35-.76-11.38-.24-22.79.63-34.15-.86-.96-.67-1.01-1.48-.38-2.4.32-.13.63-.13.94.02,5.66.58,11.33.56,16.99.02Z"/><path class="cls-26" d="m414.89,245.05c2.82-1.02,6.34-2.97,8.08.58,2.08,4.24-2.86,4.45-4.94,5.47-8.75,4.31-18.41,5.34-27.92,6.82-4.3.67-8.63,1.26-12.88,2.18-1.47.32-3.33.63-4.01,2.5.32.57.23,1.06-.27,1.48-3.51-.88-2.86-2.74-1.14-4.85,5.7-4.17,12.66-3.34,19.07-4.55,7.31-1.38,14.61-2.69,21.69-4.98,1.3-.92,2.73-1.56,4.31-1.88.17-.03,1.01.07.5-.53-.15-.18-.89.08-1.38-.01-.89-.5-1.45-1.15-1.1-2.24Z"/><path class="cls-42" d="m426.84,293.9c.64.39,8.13-2-.42,2.06-5.72,2.72-11.2,5.85-17.42,7.01-10.9,2.02-24.3,3.99-35,.61.65-.53,1.3-1.07,1.96-1.6,1.59-1.89,3.62-.97,5.51-.86,6.87.39,13.74.91,20.46-1.22,7.21-1.59,14.47-3.02,21.26-6.1.96-.44,2.8-.43,3.66.1Z"/><path class="cls-43" d="m414.89,245.05c.33.61.66,1.23.98,1.84-1.29,2.36-3.77,2.69-5.96,3.53-7.88,2.14-15.9,3.59-24,4.65-5.36-.27-10.55,1.23-15.85,1.55-.85-.36-1.55-.81-1.19-1.92,4.23-3.45,9.69-3.38,14.41-3.51,10.98-.3,21.34-2.76,31.61-6.15Z"/><path class="cls-52" d="m433.77,278.31c-.11.57-.31,1.11-.56,1.63-7.61,10.51-19.16,13.87-30.91,16.04-15.64,2.88-31.35,1.13-46.93-1.46-4.49-.74-9.37.48-13.41-2.59,0-.04,0-.07,0-.1-2.32,2.17-5.27,1.47-7.88,1.2-5.7-.6-11.17.25-16.6,1.72-.45.16-1.17.17-1.34.48-.45.85.41.3.53.3,3.41-.02,6.82-.13,10.23.08,1.61.1,3.75-.41,4.25,2.11h-24.13c-.24-.24-.29-.44-.15-.58.11-.13.23-.19.35-.19,4.76-3.32,9.06-6.13,14.88-6.87,8.52-1.09,17.02-.56,25.54.11,12.11.95,23.88,3.84,36.09,3.94s24.84-2.09,36.16-7.35c3.16-1.47,6.14-3.3,8.73-5.62,3.68-3.3,2.87-6.62-2.04-7.95-2.8-.75-5.78-1.12-8.69-1.18-9.29-.18-18.66.61-27.84-.42-6.33-.71-12.88.63-19.01-1.87.27-2.07,2.01-1.86,3.4-2.2,4.19-.03,8.38-.22,12.55.34,9.25,1.41,18.56.4,27.84.59,4.86.1,9.57.77,14.17,2.26,3.07,1.6,5.23,3.77,4.76,7.59Z"/><path class="cls-44" d="m368.87,254.7c.38.41.76.82,1.14,1.23q-3.29,6.9,3.91,11.92c.25.17.29.55.29.89-1.09.2-2.34-.09-3.15.99-.93-.3-1.89-.51-2.77-.92-2.79-1.31-5.21-3.18-5.35-6.49-.17-4.04,2.75-6.02,5.94-7.62Z"/><path class="cls-56" d="m93.48,392.71c-.27-.04-.52-.12-.77-.24.1-.31.06-.6-.1-.87.02-7.59.02-15.18.09-22.78.02-1.8-.07-3.64.79-5.33,1.11.99.64,2.15.34,3.29-.12,8.64-.24,17.29-.35,25.93Z"/><path class="cls-59" d="m225.19,248.95c.1-4.02.19-8.04.29-12.06,1.45,4.28.41,8.75,1.03,13.09-.23,4.21,2.03,8.36.28,12.6-.48.55-1.01.6-1.58.15.02-1.6.03-3.21.05-4.81-.02-2.99-.05-5.99-.07-8.98Z"/><path class="cls-10" d="m307.23,296.95c-.04.26-.11.52-.19.78-5.26.05-10.52.12-15.78.12-1.41,0-3.01.53-4.02-1.06,6.67.05,13.33.1,20,.16Z"/><path class="cls-67" d="m397.95,265.09c-5.67,1.3-11.33,1.36-16.99-.02,5.66,0,11.33.01,16.99.02Z"/><path class="cls-61" d="m241,172.2c-1.81-4.59.04-9.4-.83-14.05.34-.67.69-1.34,1.03-2.01-.07,5.35-.14,10.71-.2,16.06Z"/><path class="cls-21" d="m224.25,229.99c.09-3.01.18-6.02.27-9.04,1.25,4.62.94,9.33.82,14.04-1.2-.7-.59-2.05-1.08-3,0-.67,0-1.33,0-2Z"/><path class="cls-20" d="m241.17,192.14c-1.3-4.33-1.02-8.74-.74-13.16,1.28,4.33.95,8.75.74,13.16Z"/><path class="cls-55" d="m244.16,253c-1.57-3.61-.76-7.39-.78-11.11,1.69,3.6.81,7.39.78,11.11Z"/><path class="cls-67" d="m373,264.02c.07-.47.14-.95.22-1.42,1.88,1.9,4.27,2.35,6.8,2.44.02.55.04,1.1.07,1.65-3.03.87-5.72.87-7.08-2.67Z"/><path class="cls-71" d="m93.83,366.78c-.11-1.1-.23-2.19-.34-3.29-.04-.31.04-.59.24-.84,1.04-.53,2.2-.69,3.32-1,16.42.08,32.65-2.44,48.99-3.43,28.41-1.73,56.82-3.38,85.31-2.87.5,0,.99.07,1.48.11,3.96.79,8.13.23,12,2.01,2.05.94,3.62-1.11,5.43-1.75,4.81-.71,9.61-.86,14.4.16,5.03,4.38,9.59,4.76,15.55,1.19,1.02-.61,1.93-1.3,3.1-.42.59-.02,1.17-.04,1.76-.06,2.81-.04,1.88,2.15,1.98,3.54.57,8,2.19,15.93,1.59,24.01-.2,2.72,1.29,5.04,2.4,7.42.16,1.34,1.09,2.69,0,4.03-4.55,2.32-9.63,2.77-14.45,2.7-22.25-.36-44.53-.72-66.75.03-26.01.88-52.08.82-78.03,3.51-8.37.87-16.89.88-25.34,1.18-6.15.22-7.4-1.21-8.33-7.37-.75-4.93-1.05-9.91-.71-14.87.18-2.62-.27-4.93-1.65-7.1-.07-2.42.24-4.93-.31-7.23-.5-2.09-1.01.36-1.62.34Z"/><path class="cls-71" d="m369.88,307.15c0,13,.03,25.29-.02,37.59-.02,3.87-1.46,7.02-4.86,9.26-22.84,15.08-45.64,30.21-68.46,45.31-.51.34-1.19.44-2.34.85,0-5.13-.12-9.89.03-14.63.29-9.14-.64-18.2-1.8-27.24-.19-1.48-.54-3.18,1.61-3.52,9.82-1.53,16.71-8.42,24.65-13.38,10.39-6.48,20.7-13.1,31.11-19.56,6.87-4.26,12.24-10.58,20.08-14.68Z"/><path class="cls-34" d="m303.23,319.73c-2.18-2.2-1.46-5.55-3.48-8.01-2.35-2.87-4.52-5.85-8.19-6.82-2.29-.6-2.41-1.97-2.32-3.66.12-2.22,1.96-1.37,3.04-1.37,17.07.02,34.17-.4,51.2.45,7.14.35,14.53-.86,21.53,1.67,1.37,1.92.15,2.85-1.28,4.01-9.4,7.62-19.42,14.29-29.58,20.87-10.38,6.73-21.55,12.05-31.77,19.15-6.21,4.32-14.15,7.08-22.76,6.32-8.03-.71-16.2-1.09-24.29.58-4.57.95-7.62-1.98-7.34-6.44,4.07-3.46,9.22-2.26,13.8-2.71,10.77-1.05,21.03-4.2,31.49-6.52,5.05-1.12,9.07-3.97,11.43-8.72,1.6-3.22,1.83-6.35-1.5-8.8Z"/><path class="cls-34" d="m248.29,346.7c.93,4.11,3.9,5.54,7.73,4.91,8.93-1.47,17.94-1.88,26.87.28.81.2,1.82.82,2.23.08,1.71-3.01,4.95-2.57,7.46-3.11,7.74-1.65,13.33-6.93,19.69-10.88,4.88-3.03,10.59-4.84,15.15-7.79,4.22-2.74,8.92-5.05,12.86-8.26,7.38-5.99,15.76-10.6,22.9-16.93,1.1-.98,1.89-1.6,1.83-3.03,1.29-.12,3.06-.75,3.65.54.82,1.78-1.28,2.41-2.32,3.27-15.62,12.86-32.77,23.42-50.27,33.48-2.56,1.47-4.7,3.64-7.05,5.47-8.63,6.7-18.57,9.16-29.31,9.08-3.81-.03-7.63.01-11.44.02-1.07,1.55-2.66,1.94-4.39,1.8-12.61-1.04-25.21-.44-37.81-.01-3.65-.71-7.3-.87-10.96-.04-3.14.15-6.28.15-9.42,0-4.42-.75-8.84-.91-13.25.04-1.67.42-3.38.48-5.09.44-3.4.06-6.82-.33-10.17.51-6.54.35-13.06,1.15-19.63.94-3.72-3.27.43-4.21,1.85-5.73,2.08-2.23,6.17-3.3,3.89-7.69-2.62-4.47-6.5-5.41-11.43-4.72-6.89.95-13.73,1.8-19.65,5.86-4.09,3.14-4.08,4.25,0,7.07,1.35.93,2.85,1.55,4.33,2.22,3.22,1.47,2.5,2.88-.16,4.19-8.13,1.86-16.4,2.22-24.69,2.37-3.91-.44-7.97.84-11.74-1.04-1.4-2.38.74-3.46,2.03-4.22,10.47-6.15,20.09-13.59,30.36-20.04,11.75-6.98,22.86-15.04,35.23-20.97,1.44-.69,3-2.31,4.5-1.12,1.62,1.29.16,3.06-.42,4.5-.69,1.74-.96,3.51-.91,5.33.08,3.03-1.05,5.45-3.33,7.39-3.41,5.99-2.34,9.24,3.94,11.45,11.09,3.91,22.72,4.19,34.28,5.06,5.84.44,11.58-.25,17.36-.69,4.3,0,8.53-.51,12.79-1,4.18-.48,8.52-1.58,12.51.96Z"/><path class="cls-71" d="m95.76,373.67c2.89,1.35,3.91,3.11,3.29,6.69-1.03,5.95.13,12.03.76,18.03.24,2.3,1.8,3.35,4.22,3.19,10.56-.66,21.12-1.19,31.67-1.89,5.11-.34,10.27-.68,15.34-.85,8.61-.27,17.16-1.42,25.8-1.33,23.9.25,47.78-1.5,71.7-1.01,14.16.29,28.35.52,42.48-.94.89,4.2-1.23,5.06-4.97,5.04-15.24-.09-30.49.04-45.73.08-23.8.3-47.62-.04-71.38,1.11-20.71,1.01-41.36,3.43-62.12,3.87-9.11.19-8.86.32-10.35-9.24-1.18-7.6-.7-15.18-.71-22.77Z"/><path class="cls-34" d="m243.3,331.74c-.38,1.17-1.8,2.75-.2,3.46,1.83.82,4.16,1.79,6.11.82,3.36-1.67,6.38-2.09,9.64.18,1.99,1.39,3.4-.8,4.86-1.5,7.23-3.47,15.41-2.32,22.78-4.96,2.16-.77,4.47-1.11,6.64-1.87,5.81-2.02,6.69-4.74,3.82-10-1.53-2.81-4.26-5.19-3.75-8.89,3.47,1.59,4.77,4.82,6.04,8.05.3.76.32,1.63.55,2.43.63,2.17,3.62,3.56,1.73,6.59-1.8,2.89-4.5,4.49-7.45,5.4-8.51,2.63-17.31,4.06-26.14,5.13-6.54.79-13.12,1.29-19.68,1.92-5.51-.29-11.05-.48-16.51-.68-8.4-.31-16.48,1.95-24.99,1.29-5.89-.46-12.19-1.82-18.41-.27-5.04,1.26-6.96-.81-6.06-5.36.87-.69,1.9-.91,2.98-1,6.19,2.05,12.97,1.36,18.91.94,8.33-.58,17,2.92,25.06-1.38,2-.75,4.2-.48,6.2-1.22,1.61-.34,3.24-.45,4.89-.34,1.14.09,2.21.33,3,1.26Z"/><path class="cls-51" d="m225.43,354.62c10.63-1.04,21.28-1.27,31.95-.99,3.63.1,7.23,1.92,10.88.2,4.75,1.84,9.69.37,14.52.89.13.01.34.16.34.23,0,.28-.09.55-.14.83-5.78,2.66-11.66,3.59-17.74,1.06-5.32,0-10.65,0-15.97,0-5.02,1.29-9.98-1.54-15-.24-13.06.07-26.19-.67-39.17.38-22.38,1.81-44.91.95-67.22,4.34-8.26,1.25-16.79,1.72-25.25,1.33-2.31-.11-4.65-.18-6.86.76-.68-3.82,2.43-2.68,4.25-3.24,3.89-.18,7.8.45,11.67-.36,8.68.16,17.26-.84,25.8-2.3,6.29-1.57,12.59-3.21,19.08-1.02,6.96.39,13.81-1.6,20.78-.95,3.32-.98,6.82.33,10.13-.74,1.63-.09,3.27-.19,4.9-.28,4.34-.54,8.68-.45,13.02-.05,3.24,0,6.48.02,9.72.03,3.44-.41,6.87-.6,10.3.12Z"/><path class="cls-11" d="m222.33,347.74c-7.63,2.17-15.32.67-23.01.56-9.92-.14-19.53-1.88-28.97-4.72-6.24-1.88-8.89-6.59-3.68-13.68,1.65,1.52.14,3.44.65,5.11,1.43,4.08,5.41,5.03,8.65,5.51,10.4,1.54,20.87,2.98,31.46,2.05,4.35-.95,8.84.35,13.18-.74,6.54.06,13.09.11,19.63.17-.23,4.36-4.1,4.19-6.63,4.47-3.76.41-7.5,1.07-11.28,1.29Z"/><path class="cls-11" d="m222.33,347.74c2.94-1.45,6.09-1.92,9.33-2.04,3.33-.13,6.53-.6,8.58-3.72,16.47-.9,32.84-2.66,48.95-6.31,4.01-.91,7.93-2.16,11.31-4.74,3.87-2.96,4.81-6.49,2.73-11.21,4.31,1.55,4.6,4.77,3.17,8.36-3.08,7.72-9.97,9.77-17.21,11.74-13.43,3.65-27.18,5.11-40.9,6.88-7.45-.25-14.84.43-22.17,1.72-1.44.25-2.59-.06-3.79-.68Z"/><path class="cls-37" d="m167.32,335.01c-1.54-1.54-.64-3.38-.65-5.11,2.07-1.62,3.32-3.59,2.75-6.35-.74-3.52,1.6-6.16,3.23-10.14-7.81,4.3-14.91,7.77-21.59,12.11-6.02,3.91-12.31,7.39-18.48,11.06-.62-.64-.61-1.3-.09-1.99,10.43-7.42,21.39-13.98,32.53-20.25,4.43-2.5,8.85-5.02,13.28-7.53.43-.24,1.14-.37,1.25-.71,2.36-6.88,8.54-9.69,14.02-13.25,2.57-1,2.5.72,2.48,2.4-.14.49-.42.9-.79,1.24-3.09,2.06-6.79,3.25-9.17,6.33-1.72,2.46-1.97,5.31-2.16,8.18-.4,2.4-2.44,2.91-4.25,3.58-4.03,1.5-5.93,4.32-5.95,8.62-.03,4.21-.67,8.24-4.98,10.46-.48.45-.95.91-1.43,1.36Z"/><path class="cls-12" d="m168.75,333.65c2.74-3.51,3.84-7.45,3.75-11.94-.08-4.22,2.4-6.92,6.41-8.2,1.71-.54,3.47-1.02,4.5-2.7.33-.47.67-.48,1.02-.02h0c.55,1.17,1.67,1.58,2.76,2.04,2.91,1.72,7.05-.99,9.43,2.63-1.05,1.93-3.52,1.36-4.87,2.76-4.3,1.63-8.82,2.67-12.98,4.65-1.39.66-4.06,1.26-1.42,3.67,6.8,2.4,13.88,2.28,20.92,2.42,1.84.53,3.97.24,5.42,1.87.3.92.22,1.73-.64,2.33-5.9.72-11.83.15-17.73.53l-2.89.08c-2.71,1.75-6.3,1.3-8.83,3.52-2.53,0-3.8-1.69-4.87-3.65Z"/><path class="cls-13" d="m254.18,301.76l-.45-.02-.44.04c-2.04,1.31-4.13.41-6.2.14-7-.91-14.03-.72-21.06-.82-2.03-.77-2.73-2.35-2.25-4.3.43-1.76,2.01-1.92,3.55-1.86,5.6,1.04,11.25.28,16.87.53,2.17.01,4.22.51,6.29,1.23,3.92,1.36,7.8,1.23,11.33-1.3.65-.32,1.35-.46,2.07-.47,3.7.63,6.84-1.6,10.34-2.01,0,0-.06-.47-.06-.47.69.52,1.38,1.04,2.07,1.56,3.27,2.27,6.43,4.7,9.79,6.82.8,1.21,1.36,2.49,1.13,3.99-.91.72-1.94.64-2.75.03-6.62-4.87-14.06-3.99-21.44-2.99-2.99.4-5.87.01-8.8-.1Z"/><path class="cls-30" d="m173.62,337.29c1.6-4.53,5.51-3.28,8.83-3.52-.77,4.39,3.62,5.36,5.04,4.36,3.18-2.24,6.64-1.38,8.89-.62,4.85,1.64,9.52-1.42,14.39.92,4.51,2.17,9.08-2.17,13.78-1.85,7.9.53,16.07-2.07,23.69,1.91-3.6.14-7.21.27-10.81.41-3.34.89-6.83-.34-10.16.69-4.97.08-9.95.16-14.92.23-5.63.66-11.26.5-16.9.1-7.3-.67-14.83.55-21.83-2.64Z"/><path class="cls-19" d="m331.16,297.72c-4.22-1.92-8.66-.52-12.99-.88-1.95-.16-3.92-.03-6.38-.03,1.44-2.06,2.85-3.28,5.19-2.99,13.7-2.15,27.32-1.26,40.9,1.06,1.8.31,3.69.53,4.34,2.71-.37.66-.86.78-1.48.35-9.86-.07-19.72-.15-29.57-.22Z"/><path class="cls-71" d="m291.02,391.56c-3.04-1.74-4.13-4.32-3.87-7.82.54-7.32-.03-14.6-1.75-21.75-.44-1.83,2.1-3.78-.34-5.41,4.79-1.29,5.78-.78,4.86,3.55-.73,3.41,0,6.63.51,9.73,1.21,7.25.71,14.46.6,21.69Z"/><path class="cls-24" d="m360.74,297.94c.5-.08,1.01-.17,1.51-.25,1.35-1.25,3.02-1.29,4.63-.98,9.08,1.75,18.2,1.96,27.38,1.11,2.62.94,5.55,1.08,7.77,3.04-7.41,2.95-15.06,1.72-22.67,1.3-1.14-.06-2.27-.12-3.41-.18-5.32-.43-10.01-3.21-15.22-4.04Z"/><path class="cls-71" d="m265.25,356.85c5.91-.44,11.9.47,17.74-1.06.11.28.21.57.3.85-3.79,3.64-8.34,4.69-13.43,4.03-2.4-.31-4.7-.59-4.62-3.83Z"/><path class="cls-16" d="m286.05,300.82c-4.18-.96-7.84-2.66-9.79-6.82,5.52-.96,7.54,3.1,9.79,6.82Z"/><path class="cls-37" d="m195.45,339.93c5.63-.03,11.27-.06,16.9-.1-5.63,1.53-11.26,1.36-16.9.1Z"/><path class="cls-37" d="m220.61,341.82c-4.33,1.39-8.78.7-13.18.74,4.31-1.8,8.79-.5,13.18-.74Z"/><path class="cls-60" d="m227.27,339.6c3.31-1.36,6.75-.82,10.16-.69-3.3,1.48-6.75.81-10.16.69Z"/><path class="cls-50" d="m195.4,295.59c.02-1.33.02-2.65-1.82-2.75.12-7.1,5.34-10.6,10.48-13.54,2.62-1.49,4.71-2.35,6.29-5.4,3.02-5.86,8.07-9.89,14.87-11.17.35.04.7.09,1.05.13,1.41-.64,2.41,0,3.27,1.05-.31,2.59-2.48,2.78-4.33,3.14-4.26.82-7.48,3.08-9.83,6.66-1.95,4.54-4.85,7.77-9.82,9.55-4.08,1.46-6.86,4.94-7.85,9.52-.25,1.15.17,3.29-2.3,2.8Z"/><path class="cls-63" d="m132.49,334.59c.03.66.06,1.32.09,1.99-10.9,7.42-21.81,14.84-32.71,22.26-.86.65-.32,1.4-.14,2.13-.96,1.38-3.83-.3-3.94,2.45-.69-.25-1.37-.51-2.06-.76-.09-.99-.44-2.24.44-2.82,12.75-8.46,25.54-16.84,38.33-25.24Z"/><path class="cls-47" d="m208.23,145.26c-1.6-1.36-3.19-2.73-4.79-4.09-1.81-3.12-3.18-6.42-4.17-9.88-.53-3.69-.61-7.38.04-11.06,1.7-8.77,6.63-15.33,13.92-20.26.1.8-.9,1.73.27,2.41-.69,4.62-5.61,6.23-7.25,10.17-.47.75-.9,1.52-1.24,2.34-.91,2.06-1.35,4.24-1.65,6.46-1.64,5.63-.27,10.74,2.66,15.58.39,3,4.61,3.84,4.12,7.33-.64.34-1.28.67-1.92,1.01Z"/><path class="cls-29" d="m199.31,120.22c-.01,3.69-.03,7.38-.04,11.06-1.33-3.69-1.58-7.38.04-11.06Z"/><path class="cls-9" d="m205.42,112.28c1.56-4.23,5.49-6.53,8.08-9.92,7.04-4.4,14.78-5.54,22.93-5.16,2.61.12,4.45,1.92,6.86,2.25.95,2.69,3.61,2.85,5.71,3.84l3.38,3.68c.81,2.18,1.48,4.39,1.45,6.74-.12,1.05-.54,1.95-1.35,2.64-.93.28-1.79-.1-2.04-.87-2.09-6.31-7.58-9.1-12.63-12.35-2.91-4.25-6.34-2.42-9.72-.8-1.04,4.34,2.83,3.86,4.82,4.33,3.29.77,6.29,1.75,8.84,3.99,2.27,1.99,4.02,4.32,4.95,7.23.79.61-1.23,4.3,2.21,2,.85-.76,1.59-1.65,2.73-2,1.32,0,2.41.45,3.15,1.6.74,2.15.03,4.02-1.11,5.81-.75.72-1.69.95-2.67,1.08-1.02.27-2.47-.17-2.86,1.21-.29,1.02.86,1.15,1.55,1.47,1.28.39,2.54.81,3.62,1.64,1.1.91,1.44,2.23,1.89,3.5-.98,2-1.95,4-2.93,5.99-2.46,1.15-2.9,3.69-4.01,5.77-.24.19-.52.29-.83.31-.68.41-1.4.55-2.18.43-2.35-1.22-4.76-2.06-7.43-2.51-14.8-2.52-22.76-13-28.9-25.41-1.1-2.22-2.32-4.36-3.53-6.51Z"/><path class="cls-35" d="m245.28,146.17c.72.04,1.45.08,2.17.12-.33,1.82-2.32,1.77-3.26,2.9-4.09,1.98-8.34,1.61-12.36.14-3.61-1.32-6-.77-7.49,2.84-1.33.9-2.66-.03-3.99-.03-3.4-2.63-6.8-5.27-10.2-7.9-1.25-2.6-4.83-3.55-4.92-6.96.26-1.42,1.18-2.83.25-4.27-2.33-3.59-2.26-7.78-3.05-11.75-.2-2.59.19-5.01,1.9-7.09,2.5.92,2.97,3.4,4.03,5.37,4.42,8.21,9.52,15.83,17.68,20.86,4.31,2.65,9.16,3.61,14.04,4.45,1.78.31,3.63.23,5.21,1.31Z"/><path class="cls-9" d="m255.22,134.22c-1.42-.63-1.97-1.81-2.07-3.27-.83-1.83-.18-3.64.05-5.46.36-2.07.72-4.15,1.08-6.22-.6-1.61-1.32-3.19-1-4.99-1.4-2.29-.98-4.81-.89-7.29,6.9,8.46,5.92,17.73,2.83,27.23Z"/><path class="cls-32" d="m224.34,152.17c.15-1.89,1.6-3.54.31-5.95,6.91,1.94,13.07,3.6,19.54,2.96-2.66,3.71-6.7,2.97-10.4,3.13-3.14.14-6.3-.09-9.45-.15Z"/><path class="cls-17" d="m222.55,161.17c-.06-1.98-.13-3.96-.19-5.95,5.27.02,10.53.04,15.8.05,1.01.89.63,1.95.35,3-3.94,1.72-8.55,1.39-12.19,4.19-1.31,1.01-2.76-.11-3.77-1.3Z"/><path class="cls-49" d="m238.29,158.17c-.04-.96-.09-1.93-.13-2.89,1.42.52,1.05,1.81,1.24,2.86-.6,5.33.89,10.77-.9,16.04-3.04-4.59-1.49-9.56-1.21-14.42.25-.57.59-1.1.99-1.58Z"/><path class="cls-9" d="m248.28,145.98c0-2.86-.51-6.06,4.01-5.77-.44,2.55-1.99,4.32-4.01,5.77Z"/><path class="cls-9" d="m249.01,103.3c-2.64-.19-6.31,1.16-5.71-3.84,2.46.45,4.14,2.07,5.71,3.84Z"/><path class="cls-27" d="m395.03,299.03c-11.03,2-21.9.06-32.79-1.34-6.36-3.16-13.34-3.37-20.16-3.74-8.35-.46-16.74-.11-25.11-.12,5.32-2.58,11.03-2.34,16.71-2.24,2.8.05,5.6.1,8.4.14,16.87,1.92,33.65,5.12,50.72,4.14,12.32-.71,23.89-4.14,34.29-11.06,2.39-1.59,3.95-3.85,5.7-6,1.96,2.48.11,4.21-1.29,6.42,2.32-2.32,3.2-4.93,3.92-7.75-1.2.02-1.09,2.29-2.64,1.34.36-2.88-.76-5.09-3.04-6.77-.7-1.03-2.32-1.3-2.39-2.85.01-.45.19-.82.53-1.12,4.97.96,9.99,2.31,11.35,7.93,1.28,5.27-2.25,8.97-5.68,12.39-1.04,1.03-2.34,1.79-3.53,2.67-8.21,3.34-16.31,6.97-25.22,8.19-3.29.45-6.53.63-9.77-.22Z"/><path class="cls-31" d="m427.87,268.07c-.01.31-.02.62-.04.93-.51.46-1.12.87-1.78.77-13.04-1.88-26.16.65-39.21-.73-4.21-.1-8.42-.2-12.63-.3-1.5-.53-3.03-.98-4.49-1.6-5.6-2.38-6.16-5.95-1.58-9.7.62-.51,1.25-1,1.88-1.51,5.2-1.42,10.45-2.49,15.89-1.93-1.58,3.35-4.99,2.11-7.53,2.76-2.46.63-4.72,1.13-6.32,3.22-.92,1.63-1.15,3.1.95,4.03,1.9,2.1,4.64,2,7.08,2.68,12.87.04,25.73.16,38.59.07,3.17-.02,6.14.76,9.19,1.3Z"/><path class="cls-25" d="m386.84,269.05c13.66.52,27.32-1.97,40.99-.05.47,1.12,1.93,1.62,1.91,3.05-10.25-3.26-20.81-1.95-31.27-2.13-3.89-.07-7.86.76-11.63-.87Z"/><path class="cls-34" d="m238.21,159.23c.1,4.98.2,9.96.29,14.95-.16.31-.18.62-.06.95.76,5.83.15,11.68.35,17.51.22,4.15-.47,8.32.4,12.45.09,1.97.17,3.94.26,5.91.99,4.32-.36,8.78.76,13.1.28,11.95.98,23.87,2.17,35.76.81,2.5.8,4.74-2.44,5.24-3.41.53-6.92.63-8.1-3.63-1.55-5.62-1.39-11.48-1.96-17.24-1.58-16.1-1.46-32.3-2.83-48.42-.7-8.22-.52-16.55-.04-24.8.48-8.26,5.01-12.71,11.19-11.77Z"/><path class="cls-12" d="m238.21,159.23c-5.53.34-9.63,4.59-9.73,11.52-.15,10.57-.76,21.16.61,31.75.84,6.53.87,13.21.98,19.77.2,11.93,1.92,23.7,2.38,35.59.14,3.58.92,6.62,6.05,6.2,3.28-.27,3.9-1.58,3.88-4.2,1.14,2.16.6,5.4,3.94,6.16-4.38,3.57-9.86,2.87-14.91,3.83-1.73.33-3.68-.4-5.18,1.06-2.27.69-4.6,1.17-6.76,2.23-1.62.8-3.33,1.23-4.89-.23,2.48-3.94,5.85-6.48,10.63-7.02,1.52-.17,3.38.01,4.11-1.96-2.65-1.99-2.33-4.45-1.09-7.05.53-13.34-.94-26.59-1.63-39.88-.48-9.31-.95-18.65-1.11-27.97-.06-3.39-2.29-6.49-.96-9.94,1.86-3.52-.2-6.65-.99-9.9-.15-2.69.23-5.45-.98-8.01,1.36-.09,2.77,1.62,4.06.11,3.21-3.74,7.51-3.14,11.68-3.11-.03.35-.05.71-.08,1.06Z"/><path class="cls-16" d="m274.24,292.92c-3.11,2.04-6.16,4.31-10.24,2.79,1-2.97,3.68-1.45,5.23-2.15.97.2.21-.97.24-.31,0,.09-.16.08-.49.09-.67.02-1.31.02-1.78-.58,1.22-1.84,3.85.04,5.02-1.9.67.69,1.34,1.37,2.01,2.06Z"/><path class="cls-49" d="m238.47,192.93c-.01-5.94-.02-11.88-.03-17.81,1.76,5.95.48,12.03.8,18.04-.38.36-.65.3-.77-.23Z"/><path class="cls-72" d="m240.21,224.09c-1.26-4.31-.95-8.71-.76-13.1,1.52,4.29.88,8.71.76,13.1Z"/><path class="cls-70" d="m238.47,192.93c.26.06.52.14.77.23-.02,3.97-.03,7.95-.05,11.92-1.53-3.97-.86-8.08-.72-12.15Z"/><path class="cls-41" d="m228.21,256.87c.37,2.35-.44,4.88,1.09,7.05-1.02-.35-2.03-.7-3.05-1.05.08-4.3.17-8.59.25-12.88,1.96,1.95-.31,4.95,1.71,6.89Z"/><path class="cls-17" d="m223.53,169.18c1.34,3.2,5.11,6.15.99,9.9-.33-3.3-.66-6.6-.99-9.9Z"/><path class="cls-69" d="m223.49,211.11c0-4.03-.02-8.06-.03-12.1,1.19,4.03,1.63,8.06.03,12.1Z"/><path class="cls-23" d="m395.03,299.03c10.79.01,20.74-3.55,30.69-7.14,1.41-.51,2.72-1.27,4.3-.83-1.05.93-2.09,1.85-3.14,2.78-8.12,2.92-16.06,6.45-24.84,7.02-2.51.06-4.87-.43-7-1.83Z"/><path class="cls-18" d="m372.06,260c.15-3.56,3.27-3.24,5.41-3.89,2.76-.83,5.79-.69,8.43-2.1,6.91-1.38,13.81-2.75,20.72-4.14,1.13-.23,2.25-.52,3.38-.78,1.23.91,3.08-.68,4.12,1.01-5.07,2.96-10.87,3.45-16.43,4.7-8.5,1.91-17.45,1.63-25.63,5.19Z"/><path class="cls-22" d="m414.11,250.11c-1.34-.45-3.03.48-4.12-1.01,1.96-.73,3.92-1.47,5.89-2.2,1.65-.28,2.71-2.59,4.73-1.42.26.15.4.98.23,1.3-.86,1.62-2.49,1.84-4.1,2.19-.92.2-1.76.75-2.64,1.15Z"/><path class="cls-71" d="m234.28,356.6c5.02-1.13,10.03-1.7,15,.24-.25,1.84-1.81,2.88-3.11,2.43-3.89-1.33-7.78-2.42-11.89-2.67Z"/><path class="cls-34" d="m257.27,309.68c1.41-4.9,5.4-2.52,8.29-2.71,2.41-.16,3.25,2.2,3.5,4.13.39,2.94-1.04,5.39-3.88,6.12-4.74,1.22-9.07,4.27-14.58,2.52-1.84-.59-5.06.2-6.3,3.02-3.09,4.16-7.07,5.25-11.85,3.34-3.15-1.25-6.12-1.16-9.03.69-2.07,1.32-4.44,1.63-6.72.96-7.12-2.1-14.36-1.73-21.6-1.35-3.17.17-6.28-.28-9.39-.66-1.47-.18-3.1-.79-3.27-2.55-.14-1.56,1.43-1.95,2.51-2.7,4.31-3.01,9.6-.99,14.1-2.88.8.03,1.56.22,2.29.56,4.11,3.14,14.03,3.07,19.18-.15,2.02-.71,4.13-.56,6.2-.73,1.29-.23,2.53-.66,3.84-.76,8.92-.5,17.97.84,26.75-1.73,1.99-.58,4.34-.48,5.7-2.62-1.53-1.85-4.4-.45-5.74-2.5Z"/><path class="cls-30" d="m199.48,318.74c-4.52,2.56-10.09-.42-14.5,2.77-.65.47-1.57.59-1.84,1.97,3.63,2.15,7.81,1.52,11.72,1.51,7.31,0,14.61-.88,21.79,1.54,2.07.7,4.7.86,6.54-1.16,2-2.2,5.07-2.41,6.91-1.41,5.24,2.84,9.66,1.4,14.2-1.2.65.46,1.78,1.41,1.88,1.31,3.62-3.51,7.41-.21,11.09-.35,3.04-3.28,6.98-3.21,10.97-2.95.43.81,1.17.97,2,.94,1.04-1.64,2.39-2.82,4.48-2.39,1.84.37,3.19-.46,4.49-1.54,2.03.24,4.64-.87,5.69,1.81.98,2.5-.66,4.03-2.69,5.17-.82.63-1.76.58-2.71.45-.63-.35-.92-.97-1.27-1.54-4.57-1.5-8.77.72-13.13,1.28-16.53,2.62-33.09,4.65-49.87,4.21-7.05.2-14.09-.37-21.13-.07-1.46-.15-2.92-.4-4.39-.44-3.3-.69-6.67-.66-10.01-.91-1.14,0-2.25-.11-3.15-.91-.9-.27-2.42.24-2.57-.89-.25-1.92,1.5-3.06,2.88-3.63,4.72-1.93,9.38-4.12,14.57-4.59,2.83-.81,5.8-2.7,8.05,1.03Z"/><path class="cls-13" d="m214.57,272.89c4.04.23,7.47-3.05,11.65-2-1.96,1.04-3.91,2.07-5.87,3.11-1.59,1.44-2.93,3.07-3.81,5.02,3.28,2.02,6.82,2.11,10.47,1.55,3.13-.2,6.3.31,9.37-.66,1.45-.24,2.85-.24,4.14.59,1.88,2.02.56,3.6-1.15,4.23-4.85,1.79-9.79,3.86-15.03,1.16-.97-.03-1.95-.05-2.92-.08-2.36-1.22-4.71,1.48-7.07,0-1.95-.12-3.61.55-5.05,1.85-1.2,1.71-3.27,2.08-4.87,3.19-1.83,1.27-4.56,2.09-1.51,4.89.73.67.94,1.8.15,2.67-1.82,1.99-4.09,1.65-6.38,1.1-1.36-.73-2.49-1.61-2.22-3.4.31-.18.61-.36.92-.54,1.7-7.79,5.68-13.27,14-15.2,3.38-.79,2.54-5.58,5.18-7.5Z"/><path class="cls-34" d="m186.58,312.91c-1.21-.2-2.14-.69-2.14-2.11,2.59,1.43,4.98,1.36,7.37-.59,1.44-1.17,3.71-2.27,5.08-1.21,4.01,3.1,8.2,2.38,12.74,2.31,2.81-.04,4.88-1.93,7.58-1.53,2.72.4,5.63-.72,8.15,1.34,1.3,1.07,2.64.03,3.61-.73,3.95-3.11,7.99-2.38,12.02-.41,1.94.95,4.39,1.65,5.58.22,3.34-4,6.42-2.05,9.71-.39.62.91.56,1.71-.4,2.36-6.24,1.99-12.77.88-19.17,1.78-11.6,1.64-23.38,1.61-35.09,1.15-5.04-.2-10.14-.7-15.04-2.18Z"/><path class="cls-34" d="m292.45,329.44c-5.21,1.59-10.48,3.16-15.94,3.69-4.14.4-8.11,1.29-12.03,2.66-6.12,2.15-12.53.31-18.81,1.15-3.1.42-5.7-1.45-2.85-5.28.45-.28.95-.4,1.49-.35,3.1,1.54,6.48,1.89,9.67.88,5.26-1.67,10.73-1.95,16.08-2.92,4.2-.75,7.96-2.08,11.08-5.03,1.13-1.1,2.94-2,2.04-3.96-.76-1.64-2.5-1.17-3.94-1.12-3,.84-6.45.28-8.85,2.94-.94.41-1.82.22-2.69-.22-3.97-1.45-7.33-.23-10.39,2.37-3.71.77-7.53-1.01-11.27.63-.89.39-2.02-.8-2.38-2.02.61-4.38,4.35-4.5,7.13-4.15,4.19.52,7.88-.72,11.64-1.74,3.09-.85,6.41-2.71,4.71-6.59-1.63-3.74-5.21-2.45-8.21-1.45-.56.19-.96.88-1.53,1.24-.46.19-.94.29-1.45.31-3.04-.8-5.97-1.66-8.91.72-1.6,1.29-3.85,1.04-5.72.19-4.19-1.91-8.25-2.25-12.29.32-.7.44-1.64.92-2.35.66-5.54-2.06-11.02-.83-16.56.01-1.58.24-3.26-.24-4.83.58-1.79.94-3.52.75-5.04-.64-2.75-2.51-5.61-2.28-8.66-.54-2.28,1.3-4.67,1.7-6.97-.07-.28-.26-.49-.57-.64-.91-.19.01-.38.01-.57.02-1.12.06,1.11-8.24,1.91-9.01,1.96-1.91,6.82-3.45,9.55-3.38,2.07.06,4.46.89,6.42-.18,1.85-1,2.15-2.01-.1-3-5.34-2.34,4.21-6.67,6.07-7.85,1.43-.9,3.06-1.95,4.78-2.17,1.68-.22,3.58-.5,5.2-.45,2.14.07,3.63.27,5.89.5,2.02.21,8.68-.67,10.58-1.38,5.95-2.24,8.28-3.7,9.37-4.32,1.32.6,2.31,1.23,1.5.23-.55-.68-.6-.75-1.5-.23-.87-.4-1.88-.78-2.6-.66-2,.23-4.01.35-6.03.47-8.5.54-6.27-.54-5.98-.7-.06.01-.19.06-.45.14-1.21.38-3.38,1.05-4.65,1.05-3.98,0-6.99-1.08-6.99-1.08-.6-2.18.43-3.02,2.15-4.26.66-.47,1.32-.94,1.98-1.41,1.33-.96,2.66-1.91,4.11-2.67,3.08-1.62,6.43-1.89,9.81-2.39,3.89-.58,8.01-1.77,11.89-2.06,5.13-.38,8.26,2.74,9.89,6.85,1.45,3.69,3.37,5.81,7.19,7.15,4.86,1.71,6.83,6.44,8.83,10.85-.41,3.15-3.47,1.8-5.03,2.99-3.1.93-6.21,1.74-9.47.96-.44-.17-.88-.34-1.32-.5-2.71,1.86-6,.62-8.96,1.04-6.62.95-13.32.35-19.99.56-1.17.03-3.52,0-3.25,1.68.23,1.47.34.61.92,1.99-.06-.15,1.43,1.21,1.41.99-.09-1.8,31.3-.71,33.73-.86,4.8-.31,7.54-.05,12.35,0,2.71.03,4.5.32,7.08,1.19s4.97,3.71,7.48,3.93c.35.96.7,1.91,1.06,2.87,1.72.15,3.6-.3,4.94,1.3,1.6,2.89,3.52,5.59,4.82,8.65,2.73,6.47,1.33,9.69-5.55,11.8Z"/><path class="cls-34" d="m226.34,301.82c-.03-.44-.06-.87-.09-1.3h.01c.42.41.46.83.08,1.3Z"/><path class="cls-15" d="m256.27,311.79c0-.66,0-1.32,0-1.99.33-.04.66-.08,1-.12,1.81,0,3.63-.02,5.44.04,1.36.04,2.82.31,3.08,1.89.27,1.56-1.06,2.44-2.26,2.86-4.82,1.67-9.78,2.99-14.88,3.21-6.1.26-12.21.06-18.32.06-.8-1.01-.88-2.06-.18-3.16,8.58-2.14,17.46-1.44,26.13-2.8Z"/><path class="cls-34" d="m279.06,324.71l3.15.05c-3.49,4.25-8.34,5.33-13.49,6.03-6.16.84-12.28,2.02-18.41,3.09-2.44.43-4.61.26-6.02-2.13.95-1.6,2.55-2.04,4.21-2.23,9.48-1.09,18.8-3.06,28.13-5.01.82-.17,1.64-.16,2.42.2Z"/><path class="cls-73" d="m279.06,324.71c-9.35,3.55-19.27,4.3-29,6.03-1.92.34-3.84.67-5.76,1.01-.33,0-.67,0-1,0-1-.03-2-.07-3-.1-1.03-1.69-.07-2.69,1.23-3.57,9.32-1.96,18.91-2.21,28.22-4.3,3.2.06,6.18-2.1,9.49-.95l-.19,1.89Z"/><path class="cls-53" d="m227.46,295.91c9.86-1.74,19.88-1.35,29.8-2.31,3.41.88,6.64-.36,9.94-.84,1.1.1,2.2.2,3.46.31-1.89,2.22-4.81,1-6.67,2.63-.59.05-1.17.11-1.75.16-4.03,1.67-8.21,1.84-12.4.92-1.63-.36-3.14-.77-4.73-.02-5.87-.63-11.86,1.26-17.66-.85Z"/><path class="cls-34" d="m226.34,301.82c-.03-.44-.06-.87-.09-1.3h.01c.42.41.46.83.08,1.3Z"/><path class="cls-1" d="m258.28,281.54c.06,1.64.05,2.67-1.15,3.07-1.01.34-2.06.25-2.66-.71-2.32-3.75-5.65-6.91-6.77-11.4-.2-.82-.66-1.66.2-2.21.46-.29,1.57-.4,1.79-.12,3.02,3.88,5.94,7.83,8.58,11.37Z"/><path class="cls-34" d="m224.79,286.33c4.26.4,8.41-.64,12.57-1.22,1.68-.23,4.71-.47,3.35-3.86-.37-.59-.07-1.08.24-1.57.37-.42.71-.86.78-1.45,2.2-1.71,3.12-.59,2.84,1.59-.17,1.38-1.03,2.78-1.89,3.94-3.82,5.1-9.51,5.28-15.13,5.45-1.76.05-2.63-1.15-2.77-2.87Z"/><path class="cls-62" d="m241.39,279.88c-.37.31-.74.63-1.11.94-1.34.07-2.68.14-4.02.22-3.25.96-6.7-.46-9.92.83-4.53,0-8.98-.49-13.52-1.95,1.22-1.44,2.51-.75,3.57-1.1,1.84-.76,3.44-.13,4.97.87h3.99c5.05-2.15,10.31-1.2,15.51-1,.62.02.48.74.54,1.2Z"/><path class="cls-28" d="m241.39,279.88c-2.87-2.65-6.3-1.14-9.27-.72-2.27.32-4.49.66-6.78.52.28-2.31,1.83-3.26,3.8-2.62,4.03,1.32,8.1.62,12.15.73.96.65,1.1,1.34.09,2.08Z"/><path class="cls-34" d="m226.26,300.52c.42.41.46.83.08,1.3-.03-.44-.06-.87-.09-1.3h0s-.03-.05-.04-.07c.1,0,.19.02.29.04-.08.01-.16.02-.24.03Z"/><path class="cls-34" d="m243.08,279.58c.9-.52.95-.45,1.5.23.81,1-.18.37-1.5-.23Z"/><path class="cls-34" d="m268.24,320.77c-3.74.67-7.56,1.06-10.97,2.95,1.86-3.36,6.46-4.59,10.97-2.95Z"/><path class="cls-34" d="m279.21,317.78c-.86,1.36-1.57,3-3.7,2.2-2.24-.84-3.6.9-5.28,1.74.16-1.99,1.3-2.77,3.23-2.95,1.93-.18,3.84-.64,5.75-.98Z"/><path class="cls-7" d="m326.27,327.51c-1.37.16-2.24-.22-2.75-1.21-.52-.99-.39-1.95.48-2.68.76-.63,1.6-1.17,2.41-1.73,8.44-5.76,16.36-12.28,25.18-17.51,1.57-.93,3.09-2.54,4.71-.47,1.53,1.96.09,3.55-1.42,4.59-8.97,6.17-18.01,12.23-27.05,18.31-.54.36-1.19.54-1.56.7Z"/><path class="cls-48" d="m131.35,344.61c7.44-5.71,16.2-6.57,25.11-6.56,3.79,0,6.34,2.44,8.14,5.64,1.32,6.09-3.56,8.04-7.4,9.59-7.44,2.99-15.33,2.88-22.88.06-4.82-1.8-5.57-4.69-2.96-8.72Z"/><path class="cls-14" d="m131.35,344.61c-1.28,4.65-.34,6.96,4.26,8.06,7.45,1.78,14.92,1.88,22.33-.77,4.07-1.45,6.29-3.98,6.66-8.22,2.33,3.36.11,5.46-2.2,7.37-2.06,1.7-4.79,2.64-5.82,5.44-6.36.34-12.72.68-19.08,1.02.28-.76.74-1.65-.62-1.76-2.46-.19-4.25-1.71-6.16-2.99-4.48-3.02-4.29-5.37.63-8.16Z"/><path class="cls-34" d="m237.08,352.66s-1.16-.03-2.22-.37c-.77-.24-1.42-.94-1.14-1.89.36-1.26,1.56-1.54,2.25-.76,1.79,2.03,4.72-1.41,6.01,1.34.52,1.11-.73,1.6-1.79,1.67-.65.04-1.31,0-3.1,0Z"/><path class="cls-68" d="m99.72,360.96c-.54-.26-1.54-.55-1.53-.79.04-.9.83-1.23,1.68-1.34,3.81,1.95,7.94.05,11.83.99-3.87,1.7-8.03.31-11.97,1.14Z"/><path class="cls-30" d="m185.33,333.7c5.92-2.01,12.06-.28,18.05-1.05,1.81-1.53,4.01-1.28,6.12-1.29,4.93-.04,9.86-.04,14.79-.03,1.78,0,3.67-.08,5.03,1.48-3.37,2.92-7.34,3.12-11.38,2.14-3.22-.78-6.34-1.45-9.53-.09-1.9.81-3.76,1.23-5.68.04-1.96-1.22-3.91-1.19-6.15-.45-3.77,1.24-7.48-.73-11.26-.75Z"/><path class="cls-73" d="m229.33,332.81c-8.65-.05-17.3-.1-25.95-.16,0-.58,0-1.15.01-1.72,4.43-3.07,9.44-.91,14.13-1.58,2.57.18,5.09-.67,7.67-.45,3.38,1.04,7.42-.22,10.22,2.9-1.81,1.62-4.08.56-6.08,1.02Z"/><path class="cls-12" d="m235.42,331.79c-3.36-.62-6.72-1.25-10.08-1.87,5.27-1.22,10.48-3.35,15.97-.99-.33.91-.67,1.81-1,2.72-1.63.05-3.26.1-4.89.14Z"/><path class="cls-66" d="m196.39,298.74c-3.96-.04-6.84,3.9-11.04,3.02,2.58-2.62,5.62-4.49,9.12-5.62.64.87,1.28,1.74,1.91,2.61Z"/><path class="cls-54" d="m176.09,311.66c1.17-1.31,2.17-3.1,4.27-2.7.3.06.79.95.68,1.09-1.19,1.68-3.25.86-4.95,1.61Z"/><path class="cls-46" d="m241.31,328.92c-5.39-.75-10.61,1.33-15.97.99-2.4-.67-4.5,1.61-6.92.69-6.68-1.04-13.44.21-20.12-.66-7.11.83-14.06-.51-21.04-1.51-.31-.04-.47-1.05-.71-1.61.94,0,1.88,0,2.83.01,3.29,1.16,6.79-.25,10.09.8,1.31.08,2.62.16,3.93.24,7.33.64,14.65.59,21.98.03,9.22-.4,18.46-.53,27.65-1.28,7.63-.62,15.2-1.97,22.8-3,1.54-.02,3.45-1.56,4.37,1.04-9.49,2.35-19.3,2.55-28.89,4.25Z"/><path class="cls-40" d="m256.27,311.79c-5.42,2.2-11.24,2.24-16.89,2.51-3.03.14-6,1.03-9.04.71-1.61,1.24-3.65,1.13-5.45,1.79-7.73.45-15.46,1.31-23.21.4-1.76-.21-3.68-.05-5.11-1.48-2.27-1.23-4.78-.73-7.19-.94-1.33-.11-2.71.03-2.79-1.87,8.98.72,17.98.83,27,.83,13.57,0,27.01-1.73,40.49-2.84.7-.06,1.46.57,2.2.88Z"/><path class="cls-15" d="m196.56,315.72c9.52.96,19.04.07,28.56-.02,3.22-.86,3.24.67,2.21,2.97-2.31,0-4.63,0-6.94-.01-6.32,2.22-12.66,2.32-19,.11-.64,0-1.28-.02-1.92-.03-2.49-1.85-5.38-.56-8.05-1.03.73-3.2,3.39-1.43,5.14-2Z"/><path class="cls-58" d="m198.29,329.95c6.71.14,13.47-1.07,20.12.66-5.01.1-10.01.21-15.02.31-1.68-.47-3.61.41-5.11-.97Z"/><path class="cls-16" d="m245.12,296.77c5.65-1.43,11.41-.73,17.12-.9-2.43,2.72-8.47,4.05-11.95,2.19-1.72-.92-3.35-1.24-5.17-1.3Z"/><path class="cls-9" d="m245.28,146.17c-15.54.48-26.64-6.77-34.33-19.82-2.34-3.98-4.43-8.11-6.63-12.17.36-.63.73-1.26,1.09-1.89,2.32.02,2.97,1.84,3.66,3.52,3.86,9.32,9.16,17.62,17.74,23.23,3.71,2.43,8.11,3.65,12.57,4.14,2.41.26,4.57.74,5.89,3Z"/><path class="cls-33" d="m202.42,121.27c3.18,3.87,1.7,9.58,5.29,13.42.58.62-1.28,2.01-2.48,2.6-3.81-4.84-4.83-10.16-2.81-16.02Z"/><path class="cls-5" d="m238.28,102.14c6.07,3.38,11.46,7.41,13.91,14.31.44.9-.06,1.41-.75,1.84-.07,1.37-.8,2.07-2.16,2.13-2.07,1.02-2.45-.63-3.03-1.94-1.83-4.12-4.68-7.43-8.6-9.55-2.93-1.59-6.57-.85-9.69-2.53-3.34-1.8-3.61-2.43-.6-5.33,3.72-.49,7.43-.92,10.91,1.08Z"/><path class="cls-6" d="m253.19,125.48c2.22,1.84-.08,3.64-.05,5.46-1.29.25-2.39-.29-3.49-.84-2.22-1.98-1.39-3.5.73-4.82.94.07,1.87.13,2.81.2Z"/><path class="cls-9" d="m238.28,102.14c-3.6-.68-7.21-1.3-10.91-1.08,1.61-1.42,3.84-.87,5.76-2.18,2.59-1.76,3.11,2.52,5.15,3.25Z"/><path class="cls-9" d="m250.39,125.29c-1.25,1.45-1.32,3.09-.73,4.82-1.91.07-3.44-.54-3.14-2.73.3-2.16,2.17-2.14,3.87-2.09Z"/><path class="cls-9" d="m246.26,118.48c1.01.65,2.02,1.29,3.03,1.94-.23,1.35-.48,2.8-2.4,2.04-2.34-.92-1.46-2.48-.63-3.98Z"/><path class="cls-9" d="m251.44,118.28c.25-.61.5-1.23.75-1.84.08-.86.21-1.7,1.08-2.17.9,1.55,2.66,2.93,1,4.99-.94-.33-1.89-.65-2.83-.98Z"/><path class="cls-2" d="m432.78,278.82c2.11-.55.15-5.01,2.95-3.88,2.56,1.03.58,3.84-.01,5.72-1.11,3.51-3.32,6.13-7.94,7.85,1.8-4.04,5.78-5.73,5.01-9.7,0,0,0,.01,0,.01Z"/><path class="cls-4" d="m236.03,191.93c1.02,13.17,2,26.01,3.02,38.84.16,1.94-.56,3.56-2.39,3.73-1.89.18-1.52-1.89-1.63-3.04-.94-9.69-2-19.38-2.54-29.1-.41-7.4-.13-14.84-.12-22.27,0-1.29-.16-3.15,1.51-3.19,1.8-.05,1.29,1.88,1.57,3.1.91,4.05.71,8.15.58,11.92Z"/><path class="cls-30" d="m201.4,318.77c6.33-.04,12.67-.07,19-.11-.56,1.25-1.44,2.66-2.67,2.72-4.85.22-9.72.21-14.57.05-1.25-.04-1.68-1.43-1.76-2.66Z"/><path class="cls-12" d="m227.34,318.68c.09-1.6-.26-2.89-2.21-2.97,1.64-.97,3.43-.79,5.21-.69,0,.91,0,1.82,0,2.74-1,.31-1.99.62-2.99.93Z"/><path class="cls-38" d="m270.2,324.67c-1.2-1.41-2.91-.69-4.36-1.04,4.39-1.18,8.8-2.19,13.4-1.62.08.01.19.23.19.36,0,.15-.11.3-.17.46-3.08.31-5.85,2.12-9.05,1.85Z"/><path class="cls-64" d="m215.38,327.92c-7.33,1.34-14.66,1.45-21.98-.03,7.33.01,14.66.02,21.98.03Z"/><path class="cls-57" d="m189.47,327.64c-3.39.04-6.83.7-10.09-.8,3.38.09,6.84-.85,10.09.8Z"/><path class="cls-15" d="m226.33,281.86c3.21-1.45,6.61-.63,9.92-.83-3.19,1.68-6.62.46-9.92.83Z"/><path class="cls-3" d="m151.35,340.88c1.15-.05,2.3-.1,3.46-.15,2.94-.14,6.02.01,6.67,3.53.62,3.33-2.34,4.48-4.78,5.4-6.79,2.57-13.69,2.99-20.56.28-1.15-.46-2.64-.82-2.62-2.56.02-1.51.89-2.37,2.22-2.95,3.01-1.33,5.97-2.79,9.38-2.68,2.07,2.4,4.78.09,7.05.96.1-.78-1.08-.98-.82-1.83Z"/><path class="cls-8" d="m151.35,340.88c.55.26,1.09.61,1.67.76,1.01.25,2.68-.32,2.36,1.56-.26,1.49-1.53.62-2.41.58-2.46-.12-4.91-.32-7.32.47-.78.26-1.88.3-1.94-.74-.03-.56.91-1.18,1.41-1.78,2.08-.29,4.16-.58,6.23-.86Z"/></svg>