<?xml version="1.0" encoding="UTF-8"?><svg id="Calque_8" xmlns="http://www.w3.org/2000/svg" viewBox="0 0 500 500"><defs><style>.cls-1{fill:#f4c286;}.cls-2{fill:#f9c184;}.cls-3{fill:#f70000;}.cls-4{fill:#f7bd7f;}.cls-5{fill:#f8c78d;}.cls-6{fill:#f8c78c;}.cls-7{fill:#f4bc7f;}.cls-8{fill:#fac589;}.cls-9{fill:#fac68a;}.cls-10{fill:#fac98d;}.cls-11{fill:#fac98e;}.cls-12{fill:#f7c387;}.cls-13{fill:#f9c78b;}.cls-14{fill:#f9c88d;}.cls-15{fill:#f8ebec;}.cls-16{fill:#f8f4f3;}.cls-17{fill:#fac284;}.cls-18{fill:#fac487;}.cls-19{fill:#6a0003;}.cls-20{fill:#696667;}.cls-21{fill:#f40000;}.cls-22{fill:#f5c489;}.cls-23{fill:#f80000;}.cls-24{fill:#f6c68c;}.cls-25{fill:#f6c48a;}.cls-26{fill:#f6c389;}.cls-27{fill:#f5bb7e;}.cls-28{fill:#f6c286;}.cls-29{fill:#f3bf85;}.cls-30{fill:#f90000;}.cls-31{fill:#fe0000;}.cls-32{fill:#fdce92;}.cls-33{fill:#fdcc92;}.cls-34{fill:#fdcc91;}.cls-35{fill:#fdcc90;}.cls-36{fill:#fdcb8e;}.cls-37{fill:#fdcb8f;}.cls-38{fill:#fff;}.cls-39{fill:#f5bf84;}.cls-40{fill:#f5c185;}.cls-41{fill:#fff6f6;}.cls-42{fill:snow;}.cls-43{fill:#fccd92;}.cls-44{fill:#fcca8e;}.cls-45{fill:#fccb90;}.cls-46{fill:#fccb8f;}.cls-47{fill:#fccc90;}.cls-48{fill:#ffc3c4;}.cls-49{fill:#ffcf93;}.cls-50{fill:#ffd094;}.cls-51{fill:#fcc88c;}.cls-52{fill:red;}.cls-53{fill:#fcc98c;}.cls-54{fill:#fbc98d;}.cls-55{fill:#fbc98e;}.cls-56{fill:#fbc486;}.cls-57{fill:#fbc385;}.cls-58{fill:#f0bc83;}.cls-59{fill:#fece93;}.cls-60{fill:#fece92;}.cls-61{fill:#fecc91;}.cls-62{fill:#fecd91;}.cls-63{fill:#fecd92;}.cls-64{fill:#fbc88c;}.cls-65{fill:#fbc68a;}.cls-66{fill:#fbc689;}.cls-67{fill:#ff787e;}.cls-68{fill:#6b6969;}.cls-69{fill:#663d26;}.cls-70{fill:#690001;}.cls-71{fill:#9d384e;}.cls-72{fill:#a25c36;}.cls-73{fill:#a05b31;}.cls-74{fill:#90473b;}.cls-75{fill:#92374f;}.cls-76{fill:#923a4b;}.cls-77{fill:#737070;}.cls-78{fill:#670001;}.cls-79{fill:#bb703a;}.cls-80{fill:#302f2f;}.cls-81{fill:#302f30;}.cls-82{fill:#90344c;}.cls-83{fill:#b9581e;}.cls-84{fill:#939090;}.cls-85{fill:#cf762a;}.cls-86{fill:#ce7c3c;}.cls-87{fill:#d07222;}.cls-88{fill:#a70002;}.cls-89{fill:#a5a0a1;}.cls-90{fill:#aca7a8;}.cls-91{fill:#b00000;}.cls-92{fill:#a9a4a5;}.cls-93{fill:#b1acad;}.cls-94{fill:#d88642;}.cls-95{fill:#d8853f;}.cls-96{fill:#d98541;}.cls-97{fill:#b36235;}.cls-98{fill:#a66538;}.cls-99{fill:#a6a1a2;}.cls-100{fill:#bf5a18;}.cls-101{fill:#be7c45;}.cls-102{fill:#da0106;}.cls-103{fill:#db843f;}.cls-104{fill:#c8620e;}.cls-105{fill:#cb7326;}.cls-106{fill:#ca6a19;}.cls-107{fill:#ca894f;}.cls-108{fill:#ca7a3a;}.cls-109{fill:#d18041;}.cls-110{fill:#d1834c;}.cls-111{fill:#d17e3d;}.cls-112{fill:#ca6616;}.cls-113{fill:#cc6916;}.cls-114{fill:#d37f3b;}.cls-115{fill:#d28a4c;}.cls-116{fill:#d1bdc6;}.cls-117{fill:#d27e3d;}.cls-118{fill:#d2803f;}.cls-119{fill:#c47738;}.cls-120{fill:#d78d4d;}.cls-121{fill:#d70005;}.cls-122{fill:#dd8841;}.cls-123{fill:#d6823c;}.cls-124{fill:#d68747;}.cls-125{fill:#da646d;}.cls-126{fill:#dd0103;}.cls-127{fill:#d88440;}.cls-128{fill:#ada9aa;}.cls-129{fill:#d98844;}.cls-130{fill:#d8ccd3;}.cls-131{fill:#d8ccd4;}.cls-132{fill:#c67638;}.cls-133{fill:#de0001;}.cls-134{fill:#e39856;}.cls-135{fill:#decdd4;}.cls-136{fill:#e29958;}.cls-137{fill:#e29b5a;}.cls-138{fill:#c87f45;}.cls-139{fill:#e09454;}.cls-140{fill:#d7833e;}.cls-141{fill:#d68340;}.cls-142{fill:#d6833f;}.cls-143{fill:#d80002;}.cls-144{fill:#d6c9d2;}.cls-145{fill:#d6c8d1;}.cls-146{fill:#a8a3a4;}.cls-147{fill:#242222;}.cls-148{fill:#24201d;}.cls-149{fill:#1f1e1e;}.cls-150{fill:#222021;}.cls-151{fill:#212020;}.cls-152{fill:#201f20;}.cls-153{fill:#433a32;}.cls-154{fill:#414040;}.cls-155{fill:#1c130d;}.cls-156{fill:#44392f;}.cls-157{fill:#3e3d3e;}.cls-158{fill:#960002;}.cls-159{fill:#a39e9f;}.cls-160{fill:#820001;}.cls-161{fill:#a40202;}.cls-162{fill:#955934;}.cls-163{fill:#970001;}.cls-164{fill:#955b3a;}.cls-165{fill:#a39f9f;}.cls-166{fill:#959293;}.cls-167{fill:#463a3b;}.cls-168{fill:#8b0002;}.cls-169{fill:#898085;}.cls-170{fill:#6d6b6c;}.cls-171{fill:#894f3a;}.cls-172{fill:#890000;}.cls-173{fill:#9d0000;}.cls-174{fill:#6d5135;}.cls-175{fill:#646263;}.cls-176{fill:#281a14;}.cls-177{fill:#2b292a;}.cls-178{fill:#2d2d2d;}.cls-179{fill:#262526;}.cls-180{fill:#342e28;}.cls-181{fill:#27221c;}.cls-182{fill:#5a5145;}.cls-183{fill:#5a5959;}.cls-184{fill:#393939;}.cls-185{fill:#3c3b3b;}.cls-186{fill:#3c2b1e;}.cls-187{fill:#2f2b26;}.cls-188{fill:#4c3f33;}.cls-189{fill:#4b3e31;}.cls-190{fill:#5f5b5d;}.cls-191{fill:#626061;}.cls-192{fill:#604129;}.cls-193{fill:#471d1f;}.cls-194{fill:#760000;}.cls-195{fill:#623f28;}.cls-196{fill:#7a7677;}.cls-197{fill:#514437;}.cls-198{fill:#4e4338;}.cls-199{fill:#840002;}.cls-200{fill:#271c13;}.cls-201{fill:#7b6e6e;}.cls-202{fill:#4f4133;}.cls-203{fill:#7b7778;}</style></defs><path class="cls-151" d="m195.6,397.07c-1.11,2.19-2.22,4.37-3.34,6.56-5.87,11.55-11.77,23.14-19.18,33.76-8.19,11.75-19.45,26.81-33.22,32.12-6.27,2.42-13.03,3.32-19.75,3.51-6.41.18-12.82-.27-19.2-.87-2.45-.23-13.69-1.09-14.24-4.85-.09-.6.06-1.14.43-1.62,3.94-1.3,7.22,1.49,10.94,1.8,5.21.43,10.41,1.01,15.63,1.41,3.59.98,7.22.93,10.85.25,15.76-1.73,26.47-11.71,36.28-22.77,12.62-14.23,20.02-31.7,28.92-48.21,6.31-11.71,12.23-23.62,19.19-34.98,9.55-15.57,24.28-22.48,41.49-25.47,4.74-.82,3.01,2.07.57,3.54-2.85,1.71-6.51,2.6-9.61,3.78-6.62,2.54-13.32,5.16-18.92,9.61-10.63,8.44-16.56,22.23-22.57,34.04-1.42,2.79-2.84,5.59-4.26,8.38Z"/><path class="cls-155" d="m291.02,233.09c-8.41,8.99-16.73,18.07-25.25,26.94-4.51,4.7-9.69,8.76-13.64,14-.4.33-.83.37-1.29.12-.49-.58-.65-1.26-.62-2,.31-1.98,1.8-3.17,3.05-4.51.79-.78,1.58-1.55,2.35-2.34,1.55-1.53,3.09-3.08,4.62-4.63.45-.48.91-.93,1.38-1.38,1.25-1.2,2.45-2.43,3.67-3.65.76-.75,1.53-1.5,2.17-2.36.99-1.42,1.97-2.84,3.41-3.84.64-.52,1.19-1.12,1.68-1.79.9-1.13,1.94-2.13,2.94-3.17,1.06-1.03,2.1-2.08,3.12-3.15,1.22-1.24,2.49-2.42,3.61-3.75.84-1.02,1.48-2.18,2.34-3.18,1.53-1.62,3.13-3.17,4.69-4.75.79-.77,1.58-1.54,2.34-2.34,1.79-1.65,2.93-3.84,4.61-5.58.44-.49.92-.96,1.39-1.42,1.59-1.53,3.12-3.11,4.68-4.67.79-.77,1.57-1.55,2.34-2.34,1.86-1.88,3.79-3.7,5.55-5.67.96-1.19,2.03-2.29,2.99-3.48,1.52-2,3.34-3.71,5.09-5.48.8-.79,1.6-1.58,2.38-2.39,2.56-2.23,4.12-5.32,6.6-7.61.8-.79,1.6-1.58,2.38-2.39,3.21-3.18,6.38-6.39,9.57-9.58,1.13-1.06,2.2-2.17,3.01-3.5,3.96-4.95,8.75-9.08,13.15-13.61,1.22-.97,2.43-1.94,3.34-3.24,2.56-2.26,4.62-5.03,7.24-7.23,1.31-1.11,2.45-2.73,4.55-2.41.7.42,1.07.96.66,1.79-3.41,3.48-6.81,6.96-10.22,10.44-11.62,12.24-23.26,24.45-34.85,36.72-5.11,5.4-10.11,10.9-15.17,16.35-2.48,1.64-4.4,3.8-5.92,6.34-3.55,5.94-8.27,10.76-13.92,14.71,0,0-.04.05-.04.05Z"/><path class="cls-157" d="m43.83,436.93c-6.83-8.69-14.1-17.04-19.89-26.51-9.21-15.05-14.86-31.38-17.94-48.72-.64-3.6-.85-7.13-1.02-10.72-.78-3.13-.21-6.3-.32-9.46.92-1.67,1.78-.49,2.66.04,1.69,7.26,1.59,14.76,2.96,22.08,3.21,17.15,8.75,33.26,18.68,47.87,7.23,10.63,14.99,20.69,24.44,29.4,7.07,6.7,14.93,12.36,23.21,17.47,2.07,1.28,4.48,2.17,5.72,4.52.02.85-.45,1.34-1.19,1.64-5.07.13-8.31-3.71-12.13-6.01-6.99-4.2-14.12-8.45-18.94-15.41-2.08-2.07-4.17-4.13-6.25-6.2Z"/><path class="cls-148" d="m222.18,165.03c-8.56,20.77-5.61,39.82,8.59,57.17.63.77,1.27,1.55,2.03,2.18,7.65,6.35,7.44,6.24,13.71.17.7-.68,1.3-1.55,2.43-1.56.59-.52,1.24-.59,1.95-.27,1.01,1.59-.33,2.61-.91,3.82-.26.39-.57.73-.91,1.06-3.49,2.53-6.76,5.35-10.22,7.91-.52.43-1.03.87-1.53,1.33-2.04,2.15-4.68,3.59-6.74,5.72-2.16,1.94-4.73,3.44-6.47,5.85-2.71,1.75-4.23,5.29-8.06,5.35-.48-.11-.9-.32-1.27-.64-.9-2.08.8-2.95,1.91-4.1,2.65-2.76,5.77-4.97,8.6-7.52,1.23-1.15,2.38-2.38,3.58-3.56,7.1-5.83,6.75-5.52.62-12.28-12.11-13.35-17.79-29.01-15.1-47.21.17-1.16.24-2.31.34-3.47,1.28-7.55,4.74-13.96,10.14-19.35.87.15,1.47.51,1.17,1.54-1.29,2.63-2.59,5.25-3.88,7.88Z"/><path class="cls-180" d="m443.02,46.75c4.53-.96,9.05-1.91,13.58-2.87,1.85-1.47,3.67-1.08,5.47.1,1.95.38,3.91.77,5.86,1.15,1.68,1.18,1.35,2.04-.42,2.68-9.31-1.2-18.09.71-26.87,3.81-19.37,6.85-37.71,15.95-56.1,24.96-1.64.8-3.15,1.9-5.05,2.04-3.23-1.14-1.02-2.57-.22-3.93,1.19-1.63,3.25-.7,4.7-1.59,3.59-1.72,7.18-3.44,10.77-5.17,1.41-2.38,3.95-2.3,6.2-2.86,2.65-1.34,5.3-2.69,7.95-4.03,2.08-.65,1.45-3.28,3.12-4.23,3.2.84,6.13.1,8.98-1.42,1.01-.54,2.25-.76,2.07-2.29-.12-1.05-.64-2.1-1.73-2.07-3.05.08-2.36-3.23-4.11-4.3-.18-.11-.27-.66-.16-.91,1.56-3.88,5.74-2.96,8.58-4.55,2.36-1.32,3.11.52,3.15,2.64-1.76.76-3.63,1.25-5.99,2.46,2.58-.44,4.1-2.19,6.2-1.39,1.69,1.63,1.52,2.72-.89,3.27-1.66.38-1.21,1.74-1,2.75.29,1.38,1.51,1.04,2.38.78,2.19-.64,4.29-1.64,6.51-2.09,3.03-.61,2.7-2.3,1.84-4.38-.54-.87.03-1.22.72-1.51,2.03.16,2.41,2.82,4.46,2.95Z"/><path class="cls-186" d="m458.93,62.94c-11.54,9.34-20.36,20.95-28.28,33.39-5.14,8.08-10.41,16.13-16.71,23.38-6.26,7.22-10.16,8-19.12,4.07-1.98-.87-2.31.65-3.01,1.42-3.31,3.64-6.48,7.4-9.7,11.12-.72-.22-1.22-.68-1.48-1.39,1.25-4.66,5.56-7.23,7.68-11.3.79-.89,1.66-1.7,2.67-2.34,2.02-1.22,4.02-1.39,6.07-.01,4.75,3.19,8.76,1.74,12.44-1.99,6.81-6.92,11.9-15.13,17.06-23.24,7.89-12.37,16.38-24.19,27.47-33.95,2.73-1.77,5.52-3.23,8.8-1.33.19,3.4-2.96.79-3.89,2.16Z"/><path class="cls-182" d="m380.05,75.35c-.12,1.01-2.47,1.24-.98,2.8-2,3.42-3.64,13.39-3.13,18.59.33,3.33-1.12,6.13-2.81,8.84-.24.41-.52.79-.82,1.16-5.31,6.48-11.5,12.09-17.64,17.75-2.89,2.21-4.59,5.87-8.46,6.89-.74-.21-1.22-.67-1.4-1.43,4.76-5.28,9.87-10.19,15.2-14.88,2.97-5.45,8.06-9.12,11.73-13.98,2.24-2.86.92-5.56-.4-8.24-3.87-7.86-3.68-8.78,3.16-14.13,1.23-.97,3.11-1.44,2.51-3.65,1.09-.83,2.12-.93,3.03.27Z"/><path class="cls-150" d="m303.97,322.19c-1.1,3.22-5.29,6.1-7.95,7.99-1.54,1.09-3.18,2.04-4.92,2.78-4.95,2.12-10.49,2.5-15.71,3.51-5.76,1.12-11.52,2.29-17.22,3.68-1.05.26-7.42,2.39-8.17,1.62-1.19-1.21,1.21-2.66-.19-2.9.93-3.07,3.68-2.89,6.01-3.22,5.84-.82,11.64-1.87,17.48-2.68,10.13-.38,19.3-3.08,26.38-10.9.66-.73,3.23-2.16,4.17-1.2.3.3.29.77.11,1.31Z"/><path class="cls-177" d="m226.06,157.15l-1.35-1.24c-.54-3.87,2.59-5.8,4.57-8.2,4.36-5.28,10.55-8.24,16.07-12.06,2.07-.89,3.36-3.05,5.69-3.53.37-.05.75-.09,1.12-.14.12-.02-1.44,4.98-2.08,5.54-.77.67-1.77.98-2.66,1.48-1.69.94-2.92,2-4.57,3.02-2.29,1.41-4.31,2.94-6.26,4.46-3.66,2.87-5.65,3.49-9.65,9.35-.16.23-.61,1.22-.87,1.31Z"/><path class="cls-188" d="m458.93,62.94c.88-1.59,3.01-.29,3.97-1.7,1.68-.93,2.54.59,3.7,1.22,3.84,1.31,6.4-.28,6.39-4.14,0-2.29-.7-4.47-1.83-6.49-.76-1.82-3.33-2.35-3.36-4.69,1.22-.59.3-1.33.14-2.02,6.67,3.51,9.71,9.87,8.02,16.77-1.2,4.87-7.17,6.88-10.95,3.5-1.82-1.63-3.49-3.01-6.07-2.46Z"/><path class="cls-154" d="m376.01,73.01c-1-2.22-5.06.93-5.13-2.93,1.85-1.85,4.97-1.48,6.81-3.87-2.85.62-5.04,1.86-6.74,3.94-2.89-1.1-2.92-2.66-.53-4.31,1.6-1.1,3.35-2.06,5.15-2.8,1.6-.66,3.5-3.07,5.02-.58,1.04,1.71,4.17,3.91.36,6.34-1.58,1.01.49,2.17.51,3.32-1.82.27-3.62.67-5.44.89Z"/><path class="cls-152" d="m439.03,44.14c-.4.39-.79.79-1.19,1.18-4.03,1.72-3.86-1.96-4.7-3.9-1.06-2.46.31-3.54,2.81-3.7.93-.06,1.82-.7,2.74-1.06,1.6-.63,3.86-1.96,4.82-.88,1.37,1.53,1.94,4.01,2.26,6.17.27,1.81-1.75.77-2.61,1.29-1.03,1.93-2.31,2.64-4.13.89Z"/><path class="cls-80" d="m407.94,56.06c-3.24,1.08-4.03-1.37-4.82-3.51-1.02-2.76,1.7-2.6,3.01-3.47.68-.45,1.47-.88,2.26-.98,1.71-.22,3.57-3.11,5.01-.59,1.13,1.98,2.96,4.82-.48,6.9-.49.3-.67,1.09-.99,1.66-1.33,1.32-2.65.07-3.98,0Z"/><path class="cls-149" d="m454.87,40.12c-3.59,1.49-4.06-1.47-4.72-3.59-.65-2.1.18-3.54,2.53-4.49,2.05-.83,4.05-.86,6.11-1.06,1.35-.48,2.89-.95,3.93.21.83.93-.42,1.58-1.06,2.2-2.19,1.14-4.75,1.17-6.95,2.47,1.84-.32,3.64-1.09,5.54-.74.93.33,1.96.57,1.67,1.95h0c-2.21,1.35-3.89,3.91-7.05,3.05Z"/><path class="cls-81" d="m393.84,64.16c-2.06-1.31-5.58.32-6.47-3.54-.43-1.86-.82-3.07,1.36-3.88,2-.75,3.86-1.87,5.85-2.63,1.67-.63,2.89-.02,3.26,1.87-1.66,1.35-3.82,1.8-5.46,3.24,1.86-.91,3.43-2.57,5.71-2.39,1.14,1.13,1.96,2.25-.13,3.26-1.04,1.69-1.75,3.73-4.12,4.08Z"/><path class="cls-200" d="m380.92,135.03c.4.43.79.86,1.19,1.29-3.65,4.05-7.31,8.11-10.96,12.16-.43-.49-.86-.99-1.28-1.48-.47-1.55.72-2.37,1.48-3.38.74-.79,1.4-1.64,1.97-2.56,2.31-2.29,3.6-5.88,7.61-6.03Z"/><path class="cls-191" d="m454.87,40.12c2.35-1.01,4.7-2.03,7.05-3.04-2.28,2.35.31,4.59.15,6.9-1.82-.03-3.65-.07-5.47-.1-.58-1.25-1.15-2.51-1.73-3.76Z"/><path class="cls-170" d="m393.84,64.16c.87-1.87,2.43-3.04,4.12-4.08.3,2.08.19,4.41,2.99,4.99-2.07.95-4.13,1.91-6.2,2.86.5-1.45-.63-2.51-.91-3.78Z"/><path class="cls-146" d="m398.08,56.82c-2.02,1.37-4.01,2.79-6.06,4.1-.96.61-2.16,1.22-2.87-.32-.55-1.18.33-2.02,1.26-2.24,2.54-.61,4.59-2.74,7.43-2.38.29.22.37.5.25.84Z"/><path class="cls-92" d="m428.99,44.98c-2.11,1.24-4.14,2.69-6.64,3.01-.88.11-2.1.47-2.32-.98-.14-.94.57-1.72,1.36-1.74,2.55-.06,4.57-2.98,7.39-1.36.07.36.14.71.21,1.07Z"/><path class="cls-84" d="m376.01,73.01c1.34-3.19,3.3-2.61,5.44-.89.84.33,1.68.65,2.52.98-1.31.75-2.62,1.49-3.93,2.24-1.01-.09-2.02-.18-3.03-.27-.81-.45-1.11-1.16-1.01-2.06Z"/><path class="cls-183" d="m460.85,32.97c.48-.42,1.43-1.09,1.35-1.23-.8-1.53-2.33-.15-3.42-.75,2.11-1.26,4.11-2.11,5.24,1.16.8,2.31,1.48,4.52-2.11,4.92-.34-1.03-1.29-.89-2.06-1.1-.29-1.21,1.08-1.87,1-3.01Z"/><path class="cls-175" d="m407.94,56.06c1.33-1.97,2.65.69,3.98,0,.19.23.22.48.09.74-.38,1.89-.53,3.96-3.12,4.23,1.87-2.08-.27-3.39-.95-4.98Z"/><path class="cls-68" d="m439.03,44.14c1.51.34,2.85-.12,4.13-.89-.05,1.17-.09,2.33-.14,3.5q-2.5,1.47-3.99-2.62Z"/><path class="cls-38" d="m251.03,132.14c-1.22,1.86-2.65,3.47-4.98,3.93-2.54,1.61-5.37,2.64-8.02,4.03-12.65,6.67-19.06,18.11-23.32,31.02-1.03,3.11-2.31,6.25-2.55,9.62-3.3,10.76.65,20.67,3.71,30.64.75,2.43,1.87,4.62.8,7.16-1.72,1.97-2.8.48-4.02-.7-5.48-5.31-10-5.78-16.49-1.72-8.46,5.31-13.73,13.3-18.45,21.79-1.15,2.06-1.46,4.95-4.57,5.4-3.3-2.07-2.43-5.14-.99-7.43,6.23-9.88,11.53-20.56,22.87-26.16,3.75-1.85,7.75-2.31,11.5-3.74-.18-2.6-1.52-4.93-1.65-7.54-.34-5.08-.38-10.16,0-15.23-.48-5.23,2.51-9.72,3.11-14.73,3.6-3.93,3.45-9.44,5.85-13.88,4.52-8.52,10.32-15.76,19.61-19.48,3.58-.02,2.48-3.68,4.07-5.26,4.6-.93,9.23-2.2,13.46,1.14.01.38.03.75.04,1.13Z"/><path class="cls-179" d="m101.11,273.2c8.94-1.93,17.99-3.17,26.44-7.21,9.7-4.63,16.99-11.64,22.1-20.79,8.83-15.84,14.88-32.92,21.75-49.65,4.53-11.02,10.53-21.47,18.5-30.57.65-.48,1.34-.57,2.07-.2.97,1.91-.37,3.22-1.21,4.66-3.76,4.62-6.54,9.86-9.53,14.97-.57.97-1.07,1.97-1.57,2.98-1.56,2.5-2.9,5.1-3.67,7.97-.32.9-.72,1.77-1.16,2.61-5.09,11.22-9.11,22.89-14.01,34.19-3,6.32-6.23,12.49-10.17,18.31-11.18,16.52-27.27,23.64-46.6,24.74-1.24-.29-2.78-.15-2.93-2.02Z"/><path class="cls-184" d="m101.11,273.2c.87.98,2.12.69,3.21.95-.81,2.45-3.09,1.92-4.87,2.4-3.64.98-7.46.44-11.1,1.34-2.64.65-5.4.26-8.03.97-2.03.44-4.12.46-6.13,1-1.98.39-4,.65-5.95,1.2-7.27,1.83-14.32,4.33-21.33,6.97-3.12,1.12-6.18,2.41-9.26,3.61-2.59.82-4.6,2.59-6.75,4.13-2.05,1.27-3.61,3.1-5.29,4.78-.79.81-1.58,1.62-2.35,2.44-6.09,6.23-10.66,13.3-12.08,22.09-1.26,4.56-2.76,9.07-2.85,13.87-.02,1.14-.31,2.27-1.35,3.01-.57-.33-1.14-.67-1.7-1-1.15-1.25-.67-2.65-.34-4.03,2.82-23.35,13.85-40.78,36.03-50.31,19.22-8.26,39.35-12.31,60.15-13.43Z"/><path class="cls-178" d="m192.13,165.06c-.74-.03-1.48-.05-2.23-.08,12.56-15.71,25.61-30.8,46.14-36.42,3.92-1.08,7.93-.4,11.9-.48,1.77-.04,3.35.59,3.05,2.93-4.67-1.07-9.33-1.96-13.98.09-.55.45-1.11.88-1.8,1.1-9.35,2.21-16.17,8.54-23.35,14.28-1.57,1.32-2.98,2.8-4.4,4.27-4.02,4.19-8.48,7.96-12.05,12.6-.8,1.04-1.67,2.14-3.29,1.71Z"/><path class="cls-181" d="m251.28,223.13c-.78-.05-1.56-.1-2.35-.15,11.8-11.16,23.67-22.24,35.37-33.51,8.33-8.03,16.42-16.31,24.62-24.47.89-.44,1.23.14,1.54.81.17.98-.16,1.86-.6,2.7-.23.41-.51.77-.83,1.11-3.05,3-6.47,5.63-9.26,8.9-2.37,2.61-4.4,5.53-7.16,7.78-.69.52-1.38,1.04-1.93,1.73-1.33,1.87-3.12,3.23-4.91,4.6-1.07,1.09-2.12,2.2-3.34,3.13-1.67,1.45-3.17,3.07-4.74,4.62-.79.77-1.57,1.55-2.34,2.34-1.88,1.86-3.74,3.73-5.6,5.61-.45.48-.93.94-1.4,1.4-1.84,1.92-3.86,3.63-6.02,5.17-2.37,2.06-4.32,4.57-6.85,6.42-1.23.9-2.16,2.72-4.2,1.79Z"/><path class="cls-187" d="m310.02,166.13c-.36-.37-.73-.75-1.09-1.12,11.97-11.68,23.93-23.37,35.9-35.05.4.39.8.79,1.2,1.18-.96,4.9-5.71,6.73-8.32,10.29-.46.5-.95.98-1.44,1.45-4.47,3.88-8.29,8.42-12.53,12.53-.81.8-1.62,1.6-2.41,2.42-2.11,2.24-4.46,4.23-6.7,6.32-1.29,1.21-2.52,2.6-4.61,1.97Z"/><path class="cls-147" d="m301.94,307.79c4.01.77,5.07,3.72,5.35,7.25-.07,2.84-1.47,5.1-3.18,7.22-.47-.46-.94-.93-1.41-1.39-.96-1.84.19-3.55.28-5.33.15-2.82-1.01-3.76-3.61-2.33-.87.48-1.66,1.13-2.35,1.84-8.27,8.42-18.03,8.83-28.53,5.34-10.07-3.23-14.14-11.61-17.52-20.52-.63-1.66-1.07-3.45-1.22-5.27-.1-1.88-.15-3.76-.13-5.64-.02-3.79.22-7.58-.21-11.37-.06-1.46.31-2.72,1.59-3.59.37.02.75.03,1.12.05-.14,9.18.58,18.21,3.41,27.07,4.01,12.52,14.75,18.97,27.56,17.82,3.77-.34,6.97-2.63,9.84-5.24,2.67-2.42,5.08-5.34,9-5.9Z"/><path class="cls-145" d="m274.02,334.05c-5.64,1.74-11.55,1.96-17.32,2.92-2.4.4-4.78.57-6.88,1.91-18.51,3.42-33.03,12.11-42.53,29.18-11.54,20.74-21.8,42.17-33.74,62.68-9.01,15.48-20.67,28.33-36.88,36.62-3.68,1.88-7.51,2.52-11.53,2.66-3.72.62-7.45.53-11.18.05-9.19-.06-18.24-.9-26.88-4.36-2.14-.03-3.78-1.03-5.07-2.67-10.34-6.11-20.31-12.72-29.04-21.05,1.91-1.72,3.83-.6,5.53.22,13.47,6.49,28.14,8.42,42.59,11.04,6.64,1.2,13.52.59,20.21,1.79,1.34.52,1.91,1.75,2.61,2.88,4.09,6.59,6.56,7.39,13.49,4.35,4.49-1.97,8.18-5.14,11.54-8.55,18.3-18.58,31.69-40.38,41.81-64.29,2.58-5.43,5.48-10.69,8.51-15.88,4.17-6.15,8.16-12.42,11.8-18.91,2.22-3.51,5.06-6.4,8.59-8.6,1.39-.54,2.57-1.46,3.84-2.22,14.94-7.25,30.5-12.22,47.27-12.68,1.42.6,3.44.52,3.28,2.9Z"/><path class="cls-190" d="m82,463.05c1.69.89,3.38,1.78,5.07,2.67-.04.46-.09.92-.13,1.38-2.02-1.02-4.05-2.03-6.07-3.05l1.13-.99Z"/><path class="cls-171" d="m279.06,242.07l-3.01,2.97c-2.03.09-2.78,1.33-2.86,3.18-.15.76-.43,1.42-1.26,1.67-1.34-.62-3.18.43-4.22-1.23-.25-2.16.57-3.86,2.52-4.75,2.17-.99,2.87-2.86,3.47-4.89,1.76-1.11,4.51-.98,4.95-4.2-1.89.16-2.51,1.88-3.73,2.63-.95.61-1.59,1.53-2.33,2.36-1.38,1.08-2.65,2.27-3.86,3.53-.45.48-.92.94-1.39,1.4-1.58,1.53-3.13,3.1-4.67,4.68-.45.49-.92.96-1.39,1.42-.52.86-1.88,1.21-1.57,2.64,1.56-.44,1.99-2.01,3.1-2.85,1.61-.82,3.11-1.95,5.05-1.87,1.72,1.69-.49,3.46.1,5.17-.36.94-.86,1.76-1.84,2.17-4.04-1.5-3.57,1.7-4.07,3.9-.35.35-.7.69-1.04,1.04-2.04-.48-4.02.71-6.06.19-.28-.34-.43-.74-.48-1.18.38-1.56,1.15-3.11.24-4.74.03-1.2-.03-2.41.06-3.61,1.16-1.89,2.72-3.46,4.11-5.17,1.29-1.19,3.55-1.48,3.85-3.88-2.47-.4-3.06,1.68-4.34,2.67-2.55,1.91-4.82,4.15-7.33,6.12-.68.31-1.38.38-2.11.23-.74-.26-1.24-.75-1.46-1.51-.14-1.29.35-2.37,1.1-3.37,1.15-1.15,2.59-1.9,3.93-2.78,1.61-1.13,2.77-2.79,4.41-3.89.94-.93,1.66-2.05,2.56-3.02,4.35-1.08,5.93-5.71,9.66-7.59,1.75-1.16,2.02-3.28,3.12-4.87,3.31-1.24,5.78-3.42,7.37-6.59,3.66-.95,5.91-3.71,8.22-6.4.63-.36,1.31-.48,2.03-.39.7.14,1.29.5,1.8.98,2.43,2.97,4.05-.84,6.13-.74.46.06.85.25,1.18.57-.9,2.92-2.35,5.78-.9,8.93-.36.36-.71.71-1.07,1.07-.31.14-.66.26-.93.12-2.18-1.05-4.24-1.62-5.94.87-1.73,2.52,1.19,3.25,1.78,4.87-.66.67-1.32,1.34-1.98,2.01-.67-.08-1.25-.36-1.76-.76-1.39-1.11-2.75-1.74-4.27-.16-1.4,1.46-.64,2.63.38,3.82.55.64.75,1.43.82,2.25l-2.11,2.85c-2.07.64-3.57,1.82-3.93,4.11Z"/><path class="cls-118" d="m328.16,189.14c-2.4,2.63-4.09,5.91-7.25,7.85-2.82.27-3.79-1.54-4.36-3.83.49-3.17,3.52-4.66,5.06-7.57-6.42.67-1.82-4.83-4-6.64.06-1.37.81-2.14,2.11-2.44,2.58,1.46,4.8-.36,7.17-.8.69.27,1.17.76,1.4,1.47.02,1.06-.45,1.9-1.12,2.69,3.41-2.55,5.48-6.44,8.81-9.07.94,2.39,4.96,2.81,4.09,6.36-3.08,3.59-6.29,7.05-9.94,10.09-2.73-1.53-1.33,1.25-1.97,1.89Z"/><path class="cls-162" d="m359.09,157.13c-.25,1.8-1.93,2.11-3.1,2.95-2.82.46-4.44,2.64-6.37,4.39-2.04,1.85-3.52,4.42-6.47,5.13-.47-.02-.9-.17-1.29-.45.05-4.09,4.02-5.31,5.89-8.06.3-.34.62-.65.95-.96.36-.58,1.27-.75,1.16-1.66-.25.17-.5.35-.74.58-2.19,2.08-4.21,4.3-6.41,6.33-1.31,1.21-2.54,2.8-4.73,1.92-.32-.36-.51-.77-.58-1.25,2.52-4.78,6.59-8.16,10.49-11.7,1.08-.81,1.8-1.95,2.67-2.97,3.15-2.6,5.1-6.64,9.41-7.85.77.14,1.26.58,1.49,1.33.11,1.05-.64,1.71-1.13,2.49-1.21,1.74-2.88,3.02-3.91,4.19,1.21-.94,2.58-2.49,3.95-4.05,1.08-1.12,1.53-3.15,3.76-2.58.51.54.73,1.21.78,1.93-.02,2.97-2.41,4.43-4,6.43-.87,1.09-3.19,1.65-1.81,3.85Z"/><path class="cls-132" d="m299.01,212.01c-.3-.01-.6-.03-.9-.05-2.81-2.47-4.45,1.51-6.87,1.24-.47-.46-.93-.91-1.4-1.37.31-2.82,3.29-4.91,2.25-8.11.19-.97.53-1.81,1.66-1.99.48.11.99.27,1.27.65,2.93,3.93,6.16,5.28,10.19,1.4.56-.54,1.49-.57,2.32-.58,2.55.58,4.41,1.67,3.58,4.78-2.02,2.04-4.03,4.08-6.05,6.11-2.39.8-3.3-2.18-5.4-2.12-.21.02-.43.03-.64.04Z"/><path class="cls-72" d="m341.86,169.01c.39.02.77.04,1.16.06.7,1.66-1.07,3.17-.28,4.83-.56,1.36-1.39,2.49-2.67,3.27-.1-.48-.24-1.4-.28-1.39-3.53.36-2.83-2.92-3.98-4.58-2.32,2.36-4.11,5.42-7.85,5.89-.34-.35-.67-.7-1.01-1.05-.39-2.08,1.47-2.69,2.57-3.64,2.35-2.03,1.98-3.71-.21-5.44-1.11-1.13-2.04-2.41-3.03-3.64-.66-.98-1.31-2.11-.4-3.14,1-1.13,2.06-.45,2.96.39.32.29.63.6.94.91.95.87,2.07,1.54,2.96,2.48,1.28,1.82,3.64.84,5.18,1.97.04.44.08.88.12,1.33.55.55.62,1.42,1.31,1.86.86.12,1.67-.49,2.51-.11Z"/><path class="cls-140" d="m359.09,157.13c-.75.12-1.54.92-2.24.16-1.03-1.12.22-1.68.76-2.37,2.06-2.66,5.4-4.25,6.41-7.77.92-1.88,1.87-3.79,3.77-4.85,2.1-1.17,4.04-1.55,4.31,1.82-.75.96-1.49,1.93-2.24,2.89-3.59,3.37-7.18,6.75-10.77,10.12Z"/><path class="cls-176" d="m251,273.99c-.34.93-.68,1.87-1.02,2.8-.02.66-.1,1.32-.44,1.91-1.44,1.64-3.22,2.99-4.26,4.97-1.71,2.04-3.54,3.96-5.61,5.63-1.27,1.02-2.76,2.21-4.13,0,.08-4.61,4.34-6.36,6.53-9.53.46-.49.95-.95,1.44-1.42,1.82-1.57,3.24-3.5,4.66-5.42.44-.51.95-.92,1.55-1.22.45-.14.86-.07,1.24.19.01.7.02,1.39.03,2.09Z"/><path class="cls-141" d="m319.11,199.03c-1.75,2.01-3.51,4.02-5.26,6.03-2.99,1.28-3.99-1.79-5.97-2.73-.24-.43-.3-.89-.23-1.37,2.2-2.44,4.58-4.68,7.47-6.32,2.36.52,4.05,1.65,3.98,4.38Z"/><path class="cls-95" d="m342.75,173.9c-3.37-1.81-.39-3.25.28-4.83,2.82-2.67,5.71-5.28,8.44-8.04,1.39-1.4,2.63-2.45,4.52-.95-4.41,4.61-8.83,9.21-13.24,13.82Z"/><path class="cls-96" d="m291.91,227.95c-2.25-.19-4.43-2.06-4.2-3.44.3-1.77,2.38-3.49,4.06-4.71,2.69-1.96,3.3,1.89,5.22,2.29-1.32,2.28-3.01,4.24-5.09,5.87Z"/><path class="cls-109" d="m285.1,235.11c-.38-2.36-6.49-2.01-2.75-6.48,3.69-4.41,5.51-1.63,7.59,1.33-1.09,2.2-3.08,3.56-4.83,5.15Z"/><path class="cls-127" d="m298.07,221.02c-4.6-3.52-1.62-6.24.94-9.01,0,0-.03.03-.03.03,2.5.18,4.82.54,4.06,4.02-1.66,1.65-3.31,3.31-4.97,4.96Z"/><path class="cls-86" d="m254.94,260.94c2.02-.11,4.08-2.66,6.05.1-1.34,1.94-2.88,3.68-4.89,4.96-2.87-1.12-3.22-2.81-1.16-5.06Z"/><path class="cls-142" d="m250.97,271.9c-.28.08-.56.14-.85.18-3.98-1.36-4.32-2.44-1.55-4.92.98-.88,2.02-1.68,3.43-1.73,1.43.31,2.44.96,2.16,2.67-1.06,1.27-2.13,2.54-3.19,3.81Z"/><path class="cls-82" d="m254.16,268.1c-.4-1.01-1.12-1.71-2.12-2.14-.94-.38-1.6-1.01-1.79-2.05-.09-.73.03-1.42.41-2.06,1.23-1.04,2.33-2.4,4.26-1.76,0,.28.01.57.03.85-.81,1.96-.27,3.61,1.16,5.06-.65.7-1.3,1.4-1.95,2.1Z"/><path class="cls-111" d="m262.04,260c-3.01-2.76-.43-4.38,1.42-5.78,2.23-1.69,2.26.53,2.66,1.88-1.27,1.39-2.23,3.1-4.07,3.9Z"/><path class="cls-117" d="m267.95,253.93c-3.64-1.7.95-3.29.06-4.95l-.04.04c1.34.18,3.14-1.67,3.96.88-1.33,1.35-2.65,2.69-3.98,4.04Z"/><path class="cls-76" d="m308.03,201.87c2.55-.04,3.23,3.32,5.82,3.19-.92.97-1.83,1.94-2.75,2.91-.49-2.38-1.93-3.72-4.35-4.01-.18-.36-.22-.72-.08-1.1.32-.52.75-.88,1.36-.99Z"/><path class="cls-119" d="m279.06,242.07c-2.97-1.94.53-2.37.83-3.55,1.13.34,1.37-4.24,3.1-.56-1.31,1.37-2.62,2.74-3.93,4.11Z"/><path class="cls-171" d="m303.03,216.06c-.39-2.31-2.48-2.91-4.06-4.02.18-1.74.8-2.49,2.42-1.09,1.21,1.05,2.44,2.09,3.66,3.13-.67.66-1.35,1.32-2.02,1.98Z"/><path class="cls-71" d="m319.11,199.03c-1.34-1.37-2.68-2.75-4.01-4.12-.32-.25-.45-.58-.38-.98.25-.54.65-.94,1.2-1.18.41-.06.72.1.94.45,1.35,1.26,2.71,2.53,4.06,3.79-.6.68-1.2,1.37-1.8,2.05Z"/><path class="cls-108" d="m273.19,248.22c-2.39-2.53.6-3.32,1.68-4.37.93-.9,1.02.51,1.18,1.19-.95,1.06-1.91,2.12-2.86,3.18Z"/><path class="cls-75" d="m328.16,189.14c-.06-1.96-2.04-2.8-2.75-4.76,2.89-1,2.9,2.54,4.72,2.87-.66.63-1.32,1.26-1.97,1.89Z"/><path class="cls-38" d="m121.81,455.93c-14.75.45-29.03-2.81-43.41-5.38-7.81-1.4-14.85-4.92-22.11-7.84-1.12-.45-2.18-.69-3.34-.71-24.6-22.73-40.44-50.13-44.86-83.71-.72-5.44-.97-10.87-1.12-16.33-.06-6.21.75-12.26,3.31-17.99,1.88-1.41,3.19-3.16,4.29-5.32,2.15-4.19,2.75-9.27,7.12-12.26,1.43-.98.64-3.16,1.26-4.69.62-.62,1.23-1.23,1.85-1.85,3.06-.09,4.74-1.76,5.3-4.68,2.16-1.68,3.9-4.03,6.95-4.24,4.19,1.53,7.2.28,9.02-3.81,7.12-3,14.36-5.65,21.99-7.04,2.45,1.9,4.29.76,5.96-1.21,1.79-1.67,4.03-.51,6.01-.95,4.64,4,10.49,3.61,16.01,4.37,18.19,2.51,34.72-2.28,48.07-14.35,8.36-7.56,14.76-17.38,17.93-28.81,2.42-8.76,4.46-17.59,8.18-26.06,2.11-4.81,4.41-10.28,3.83-16.06-.13-.93.45-1.48,1.07-2,3.94-1.43,5.64-3.91,3.75-8.06.12-1.12.2-2.26,1.31-2.94,3.73-4.7,9.77-7.89,9.78-15.01.72-1.32,1.44-2.63,2.16-3.95,4.81-5.12,9-10.84,14.69-15.1,1.96-.79,4.07-1.42,4.12-4.11,7.06-6.48,14.34-12.6,24.1-14.64,3.31,2.38.47,3.47-1.02,4.84-8.89,3.78-14.72,10.61-18.99,18.99-3.61,3.98-3,9.76-6,13.99-1.19,4.29-3.24,8.38-3,13-.83,6-.83,12,0,17.99.67,2,1.33,4,2,6,.33,1.19-.43,1.44-1.33,1.46-11.55.18-19.48,6.46-25.59,15.49-4.29,6.35-8.14,12.68-10.81,20.25-6.14,17.43-16.73,32.27-33.33,41.69-7.37,4.19-15.31,7.19-23.48,9.58-17.05,4.99-35.19,24.58-34.26,41.71.1,1.84-.7,3.58-1.11,5.36-1.11,4.8-.95,9.25,1.38,13.98,2.15,4.36,2.31,9.59,1.79,14.51-.58,5.46.88,7.65,6.35,8.18,3.09.38,4.76,2.77,6.51,4.87,4.32,5.17,8.96,10.01,14.23,14.19,2.46-.27,3.47-3.84,6.47-2.83,1.18.61,2.25,1.43,3.47,2,1.01.63,1.87,1.43,2.73,2.24,4.09,3.48,5.87,8.22,7.23,13.2.29,3.87.1,7.74.17,11.61.11,5.28-2.9,9.73-3.94,14.73-.87,4.2-1.84,8.37-2.06,12.66-.06,1.28.34,2.54.22,3.83-.09.53-.37.93-.84,1.2Z"/><path class="cls-52" d="m173.17,243.29c4.3-7.01,7.75-14.54,13.39-20.7,3.39-3.7,7.02-7.05,11.68-9.03,7.21-3.07,11.61-1.64,16.03,4.94.33.49,1.07.72,1.61,1.07,3.16,1.15,4.1,3.95,4.93,6.78.55,1.87,1.04,3.76,1.99,5.47.61,3.48,4.01,6.01,3.43,9.9-3.21,4.24-8.41,6.48-11.22,11.13-.37.79-1.14,1.14-1.78,1.63-4.35,3.3-4.42,4.53-.54,8.5.57.58,1.22,1.09,1.63,1.83.14.46.16.93.04,1.4-4.82,6.04-11.26,10.31-17.09,15.19-17.86,14.94-35.96,29.6-52.49,46.05-1.9,1.89-4.09,3.41-6.08,5.17-9.29,8.95-18.24,18.25-27.46,27.27-1.43,1.4-2.55,3.63-5.22,2.97-1.18-2.1.22-3.45,1.45-4.79,14.26-15.61,29.65-30.07,45.35-44.22,4.68-4.22,9.21-8.62,13.46-13.3-2.45,1.93-3.9,4.94-6.83,6.34-5.21,2.84-8.68,7.68-13.04,11.5-7.74,6.79-14.76,14.39-22.56,21.14-2.29,2.04-4.77,3.92-5.98,6.9-1.25,2.3-3.62,3.39-5.46,5.06-3.63,1.97-5.66,5.86-9.3,7.82-2.12-.38-3.73.47-5.4,1.77-1.91,1.49-3.59,3.55-6.34,3.65-3.4-.66-4.09-3.57-4.88-6.19-1.1-3.65-2.47-7.11-5.17-9.91-.64-1.84-.68-3.66.17-5.45,2.47-1.8,3.56-4.16,3.35-7.27-.18-2.68.55-5.3,1.5-7.78.89-2.32.91-4.51-.01-6.77-.38-2.44,1.2-4.06,2.49-5.76,7.68-10.12,17.78-16.86,29.76-20.75,10.85-3.51,20.8-8.65,29.91-15.48,9.19-6.89,14.8-16.38,19.5-26.58,1.51-3.27,2.44-6.9,5.2-9.51Z"/><path class="cls-144" d="m221.94,232c-2.36-3.98-2.78-8.9-6.05-12.43,1.05-6.2-3.26-11.07-4.22-16.85-1.26-7.61-3.71-15.03-.6-22.71,1.48-1.81,1.81-4.74,4.89-4.98-.76,4.54-1.27,9.08-.95,13.7.99,14.36,6.21,26.79,16.25,37.26,2.04,2.13,6.92,3.01,6.28,5.22-1.03,3.59-5.22,5.62-8.5,7.82-3.54-1.16-4-5.43-7.1-7.04Z"/><path class="cls-79" d="m267.94,208.92c.4-.36.79-.72,1.19-1.08,2.55-1.4,5.92-2.02,5.76-6.01.68-.62,1.35-1.23,2.03-1.85,2.92-.48,5.2-1.59,5.09-5.1.97-.93,1.94-1.85,2.9-2.78,3.97.7,5.12-1.59,5.25-4.96.17-.99.98-1.07,1.73-1.25.65.09,1.37.31,1.95.05,3.6-1.58,6.65-2.79,4.52,3.43-.66,1.93,2.11,2.21,2.84,3.63-.03,1.96-1.43,2.26-2.94,2.45-.83-.15-1.55-.56-2.23-1.03-1.54-1.07-2.96-1.24-4.45.18-1.63,1.56-.98,2.9.16,4.31.53.65.83,1.42.82,2.28-.35,1.25-1,2.16-2.47,2.11-.76-.37-1.28-1.01-1.81-1.63-1.26-1.49-2.61-1.97-4.19-.46-1.45,1.39-1.6,2.78-.05,4.22.73.68,1.34,1.46,1.33,2.55-.33,1.2-.82,2.26-2.31,2.29-1.08-.52-1.63-1.62-2.52-2.33-1.74-1.39-3.08-.33-4.35.79-1.39,1.21-.77,2.31.29,3.35.85.84,1.43,1.81,1.4,3.06-.11.98-.4,1.84-1.47,2.16-1.11-.1-1.74-.89-2.35-1.67-1.31-1.67-2.79-2.49-4.58-.76-2.07,2.01-.23,3.19,1.1,4.42.61.56,1.29,1.05,1.67,1.82-.18,1.86-1.51,2.22-3.03,2.32-1.34-.32-2.21-1.33-3.17-2.2-1.28-1.15-2.53-1.41-3.86-.1-1.3,1.27-1.22,2.54-.06,3.86.85.97,1.89,1.83,2.22,3.17-.14,1.38-.83,2.17-2.29,2.13-.14-.08-.28-.17-.42-.26-2.02-1.24-3.45-5.87-6.1-2.99-2.59,2.82,2.59,3.49,3.51,5.65.65,1.57-.7,2.5-1.19,3.71-.26.38-.59.69-.99.92-.46.06-.88-.07-1.24-.36-1.23-2-1.97-4.37-4.22-5.6-1.98-.85-5.46-.89-2.46-4.47-.07-.33-.02-.64.15-.93,4.94-2.86,9.01-6.71,12.66-11.04,2.63-1.41,5.34-2.72,6.18-5.97Z"/><path class="cls-130" d="m215.96,175.04c-1.61,1.68-2.66,3.91-4.89,4.98,2.61-13.89,8.27-26.3,18.68-36.02,4.47-4.18,10.21-6.63,16.29-7.92-3.1,3.5-7.68,4.91-11.12,7.97-3.95,3.52-7.83,7.04-10.22,11.87-3.47,6.12-7.46,12-8.75,19.12Z"/><path class="cls-33" d="m213.97,265.32c-.54-.38-1.12-.72-1.62-1.16-1.94-1.72-5.07-3.35-4.08-6.18.93-2.64,3.4-4.86,6.74-5.14.33.12.67.24,1,.36,1.04.82,2.03,1.69,2.74,2.83.81,1.4,1.97,2.65,1.81,4.45-1.4,2.71-2.76,5.45-6.59,4.84Z"/><path class="cls-10" d="m248.95,226.86c-1.47,3.4,1.83,2.37,3.04,3.28.93,1.22.28,2.22-.43,3.21-4.11.69-4.9,5.34-8.26,6.95-.46.14-.92.16-1.39.07-1.89-1.34-4.17-2.4-3.93-5.32,3.69-2.68,6.38-6.7,10.96-8.2Z"/><path class="cls-47" d="m217.75,255.94c-1.07-.6-1.73-1.47-1.73-2.74,3.53-.43,4.47-4.72,7.9-5.29.2.1.4.2.6.3,1.34,1.73,3.36,2.98,3.87,5.32-.85,2.84-3.31,3.87-5.65,5.05-2.35.43-3.42-1.58-4.99-2.64Z"/><path class="cls-45" d="m223.91,247.91c.92-3.13,3.76-4.25,6.12-5.87.24.05.48.1.72.15,2.05,1.39,4.13,2.76,3.76,5.74-1.24,2.11-2.66,4.02-5.32,4.44-2.17-.95-3.9-2.42-5.21-4.4l-.08-.06Z"/><path class="cls-47" d="m230.04,242.04c1.72-2.69,4.46-4.2,6.92-6.05,1.97,1.33,3.86,2.72,4.62,5.14-.79,2.78-2.49,4.63-5.38,5.25-2.37-1.03-3.92-3.21-6.2-4.38l.04.05Z"/><path class="cls-16" d="m221.94,232c.27-1.1.68-2.06,1.74-.61,1.84,2.51,3.58,5.1,5.36,7.65-.94.89-1.87,1.78-2.81,2.68-1.42-3.24-4.3-5.85-4.29-9.72Z"/><path class="cls-58" d="m261.97,214.51c-2.37,5.97-6.96,9.45-12.88,11.42.73-.93,1.46-1.87,2.19-2.8,3.57-3,7.14-6.01,10.71-9.01,0,0-.02.38-.02.38Z"/><path class="cls-123" d="m241.19,241.13c-1.41-1.71-2.82-3.43-4.23-5.14.34-.31.68-.62,1.03-.93,1.38,1.63,2.76,3.25,4.15,4.88.26.85-.17,1.16-.94,1.2Z"/><path class="cls-50" d="m465.92,63.22c-1.01-.66-2.02-1.32-3.03-1.98-3.21-.76-6.08.09-8.75,1.86-12.38,9.2-23.11,19.85-30.45,33.65-3.91,7.36-8.47,14.26-15.83,18.77-1.7,1.04-3.43,2.73-5.36,2.38-4.88-.88-8.61,1.38-12.41,3.72-4.33-1.43-7.66-4.01-9.52-8.28,2.21-3.7,5.33-6.68,7.67-9.65-3.14,2.1-4.09,7.5-9.3,7.99-3.04-1.01-5.25-3.06-7.03-5.64,3.08-5.31,4.1-10.44.03-15.97-2.36-3.22-.83-6.3,2.3-8.51,1.61-1.13,3.21-2.27,4.82-3.4,22.74-11.71,45.48-23.46,70.27-30.4,6.02-1.69,12.23-2.82,18.45-.6,1.32,1.41,3.41,2.04,4.13,4.06,1.3,3.64,1.29,7.14-1.33,10.25-1.19,1.42-2.54,2.72-4.67,1.76Z"/><path class="cls-122" d="m389.93,121.2c3.25-3.04,6.2-4.97,11.58-4.61,6.14.41,10.72-5.21,14.33-10.09,8.58-11.62,14.08-25.56,25.93-34.7,3.98-3.07,7.18-7.32,12.36-8.69-9.6,9.65-18.2,20.1-25.4,31.67-4.9,7.88-10.09,15.55-15.86,22.82-1.45,1.83-3.07,3.44-4.97,4.82-3.61,2.61-7.54,3.16-10.89.27-2.28-1.98-3.95-1.62-6.08-.5-.88.24-1.09-.21-1.01-.97Z"/><path class="cls-94" d="m380.92,135.03c-2.35,2.29-4.71,4.59-7.06,6.88-4.74-.69-1.08-3.75-1.6-5.64,4.15-5.92,9.31-10.67,15.87-13.82.73.34,1.25.8,1.03,1.71-2.04,4.16-5.65,7.13-8.24,10.88Z"/><path class="cls-100" d="m389.16,124.16c-.44-.37-.88-.75-1.32-1.12-3.28-2.06-6.28-4.48-9.11-7.11-.76-.78-1.5-1.57-2.28-2.34-1.02-1.09-2.18-2.01-3.4-2.86-.34-.28-.63-.62-.88-.98-.63-1.22-1.24-2.43-.2-3.74,0,0-.05.04-.05.04,2.91.98,4.55,3.65,6.97,5.28,1.01.19,1.8.64,2.03,1.73,2.66,3.1,5.68,5.79,9.02,8.14.34.32.68.65,1.01.97-.6.66-1.19,1.33-1.79,1.99Z"/><path class="cls-50" d="m371.97,106c-.56,1.57.92,2.63,1.03,4.03-3.59,5.89-9.09,9.99-13.91,14.72-1.4,1.37-3.26,1.65-4.86-.05-.09-.22-.17-.45-.26-.68,6-6.01,12-12.02,18-18.03Z"/><path class="cls-44" d="m336.86,140.93c3.05-3.26,6.11-6.53,9.16-9.79,2.65-2.37,5.29-4.73,7.94-7.1,0,0-.02-.02-.02-.02,1.1,1.51,1.33,3.22.15,4.62-3.95,4.71-8.11,9.23-13.1,12.87-.81.59-1.89.57-2.9.33-.52-.16-.93-.47-1.23-.92Z"/><path class="cls-116" d="m274.02,334.05c-1.01-.63-2.02-1.26-3.04-1.89,3.43-2.5,7.61-1.58,11.41-2.45,7.08-1.62,12.76-5.04,16.56-11.36-4.12,2.28-7.84,5.34-12.74,5.89-2.92.12-5.84.08-8.76.06-3.51-.31-6.8-1.39-10.03-2.72-1.61-2.11.58-1.87,1.5-2.42,10.09,3.44,19.42,3.21,27.35-5.17,1.67-1.76,3.55-5.07,6.39-3.31,3.1,1.92,1.42,5.47.87,8.37-.12.63-.55,1.2-.84,1.8-7.66,8.52-17.08,13.22-28.67,13.19Z"/><path class="cls-129" d="m465.92,63.22c5.86-2.08,6.16-6.93,6-12.01,1.92,2.03,2.09,4.74,2.5,7.24.44,2.7-1.25,4.73-3.44,5.97-1.8,1.02-3.78.92-5.05-1.2Z"/><path class="cls-90" d="m370.94,70.16c.61-2.3,6.06-6.42,7.84-5.82.52.17,1.1.81,1.23,1.34.22.91-.48,1.53-1.23,1.94-2.46,1.37-4.86,2.95-7.9,2.47,0,0,.06.07.06.07Z"/><path class="cls-166" d="m438.08,42.75c-1.44.42-2.34.08-2.14-1.23.48-3.04,3.44-2.4,5.34-3.25,1.22-.55,2.58.4,2.23,1.65-.77,2.78-3.88,1.72-5.43,2.84Z"/><path class="cls-159" d="m412.8,49.39c0,1,.07,1.23,0,1.3-1.95,1.91-4.29,2.94-7.02,2.95-.19,0-.66-1.04-.54-1.16,2.02-2.06,4.61-2.64,7.57-3.09Z"/><path class="cls-165" d="m460.85,32.97c3.92,2.42-1.08,1.87-1,3.01-.33.03-.66.12-.98.09-2.14-.25-5.14,3.58-6.07.13-.7-2.61,3.63-1.97,5.62-2.95.69-.34,1.61-.19,2.43-.27Z"/><path class="cls-74" d="m372.87,136.98c.95,1.52-2.54,3.93.99,4.93-.59.73-1.17,1.47-1.76,2.2-1.09-2.11-2.36-2.49-4.11-.6-1.21,1.31-2.64,2.43-3.97,3.63-.01-.68-.02-1.36-.03-2.04-.07-2.9,3.09-3.43,4.05-5.58.72-.86,1.54-1.62,2.39-2.36.78-.55,1.57-.95,2.45-.19Z"/><path class="cls-38" d="m173.17,243.29c-5.86,15.07-12.49,29.6-26.59,39.1-8.59,5.78-17.68,10.44-27.57,13.66-13.6,4.42-24.82,12.09-31.96,24.9-1.49,6.05-4.3,11.8-4.1,18.22-1.41,4.05-2.42,8.11-.2,12.22,1.06,5.51,1.3,11.31,5.38,15.79,1.5,3.16-3.23,4.08-2.48,6.96.87,1.57,3.05,2.49,2.4,4.81-1.85.91-4.03,1.93-5.36-.23-1.44-2.34-5.14-4.14-3.06-7.7,1.36-2.34,1-4.42.11-6.61-.65-1.61-.96-3.22-.38-4.85.43-1.2.61-2.28-.43-3.19-3.17-2.77-3.53-6.58-2.77-10.13,2.12-9.89,1.29-20.47,7.42-29.46,7.79-11.42,17.47-20.07,31.06-23.91,14.16-4,26.52-11.23,37.3-21.24,3.53-3.28,5.16-8.02,9.33-10.89,1.98-1.36,1.36-4.79,2.28-7.24,1.95-5.18,5.61-9.37,7.19-14.72,1.98-6.74,6.92-11.9,10.67-17.69,3.55-5.49,8.82-8.78,14.29-11.99,3.88-2.27,8.41-1.27,12.3-3.09.82,1.1,2.13,2.29-.76,2.21-9.98-.29-17.35,4.5-23.12,12.16-3.57,4.74-7.04,9.55-10.29,14.51-1.65,2.52-2.66,5.42-.67,8.4Z"/><path class="cls-38" d="m209.02,169.03c2.08-4.63,1.47-10.41,6-13.99-2.64,4.39-1.99,10.19-6,13.99Z"/><path class="cls-38" d="m206.02,200.02c-1.64-6-1.64-12,0-17.99v17.99Z"/><path class="cls-38" d="m234.01,136.04c.76-1.52,2.77-2.78,1.02-4.84.66-.04,1.32-.07,1.98-.11,2.09,3.52-.3,4.33-3,4.95Z"/><path class="cls-38" d="m174.05,197.02c2.46,1.33,2.4,3.46,1.51,5.58-5.09,12.11-9.45,24.48-12.37,37.27-1.03,4.53-3.19,8.38-5.3,12.25-12.81,23.49-36.85,35.58-63.62,31.05-2.94-.5-5.9-.09-8.89-.79-2.82-.66-4.4-1.95-5.34-4.46,2.52-1.48,5.35-.54,8-1.02,5.82-.07,11.59.77,17.42.83,14.48.16,26.6-5.63,37.07-14.9,5.88-5.2,8.73-12.82,12.54-19.6,2.03-3.63,3.67-7.42,4.87-11.4,4.32-11.76,8.58-23.55,14.11-34.82Z"/><path class="cls-131" d="m159.94,231.84c.03,6.82-4.46,11.88-6.92,17.73-5.84,13.88-16.99,21.94-30.48,26.87-8.78,3.21-18.17,3.59-27.43,1.9-2.34-.43-5.09.74-7.07-1.43,3.89-1.66,8.17-.8,12.15-1.86,1.36-.36,2.96.36,4.12-.91,26.14-1.66,43.47-15.44,53.67-39.03.51-1.17.71-2.54,1.95-3.28Z"/><path class="cls-38" d="m189.97,169.01c2.77.56,2.36,2.31,1.35,4.02-.9,1.53-2.05,2.93-3.19,4.3-1.38,1.65-3.98,2.09-3.74,5.33.12,1.64-2.62,1.28-4.2,1.36,2.99-5.18,5.38-10.75,9.78-15.01Z"/><path class="cls-38" d="m178.87,186.96c2.93,1.43,2.55,4.05,1.78,6.29-.9,2.62-3.55,1.54-5.53,1.76.39-3.09,1.61-5.78,3.75-8.06Z"/><path class="cls-38" d="m22.97,301.7c1.71,3.08,1.17,5.1-1.94,7.35-3.58,2.6-4.03,7.48-5.8,11.36-1.1,2.41-2.12,3.97-4.93,3.56,1.52-8.96,6.14-16.16,12.67-22.27Z"/><path class="cls-38" d="m46.08,287.13c.28,2.54-.41,4.54-3.09,5.36-2.29.71-4.52,1.13-5.93-1.56,2.77-1.82,5.84-2.95,9.02-3.81Z"/><path class="cls-38" d="m30.11,295.17c.87,4.98-.58,6.26-5.3,4.68,1.41-1.97,3.13-3.58,5.3-4.68Z"/><path class="cls-38" d="m74.03,278.88c-.08,2.09-1.19,3.54-3.16,3.9-1.86.35-2.62-1.01-2.8-2.7,1.82-1.2,3.91-1.1,5.96-1.21Z"/><path class="cls-38" d="m210.93,145.85c2.22,4.97-1.48,4.01-4.12,4.11.79-1.96,2.64-2.85,4.12-4.11Z"/><path class="cls-59" d="m299.09,178.09c2.98-3.37,5.74-6.97,9.73-9.27,3.4,1.53,5.61,4.32,7.67,7.28-.63,4.93-4.26,7.25-8.16,9.34-4.05-.81-6.02-4.37-8.92-6.71-.11-.21-.22-.42-.33-.63Z"/><path class="cls-63" d="m300.93,192.94q-5.06-1.55-2.92-7.59c-2.1-.28-3.75,4.97-6.13.53,2.4-2.6,4.8-5.19,7.21-7.79,0,0-.09-.05-.09-.05,2.67,2.72,5.31,5.48,8.23,7.94-.62,3.66-3.17,5.58-6.3,6.96Z"/><path class="cls-32" d="m310.02,166.13c4.06-2.58,7.27-6.14,10.8-9.34,5.41,1.63,5.96,3.83,2.12,8.44-2.09,1.69-4.49,3.03-6.16,5.23-.57.69-1.09,1.44-1.92,1.86-2.77-.25-4.08-2.57-5.9-4.17.35-.67.7-1.35,1.06-2.02Z"/><path class="cls-13" d="m290.15,187.13c4.12,3.88-1.1,4.61-2.4,6.33-1.66,2.2-2.59.59-2.85-1.37,1.75-1.65,3.5-3.31,5.25-4.96Z"/><path class="cls-6" d="m282,194.87c.47.11,1.15.06,1.38.35,1.65,2.17-.53,2.93-1.7,3.65-1.37.84-2.34,4.59-4.76,1.1,1.15-2.24,3.49-3.31,5.09-5.1Z"/><path class="cls-26" d="m274.88,201.82c.98.19,2.35.69,1.52,1.72-1.83,2.26-3.36,5.42-7.28,4.3,1.92-2.01,3.84-4.01,5.76-6.02Z"/><path class="cls-106" d="m308.96,168.15c2.01,1.26,4.03,2.51,6.04,3.77,1.54.46,2.36,1.49,2.47,3.09-.19.75-.56,1.27-1.45,1.06-2.39-2.43-5.53-4.12-7.2-7.26-.13-.26-.08-.48.14-.67Z"/><path class="cls-22" d="m261.97,214.51s.02-.38.02-.38c1.98-1.73,3.96-3.47,5.95-5.21.54,3.28-1.78,5.46-5.97,5.59Z"/><path class="cls-60" d="m322.77,154.94c4.26-4.43,8.27-9.11,13.07-12.99.77.15,1.25.61,1.46,1.36-.01.99-.44,1.79-1.35,2.59,1.21-.75,2.1-1.67,3.44-1.64,1.74.12,2.84.97,3.12,2.74-3.06,5.5-8.33,8.79-13.27,12.07-2.96,1.97-5.89-.21-6.48-4.12Z"/><path class="cls-138" d="m322.77,154.94q4.24,4.95,9.04.78c3.38-2.92,6.79-5.8,10.19-8.7,1.73-.45,2.89.05,3.2,1.94-5.24,4.57-10.73,8.83-16.25,13.06-1.05-.1-1.01-2.62-2.55-1.3-.69.59.22,1.45.66,2.11-.05.24-.11.49-.16.73-.82,1.67-1.99,2.87-3.98,2.97-.76-.24-1.36-.59-1-1.56,4.23-3.35,2.67-5.92-1.12-8.18.65-.62,1.3-1.23,1.95-1.85Z"/><path class="cls-83" d="m344.84,149.17c-.48-1.33-1.85-1.48-2.83-2.15-.63-1.25-1.74-1.82-3.02-2.18-1.02-.19-1.63-.83-1.97-1.78-.39-.37-.78-.74-1.18-1.11.34-.34.68-.68,1.02-1.02.38.13.75.25,1.13.38,1.15.35,2.39.4,3.4,1.16,1.01.68,2.08,1.29,3.01,2.08.78.69,1.51,1.43,2.26,2.15,1.47,1.79,3.73,2.95,4.36,5.42-.63.97-1.27,1.94-1.9,2.92-1.95-1.57-4.16-2.96-4.28-5.86Z"/><path class="cls-15" d="m268.92,319.18c-.63.5-1.25,1.01-1.88,1.51-.28.45-.68.64-1.2.61-2.97-1.11-6.06-1.96-8.61-4-5.48-6.3-9.14-13.24-7.73-21.97.36-.5.81-.61,1.35-.32,2.31,8.44,5.72,16.24,12.97,21.71,1.51,1.14,2.9,2.68,5.1,2.46Z"/><path class="cls-135" d="m250.85,295.01c-.28,0-.56-.01-.84-.03-2.8-1.34-2.55-4.37-3.67-6.64-.28-.87-.45-1.76-.67-2.64-.3-1.05-.85-2.04-.72-3.19.67-2.13,2.53-3.16,4.12-4.44,2.16.09,1.27,1.76,1.39,2.81.31,2.7-.46,5.47.49,8.14-.03,2-.06,3.99-.09,5.99Z"/><path class="cls-169" d="m250.95,289.02c-2.31-3.36.43-7.59-1.88-10.95.31-.43.61-.85.92-1.28,2,3.94.73,8.14.96,12.23Z"/><path class="cls-121" d="m121.81,455.93c.13-.32.25-.64.38-.96,8.72-3.03,14.93-9.48,21.52-15.5,7.45-6.8,13.18-14.98,18.56-23.31,4.76-7.38,9.59-14.78,13.43-22.74,1.16-2.41,2.43-4.75,4.61-6.42,3.44-2.47,5.42-6.1,7.53-9.6.87-1.45,1.47-3.06,3.52-2.86,1.04.1,1.78.86,2.12,1.85.64,1.84-.3,3.17-1.57,4.34-3.29,3.03-4.64,6.08-.13,9.22-7.86,17.65-16.64,34.73-29.05,49.75-6.01,7.27-11.81,14.63-19.42,20.43-3.28,2.5-6.85,4.15-10.59,5.17-4.02,1.1-6.71-1.97-8.96-4.82-.99-1.25-1.33-3.01-1.96-4.54Z"/><path class="cls-143" d="m191.79,389.95c-1.35.1-2.87,1.23-3.7-1.02-.99-2.7-.81-5.21.99-7.41.81-.99,2.11-1.56,3.09-2.43.82-.73,1.02-1.76.4-2.69-.32-.48-.98-1-1.52-1.04-1.18-.08-1.51.93-1.96,1.86-1.99,4.1-4.28,7.99-8.11,10.71-1.73-2.24-.19-4.27.74-6.02,8.03-15.1,16.28-30.02,29.47-41.51,11.46-9.99,24.89-15.73,39.42-19.31,2.59-.64,5.28-.67,7.89.18,1.08.47,1.91,1.28,2.83,1.97,3.03,2.27,2.79,4.3-.61,5.79-4.52,1.99-9.1,3.92-14.24,3.29-11.46.11-19.76,5.96-26.49,14.64-3.1,2.19-5.53,5.05-7.87,7.99-3.06,2.61-5.26,5.99-10.35,5.96-4.08-.03-5.54,5.98-2.68,9.26,1.03,1.19,1.98,2.3.97,3.95-2.76,5.27-5.53,10.55-8.29,15.82Z"/><path class="cls-121" d="m246,330.97c5.52,1.19,10.14-1.89,15.09-3.27,1.64-.46,2.76-1.9.06-2.75-1.62-.51-1.9-2.2-3.14-2.97,2.21-4.08,5.26-1.63,8.07-1.05.32-.08.64-.16.96-.24,3.27.83,6.55,1.67,9.82,2.5,3.41.43,6.81.61,10.2-.11,4.95-1.54,9.28-4.11,12.84-8.35.82,3.95.44,5.33-2.28,8.13-4.48,4.63-9.86,7.54-16.32,8.24-3.43.37-6.87.71-10.31,1.07-16.91.97-32.79,5.66-47.88,13.21,0-5.17,4.54-7.48,7.77-8.86,4.87-2.08,9.69-4.82,15.13-5.55Z"/><path class="cls-121" d="m200.08,374.12c-.05-1.42-.65-2.67-1.85-3.3-2.12-1.12-4.51-2.15-2.54-5,1.97-2.85,2.58-7.78,7.83-6.47,1.82.45,2.74-.2,3.85-1.24,1.41-1.31,2.45-3.2,4.76-3.16-3.44,6.75-7.89,12.87-12.06,19.16Z"/><path class="cls-121" d="m246,330.97c-3.87,2.46-8.05,4.39-12.41,5.53-5.1,1.33-7.88,4.88-10.49,8.88-.9.78-1.61,1.93-3.09,1.59-.12-1.58.35-2.88,1.5-4.03,6.81-6.79,14.4-11.92,24.49-11.97Z"/><path class="cls-73" d="m247.92,249.82c.41.43.81.85,1.22,1.28-.48,2.43-1.56,4.87.16,7.26-.32,1.09-1.16,1.35-2.15,1.39-1.8-.13-3.57-1.94-5.4-.05-1.59,1.65-.3,2.92.52,4.27.11,1.46-.65,2.18-2.02,2.38-.82-.13-1.49-.61-2.22-.97-1.14-.56-2.26-.53-3.12.43-1.25,1.38-.16,2.34.77,3.29.32.33.55.72.69,1.16,0,.48-.18.88-.51,1.23-.97.71-2,1.15-3.22.72-2.54-1.87-4.82-4.04-6.93-6.4.14-1.95,1.17-3.01,3.14-3.12,4.3,1.85,4.09-1.3,4.34-3.93.12-.97.41-1.82,1.53-2.04,4.41.91,4.9.53,4.88-3.88.15-1.31.85-2.08,2.21-2.17,2.33,1.82,3.97-1.32,6.11-.86Z"/><path class="cls-174" d="m246.98,259.19c.67-.38,1.34-.75,2.01-1.13.2-2.87,2.2-4.59,4.04-6.42.74-.23,1.41-.16,1.96.44.74.95.67,1.89,0,2.84-.74,2.76-3.3,4.19-4.71,6.46-2.17,1.64-4.11,3.58-6.4,5.06-.88.64-1.67,1.38-2.43,2.16-1.3,1.15-2.35,2.65-4.24,2.94-.45-.03-.85-.21-1.18-.51-.03-.29-.05-.58-.06-.87.54-2.14,1.97-3.43,3.99-4.14.7-.56,1.4-1.11,2.09-1.67.52-2.8,2.47-4.22,4.94-5.15Z"/><path class="cls-2" d="m288.04,212.04c-1.58,3.38-3.32,6.55-7.88,6.04-.47.37-.93.36-1.38-.02-.05-5.23,3.48-6.85,7.78-7.71.79.3,1.29.86,1.49,1.68Z"/><path class="cls-10" d="m254.99,252.08c-.66-.02-1.33-.04-1.99-.06-1.12.5-1.67-.14-2.07-1.05,1.59-2.9,3.78-5.08,7.07-5.96.93.43,1.65.97,1.08,2.15-.17,2.63-2.35,3.6-4.09,4.93Z"/><path class="cls-11" d="m269.03,235.1c.48-2.98,3.46-3.76,5.08-5.74.79-.97,1.75-.17,2.58.39,1.32.9.53,1.78-.16,2.36-1.93,1.61-3.15,4.42-6.36,3.97-.99.37-1.24-.1-1.14-.99Z"/><path class="cls-24" d="m291.57,217.65c-1.72,1.86-3.25,4.15-5.77,4.98-1.12.37-2.25-1.13-1.7-2.24,1.16-2.34,3.12-4.15,5.66-4.87.76-.22,1.52,1.04,1.81,2.14Z"/><path class="cls-66" d="m288.04,212.04c-.39-.42-.78-.83-1.16-1.25-.32-4.23,1.72-6.51,5.91-6.64,2.84,4.03-1.18,5.42-2.95,7.68-.6.07-1.2.14-1.8.21Z"/><path class="cls-18" d="m278.98,218.01c.39.03.79.05,1.18.08-1.12,4.24-3.3,7.2-8.23,6.87-.12-.21-.25-.43-.38-.64,1.45-3.31,2.55-7.03,7.43-6.31Z"/><path class="cls-136" d="m273.85,237.12c1.08-1.22,2.13-2.46,3.24-3.65.72-.78,1.61-1.29,2.49-.31.51.56,1.23,1.81,1.07,1.98-1.82,1.86-2.46,5.91-6.57,3.87-.71-.55-.61-1.2-.23-1.89Z"/><path class="cls-114" d="m273.85,237.12c.08.63.15,1.26.23,1.89.69,2.5-.13,4.76-2.43,5.48-2.52.79-2.82,2.74-3.68,4.53,0,0,.04-.04.04-.04-1.63.91-3.03,2.37-5.13,2.13-1.04.23-1.63-.25-1.92-1.21.41-.34.82-.68,1.24-1.02,2.56-.49,4.15-1.98,4.66-4.57.41-.42.81-.85,1.22-1.27,2.24-.26,3.38-1.63,3.79-3.74.67-.73,1.33-1.45,2-2.18Z"/><path class="cls-22" d="m259.08,247.15c-.36-.72-.72-1.43-1.08-2.15.06-1.67,1.42-2.36,2.39-3.42,1.28-1.4,2.19-1.6,3.54-.22,1.53,1.56.59,2.55-.61,3.59-1.24,1.08-2.54,2.02-4.24,2.2Z"/><path class="cls-43" d="m250.92,250.96c.69.35,1.38.7,2.07,1.05.02,2.91-3.06,3.77-4.01,6.04-5.62-2.44-1.65-4.68.15-6.96.59-.05,1.19-.09,1.78-.14Z"/><path class="cls-55" d="m250.01,261.02c.2-3.22,3.22-4.15,4.97-6.11,3.97,1.78,1.47,3.47-.07,5.18-1.37.47-2.05,2.3-3.84,1.94-.96.3-1.26-.1-1.07-1.01Z"/><path class="cls-14" d="m279.39,228.99c-1.32-.1-2.4-.85-2.15-1.77.63-2.34,2.48-3.88,4.67-4.72,1.11-.42,2.03.89,1.88,1.73-.44,2.49-2.57,3.61-4.4,4.76Z"/><path class="cls-5" d="m269.03,235.1c.38.33.76.66,1.14.99.1,2.67-1.57,4.32-3.69,5.22-.94.4-2.4-1.17-2.2-2.11.49-2.39,2.35-3.68,4.76-4.09Z"/><path class="cls-54" d="m291.24,213.2c.94-.87,1.89-1.73,2.82-2.61,2.25-2.17,3.6-1.75,4.05,1.38-2.32.23-3.51,6.75-6.87,1.24Z"/><path class="cls-124" d="m257.06,237.09c-.02-.24-.04-.48-.08-.72.27-.71.84-1.05,1.52-1.27,1.7-.71,4.82.34,4.15-3.33.36-1.58,1.62-2,2.97-2.3,1.49.16,3.11-.68,4.47.56-3.44,2.62-5.53,6.94-10.16,8.06-1.21.39-2.14-.01-2.87-1Z"/><path class="cls-56" d="m270.09,230.03c-1.43-.3-3,2.06-4.34-.22.95-3.08,2.16-5.81,6.26-4.78,0,0-.08-.07-.08-.07,1.36,2.4-.16,3.76-1.84,5.07Z"/><path class="cls-4" d="m247.92,249.82c-.97.86-1.85,1.83-2.92,2.55-1.58,1.07-2.75.81-2.97-1.35.99-2.75,2.71-4.59,5.82-4.74.49.13.89.38,1.22.76-.39.93-.77,1.86-1.16,2.78Z"/><path class="cls-8" d="m260.95,249.9c.64.4,1.28.81,1.92,1.21-.28,2.65-2.03,3.97-4.38,4.56-.35.09-1.35-.76-1.36-1.19-.08-2.57,2.32-3.22,3.82-4.57Z"/><path class="cls-27" d="m249.08,247.04l-1.1-.05c-1.12-3.74,1.51-4.74,4.17-5.73,3.13.61,2.85,2.02.87,3.81-1.4.49-2.24,2.09-3.95,1.98Z"/><path class="cls-65" d="m266.85,244.32c.99,3.87-.78,5.61-4.66,4.57,1.04-2.04,2.6-3.56,4.66-4.57Z"/><path class="cls-57" d="m257.06,237.09c.96.33,1.91.66,2.87,1-.71.9-1.42,1.79-2.14,2.69-2.02,1.62-3.12.51-3.99-1.33-.17-1.47.21-2.49,1.97-2.34.43,0,.86-.01,1.29-.02Z"/><path class="cls-29" d="m271.85,239.3c1.27,1.15,1.14,2.26-.09,3.34-1.14,1-2.25,2.2-3.69.4.96-1.55,2.03-2.99,3.79-3.74Z"/><path class="cls-110" d="m254.07,238.64c1.04,1.07,1.51,3.14,3.73,2.14-1.67,1.34-2.67,3.43-4.77,4.28.64-1.36,1.71-2.88-1.05-3.09-.6-1.24.3-1.96.97-2.76.33-.28.7-.47,1.12-.56Z"/><path class="cls-60" d="m316.85,193.2c-.24-.08-.49-.12-.75-.12-3.03-1.11-5.41-2.94-6.66-6.03,1.71-3.92,4.4-6.85,8.5-8.36q2.59,2.63.61,5.76c.93.74,1.46-.1,2.04-.56.85-.67,1.66-1.05,2.58-.14,1.17,1.15.44,2.07-.36,2.95-1.97,2.17-3.97,4.32-5.96,6.48Z"/><path class="cls-164" d="m317.94,178.69c-2.78,2.66-5.7,5.18-7.91,8.36-.53.96-.94,1.99-1.77,2.75-1.98,2.06-4.15,3.95-5.69,6.4-.41.55-.91,1-1.49,1.36-1.67.66-3.17,1.74-4.99,2.04-.48-.04-.9-.21-1.27-.52-.19-2.33,1.19-3.42,3.18-4.01.97-.71,1.95-1.42,2.92-2.13,1.68-2.45,4.57-3.85,5.78-6.7.14-.75.61-1.16,1.35-1.3,3.25-2.42,6.47-4.87,7.96-8.87.36-.39.72-.79,1.08-1.18.29-.36.62-.66,1.01-.91,3.38-.99,4.35-6.21,8.94-5.1-.43,4.3-3.79,6.1-6.92,8.1-.73.57-1.46,1.14-2.19,1.71Z"/><path class="cls-47" d="m320.13,176.98c1.59-3.26,4.99-4.96,6.85-7.98.36-1.65,1.49-2.43,3.08-2.69q3.87,3.38.14,6.79c-1.08.98-2.16,1.96-3.24,2.93-2.23.62-3.86,5.61-6.83.94Z"/><path class="cls-56" d="m327.97,177.08c2.79-1.73,4.71-4.63,7.85-5.89-1.74,4.63-5.8,7.35-8.91,10.84-.62.69-1.24.27-1.76-.06-1.15-.72-.36-1.34.18-1.94.88-.99,1.76-1.97,2.64-2.95Z"/><path class="cls-60" d="m351.02,152.11l-5.17-5.07c3.98-6.26,8.87-11.53,15.83-14.56,3.03,1.98,6,4.03,7,7.83-1.57,1.6-3.14,3.2-4.7,4.79-1.41.5-2.28,1.63-3.16,2.74-.85.26-1.29.09-.96-.9.42-.61.84-1.21,1.26-1.82.04-.71.74-1.23.56-2-.51.43-1.17.55-1.77.8-2.96,2.73-5.93,5.46-8.89,8.19Z"/><path class="cls-46" d="m344.84,149.17c1.25,2.08,4.28,2.87,4.28,5.86-3.73,3.63-7.46,7.27-11.19,10.9-2.56,1.1-5.03,1.96-6-1.92.42-1.56,1.1-2.99,2.68-4.6-2,1.61-3.01,3.98-5.63,2.63,0,0-.02-.02-.02-.02,4.19-5.65,9.57-9.83,15.88-12.85Z"/><path class="cls-134" d="m338.92,170.16c-2.77-.22-.61-1.92-.87-2.9,4.58-2.01,6.76-6.8,10.89-9.35.93,1,.77,2-.02,2.99l-.08.08c-3.64,2.69-6.23,6.53-9.92,9.16Z"/><path class="cls-137" d="m359.86,146.95c.32.3.64.6.96.9-1.6,3.11-4.22,5.1-7.15,6.8.79-3.67,3.7-5.51,6.19-7.7Z"/><path class="cls-139" d="m338.92,170.16c2.94-3.46,5.52-7.3,9.92-9.16-2.33,2.67-4.65,5.34-6.97,8.01-1.14-.01-1.4,2.23-2.95,1.15Z"/><path class="cls-139" d="m348.92,160.91c0-1,.01-2,.02-2.99.78-.97,1.47-2.71,3-1.23,1.31,1.26-.41,1.97-1.06,2.75-.51.61-1.29.99-1.95,1.48Z"/><path class="cls-137" d="m359.91,143.93c1.25-1.26,2.55-4.29,4.05-2.81,1.44,1.42-1.52,2.82-2.84,4.01-.4-.4-.8-.8-1.2-1.2Z"/><path class="cls-69" d="m294.89,198.97l1.31.08c.7,2-.03,3.03-2.13,3.11-.42.67-.85,1.33-1.28,2-2.81,1.47-5.34,3.18-5.91,6.64-3.79,1.13-6.43,3.53-7.9,7.21-3.27,1.4-5.94,3.4-6.97,7.02-2.99.41-4.6,2.62-6.26,4.78-.93.72-1.86,1.45-2.78,2.17-.32,2.26-2.31,2.9-3.84,3.98-.71.14-1.43.27-2.14.41-.43-1.74,1.23-2.28,1.94-3.37.48-1.6,1.47-2.65,3.15-2.98.65-.68,1.3-1.36,1.95-2.04.98-2.42,2.51-4.24,5.18-4.84.9-.71,1.8-1.42,2.7-2.13.16-2.57,2.17-3.27,4.1-4.05.4-.69.81-1.38,1.21-2.07,1.83-1.82,3.15-4.27,6-4.8.66-.77,1.32-1.54,1.98-2.31.97-2.32,2.34-4.22,5.05-4.66.6-.74,1.21-1.49,1.81-2.23.57-1.19,1.16-2.35,2.83-1.92Z"/><path class="cls-34" d="m294.07,202.16c1.07-.79,2-1.68,2.13-3.11,1.57-.53,2.58-2.46,4.61-1.84,3.07.9,4.99,2.98,6.07,5.92,0,.29-.04.57-.13.84-.43.23-.9.4-1.28.69-6.55,4.92-6.65,4.9-11.4-2.49Z"/><path class="cls-120" d="m330.06,166.31c-.93,1.01-1.62,2.29-3.08,2.69-3.98.51-4.87,5.77-9.09,5.91.01-3.46,3.21-4.68,4.96-6.9,1.3-1.66,2.88-3.11,4.08-4.88,0,0,.14-.3.15-.3,1,1.16,1.99,2.32,2.99,3.48Z"/><path class="cls-138" d="m328.99,162.05c3.13-.25,4.11-3.66,7.6-4.96-.99,3.18-2.55,5.21-4.65,6.93-.98-.66-1.97-1.31-2.95-1.97Z"/><path class="cls-126" d="m244.95,282.51c.82.67,1.39,1.48,1.47,2.57-1.17,4.13-4.72,6.25-7.63,8.86-1.37,1.22-3.08,1.01-4.63,0-.98-.64-1.79-1.47-2.63-2.27-6.6-6.29-6.75-6.35-13.34.34-9.08,9.21-18.42,18.12-28.34,26.41-2.48,2.24-4.94,4.5-6.93,7.22-.29.38-.62.7-.99.99-1.27.74-2.54,1.44-4.01.47-.53-2,.98-3.06,2.08-4.22,13.18-13.89,27.59-26.5,41.62-39.5,1.45-1.35,3.08-2.56,5.13-2.97,2.69.16,3.96,2.4,5.74,3.91,1.18,1.39,2.85,2.46,3.09,4.5,1.53,2.68,2.64.52,3.65-.42,1.99-1.87,3.83-3.9,5.73-5.87Z"/><path class="cls-103" d="m235.58,288.8c-1.19-1.23-2.38-2.47-3.57-3.7,1.37-3.42,4.08-5.57,7.05-7.47,1.81.03,3.15.89,4.11,2.39-2.53,2.93-5.06,5.86-7.59,8.79Z"/><path class="cls-97" d="m241.03,267.78c.68-.58,1.36-1.17,2.04-1.75,3.26,1.51,4.98-2.28,7.81-2.27.39.73.77,1.46,1.16,2.2-.81,1.99-7.75,2.06-1.92,6.13-.38.32-.75.64-1.13.96-2.55.6-5.07,1.33-7.72,1.31-1.13-2.15,1.49-4.44-.24-6.58Z"/><path class="cls-142" d="m240.78,273.98c2.71-.58,5.21-2.96,8.21-.93-1.02,2.51-2.88,4.33-4.92,6-2.55.04-4.18-1.1-4.73-3.66.17-.79.51-1.4,1.44-1.41Z"/><path class="cls-97" d="m239.99,274.66c.17,2.57,2.58,3.06,4.08,4.39-.3.32-.6.65-.89.97-1.79.2-2.76-1.28-4.09-2.02-2.3-.61-3.73-2.37-5.3-3.95-.23-1.73,1.52-2.01,2.24-3.05,0,0-.01.02-.01.02.33.05.66.09,1,.14,1.36.85,2.31,2.06,2.98,3.5Z"/><path class="cls-62" d="m302.07,195.9c.72-3.45,4-4.73,6.03-7.06,3.7-.02,5.38,2.55,6.87,5.36.02.24.06.48.12.71-1.99,2.47-4.01,4.9-7.12,6.06-3.41,0-4.69-2.5-5.91-5.07Z"/><path class="cls-79" d="m302.07,195.9c1.97,1.69,3.94,3.38,5.91,5.07.01.3.03.6.06.9-.38.42-.77.84-1.15,1.26-2.02-1.97-4.04-3.94-6.07-5.91.42-.44.84-.88,1.26-1.31Z"/><path class="cls-64" d="m250.88,263.76c-1.18,1.13-2.31,2.32-3.54,3.38-1.91,1.65-3.25.8-4.27-1.12,2.26-1.74,3.66-4.68,6.94-5.01.36.34.71.68,1.07,1.01-.07.58-.13,1.15-.2,1.73Z"/><path class="cls-112" d="m314.97,194.2c-2.53-1.48-3.97-4.36-6.87-5.36.64-.6,1.29-1.19,1.93-1.79,2.03,2.01,4.05,4.01,6.08,6.02-.38.38-.75.75-1.13,1.13Z"/><path class="cls-52" d="m247.01,287.98c1.82,1.98,1.51,4.88,3,7,.2,8.2,2.85,15.49,8.06,21.84-.62,3.42-3.67,2.87-5.8,3.16-24.4,3.37-43.41,15.99-56.91,35.83-6.42,9.44-12.46,19.45-17.25,30.18-4.96,11.11-11.34,21.77-19.01,31.53-5.75,7.31-10.84,15.11-17.31,21.89-5.39,5.66-11.6,9.88-18.74,12.87-.67.28-1.29.13-1.84-.35-.33-7.24,1.74-14.02,3.99-20.77.77-2.31,1.31-4.7,1.96-7.06.62-4.41.72-8.82-.07-13.22-2.15-4.1-3.21-8.85-7.11-11.9,1.8-3.72,3.36-7.52,7.2-9.86,1.98-1.21,3.6-3.36,3.78-5.68.33-4.21,2.64-6.74,5.54-9.52,12.69-12.18,26.93-22.6,39.39-35.02,4.1-4.08,7.17-9.25,12.61-11.92.88-.43,1.65-1.34,1.81-2.31,1.09-6.75,6.25-10.26,10.95-14.27,7.2-6.16,13.05-13.72,20.5-19.68,4.11-3.28,6.81-2.09,9.79,1.09,4.53,4.85,6.09,4.74,10.6-.32,1.33-1.5,2.01-4.06,4.87-3.5Z"/><path class="cls-52" d="m121.22,451.92c14.64-6.05,24.38-17.34,33.02-30.09,4.63-6.83,9.8-13.28,14.1-20.37,6.33-10.44,10.63-21.95,17.16-32.22,7.02-11.05,13.12-22.86,23.85-31.16,12.6-9.76,26.03-17.48,42.28-19.17,2.22-.23,4.62-.41,6.44-2.09,2.41,1.87,6.16,1.14,8.01,4.11-2.67.54-5.6-.96-8.07,1.05-10.69-.02-20.29,3.93-29.66,8.43-12.61,6.06-23.04,15.22-30.52,26.7-6.35,9.74-13.94,19.09-16.83,30.83-4.82,4.29-6.47,10.58-9.67,15.86-8.42,13.96-17.07,27.76-28.96,38.95-4.66,4.39-9.57,8.98-15.6,11.83-1.51.71-2.94,1.65-4.59.38-.49-.96-1.57-1.74-.97-3.05Z"/><path class="cls-52" d="m247.01,287.98c-2.96,1.51-3.77,4.99-6.37,6.88-2.81,2.04-5.33,3.22-8.27.04-6.46-7-7.1-7.3-13.75-.36-7.47,7.8-15.08,15.42-23.19,22.55-.74.65-1.67,1.35-1.97,2.22-4.24,12.15-15.39,18.4-23.72,26.85-5.49,5.58-11.65,10.95-18.3,15.67-6.28,4.45-11.5,10.79-17.53,15.93-.81.69-1.72,2.23-1.47,3.01,1.03,3.13-.61,5.54-2.49,7.07-3.96,3.22-6.26,7.8-9.98,11.15-1.02-.22-1.57-.96-2.05-1.79-1.31-2.39.58-3.69,1.86-5.06,1.92-2.05,3.69-4.21,5.51-6.34,1.55-1.82,2.06-3.67,1.31-5.91,2.73-5.9,8.03-9.47,12.56-13.71,10.14-9.47,20.68-18.5,30.9-27.89.28-.36.61-.69.96-.99,2.44-1.64,4.38-3.83,6.43-5.9,1.66-1.54,3.14-3.28,5.11-4.46,3.29-2.17,5.13-5.39,6.45-8.98,10.53-9.6,20.98-19.26,31.01-29.39,4.76-4.81,5.47-4.55,10.04-.03,7.22,7.15,5.6,7.18,12.82.05,1.18-1.17,2.36-2.35,3.53-3.52.19.97.39,1.93.59,2.9Z"/><path class="cls-38" d="m64.07,306.17c.13,3.51-1,5.72-4.65,5.77-2.58.04-3.47-1.51-3.32-3.83.18-2.86.47-5.77,4.23-6.09,3.18-.27,3.92,1.72,3.74,4.15Z"/><path class="cls-102" d="m127.01,379.95c2.37,1.94,1.58,3.41.01,5.75-2.75,4.09-7.49,6.56-9.1,11.49-1.67-.02-2.94-.64-3.5-2.34-.04-.47.04-.91.22-1.34,2.66-4.76,7.49-7.87,9.83-12.88.74-.61,1.49-1.19,2.53-.68Z"/><path class="cls-185" d="m88.05,378.95c-.58-1.92-3.17-2.64-2.98-5.01.22-.09.44-.18.66-.27,2.37.09,4.02,1.57,5.32,3.21,5.23,6.58,11.49,12.17,17.25,18.23.57.6,1.05,1.26,1.29,2.07-.14.88.13,2.12-1.49,1.73-6.68-6.65-13.36-13.31-20.05-19.96Z"/><path class="cls-201" d="m108.1,398.92c.98-.45,1.03-1.32.99-2.22.24-3.1,2.27-3.96,4.97-3.99.38.32.59.74.63,1.24.05.34-.03.64-.25.91-3.13-.23-3,4.62-6.34,4.07Z"/><path class="cls-48" d="m127.09,410.88c1.53,4.4,1.65,8.8.07,13.22-.02-4.41-.05-8.81-.07-13.22Z"/><path class="cls-42" d="m203,226.06c2.58-.16,4.3-.13,4.84,1.55.65,2.05-.56,3.66-2.42,4.3-8.05,2.76-12.73,9.46-15.57,16.36-2.75,6.67-5.39,13.38-8.9,19.64-4.99,8.87-9.95,17.97-20.71,21.42-1.68.54-3.12,1.16-4.51-.29-1.73-1.8.73-2.47,1.07-3.72,1.41-5.22,6.11-7.94,9.29-11.78,3.73-4.5,6.33-9.5,9.19-14.52,5.48-9.59,8.96-20.56,17.9-27.97,3.19-2.65,6.95-4.02,9.82-4.98Z"/><path class="cls-78" d="m138.06,332c23.91-23.54,50.12-44.44,75.75-66.02.9-.68,1.29-.07,1.64.63.24,1.97-1.12,3.01-2.42,4.05-18.3,14.62-36.02,29.94-53.61,45.38-5.11,4.48-10.34,8.87-15.09,13.77-1.47,1.52-2.76,3.41-5.17,3.65-.78-.18-1.36-.51-1.1-1.47Z"/><path class="cls-21" d="m112.09,350.76c.95-2.26,3.7-2.59,4.92-4.56,1.82-2.64,4.31-4.63,6.66-6.75,11.6-11.32,23.63-22.18,35.29-33.43,3.76-1.76,4.55-6.52,8.44-8.35,1.93,3.47-.92,5.2-2.75,6.85-16.96,15.3-33.86,30.69-49.62,47.23-3.18,3.34-7.57,5.97-8.91,10.91-.18.16-.35.33-.53.49-1.44-.2-2.05-1.09-2.1-2.47,2.05-4.01,5.52-6.8,8.6-9.92Z"/><path class="cls-41" d="m143.04,298.88c.01,4.67-7.64,9.55-11.71,7.75-1.43-.63-2.61-1.23-2.32-3.17.23-1.55-.32-3,2.15-3.63,2.81-.72,5.26-2.7,8.02-3.72,2.48-.92,4.32-.23,3.87,2.78Z"/><path class="cls-199" d="m138.06,332c.35.34.71.68,1.06,1.02.11,3.48-3.07,4.64-4.84,6.77-1.13,1.35-2.68,2.31-3.86,3.64-5.57,6.08-11.49,11.82-17.33,17.64-1.5,1.49-2.83,3.28-5.16,3.62-.99-.13-2.04-.19-1.82-1.66,0,0,0-.37,0-.37,4.43-2.42,7.15-6.69,10.73-10.03,7.21-6.73,14.16-13.74,21.22-20.64Z"/><path class="cls-52" d="m87.81,368.11c-5.07-4.21-5.56-10.1-5.89-16.05-.4-1.07-.63-2.13.24-3.1,2.47.97,3.45,2.76,4.36,5.33,1.21,3.42.53,8.26,5.46,9.68.16,2.94-1.25,4.3-4.17,4.14Z"/><path class="cls-52" d="m81.99,338.91c-.6-6.63,1.43-12.52,5.06-17.96,1.75,2.04,2.23,3.96.84,6.66-1.73,3.36-2.11,7.2-1.84,11.03.2,2.76-.75,4.51-3.86,4.32-1.02-1.3-.73-2.67-.21-4.06Z"/><path class="cls-167" d="m87.81,368.11c1.82-.95,2.98-2.56,4.17-4.14,2.19-1.66,4.57-3.11,6.5-5.02,1.73-1.71,3.01-1.28,4.5,0,.83.31.56,1.27,1.06,1.77.69.77,1.39,1.54,2.08,2.3.44.78,1.18.97,1.99,1.02,2.09,1.02,3.35,3.05,5.25,4.31.66.72,1.12,1.52,1.02,2.55-.25.69-.71,1.2-1.35,1.54-4.11,1.15-3.88-3.6-6.37-4.67-1.14-.94-2.23-1.94-3.28-2.99-.79-.76-1.57-1.53-2.36-2.26-.29-.26-.61-.5-.95-.67-3.22,1.52-5.01,4.61-7.59,6.82-2.33,2-4.29,4.49-7.47,5.29,0,0,.05-.03.05-.03-1.49.24-1.78-.54-1.02-1.55,1.13-1.52,2.5-2.86,3.76-4.28Z"/><path class="cls-172" d="m158.96,306.02c.26,1.58-.9,2.42-1.84,3.3-10.98,10.25-21.98,20.48-32.98,30.72-1.02.26-1.37-.14-1.13-1.14,10.65-10.06,21.3-20.13,31.97-30.18,1.18-1.11,2.08-2.66,3.99-2.71Z"/><path class="cls-195" d="m214.98,267.4c-.39-.47-.78-.95-1.16-1.42.05-.22.11-.44.15-.66,2.55-1.28,4.38-3.43,6.43-5.31.06-1.58,1.58-1.27,2.4-1.88,1.68-1.67,3.37-3.34,5.05-5.01.14-.67.56-1.04,1.23-1.13,1.68-1.4,3.36-2.8,5.05-4.21.65-.67.22-2.41,1.97-2.02,1.7-1.55,3.39-3.09,5.09-4.64.31-.4.63-.8.94-1.2.24,0,.48-.03.72-.09,3.3,1,.97,2.31.21,3.54-1.94,1.93-3.86,3.88-5.69,5.92-2.37,1.67-4.31,3.8-6.13,6.03-2.64,1.56-5.02,3.42-6.76,6.01-2.82,1.86-5.14,4.41-8.14,6.04-.45.14-.9.15-1.36.01Z"/><path class="cls-52" d="m104.89,351.11c-.37.47-.82,1.46-1.59,1.95-1.79,1.13-3.84,1.8-5.44,3.33-.93.89-2.21.6-3.09-.43-.88-1.04-.83-2.19.07-3.15,1.69-1.79,3.43-3.55,5.25-5.2.99-.89,2.16-.69,3.16.16.89.76,1.75,1.56,1.62,3.33Z"/><path class="cls-161" d="m104.04,360.72c-.87-.28-.87-1.08-1.06-1.77,2.87-2.91,5.01-6.64,9.1-8.2-1.85,3.99-5.37,6.63-8.05,9.96Z"/><path class="cls-173" d="m123,338.9c.38.38.76.76,1.13,1.14-2.14,2.33-4.27,4.67-7.13,6.16.63-3.56,3.78-5.04,6-7.29Z"/><path class="cls-67" d="m81.99,338.91c.07,1.35.14,2.7.21,4.06-.02,2-.03,4-.05,6-.08,1.03-.16,2.07-.24,3.1-1.59-4.39-1.28-8.77.07-13.15Z"/><path class="cls-37" d="m269.21,223.14c-1.73,1.61-3.45,3.23-5.18,4.84-1.55-2.15-6.38-2.72-3.76-6.84,1.68-2.65,4.09-4.52,6.68-.52.61.94,1.5,1.69,2.27,2.53Z"/><path class="cls-46" d="m283.22,210.09c-1.96,1.65-3.21,4.18-6,4.8-.12-.3-.23-.62-.38-.91-.82-1.73-4.33-2.08-3.28-4.31.88-1.87,3.25-3.96,5.16-4.17,2.2-.25,3.74,2.28,4.49,4.59Z"/><path class="cls-46" d="m290.25,203.12c-1.68,1.55-3.37,3.11-5.05,4.66-.49-.45-.96-.91-1.46-1.33-1.21-1.02-3.45-1.79-2.46-3.71.86-1.66,2.53-3.14,4.19-4.1,2.06-1.18,2.63,1.34,3.77,2.3.56.47.69,1.44,1.02,2.18Z"/><path class="cls-47" d="m276.01,216.96c-1.37,1.35-2.73,2.7-4.1,4.05-2.71-.34-4.62-2.27-5.39-4.39-.57-1.56,1.79-3.08,3.25-3.78,4.03-1.94,4.64,1.97,6.24,4.12Z"/><path class="cls-10" d="m262.08,230.02c-1.05.99-2.1,1.98-3.15,2.98-2.94-.12-3.76-2.93-5.57-4.46-1.62-1.36.28-1.9.95-2.49,1.12-.98,2.22-2.96,4.04-1.09,1.46,1.5,3.32,2.76,3.74,5.05Z"/><path class="cls-35" d="m294.89,198.97c-.95.64-1.89,1.28-2.83,1.92-.67-2.18-5.44-2.66-2.24-6.55,3.43-4.15,5.74-2.59,8.19.73-1.04,1.3-2.08,2.6-3.12,3.89Z"/><path class="cls-25" d="m255.77,237.11c-.57.51-1.14,1.02-1.71,1.53,0,0-.1.41-.1.41-.59.47-1.24.6-1.97.42-1.11-.5-1.9-1.32-2.44-2.41-.81-1.85,1.22-2.74,1.44-4.24.33-.89.66-1.79,1-2.68,2.07,1.88,4.65,3.49,3.78,6.96Z"/><path class="cls-105" d="m222.8,258.13c-.8.63-1.6,1.25-2.4,1.88-.71-1.47-2.59-2.17-2.65-4.06,2.16-.38,3.08,2.11,5.05,2.19Z"/><path class="cls-98" d="m250.99,232.82c1.35,1.84-1.66,2.49-1.12,4.11-1.51,2.24-4.17,3.99-3.07,7.32-.11.96-.36,1.81-1.48,2.03-1.51-.69-2.5-1.92-3.35-3.28.19-1.08,3.18-1.38.88-3.16,1.27-2.29,5.56-2.99,3.22-7.59,1.93.79,3.45,2.28,4.92.57Z"/><path class="cls-87" d="m229.08,251.99c-.41.38-.82.75-1.23,1.13-1.62-1.47-3.78-2.53-3.86-5.15,1.92,1.05,3.73,2.25,5.09,4.02Z"/><path class="cls-85" d="m236.1,245.77c-.66.67-1.31,1.35-1.97,2.02-.2-2.77-3.52-3.31-4.13-5.79,2.72.15,4.39,1.98,6.1,3.77Z"/><path class="cls-202" d="m462.04,51.32c-.21,1.85-1.02,3.72-3.11,3.52-1.86-.18-3.65-1.31-3.87-3.75-.21-2.42,1.33-3.34,3.21-3.52,2.41-.22,3.41,1.46,3.77,3.75Z"/><path class="cls-189" d="m448.09,56.21c-.05,2.61-1.45,4.02-3.65,4.02-2.56.01-4.42-1.4-4.55-4.19-.13-2.81,1.97-3.78,4.19-3.76,2.39.03,3.85,1.61,4.01,3.92Z"/><path class="cls-198" d="m434.1,61.6c-.1,2.58-1.31,4.34-3.47,4.41-2.58.08-3.49-2.18-3.8-4.4-.31-2.19.77-3.45,3.05-3.63,2.84-.22,3.7,1.62,4.22,3.62Z"/><path class="cls-115" d="m380.91,113.06c-.68-.58-1.35-1.16-2.03-1.74,3.28-1.52,5.19-4.47,7.49-7.06,1.34-1.5,2.5-3.44,5.63-3.05-3.7,3.95-7.39,7.89-11.09,11.84Z"/><path class="cls-197" d="m416.61,63.98c2.25.56,4.15,1.75,3.98,4.53-.11,1.97-1.24,3.62-3.44,3.35-2.56-.31-4.14-2.1-4.27-4.68-.11-2.23,1.43-3.14,3.72-3.21Z"/><path class="cls-153" d="m402.2,79.34c-2.73-.15-4.28-1.53-4.31-4.35-.03-2.57,1.8-3.66,3.87-3.56,2.26.11,4.24,1.48,4.1,4.1-.12,2.03-.94,3.96-3.66,3.81Z"/><path class="cls-156" d="m382.05,79.98c1.95-2.11,4.16-1.99,5.82.02,1.39,1.68,1.91,3.85.02,5.86-1.67,1.78-3.5,1.9-5.27.5-1.77-1.4-3.08-3.12-.73-5.22,1.03.27,1.25,1.97,2.74,1.55-.29-1.5-1.99-1.58-2.57-2.71Z"/><path class="cls-128" d="m382.05,79.98c.49.04,1.1-.08,1.46.17,1.2.83,3.6.34,3.3,2.85-.16,1.32-.98,2.22-2.29,2.11-2.39-.2-2.71-2-2.63-3.96.06-.39.11-.78.17-1.17Z"/><path class="cls-49" d="m372.87,136.98c-.72.2-1.59.11-1.91,1.04-5.05.53-6.39-3.65-8.58-6.75.03-2.3,1.85-3.4,3.27-4.69,4.36-3.94,8.23-8.44,13.31-11.55,3.34,2.25,6.54,4.65,8.88,7.99-5.05,4.58-11.12,8.07-14.97,13.95Z"/><path class="cls-101" d="m378.96,115.04c-4.71,6.03-11.21,10.26-16.15,16.07-.38.59-.06,1.52-.89,1.91-4.66,1.14-6.5,5.73-10.07,8.25-2.24,1.58-4.01,3.83-5.99,5.78-.65-.62-1.3-1.24-1.95-1.86,2.79-5.82,8.71-8.81,12.38-13.91-5.6,3.31-9.47,8.85-15.33,11.76-.99-.57-1.98-1.15-2.97-1.72,5.75-1.92,15.76-12.77,15.96-17.29,2.21,1.54,3.77.62,5.53-1.06,4.51-4.3,8.38-9.28,13.52-12.92,0,0-.06-.04-.06-.04,1.96,2.72-.27,4.3-1.76,5.92-3.12,3.41-6.61,6.47-9.42,10.22,5.55-3.89,10.07-8.97,15.39-13.12.6.67,1.21,1.35,1.81,2.02Z"/><path class="cls-60" d="m377.14,113.02c-3.8,6.13-9.94,9.95-14.79,15.04-.74.78-1.61,1.12-2.54.11-1.05-1.15-.63-2.03.32-2.96,3.42-3.36,6.81-6.76,10.21-10.14,1.41-1.41,2.9-2.78,2.6-5.07,2.06.1,3.05,1.67,4.2,3.02Z"/><path class="cls-125" d="m287.06,323.07c-3.38,1.46-6.79,1.39-10.2.11,3.4-.04,6.8-.08,10.2-.11Z"/><path class="cls-104" d="m361.92,133.01c.07-.74.09-1.5.89-1.91,2.87,2.13,4.3,5.96,8.16,6.92-.76.76-1.51,1.53-2.27,2.29-2.26-2.43-4.51-4.87-6.77-7.3Z"/><path class="cls-113" d="m308.06,184.94c-.45.43-.9.87-1.35,1.3-3.15-2.19-6.24-4.43-7.71-8.2,4.21.73,5.72,5.02,9.06,6.9Z"/><path class="cls-51" d="m326.93,163.12c-1.33,5.22-6.21,7.72-9.03,11.79,0,0-.4.04-.4.04,0,0-.4-.06-.4-.06-.7-.99-1.4-1.98-2.1-2.97-.01-.78.17-1.46.88-1.9,2.81-.53,4.08-3.81,7.1-3.99,1.32-.97,2.63-1.94,3.95-2.91Z"/><path class="cls-107" d="m322.98,166.03c-1.76,1.6-3.52,3.2-5.3,4.79-1.15,1.02-1.6.37-1.8-.8,1.48-2.32,3.52-3.98,6.05-5.05.35.36.7.71,1.05,1.07Z"/><path class="cls-101" d="m337.02,143.06c.66.59,1.31,1.19,1.97,1.78-1.68,1.39-3.36,2.77-5.4,4.46-.05-3.27,2.84-4.07,3.43-6.24Z"/><path class="cls-62" d="m340.96,143.03c4.54-4.33,9.08-8.66,13.63-12.99,1.13-1.08,2.34-1.28,3.49-.11,1.52,1.56-.13,2.41-.97,3.19-4.35,4.07-8.79,8.05-13.2,12.06-.98-.72-1.97-1.43-2.95-2.15Z"/><path class="cls-45" d="m225.96,265.77c3.09,1.31,5.37,3.57,7.27,6.27-.72,3.94-3.73,5.73-6.92,7.36-.47.1-.93.08-1.4-.03-2.92-1.69-4.42-4.61-6.26-7.25-.1-.47-.07-.93.09-1.38,2.23-1.91,3.92-4.61,7.22-4.97Z"/><path class="cls-192" d="m225.96,265.77c-2.22,1.76-4.44,3.52-6.66,5.28-.9.61-1.24-.01-1.56-.7,1.33-3.7,4.94-5.56,6.98-8.68,2.92-1.32,5.1-3.51,7.02-6.02,2.92-1.31,5.11-3.46,6.95-6.01,2.12-1.21,3.33-3.98,6.31-3.72.81-.33,1.07-1.01,1.15-1.81,1.77-1.95,2.87-4.64,5.83-5.28.66.07,1.32.14,1.99.21-.66.97-1.32,1.95-1.99,2.92-1.55,1.5-3.85,2.4-4,5.02-2.77.18-3.96,2.69-5.93,4.03-.7.64-1.4,1.29-2.1,1.93-.8,2.29-2.06,4.05-4.78,4.12-1.06.33-1.09,1.28-1.3,2.13-1.38,1.66-2.42,3.8-5.08,3.72-.95.95-1.89,1.9-2.84,2.85Z"/><path class="cls-40" d="m239.94,266c-1.33,1.38-2.66,2.76-3.99,4.14-2.04-.2-3.67-1.38-3.55-3.31.1-1.59,1.99-2.57,3.44-3.26,2.34-1.12,3.01,1.13,4.1,2.43Z"/><path class="cls-36" d="m246.98,259.19c-1.16,2.19-3.16,3.56-4.94,5.15-2.08-.85-4.3-1.61-2.17-4.51,2.15-2.93,4.44-3.8,7.11-.64Z"/><path class="cls-7" d="m235.17,257.08c1.59-1.37,3.19-2.75,4.78-4.12,4.03,2.2.58,3.6-.69,4.91-1.49,1.53-3.34,2.59-4.09-.79Z"/><path class="cls-12" d="m228.79,262.92c2.11-.66,2.42-3.8,5.08-3.72,2.73,3.38-1,4.34-2.49,5.62-1.83,1.56-2.43-.25-2.59-1.9Z"/><path class="cls-174" d="m226.04,278.91c2.4-2.29,4.79-4.58,7.19-6.86.94-.35,1.87-.7,2.81-1.05.2,1.53-1.27,1.94-1.94,2.88-1.48,3.19-3.58,5.7-7.18,6.56-.77-.24-1.33-.59-.87-1.53Z"/><path class="cls-53" d="m239.99,274.66c-1.66-.6-2.94-1.53-2.98-3.5,1.34-1.12,2.68-2.25,4.02-3.37,5.38,2.29.74,4.17-.25,6.2-.26.23-.53.45-.79.68Z"/><path class="cls-17" d="m259.13,235.96c1.28-1.33,2.56-2.65,3.84-3.98,1.32.16,2.39.53,1.39,2.14-1.23,2-3.21,2.01-5.24,1.84Z"/><path class="cls-23" d="m177.97,326.94c1.36-.33,2.72-.65,4.07-.98.16,2.75-2.57,3.41-3.74,5.2-2.45,2.25-4.5,4.94-7.29,6.83l.04-.04c-10.24,9.44-20.77,18.57-31.14,27.86-5.21,4.67-9.73,10.03-15.08,14.54-1.11.33-1.87-.11-2.36-1.1-.58-2.1.68-3.49,1.96-4.81,8.4-8.75,17.42-16.84,26.36-25.01,5.14-4.7,10.57-9.08,15.54-13.98,3.58-3.25,6.67-7.17,11.65-8.52Z"/><path class="cls-194" d="m177.97,326.94c-3.59,3.05-7.18,6.1-10.78,9.16-.9.36-1.31-.17-1.61-.89,2.66-5.32,7.58-8.62,11.78-12.41,4.93-4.45,9.76-9.01,14.38-13.76,9.39-9.64,19.61-18.37,29.49-27.46,1.22-1.07,2.24-2.46,4.03-2.67.26-.05.51-.05.77,0,.35.36.7.71,1.05,1.07.26.18.35.36.27.54-.08.19-.16.28-.25.28-17.4,14.29-33.74,29.7-49.13,46.14Z"/><path class="cls-61" d="m227.1,280.8c.03-.28.02-.55-.02-.83,2.33-2.03,4.67-4.07,7-6.1,2.57.27,3.59,2.44,5,4.12-2.36,2.37-4.72,4.74-7.08,7.11-1.64-1.43-3.27-2.87-4.91-4.3Z"/><path class="cls-23" d="m189.02,317.96c.86,5.04-2.65,7.48-5.99,10.01-1.1-.69.02-2.15-.99-2.88,1.78-2.91,4.27-5.12,6.97-7.13Z"/><path class="cls-91" d="m182.05,325.1c1.3.63.9,1.83.99,2.88-1.65,1.36-3.3,2.72-4.95,4.08-.54-.36-.56-.74-.06-1.16,1.34-1.65,2.69-3.29,4.03-4.94.01-.29.01-.57,0-.86Z"/><path class="cls-158" d="m125.01,379.82c11.28-12.56,24.2-23.37,36.9-34.4,2.97-2.58,5.24-6.03,9.15-7.46-1.93,4.71-6.57,6.74-9.96,9.99-11.25,10.79-23.74,20.26-34.08,32.02-.63.37-1.25.73-1.88,1.09-.3-.25-.42-.51-.36-.79.07-.29.14-.44.23-.44Z"/><path class="cls-163" d="m178.02,330.9c.02.39.04.77.06,1.16-2.11,2.27-3.6,5.28-7.06,5.93,1.87-2.82,4.29-5.1,7-7.09Z"/><path class="cls-193" d="m125.01,379.82c.04.41.08.82.12,1.23-2.21,5.33-6.34,9.1-10.44,12.9-.29-.37-.58-.74-.87-1.11.77-3.44,3.26-5.85,5.19-8.58.82-1.16,2.32-2.04.9-3.69-.55-.65-1.08-1.3-1.68-1.91-.74-.74-1.51-1.45-2.26-2.17-.56-.59-.99-1.28-1.51-1.89-.59-.74-1.61-1.23-1.48-2.41.36-.4.71-.81,1.07-1.21,1.57-.73,2.33.59,3.33,1.3.74.72,1.45,1.47,2.2,2.17.85.86,1.95,1.43,2.76,2.34.34.69,0,1.65.83,2.16.41.71,1.07.92,1.84.88Z"/><path class="cls-93" d="m116.11,375.75c1.4.21,2.01,1.4,2.83,2.31,1.45,2.86-1.64,3.3-2.29,4.72,1.12-.68,1.95-2.23,3.44-2.99,1.69.41,3.53.92,1.85,3.12-2.6,3.39-5.41,6.62-8.13,9.92-1.78,1.04-3.68,1.94-4.74,3.86-5.9-4.59-10.74-10.25-15.83-15.66-2.5-2.65-4.72-5.61-8.24-7.06,4.99-4.7,9.97-9.4,14.97-14.1.1-.1.26-.14.39-.21.18.38.36.77.54,1.15-.54,1.46-1.71,2.42-2.66,3.42.9-.68,1.59-1.8,2.8-2.26,1.55-.18,2,1.31,2.99,1.98,1.36,3.94-2.6,4.65-3.87,6.53,2.33-.61,3.05-5,6.91-3.58,2.62,1.02,2.66,4.93,5.89,5.27.67.61,1.34,1.22,2.01,1.83,1.35,2.84-1.58,3.48-2.42,4.97,1.27-.76,2.08-2.36,3.55-3.24Z"/><path class="cls-23" d="m214.98,267.4c.23-.1.46-.18.71-.24,1.66.16,2.08,1.2,1.87,2.67-.34,2.53-1.77,4.03-4.26,4.54-2.97-.75-4.64,1.51-6.39,3.09-23.73,21.48-49.34,40.82-71.89,63.62-1.29,1.3-2.58,3.33-5.02,1.86,2.21-4.08,6.76-6.01,9.13-9.94,14.97-13.57,29.77-27.33,45.41-40.14,10.24-8.38,20.3-16.97,30.44-25.47Z"/><path class="cls-30" d="m130,342.95c2.34.02,3.39-1.9,4.78-3.24,14.63-14.12,29.65-27.8,45.47-40.62,10.13-8.21,19.79-16.99,29.68-25.5,1.04-.89,2.26-2.71,3.08.21-.92,3.47-3.81,5.43-6.29,7.46-20.01,16.39-39.15,33.74-57.84,51.6-9.12,9.9-18.91,19.13-28.29,28.77-3.35,1.63-2.78,7.31-7.63,7.38-2.13-1.15-4.1-2.47-4.85-4.97,6.53-6.49,13.09-12.96,19.57-19.51.71-.71,1.19-1.56,2.31-1.59Z"/><path class="cls-133" d="m112.96,369.02c3.6-1.6,3.21-6.7,7.08-8.06,9.69-8.71,18.78-18.02,27.65-27.56,13.89-12.72,27.63-25.6,41.89-37.89,8.4-7.23,16.89-14.35,25.23-21.66,1.16-1.02,2.28-2.56,4.28-2.02,2.06,2.36,4.12,4.71,6.18,7.07-1.05,1.07-2.11,2.13-3.17,3.2q-5.87-4.07-11.9,1.04c-23.62,20.18-46.86,40.76-69.12,62.46-6.79,6.62-12.99,13.77-19.81,20.33-1.47,1.41-2.85,2.88-1.87,5.2-.25,1.31-.74,2.32-2.37,1.82-.99-.66-1.99-1.31-2.98-1.97-.36-.65-.73-1.3-1.09-1.95Z"/><path class="cls-77" d="m107.08,366.91c-3.77.67-5.37,4.71-9.24,5.85.9-3.93,5.94-4.76,6.21-8.8,1.01.98,2.02,1.97,3.03,2.95Z"/><path class="cls-20" d="m101.06,361.98c-1.36,2.21-3.22,3.88-5.55,5.11.97-2.8,3.37-4.38,5.4-6.26.05.39.1.77.15,1.16Z"/><path class="cls-39" d="m217.27,269.78c-.53-.87-1.06-1.74-1.58-2.62,2.47-2.45,4.85-5.01,8.27-6.2.99-.2,1.4.15,1.13,1.16-.7,4.08-4.7,5.2-7.01,7.84-.38.41-.65.37-.8-.19Z"/><path class="cls-1" d="m239.04,250.01c-1.22,3.28-3.3,5.55-6.95,6.03-.97.26-1.31-.13-1.1-1.08.75-3.15,3.11-4.76,5.79-6.07,1.22-.57,1.81.13,2.26,1.11Z"/><path class="cls-9" d="m239.04,250.01c-.75-.37-1.51-.74-2.26-1.11.88-2.71,3.51-3.89,5.19-5.9,1.92.03,3.1.84,3.03,2.92-1.97,1.39-3.17,3.9-5.97,4.09Z"/><path class="cls-26" d="m230.98,254.97c.37.36.74.72,1.1,1.08-1.15,3.39-3.39,5.53-7,6.09-.38-.39-.75-.78-1.13-1.16,1.26-3.27,3.44-5.46,7.03-6Z"/><path class="cls-28" d="m251.98,238.84c-1.75,1.97-3.06,4.43-5.83,5.28-2.95-4.57,1.14-5.49,3.72-7.19.7.64,1.4,1.27,2.1,1.91Z"/><path class="cls-89" d="m445.96,56.22c-.36,1.61-1.39,1.87-2.63,1.7-1.22-.17-1.59-1.05-1.48-2.11.12-1.13.86-1.71,2.01-1.64,1.37.08,1.97.93,2.11,2.05Z"/><path class="cls-159" d="m430.17,59.73c1.23.02,1.62.87,1.77,1.87.12.72-.26,1.26-.98,1.4-1.18.23-1.8-.41-2.01-1.5-.18-.96.35-1.49,1.22-1.77Z"/><path class="cls-89" d="m418.61,67.92c-.01,1.01-.72,1.59-1.53,1.68-1.47.17-2.04-.86-2.08-2.17-.03-1.05.57-1.43,1.59-1.32,1.12.12,1.85.64,2.02,1.81Z"/><path class="cls-99" d="m403.81,75.57c-.11,1.24-.96,1.55-2.01,1.56-1.44.01-2.02-.81-1.88-2.15.11-1.07.68-1.86,1.86-1.71,1.27.16,1.9,1.06,2.04,2.31Z"/><path class="cls-70" d="m217.27,269.78c.28,0,.55.07.8.19.41.36.81.72,1.22,1.08-.1.25-.17.51-.21.78-11.73,10-23.57,19.88-35.16,30.04-12.08,10.6-23.92,21.48-35.87,32.23-.62-.67-.57-1.33.02-1.98,5.03-4.92,9.72-10.26,15.17-14.65,7.44-6,14.47-12.5,21.47-18.92,9.25-8.48,19.57-15.71,28.3-24.75,1.98-.75,2.99-2.53,4.26-4.03Z"/><path class="cls-172" d="m123.17,378.94c-.94-.4-1.08-1.24-1.16-2.12-.3-2.6,1.85-3.72,3.26-5.19,7.42-7.74,15.2-15.13,23.18-22.29,4.32-4.25,8.66-8.48,13.35-12.32,1.23-1.01,2.21-2.52,4.15-2.22.41.43.83.86,1.24,1.29-8.84,8.04-17.89,15.86-26.44,24.19-6.11,5.96-13.34,10.92-17.59,18.65Z"/><path class="cls-31" d="m165.95,334.8c-5.63,5.08-11.26,10.16-16.89,15.24-1.82-2.33-.1-3.89,1.25-5.45,1.79-2.08,3.96-3.8,5.59-6.02,1.55-2.39,3.84-4.04,5.95-5.87,5.96-5.75,11.48-11.94,17.73-17.4,5.2-5.08,10.78-9.76,15.69-15.14-5,5.36-10.55,10.16-15.88,15.17-6.34,5.77-12.11,12.1-18.31,18.01-12.25,11.2-24.79,22.07-36.34,34.02-1.54,1.59-2.77,3.89-5.55,3.71-3.62-1.01-1.89-2.7-.49-4.25,10.55-11.67,21.95-22.49,33.38-33.27,9-8.48,17.94-17.03,27.18-25.23,11.86-10.53,24.03-20.72,36.01-31.12,1.55-1.35,2.69-1,3.74.39,1.1,1.45,2.06,3,3.08,4.51-17.31,16.45-34.63,32.89-51.93,49.36-1.31,1.25-3.39,1.51-4.22,3.34Z"/><path class="cls-3" d="m157.01,338.88c-1.28,2.55-3.65,4.12-5.54,6.12-1.38,1.45-2.77,2.8-2.41,5.04-9.02,8.93-18.03,17.86-27.05,26.79-1.47.18-2.29-.69-2.96-1.82-1.32-1.82.29-2.72,1.24-3.73,10.48-11.12,22-21.15,33.29-31.42.91-.83,1.87-2.12,3.42-.97Z"/><path class="cls-168" d="m157.01,338.88c-5.97,3.85-10.59,9.28-16.03,13.73-6.76,5.54-12.91,11.72-18.97,17.99-1.24,1.28-2.86,2.34-2.95,4.4-.68-.69-1.35-1.37-2.03-2.06.72-.62,1.44-1.24,2.17-1.86,5.91-5.82,11.57-11.92,17.78-17.4,7.86-6.94,15.05-14.66,23.63-20.78.58-.42,1.11-.37,1.59.17-1.73,1.94-3.45,3.88-5.18,5.82Z"/><path class="cls-203" d="m116.11,375.75c-.96,3.1-3.53,4.44-6.63,6.44,1.39-3.73,5.3-4.69,5.51-8.17.77.32,1.15.9,1.13,1.73Z"/><path class="cls-196" d="m120.1,379.79c-1.19,2.15-2.91,3.75-5.51,5.46.66-3.44,4.47-4.14,4.36-7.19.87.26,1.11.93,1.15,1.73Z"/><path class="cls-160" d="m148.08,332.13c0,.66-.02,1.32-.02,1.98-8.81,8.94-17.61,17.87-26.42,26.8-.48.49-1.04.85-1.6.04,9.35-9.61,18.7-19.22,28.05-28.82Z"/><path class="cls-88" d="m178.95,314.89c5.54-6.77,13.01-11.41,18.52-18.15-5.81,6.41-11.62,12.83-17.44,19.24-.4-.32-1.01-.44-1.08-1.09Z"/><path class="cls-19" d="m178.95,314.89c.36.36.72.73,1.08,1.09-5.95,5.69-11.9,11.39-17.85,17.08-.53-.06-1.05-.11-1.59-.17,6.12-6,12.23-12,18.35-18Z"/></svg>