<?xml version="1.0" encoding="UTF-8"?><svg id="Calque_5" xmlns="http://www.w3.org/2000/svg" viewBox="0 0 500 500"><defs><style>.cls-1{fill:#f70000;}.cls-2{fill:#fb0000;}.cls-3{fill:#f9a776;}.cls-4{fill:#fd0000;}.cls-5{fill:#694101;}.cls-6{fill:#676767;}.cls-7{fill:#ffa200;}.cls-8{fill:#fff5f5;}.cls-9{fill:#fff8f8;}.cls-10{fill:snow;}.cls-11{fill:#fff1f1;}.cls-12{fill:#f38656;}.cls-13{fill:#ee9d70;}.cls-14{fill:#ffac7a;}.cls-15{fill:#ffab7a;}.cls-16{fill:red;}.cls-17{fill:#ff0100;}.cls-18{fill:#ff5900;}.cls-19{fill:#feab7a;}.cls-20{fill:#feab79;}.cls-21{fill:#9a6902;}.cls-22{fill:#995e00;}.cls-23{fill:#a2694b;}.cls-24{fill:#940000;}.cls-25{fill:#920000;}.cls-26{fill:#996347;}.cls-27{fill:#311e1f;}.cls-28{fill:#ba0000;}.cls-29{fill:#b1acad;}.cls-30{fill:#db0000;}.cls-31{fill:#da0000;}.cls-32{fill:#cf0002;}.cls-33{fill:#d70001;}.cls-34{fill:#d70000;}.cls-35{fill:#d90000;}.cls-36{fill:#d80000;}.cls-37{fill:#d80001;}.cls-38{fill:#17120f;}.cls-39{fill:#242222;}.cls-40{fill:#260706;}.cls-41{fill:#210202;}.cls-42{fill:#1f120f;}.cls-43{fill:#230907;}.cls-44{fill:#42332b;}.cls-45{fill:#441e17;}.cls-46{fill:#433933;}.cls-47{fill:#421510;}.cls-48{fill:#1d1512;}.cls-49{fill:#37271f;}.cls-50{fill:#3e342e;}.cls-51{fill:#1d0d0a;}.cls-52{fill:#890000;}.cls-53{fill:#595655;}.cls-54{fill:#291f1f;}.cls-55{fill:#2c1415;}.cls-56{fill:#3b1611;}.cls-57{fill:#3b3838;}.cls-58{fill:#3b1b18;}.cls-59{fill:#340f0f;}.cls-60{fill:#340d0a;}.cls-61{fill:#5a482a;}.cls-62{fill:#392b24;}.cls-63{fill:#3d150f;}.cls-64{fill:#787575;}.cls-65{fill:#270e0a;}.cls-66{fill:#271e0f;}</style></defs><path class="cls-48" d="m445.98,243.92c10.22.27,24.61,11.37,22.98,23.51-.12.89-.4,2,.71,2.65.04.33.14.63.31.92,1.09,4.17-1.19,7.42-3.2,10.57-3.65,5.72-7.14,11.7-13.96,14.38-1.52.75-3.03,1.5-3.89,3.09-3.13,3.87-7.17,6.09-12.12,6.66-8.36,3.42-16.94,6.15-25.62,8.59-1.08.3-2.17.57-3.25.85-3.76,2.12-7.72,3.02-12,1.96-7.79.95-15.61.99-23.43.87-2.87-.05-5.78.18-8.56-.85-4.94.7-9.16-.98-13-3.94-.62-.08-1.24-.16-1.85-.24-3.91.02-7.73-.47-11.48-1.64-2.39-.75-3.97.92-5.77,2.04-2.57,1.6-4.42,4.57-8,4.27-.77-.29-1.25-.83-1.37-1.67.23-2.31,2.13-3.29,3.7-4.43,20.89-15.13,42.36-29.36,66.06-39.8,11.25-4.95,22.64-9.73,34.94-11.52,6.29-.91,12.62-1.2,17.17,4.66-.06.87-.53,1.41-1.35,1.67-16.55-6.05-30.35,3.06-44.76,8.34-16.17,5.92-30.65,15.15-45.25,24.07-.64.39-1.26.82-1.86,1.27-2.88,2.27-5.99,4.21-9.31,6.44,16.75,5.85,33.26,9.8,51.11,7.03,14.28-2.21,28.08-5.58,41.26-11.3,10.68-4.64,19.73-11.43,26.86-20.91,5.54-7.36,5.56-14.9,1.88-22.53-3.62-7.51-10.35-11.15-18.57-11.56-15.28-.78-29.07,4.67-42.68,10.7-14.16,6.27-27.93,13.34-41.75,20.31-1.77.89-3.54,1.95-5.67,1.1-.46-.28-.73-.69-.81-1.23.21-2.37,2.12-3.31,3.85-4.14,11.58-5.6,22.92-11.69,34.57-17.14.87-.33,1.74-.66,2.6-1.04,2.46-.95,4.93-1.91,7.36-2.96.97-.39,1.78-1.14,2.81-1.41,1.71-.1,2.89-1.67,4.63-1.7,6.7-.67,12.77-3.79,19.34-5.05,2.06-.39,4.11-.78,6.2-.99,3.72-.44,7.45-.61,11.16.09Z"/><path class="cls-62" d="m71.86,363.96c-4.45-6.91-10.13-12.97-13.88-20.38-1.1-2.17-1.95-4.37-2.74-6.63.81-.72.93-2.2,2.4-2.21,2.46,2.03,2.71,5.23,3.99,7.86,3.1,6.36,7.82,11.54,11.79,17.26.41.53.82,1.06,1.25,1.56,1.32,1.48,2.72,2.86,4.23,4.15,1.95,1.68,4.35,2.66,6.45,4.11,18.05,12.51,38.8,15.93,59.99,17.89,18.9.66,37.35-2.38,55.83-5.94,16.06-3.1,30.89-8.94,45.03-16.88,1.3-.73,2.58-1.55,4.17-1.5.87.18,1.67.42,1.61,1.56-7.09,5.39-15.47,8.31-23.33,12.23-.58.29-1.09.7-1.64,1.05-1.55,2.01-3.41,3.1-6,2.02-1.01.35-2.02.71-3.02,1.06-3.36,2.07-6.87,3.6-10.97,2.9-8.34,1.67-16.67,3.35-25.01,5.02-1.98,1-3.97,1.58-5.98.08-7.27,1.33-14.57,2.25-21.98,1.63-3.34-.63-6.69-.56-10.03-.05-5.75.38-11.32-1.09-16.97-1.69-.42.27-.86.66-1.34.61-8.92-1.03-17.51-3.34-25.73-6.96-.46-.2-.61-.75-.77-1.23-.39-.15-.77-.31-1.16-.46-4.13-.06-7.03-2.59-9.99-5-.43-.34-.86-.69-1.29-1.03-4.95-1.93-9.88-3.88-12.74-8.83-.73-.73-1.45-1.47-2.18-2.2Z"/><path class="cls-50" d="m251.98,364.81c-.41-.33-.82-.66-1.22-.99.21-2.02,2-2.54,3.35-3.36,15.91-9.64,31.06-20.41,46.08-31.35,1.98-1.44,3.94-3.16,6.71-2.82.75.24,1.27.68,1.36,1.52-5.21,4.84-10.36,9.75-17.26,12.21-4.2,2.67-8.41,5.32-12.11,8.69-4.57,5.44-10.78,8.38-17.08,11.19-3.28,1.64-6.56,3.28-9.84,4.92Z"/><path class="cls-46" d="m308.92,327.8l-.48.09-.48-.09c-.47-.35-.93-.71-1.4-1.06,3.91-5.97,10.16-8.38,16.39-10.85.39.4.78.79,1.16,1.19-1,2.39-4.3,2.14-5.26,4.58-3.74,1.36-7.1,3.33-9.93,6.16Z"/><path class="cls-53" d="m144.02,390.76c3.35-1.31,6.69-1.26,10.03.05-3.34-.02-6.69-.03-10.03-.05Z"/><path class="cls-30" d="m409.28,249.87c-.95,1.78-2.32,2.68-4.4,2.16-1.98-3.79-1.83-8-2.2-12.06-1.14-12.38-2.03-24.78-4.86-36.93-3.32-14.26-7.7-28.16-14.49-41.2-2.02-5.57-4.04-11.12-8.01-15.72-.97-1.12-1.39-2.61-1.35-4.15.28-2.09,1.18-3.54,3.57-3.46,1.1.3,1.74,1.12,2.27,2.05.88,2.11,2.27,3.95,3.34,5.96,7.95,17.24,15.57,34.72,19.18,53.38,2.65,13.66,5.15,27.44,6.31,41.36.2.7.26,1.42.28,2.13.34,1.89-.63,3.8.02,5.7.22.21.34.47.35.78Z"/><path class="cls-58" d="m379.01,140.86l-1.27-1.81c-3.19-1.45-5.9-3.55-8.4-6.03,2.72,2.55,4.46,5.69,5.53,9.22,2.87,6.35,8.06,11.56,9.23,18.74-.38.34-.84.5-1.35.51-2.53-.89-3.14-3.33-4.04-5.38-3.5-7.95-8.25-15.19-13.45-22.02-7.37-9.7-17.93-14.94-29.25-18.79-2.89-.98-6.32-.86-8.27-3.87.32-1.2,1.34-1.33,2.33-1.52,19.13,5.65,36.18,15,50.64,28.82,6.3,6.02,10.79,13.37,13.71,21.54.82,2.28,2.97,4.02,2.68,6.71-1.24,1.05-1.58-1.79-2.85-.66-1.83-.56-2.23-2.24-2.92-3.7-2.51-5.32-4.88-10.72-8.11-15.67-.92-2.36-2.92-3.97-4.21-6.08Z"/><path class="cls-49" d="m250.96,110.97c12.03-3.82,24.37-5.74,36.96-6.2,5.04-.28,9.74.49,14.77,1.05.85.04,1.16.1,1.46.14-.97,1.1-2.67,1.37-3.26,2.91-.51.56-1.13.92-1.85,1.14-5.69.69-11.51.3-17.07,2.04-2.83,1.45-4.88-.31-7.02-1.71-.68-1.86,1.09-1.45,2.43-2.31-4.22,1.76-8.12,2.14-11.89,3.05-4.18.72-8.22,2.31-12.56,2.06-1.05-.36-2.26-.59-1.98-2.17Z"/><path class="cls-59" d="m394.9,166.09c1.32-1.15,1.23,1.17,2.19.89,3.95,8.36,6.79,17.09,8.96,26.08,2.69,11.17,3.97,22.39,4.24,33.93.17,7.5.18,14.79-1.36,22.09-2.76-1.24-.21-3.4-.86-5.01-.2-9.15-.28-18.3-1-27.43-2.4-15.52-5.75-30.79-11.67-45.42-.65-1.61-1.75-3.29-.5-5.14Z"/><path class="cls-38" d="m301.04,107.82c-.79-3.7,2.26-.93,3.12-1.85,8.83.02,17.51,1.1,25.91,3.96-.49.97-1.46,1.1-2.37,1.31-2.82,2-5.71.41-8.54.08-2.75-.32-5.5-.83-8.25-1.26-3.11-1.51-7.08.7-9.87-2.23Z"/><path class="cls-27" d="m70.94,276.93c6.08-9.76,14.7-16.81,24.33-22.77,5.62-3.48,11.21-7.05,16.99-10.25,2.96-1.64,3.23-3.14,2.11-6.29-2.12-5.99-3.54-12.24-4.07-18.62,1.24-1.85-1.44-4.88,1.84-6.11,1.03,1,1.2,2.35,1.44,3.65,4.7,25.45,11.97,50.1,22.82,73.65.05.88-.38,1.49-1.09,1.95-1.6.37-2.26-.87-3.11-1.79-7.27-12.26-11.29-25.8-15.39-39.3-1.7-5.61-1.59-5.71-6.24-2.58-7.57,5.11-15.57,9.56-22.85,15.13-3.48,2.66-6.73,5.39-8.91,9.23-.58.72-1.34,1.24-2.06,1.81-1.62,1.08-2.14,3.5-4.49,3.68-.7-.21-1.16-.66-1.33-1.39Z"/><path class="cls-42" d="m70.94,276.93c.41.38.81.77,1.22,1.15,1.17,2.02-.17,3.62-1.19,4.96-10.24,13.46-11.92,28.27-7.19,44.15.14.47.06.99.02,1.48-.27,1.35-.62,2.66-1.84,3.51-5.03-2.61-4.33-7.69-5.21-12.09-.04-1.04-.09-2.09-.04-3.13.25-4.04.3-8.09.85-11.46,0,.1-.04.85-.24,1.58-.13.47-.19.96-.23,1.45.03,3.99-.95,7.92-.67,11.92-.92,4.89,1.8,9.62.64,14.52-.1,1.13-.53,1.96-1.83,1.98-.45-2.6-.9-5.2-1.34-7.79-.88-3.36.33-6.87-.72-10.22-1.29-13.56,4.71-24.58,12.28-35.03,1.73-2.39,3.66-4.65,5.49-6.97Z"/><path class="cls-54" d="m141.06,160.06c4.11-4.08,8.29-8.09,12.32-12.24,6.9-7.1,18.45-10.07,27.12-2.24.73.66,1.66,1.08,2.5,1.62,1.01.81,1.99,1.65,2.88,2.6,2.05,2.1,4.31,4.03,5.63,6.73.43.77.85,1.55,1.42,2.23,1.76,2.27,4.67,3.87,4.38,7.36-.35.66-.86,1.11-1.61,1.25-4.52-2.24-6.26-7-9.42-10.47-3.55-3.9-6.99-7.88-11.41-10.84-1.53-1.03-3.14-1.8-5.04-1.73-4.06-.19-7.61,1.29-10.96,3.39-5.87,4.67-10.75,10.36-16,15.67-.47.52-.94,1.03-1.4,1.56-1.02,1.05-1.99,2.27-3.68,1.13-.14-.48-.1-.95.1-1.41,1.06-1.53,2.11-3.06,3.17-4.59Z"/><path class="cls-57" d="m111.94,213.04c-1.85,1.63.18,4.32-1.64,5.95-.38-7.41-.86-14.74,1.46-22.07,1.27-4.04,3.37-7.25,6.06-10.28.86.26,1.37.84,1.59,1.7-.39,3.24-2.83,5.56-3.81,8.54-1.18,3.62-2.35,7.22-2.26,11.11.04,1.77.24,3.69-1.41,5.04Z"/><path class="cls-39" d="m118.98,188.01c-.39-.45-.77-.9-1.16-1.36,6-7.96,12.94-15.08,20.08-22,.12.61.24,1.22.37,1.83.74,2.24-.98,3.39-2.22,4.62-2.48,2.47-4.71,5.17-7.13,7.69-3.33,3.05-5.45,7.4-9.93,9.21Z"/><path class="cls-6" d="m53.17,318.93c1.61,3.31.82,6.79.72,10.22-1.66-3.31-.69-6.8-.72-10.22Z"/><path class="cls-16" d="m392.77,257.94c-13.02,6.5-26.31,12.44-38.93,19.74-1.88,2.98-4.66,3.73-7.95,3.24-1.16-.26-2.1-.98-3.16-1.45-2.08-.92-5,1.48-6.45-1.2-1.67-3.08-2.2-6.62-2.39-10.11-.7-12.62-1.96-25.19-3.84-37.66-1.37-9.06-1.44-18.26-3.35-27.23-4.09-19.21-7.62-38.69-18.45-55.56-7.42-11.55-17.3-20.58-30.75-24.96-.95-.31-1.9-.61-2.84-.97-2.87-1.11-4.03-2.62-.89-4.76,1.71-1.16,2.72-2.9,4.14-4.29,3.12-.5,6.24-.98,9.28.37,5.18,4.61,11.12,5.42,17.61,3.53.45-.07.9-.05,1.34.08,1.93,1.89,4.02,2.41,6.39.77,1.41-.1,2.39.55,3.09,1.72.84,1.93.6,4,.74,6.01-.05,2.8,1.55,4.42,3.86,5.66,2.11,1.13,4.57,1.77,6.04,3.91.24,2.46,1.43,4.06,3.65,5.38,2.64,1.57,5.17,3.52,7.19,5.86,1.52,1.76,3.13,2.16,5.2,1.69,1.1.33,1.39,1.19,1.48,2.2-.82,3.34-.02,5.9,2.79,8.25,3.24,2.72,3.74,8,8.85,9.27,1.75.44,3.16.68,4.62-.22,1.56-.96,1.17-2.27.83-3.88-.84-4.05,1.25-5.31,7.15-4.6.34.34.58.74.75,1.19.14,2.84-.68,5.96,2.8,7.7,1.1.55.69,2.07.87,3.18.68,4.08,2.24,7.53,6.61,8.9,1.06.88,1.7,2.03,2.12,3.3,6.65,19.79,11.06,40.03,12.17,60.93.07,3.62-.37,7.27.43,10.86.12,1.19-.08,2.27-.99,3.12Z"/><path class="cls-14" d="m84.05,370c-2.15-1.13-4.78-1.53-6.01-4.03-.84-1.91-1.74-3.75-4.22-3.88l-.8-1.08c-.78-1.8-.81-3.77-1.27-5.65-.57-2.35.52-3.36,2.88-3.09,3.42,1.9,5.91,4.89,8.76,7.47.33,2.09,1.15,3.61,3.48,4.25,4.01,1.1,6.71,5.76,11.69,4.35,4.31,1.46,8.76,2.45,13.11,3.76,2.69,1.21,4.8,4.69,8.44,2.1,6.77.39,13.37,1.93,20.06,2.84,2.37,2.37,4.85,3.01,7.53.43,20.39-.19,39.84-4.64,58.75-12.16,8.96-3.56,17.34-8.46,26.61-11.22,4.48.87,7.55-1.41,10.2-4.6.57-.76,1.3-1.23,2.26-1.33,2.06.28,3.78-.16,4.72-2.25.25-.39.54-.74.85-1.08,8.95-6.05,18.1-11.8,27.36-17.35,10.42-6.24,20.66-12.71,30.19-20.26,2.09-1.65,4.32-3.11,6.72-4.28,6.26-3.59,12.29-7.54,18.11-11.82,6.46-4.68,12.99-9.23,20.56-12.02,6.54-1.52,11.92-5.55,17.86-8.35,15.85-7.47,31.28-15.87,48.09-21.14,8.42-2.64,16.93-4.58,25.87-3.52,17.23,2.04,25.36,19.42,19.05,31.56-5.44,10.46-14.13,17.99-24.58,23.26-16.38,8.26-33.86,12.2-52.11,14.42-14.88,1.81-28.3-2.12-42.05-5.87-2.46-.67-4.94-1.24-8.01-2.01,4.53-3,8.65-5.72,12.77-8.44,22.21,7.68,44.3,4.91,66.21-1.15,8.6-2.38,15.82-7.65,22.47-13.59,3.75-3.35,5.6-7.76,7.24-12.32,1.78-2.06,1.44-3.53-.13-6.01-5.42-8.58-13.8-6.38-21.41-6.33-4.42.03-8.71,1.92-12.94,3.5-14.9,5.57-29.97,10.89-43.3,19.74-7.16,4.76-15.03,8.23-22.03,13.2-7.29,5.18-14.86,9.99-21.72,15.74-6.38,5.35-14.24,8.47-20.63,13.61-9.71,7.82-20.54,13.96-30.47,21.41-2.02,1.51-4.49,2.19-6.44,3.77-2.55,2.25-5.67,3.54-8.61,5.14-5.96,4.29-12.48,7.57-18.97,10.94-3.51,2.18-7.27,3.83-11.15,5.24-5.2,2.5-10.44,4.88-16.1,6.17-2.96.89-6.09.95-9.04,1.9-6.06,3.05-13.02,1.77-19.24,4.08-2.44.32-4.91-.05-7.35.37-.44.15-.9.27-1.35.39-2.22.47-4.24,2.11-6.71,1.27-.73-.12-1.45-.28-2.17-.46-.97-.3-2-.44-2.96-.26-9,1.7-17.81,1.44-27.03.38-12.17-1.4-23.6-4.56-34.96-8.56-3.77-1.33-7.06-3.69-10.51-5.67-2.41-1.38-4.81-2.2-7.58-1.52Z"/><path class="cls-24" d="m351.97,297.99c12.13-7.02,23.77-14.91,36.69-20.53,12.51-5.44,25-10.95,38.37-14,5.51-1.26,10.86-.63,15.66,2.7,2.98.94,3.52,3.39,3.37,5.97-.21,3.74-1.49,7.11-4.17,9.89-9.74,10.13-21.47,16.54-35.34,18.89-8.95,1.52-17.91,2.85-27.03,3.16-8.25.28-16.08-1.86-24.03-3.34-1.33-.25-3.53-.33-3.53-2.73Z"/><path class="cls-14" d="m184.02,382.95c6.4-2.66,13.57-1.46,19.99-4,2.9-1.09,6.37.36,9-2,5.33-2,10.66-4,15.99-6,3.91-1.14,8.08-1.68,11-5,1.7-3.22,5.31-3.31,8.07-4.45,4.03-1.67,6.33-6.02,10.92-6.55,2.86-1.36,6.23-1.89,8-5,5.42-3.64,10.98-7.09,16.21-10.99,5.31-3.96,12.19-5.78,16.08-11.71.42-.64,1.32-.96,2-1.43,8.88-6.03,18.27-11.16,26.82-17.86,7-5.48,14.44-10.75,22.25-15.41,6.04-3.61,12.61-6.37,18.31-10.78,8.21-6.37,17.96-10.65,27.6-14.02,9.27-3.23,18.08-8.08,28.01-9.43,5.47-.75,10.88.18,16.32.47,1.94.1,3.53,1.21,4.14,3.12.49,1.54,1.34,2.36,2.75,3.21,3.18,1.91,3.1,4.01.16,6.93-2.68-1.66-2.23-4.91-3.66-7.21-5.25-4.35-11.3-4.64-17.6-3.37-18.22,3.68-34.96,11.33-51.18,20-17.56,9.38-34.09,20.5-50.07,32.39-.79.59-1.47,1.33-2.2,2-5.03,4.28-11.67,6.11-16.39,10.85-6.23,2.53-11.04,7.22-16.36,11.06-12.78,9.24-25.91,17.92-39.44,26.02-9.61,5.11-19.06,10.6-29.45,14-16.09,5.26-32.75,7.84-49.49,10.06-8.9,1.18-17.79,1.01-26.71.85.11-1.61,1.39-1.66,2.51-1.76,5.9-.55,11.77-1.26,17.57-2.46.92-.19,1.98-.23,2.85.45h2c2.59,3.2,4.01-.62,6-1,2.52-1.5,5.65,1.84,8-1Z"/><path class="cls-41" d="m354.01,279.11c-5.14,4.47-11.66,6.79-17.05,10.87-.9.68-1.77,1.41-2.66,2.12-1.08.43-2.07.55-2.6-.8,2.11-4.48,6.34-5.76,8.89-6.75-16.43,3.31-33.87,9.21-51.13,15.68-4.34,2.12-9.02,3.05-13.71,4-12.24,1.49-23.91,5.67-36.03,7.75-21.31,2.94-42.63,3.78-63.95.29-14.01-2.29-26.42-8.62-38.53-15.64-1.54-.89-3.13-2.08-2.4-4.37.42-.44.84-.88,1.26-1.32,7.83,3.88,16,6.98,23.97,10.54,1.33,1.76,2.98,2.98,5.28,3.13,7.79,2.39,15.79,3.54,23.87,4.23,12.79,1.46,25.51.64,38.27-.71,29.79-3.17,58.27-11.55,86.45-21.21,1.48-.34,3.07-.13,4.47-.9,2.87-1.36,6.06-1.77,8.93-3.12.91-.39,1.84-.74,2.81-.95,1.72-.3,3.48-.34,5.15-.93,3.49-.75,6.99-1.39,10.59-1.09,2.99.45,5.27-1.59,7.93-2.28.05.48.11.96.16,1.44Z"/><path class="cls-65" d="m443.98,264.86c2.97,1.52,2.37,4.84,3.66,7.21-3.23,14.63-14.93,21.25-27.06,25.69-21.09,7.72-43.05,9.76-65.23,4.13-1.81-.46-3.49-1.08-4.43-2.87.35-.35.7-.69,1.05-1.04,10.6,4.3,21.73,5.66,32.99,4.81,11.85-.89,23.75-2.3,34.9-6.77,8.86-3.55,16.68-8.98,22.56-16.57,3.09-3.99,3.93-8.8.28-13.3.43-.43.86-.86,1.29-1.29Z"/><path class="cls-60" d="m392.07,243.87c-1.43-21.36-5.83-42.12-12.85-62.33-.2-.58-.78-1.04-1.18-1.55-4.32-6.17-6.55-13.39-10.08-19.96l-.26-.99c-.23-.45-.28-.92-.16-1.41.42-.72,1-1.01,1.82-.69,5.74,6.31,8.79,14.16,12.37,21.71.22.43.41.88.59,1.34,1.74,4.6,3.19,9.28,4.51,14.02.8,2.84,1.96,5.58,2.4,8.51.54,2.58.84,5.21,1.36,7.8.15.46.26.94.35,1.41.7,4.34,1.51,8.66,2.74,12.89.17.5.28,1,.37,1.51.21,4.28,1.46,8.44,1.32,12.75.16,2.23.86,4.38.91,6.62-.23,3.78.76,7.68-1.06,11.31-.82.38-1.64.75-2.46,1.13.03-.97.06-1.95.09-2.92-1.1-3.66.28-7.49-.8-11.15Z"/><path class="cls-56" d="m382.73,161.1c.45-.03.9-.07,1.36-.1,8.15,14.24,12.45,29.84,15.86,45.71,2.4,11.18,3.22,22.58,4.12,33.96.3,3.79,1.32,7.52.81,11.36-.73.62-1.46,1.24-2.18,1.85-1.87-2.55-.51-5.69-1.55-8.4-.15-.5-.25-1.01-.32-1.52-.29-2.25.04-4.57-.72-6.78-.19-.74-.31-1.48-.37-2.24-.17-2.22.13-4.48-.59-6.65-.14-.48-.24-.96-.31-1.45-.36-2.91.1-5.86-.44-8.76-.16-.45-.27-.91-.36-1.38-.45-2.27,0-4.63-.68-6.88-.16-.43-.29-.87-.41-1.32-.68-2.21-1.15-4.47-1.81-6.68-.25-.91-.36-1.84-.45-2.77-.36-3.27-1.42-6.33-2.8-9.3-.51-.83-.87-1.71-1.06-2.65-.43-2.36-.86-4.72-1.99-6.88-2.86-6.11-6.95-11.84-6.09-19.13Z"/><path class="cls-15" d="m402.13,244.64c1.03,3.03,1.26,6.1.57,9.24-2.49.98-4.97,1.96-7.46,2.94-.09-3.94-.19-7.87-.28-11.81,4.19-.12,1.85,3.85,3.43,5.5,3.03-.82,1.53-4.57,3.73-5.87Z"/><path class="cls-44" d="m184.92,150.07c-1.23-.56-1.87-1.52-1.92-2.87,2.83-1.18,4.62-3.66,6.88-5.55,17.71-14.78,37.61-25.28,60.09-30.71.31-.07.66.02.99.03.41.91,1.24,1.03,2.1,1.11.15,1.66-1.18,1.85-2.25,2.1-23.32,5.52-43.48,17.07-61.71,32.3-1.59.95-2.49,2.73-4.17,3.58Z"/><path class="cls-14" d="m168.03,384.95c-7.61,1.46-15.47,1.39-22.93,3.77-21.76-1.65-42.94-5.19-61.05-18.73,1.72-4.11,4.43-1.8,6.47-.69,4.63,2.52,9.08,5.31,13.94,7.46,5.64,2.5,11.91,2.86,17.44,5.27,7.4,3.23,15.41.96,22.95,3.6,5.03,1.76,10.77-.08,16.12-1.18,2.41-.49,4.82-1.27,7.07.48Z"/><path class="cls-14" d="m74.79,352.97c-1,.19-3.21.08-2.16,1.48,1.78,2.38.25,4.4.37,6.56-6.95-7.68-12.11-16.45-15.94-26.04-1.37-4.58-2.65-9.16-1.77-14.02.55-1.28,1.3-2.02,2.69-.96.61,4.26,1.2,8.53,4.06,12.04,5.05,6.09,9.18,12.8,13.11,19.64.25.43.02.95-.37,1.31Z"/><path class="cls-14" d="m73.81,362.09c4.03-1.56,4.52.73,4.22,3.88-1.83-.83-2.98-2.41-4.22-3.88Z"/><path class="cls-4" d="m394.9,166.09c6.47,16.07,11.38,32.56,13.13,49.87.5,8.67.93,17.34-.21,25.99-1.3-7.77-2.7-15.52-3.87-23.3-2.4-16.02-5.34-31.73-12.04-46.82-3.7-8.33-6.71-17.17-9.97-25.8.6-.59,1.19-.55,1.78,0,4.58,4.98,6.41,11.44,9.21,17.36.52,1.11,1.08,1.95,1.96,2.68Z"/><path class="cls-34" d="m374.86,142.25c-2.72-3.82-5.43-7.64-8.15-11.46,3.88,2.53,8.24,4.36,11.02,8.27-1.98.14-2.72,1.4-2.87,3.19Z"/><path class="cls-52" d="m407.83,241.96c.07-8.66.14-17.33.21-25.99,1.41,9.37,1.55,18.74.03,28.11-.08-.71-.16-1.41-.23-2.12Z"/><path class="cls-2" d="m383.73,146.04c-.59,0-1.19,0-1.78,0-1.3-1.54-2.93-2.9-2.94-5.17,2.53.85,3.5,3.14,4.73,5.18Z"/><path class="cls-14" d="m402.13,244.64c-.35,2.23.21,4.65-1.67,6.55-.81.82-1.32,2.08-2.73,1.55-1.44-.54-2.09-1.73-1.47-3.18.84-1.95.83-3.52-1.31-4.55-.09-2.04-1.52-3.91-.78-6.06.93-4.77.73-9.42-1.38-13.88l.06.07c-.51-4.8-1.44-9.51-2.86-14.13l-.02-.05c-1.32-2.48.76-5.75-1.87-7.92-.73-2.97-1.47-5.94-2.2-8.91-.65-5.03-1.44-10-4.8-14.1-.25-.2-.33-.46-.24-.76-4.07-13.8-10.47-26.16-21.94-35.38-5.7-5.34-11.29-10.78-17.62-15.44-11.73-8.64-25.48-10.97-39.31-13.03-6.08-.9-12.13-1.97-18.22-2.76-1.2-.15-3.96-.39-4.35-1.75,6.11-1.9,14.12-1.81,20.4-2.16,3.76-.21,7.52-.45,11.27.14,5.53.78,11.07,1.56,16.6,2.34,8.64,3.24,17.49,5.72,25.56,10.67,11.98,7.34,18.31,18.88,24.89,30.41,1.64,2.87,3.07,5.86,4.6,8.79,1.43,6.66,4.63,12.63,7.26,18.83.84,2.32-.22,5.17,2,7.1.32.76.64,1.52.95,2.28.48,3.37,1.25,6.65,2.85,9.68l.23,3c-.62,2.68,1.03,4.75,1.89,7.04l.02.04c1.64,2.44-.87,5.49,1.16,7.87l-.05-.03c1.07,3.3-1.74,6.89.74,10.08.07.33.13.65.2.98.27,2.35-1.64,4.94.78,7.05l.21,1.98c1.69,2.13-1.3,4.99,1.09,7.02.23.18.26.39.09.63Z"/><path class="cls-19" d="m188.01,145.98c18.56-16.24,39.62-27.7,63.79-33.17.45-.1.85-.48,1.27-.72,4.24-.72,8.48-1.44,12.72-2.16,1.06-.47,1.36.15,1.48,1.02-1.15,2.57-3.79,2.49-5.9,3.09-10.42,2.97-19.68,8.51-29.42,12.99-11.23,5.38-20.22,13.79-29.51,21.81-1.63,1.41-3.03,3.13-5.45,3.16-3.84-.74-6.63-3.06-8.99-6.02Z"/><path class="cls-63" d="m231.02,126.23c10.95-5.87,21.89-11.77,34.26-14.26.61-.12,1.14-.62,1.71-.95,2.48-1.24,4.95-2.48,7.79-1.07,1.97-.97,2.2.42,4.78.8,1.13.17,2.25.41,3.34.73,3.78,1.11,7.77,1,11.64,1.49,9.83,1.25,19.56,2.85,29.11,5.53,14.76,4.14,25.88,13.6,35.9,24.65,3.68,2.76,6,6.67,8.64,10.31.96,1.33,1.82,2.8-.28,4.72l-.06.03c-2.04.11-2.87-1.47-3.76-2.82-11.65-17.66-26.63-30.81-47.89-35.5-.47-.1-.85-.51-1.21-.85-.91-.61-1.83-1.16-3-.88-2.32,1.28-4.15-.04-6.01-1.16-.28-.15-.57-.21-.89-.19-5.89.33-11.7.18-17.09-2.69-3.37.06-6.55-1.82-10-.96-.64.46-1.35.65-2.14.59-3.42-.87-6.59.39-9.69,1.4-7.07,2.3-14.24,4.38-20.96,7.66-1.5.64-2.99,1.32-4.64,1.48-1.76.16,0,.95-.25,1.38-.21,1.01-.8,1.69-1.72,2.11-2.49.5-4.96,1.39-7.54.54-.61-.69-.59-1.39-.02-2.09Z"/><path class="cls-13" d="m274.78,109.95c-2.6.36-5.19.71-7.79,1.07-.4-.37-.8-.73-1.2-1.1,14.68-4.1,22.2-3.31,24.91-2.88-2.71,1.79-9.61,1.3-15.92,2.91Z"/><path class="cls-26" d="m311.09,108.88c-3.76-.04-7.51-.09-11.27-.14.4-.31.81-.62,1.21-.93,3.33.6,6.83-.53,10.05,1.07Z"/><path class="cls-16" d="m77.94,272.73c1.14-5.04,5.43-7.51,9.06-10.11,8.17-5.86,16.78-11.11,25.19-16.65,2.63-1.73,4.02-2.41,5.13,1.86,3.82,14.58,8.78,28.79,15.68,42.26,1.39,5.51,5.1,8.97,9.8,11.87,16.77,10.37,35.17,14.44,54.63,14.68,1.83.02,3.66-.02,5.44.49,5.21,2.93,10.73,2.29,16.45,2.08,13.42-.49,26.39-3.29,39.21-6.75,9.29-2.51,19.02-3.18,28.02-6.86,1.7-.69,3.54-.94,5.37-1.05,1.41-.08,3.37-.91,3.96.87.52,1.59-1.19,2.62-2.44,3.4-7.9,4.93-16.15,9.32-23.9,14.42-13.97,9.18-29.62,14.88-44.29,22.58-2.94,1.55-5.84,3.19-8.81,4.66-10.86,5.35-22.2,9.44-33.93,12.46-4.36-.48-2.7-3.77-2.62-6.07.11-3,.82-5.88-3.02-7.32-4.66-1.75-9.58-1.45-11.98,1.16-.3.32-.22.94-.32,1.42-.56,1.75-2.04,2.59-3.43,3.53-3.28,2.92-3.25,3.98.45,5.06,3.36.98,6.35,3.34,10.21,2.68.94-.16,1.76.77,1.28,2.04-5.21,3.46-11.29,2.08-16.91,2.68-22.61,2.4-43.49-3.19-62.99-14.7-17.19-10.15-27.16-24.96-28.24-44.83-.38-6.94,1.85-14.12,6.26-20.16,3.42-4.69,6.73-9.49,6.76-15.68Z"/><path class="cls-29" d="m160.01,302.13c-8.31-3-17.07-5.02-23.91-11.17-8.51-14.79-13.26-31-17.69-47.31-2.74-10.07-5.46-20.17-6.48-30.61-.31-9.09,1.44-17.61,7.04-25.04,3.08-3.33,6.15-6.65,9.23-9.98,5.36-3.67,10.94-7.13,12.84-13.98.33-.34.67-.67,1-1.01,2.07-.59,4.2-1.19,5.63-2.91,3.55-4.27,7.43-8.28,10.38-13.02,3.5-2.84,7.38-4.51,12-3.95,3.76,2.16,6.98,4.88,9.84,8.2,7.74,8.96,16,17.48,21.3,28.3,1.54,3.15,4.02,5.66,7.42,7.03,6.4,8.77,11.26,18.39,15.55,28.3,2.7,6.26,5.24,12.6,7.44,19.04,3.23,9.45,2.77,18.98-2.62,27.41-8.09,12.64-17.51,24.26-29.63,33.44-9.74,7.37-20.59,10.61-32.75,9.31-2.33-.25-4.63-.6-6.59-2.06Z"/><path class="cls-16" d="m182.03,361.96c7.57-2.26,14.82-5.75,22.31-7.75,9.48-2.53,17.48-7.85,25.87-12,13.23-6.55,27.13-12.01,39.46-20.48,8.26-5.67,17.18-10.4,25.65-15.85-5.23-.2-10.07,1.01-14.58,3.28-2.54,1.28-5.21.62-7.8,1.27-11.19,2.79-22.4,5.56-33.7,7.88-9.56,1.97-19.34,2.27-29.07,2.65-2.8.11-5.12-1.13-7.15-2.96,3.72-2.33,8.1-2.23,12.05-2.17,17.58.28,34.24-4.49,51.04-8.53,13.57-3.26,27.26-6.13,40.28-11.36.62-.25,1.27-.41,1.92-.55,2.27-.51,4.91-1.44,6.11,1.39,1.07,2.53-1.13,4.03-2.97,5.11-6.87,4.06-13.35,8.75-20.39,12.52-1.28.97-2.69,1.75-4.08,2.54-10.85,6.14-21.2,13.2-32.35,18.74-24.65,12.25-48.82,25.73-75.73,32.79-8.22,2.16-16.55,3.05-25.1,2.99-8.11-.06-16.19.53-24.28-.76-7.27-1.16-14.2-3.35-21.11-5.74-10.12-4.27-19.48-9.83-28.01-16.76-12.49-10.77-18.39-24.63-18.54-40.9-.06-7.26,2.05-14.05,6.57-20.03,3.1-4.1,5.76-8.54,7.57-13.41.35-.87,1.13-1.03,1.93-1.15,3.56,6.6-1.83,11.04-4.75,15.14-7.62,10.68-8.26,21.87-4.69,33.69,3.22,10.66,9.5,18.97,18.7,25.81,9.18,6.83,18.97,11.91,29.65,15.34,14.46,4.63,29.3,5.98,44.38,3.4,3.9-.67,8.01.84,11.79-1.14,2.57-2.27,5.92-2.23,9-3Z"/><path class="cls-35" d="m289.96,313.97c5.94-3.79,11.88-7.59,17.82-11.38.98-.62,2.04-1.13,2.95-1.84,1.31-1.03,4.02-1.54,2.75-3.9-.9-1.67-2.98-.91-4.53-.33-10.23,3.85-20.68,7-31.33,9.42-16.89,3.83-33.5,9.29-50.8,10.79-7.87.68-15.84,1.3-23.8,1.28-13.57.79-26.78-1.47-39.77-5.05-8.87-2.45-16.85-7.04-24.51-11.99-3.67-2.37-6.45-5.88-5.74-10.88.62.73,1.23,1.47,1.85,2.2,1.4,3.5,4.94,4.22,7.75,5.72,8.17,4.35,16.34,8.69,25.42,11.05,12.27,3.19,24.74,3.95,37.34,4.13,11.62.17,23.08-1.59,34.63-2.2,12.26-1.35,24.1-4.58,35.95-7.82l13.1-4c5.8-.75,11.12-3.19,16.68-4.79.95-.27,1.85-.79,2.82-.99,2.76-.58,5.79-1.56,8.05.79,2.4,2.49.05,4.95-.75,7.37-.49.93-1.33,1.54-2.07,2.22-4.23,2.74-7.91,6.35-12.72,8.2-2.97.39-5.35,2.45-8.28,2.96-1.07.07-2.06-.07-2.81-.95Z"/><path class="cls-31" d="m76.01,273.88c.64,5.2-2.7,9.03-5.38,12.52-9.85,12.86-9,26.22-3.74,40.42,3.07,8.3,8.32,14.85,14.19,21.13-2.1,1.35-3.37-.29-4.6-1.44-1.94-1.83-4.2-3.01-6.6-4.04-2.8-4.24-6.59-7.98-6.91-13.49-2.8-9.32-3.95-18.73-2.04-28.42,1.49-7.57,6.29-13.4,9.89-19.87.48-.85.89-1.75,1.33-2.62,1.28-1.4,2.57-2.8,3.85-4.2Z"/><path class="cls-51" d="m62.98,328.99c2.44,4.32,4.89,8.64,7.33,12.97,4.9,3.57,7.98,8.86,12.38,12.96,9.99,9.33,22.71,12.19,35.2,15.59,6.24,1.7,12.66,2.78,19.15,3.22.79.05,1.56.19,2.33.38,13.71,1.64,27.1-.18,40.48-3.18,19.66-4.41,37.54-13.24,55.61-21.65,4.5-2.09,8.69-4.91,13.66-5.91,1.25.25,1.92.94,1.76,2.28l.15.38c-1.22,1.95-3.12,2.63-5.27,2.84-.73.04-1.51,0-1.83.88-2.77,2.92-6.35,4.24-10.15,5.12-6.69,3.01-13.34,6.26-20.02,9.1-7.91,3.36-16.19,6.33-24.61,8.64-10.19,2.79-20.45,4.84-31.03,5.52-3.71.24-7.33,1.36-11.05.23-2.05,1.15-4.05,1.16-6-.23-7.33-1.04-14.67-2.08-22-3.12-2.67.85-4.54-1.5-6.93-1.75-4.69-1.4-9.72-1.67-14.04-4.28-5.97-1.28-11.15-3.91-15.05-8.75-3.1-2-5.87-4.38-8.22-7.24-4.08-7.09-9.69-13.24-12.74-20.95.07-1.08-.18-2.26.92-3.02Z"/><path class="cls-3" d="m58,319.98c-.9.32-1.79.64-2.69.96-1.14-4.38.8-8.53.92-12.81,2.52.37,1.01,2.31,1.27,3.5.4,1.75-.37,3.64.49,5.39,0,.99,0,1.98,0,2.96Z"/><path class="cls-23" d="m57.99,317.01c-2.2-2.64.27-6.21-1.76-8.88.38-1.72.76-3.44,1.14-5.16.21.02.41.03.62.05v13.99Z"/><path class="cls-55" d="m160.01,302.13c3.29.32,6.57.66,9.86.95,12.05,1.06,21.95-3.84,31.07-11.08,10.8-8.58,19.4-19.17,26.64-30.71,5.79-9.22,5.53-19.12,1.76-29.61-5.63-15.7-12.74-30.54-21.52-44.65-4.66-6.18-9.62-12.19-11.87-19.81l1.32-1.25c2.68-.05,3.64,2.12,4.74,3.89,12.77,20.69,25.07,41.62,32.14,65.13.58,1.92,1.09,3.84,1.17,5.85.29,2.49.62,4.99.06,7.49.14,5.37-1.77,10.24-4.62,14.49-7.87,11.72-16.51,22.84-27.82,31.58-8.96,6.93-18.44,12.35-30.33,11.93-2.78-.1-5.47-1.66-8.3-.47-1.82-.79-4.61-.46-4.3-3.72Z"/><path class="cls-33" d="m234.31,240.91c-2.13-10.61-6.22-20.65-10.76-30.28-6.74-14.29-14.62-28.09-23.49-41.25-.82-1.21-1.85-2.28-2.78-3.42-1.21-2.7-3.34-4.71-5.19-6.93.84-3.23,2.79-5.07,6.26-5.01,2.36,5.39,4.04,11.02,7.52,15.98,7.52,10.71,14.65,21.73,20.05,33.7,3.74,8.29,9.03,15.84,11.58,24.69,1.77,6.12.85,9.95-3.2,12.51Z"/><path class="cls-29" d="m195.96,167.22c3.81,6.69,8.79,12.68,11.87,19.81-2.08.22-3.45-.85-4.54-2.46-3.12-4.6-7.2-8.64-8.4-14.36-.32-1.51-1.86-1.79-2.69-2.74-7.2-8.27-14.1-16.81-22.15-24.31,7.96.91,12,7.15,16.67,12.41,3.28,3.7,6.17,7.75,9.23,11.64Z"/><path class="cls-45" d="m280.87,151.07c-.74.46-.86,1.2-.89,1.99-.33.33-.67.34-.99-.02-1.27-3.74-4.89-4.46-7.8-6.07-4.09-2.25-8.2-4.47-12.75-5.68-.95-.31-1.96-.26-2.91-.52-3.49-1.11-7.11-1.31-10.7-1.7-2.58-.08-5.13-.23-7.4-1.58-.84.06-1.67.17-2.43.51-1.9.4-3.83.43-5.76.44-1.82-.09-3.66-.01-5.48-.07-5.47-.98-8.72,2.86-12.55,5.63-4.48,3.24-7.62,8.24-13.21,9.98-1.97,1.69-3.94,3.37-5.91,5.05-.82-.34-1.06-1.03-1.09-1.84,1.08-3.08,3.26-4.98,6.34-5.92,11-8.66,20.82-18.89,33.68-25.04v1.84c-.22,2.97-3.27,3.01-4.78,4.64-.27.17-.57.3-.83.48-1.22.85-.13.72.33.7,2.88-.08,5.77,0,8.66-.15.51-.04,1.02-.04,1.54-.04,2.2.41,4.85-1.91,5.97,1.29.2-.88.38.12.39.12,1.25-1.15,2.38-.06,3.69.76.33.08.65.17.98.25,4.14-.36,8.3-.77,12.02,1.77,6.51,2.32,12.89,4.94,18.31,9.39,1.33,1.09,3.31,1.66,3.56,3.8Z"/><path class="cls-12" d="m197.34,151.27c-2.07,2.02-3.77,4.44-6.34,5.92-2.02-2.37-4.05-4.75-6.07-7.12-.06-2.18,1.56-3.1,3.08-4.09,3.64.84,5.57,4.67,9.33,5.29Z"/><path class="cls-29" d="m158.06,147.11c.22,2.48-.48,4.43-2.76,5.84-3.3,2.03-3.93,6.36-7.17,8.56-1.9,1.29-3.5,3.16-6.08,1.53,4.87-5.78,9.82-11.48,16.01-15.93Z"/><path class="cls-29" d="m141.05,164.05c-.03,6.1-7.06,13.76-12.84,13.98,3.03-4.13,7.35-7.13,10.05-11.55.93-.81,1.86-1.62,2.78-2.44Z"/><path class="cls-16" d="m276.2,112.92c.6.08,1.19.16,1.79.24.37,3.77-2.64,4.53-5.61,5.83,1.78,1.75,3.91,1.99,5.78,2.59,13.73,4.43,23.68,13.67,31.2,25.46,9.37,14.7,13.26,31.39,16.85,48.29,3.55,16.7,4.51,33.66,6.94,50.45.85,5.87,1.03,11.81,2.12,17.71.73,3.94.68,8.32,1.29,12.48.22,1.5.46,3.68,2.47,2.34,3.24-2.17,4.82.3,6.9,1.67-3.55,1.19-7.21,1.83-10.95,2.02-3.27,1.04-3.08-1.66-3.34-3.37-1.09-6.88-1.44-13.85-2.11-20.78-3.11-32.4-5.3-65.08-17.9-95.62-4.68-11.35-11.26-21.9-22.02-28.92-7.84-6.89-17.84-8.3-27.42-10.77-1.12-.29-2.3-.4-3.33-.95-.86-.46-1.86-.95-1.78-2.14.06-.94.92-1.38,1.67-1.63,5.74-1.94,11.3-4.51,17.48-4.88Z"/><path class="cls-16" d="m314.97,119.04c7.64.4,14.44,3.37,20.97,7.02,12.47,6.98,21.72,17.28,29.45,29.09.72,1.1,1.16,2.42,2.45,3.06,0,.29-.05.56-.14.83-1.12.23-2.22.53-3.35.67-2.33.28-4.15.79-2.13,3.61,1.37,1.91.69,3.6-.95,4.72-1.56,1.07-3.57,2.58-5.4,1.17-3.11-2.41-8.59-2.62-8.31-8.5.03-.61-1.29-1.38-2.09-1.92-3.39-2.27-4.61-5.1-2.46-8.89,3.78.6,4.8,4.25,7.06,6.5,1.15,1.15,1.78,2.8,2.82,4.1,1.32,1.65,2.76,4.68,4.7,3.66,2.4-1.26.86-4.24-.14-6.25-7.13-14.36-19.2-23.32-33.2-30.13-2.9-1.41-6.28-.31-9.23-1.59-.02-2.39-.04-4.77-.06-7.16Z"/><path class="cls-8" d="m315.03,126.2c8.77-2.46,14.95,3.05,21.44,7.22,1.64,1.06,3.22,2.32,4.88,3.46,8.44,5.77,14.05,13.92,18.19,23.08.93,2.07,1.75,5.57-.97,6.63-2.22.86-4.1-2.01-5.5-3.83-3.32-4.31-5.82-9.26-10.05-12.86-.09-.78.11-1.71-1.04-1.89-5.62-3.9-11.38-7.62-16.04-12.72-2.49-1.43-4.89-3.09-7.51-4.24-2.28-1-2.91-2.78-3.39-4.85Z"/><path class="cls-16" d="m325.94,135.28c6.16,3.22,11.38,7.62,16.04,12.72-1.09,2.44-3.08,2.24-4.28.66-2.91-3.82-6.67-6.38-10.71-8.76-1.66-.98-2.44-2.69-1.05-4.62Z"/><path class="cls-16" d="m367.96,160.03c4.47,6.09,8.09,12.61,10.08,19.96-6.2-.16-5.41-5.65-7.01-9.28-.35-.78,1.03-2.13-.45-2.56-5.01-1.44-2.85-5.07-2.62-8.12Z"/><path class="cls-16" d="m287.99,114.12c5.76.51,11.53.89,17.09,2.69-.83,3.07-4.32,2.47-5.24,1.96-3.78-2.12-10.1,2.18-11.85-4.64Z"/><path class="cls-16" d="m305.97,117c2.13-.25,4.08.37,6.01,1.16-2.83,3.9-4.51,1.82-6.01-1.16Z"/><path class="cls-28" d="m392.07,243.87c1.57,3.62.72,7.42.8,11.15-1.75-3.61-.7-7.42-.8-11.15Z"/><path class="cls-43" d="m250.87,345.63c-.32-.66-.64-1.32-.96-1.99.23-1.94,1.88-2.63,3.24-3.48,15.81-9.95,32.25-18.88,47.85-29.18,4.1-2.66,8.2-5.33,12.3-7.99,1.14-.54,2.33-1.24,2.64.84-7.73,5.43-15.26,11.17-23.23,16.22-13.8,8.75-27.88,17.08-41.84,25.58Z"/><path class="cls-40" d="m315.94,303.83c-.66-.96-1.68-.82-2.64-.84.56-.4,1.11-.79,1.67-1.19,4.71-5.08,10.21-8.88,17.01-10.62.77.31,1.55.62,2.32.93-6.12,3.91-12.24,7.81-18.36,11.72Z"/><path class="cls-14" d="m83.01,360.2c5.02,2.92,10.03,5.83,15.05,8.75-2.24,1.3-4.18,1.28-6.26-.63-1.77-1.62-3.75-3.03-6.35-3.54-2.2-.43-4.1-1.75-2.43-4.58Z"/><path class="cls-14" d="m233.77,354.85c2.99-2.49,6.71-3.52,10.15-5.12-1.66,3.99-6.38,6.37-10.15,5.12Z"/><path class="cls-14" d="m240,365.96c-1.91,5.53-6.99,4.09-11,5,3.67-1.67,7.33-3.33,11-5Z"/><path class="cls-14" d="m141.04,378.1c2,.08,4,.15,6,.23-2.54,3.67-3.78,3.62-6-.23Z"/><path class="cls-14" d="m112.11,373.23c2.39.29,4.87.2,6.93,1.75-3.73,5.04-4.65-1.06-6.93-1.75Z"/><path class="cls-14" d="m184.02,382.95c-1.26,2.11-2.55,3.86-5.23,1.55-.62-.53-1.83-.38-2.77-.55,2.46-2,5.34-.56,8-1Z"/><path class="cls-14" d="m266.99,349.96c-1.15,4.08-4.67,4.38-8,5,2.67-1.67,5.33-3.33,8-5Z"/><path class="cls-14" d="m213.01,376.95c-2.37,3.48-5.91,1.75-9,2,2.8-1.55,6-1.31,9-2Z"/><path class="cls-14" d="m176.03,383.95c-1.72,2-3.23,5.25-6,1,2.3,1.45,3.8-1.86,6-1Z"/><path class="cls-14" d="m245.75,348.85c1.76-.95,3.51-1.89,5.27-2.84-.71,2.89-2.04,4.64-5.27,2.84Z"/><path class="cls-14" d="m328.77,281.24c.09,1.02-.18,1.97-1.01,2.68-2.92.98-5.84,1.95-8.76,2.93-4.23,1.92-4.05-1.68-4.17-3.78-.44-8.28-1.41-16.5-2.18-24.74-1.47-15.87-4.18-31.51-7.44-47.09-1.9-9.06-3.86-18.12-5.28-27.27.12-.62.19-1.22.22-1.81-4.28-11.68-10.43-22.21-19.28-31.09-2.83-2.84-7.09-4.94-10.58-6.85-5.93-3.24-11.29-6.34-18.45-7.47-3.32-.52-6.89-.77-10.23-1.14-3.21-.36-6.44-.94-9.65-.88-1.37.03-3.05-.15-4.44-.24-1.75-.12-2.39-.98-1.59-2.65,1.06-2.11,3.7-2.09,5.09-3.77,2.54-1.26,5.33-.87,8-1.24,1.91-.27,3.75-1.38,5.69-1.74,2.12-.4,4.28-.5,6.43-.41,5.56.24,11.11,1.56,16.55,2.65,6.82,1.37,12.36,4.28,17.98,8.29,3.58,2.54,7.17,5.18,9.92,8.6,1.37,1.71,2.52,3.59,3.66,5.47.49.8,1.13,1.62,1.5,2.47.34.78.31,1.63.53,2.45.31,1.15.89,2.21,1.54,3.2,1.29,1.97,2.94,3.76,3.73,6.02,2.23,6.42,3.44,13.49,8.49,18.7,4.76,9.29,4.41,19.66,6.04,29.56,2.48,15.03,4.76,30.12,5.81,45.34.54,7.94,1.18,15.87,1.87,23.8Z"/><path class="cls-16" d="m222.99,137.3c1.99-.03,3.98-.05,5.97-.08.62,2.83-1.59,3.62-3.38,4.83-5.08,3.44-10.22,6.79-14.61,11.18-2.58,2.58-2.75,4.82-.98,7.92,6.53,11.39,13.71,22.45,19.58,34.16,7.24,14.46,16.46,28.51,17.11,45.28.44,11.58-2.56,22.75-10.17,32.11-9.23,11.34-19.18,22-30.84,32.05,9.97.73,19.21-.39,28.48-1.5,8.03-.96,15.86-2.74,23.71-4.57,12.29-2.87,24.56-5.78,36.41-10.2,1.56-.58,3.12-1.14,4.75-1.5,9.3-2.07,10.35-3.04,9.09-12.33-1.86-13.76-2.51-27.65-4.87-41.35-.93-5.38.17-6.68,4.74-6.43,3.11,8.64,3.29,17.76,4.37,26.71,1.31,10.81,2.63,21.63,3.03,32.53.02.68-.01,1.31-.46,1.86-16.93,5.76-33.87,11.57-51.3,15.51-12.98,2.93-26.14,5.26-39.44,6.61-9.78.99-19.55.84-29.33.83-1.98,0-4.01.15-5.82-.98-.42-2.64,1.72-3.24,3.37-4.22,12.98-7.71,23.61-18.06,33.21-29.58,4.06-4.46,7.41-9.48,9.97-14.86,6.25-13.1,5.91-26.42-.15-39.5-9.72-20.98-21.24-40.99-33.45-60.6-2.37-3.81-2.58-6.9.96-10.12,4.78-4.35,9.91-8.27,14.85-12.43,1.61-1.35,3.5-.77,5.19-1.33Z"/><path class="cls-33" d="m226.02,277.01c-4.22,7.32-11.22,12.01-16.91,17.94-5.86,6.11-13.59,9.7-20.06,14.98-6.98.11-13.75-1.2-20.43-3.07-1.42-.4-2.87-.68-4.3-1.01,1.7-1.61,3.84-.94,5.69-.79,11.99.93,21.95-3.74,31.14-10.8,11.59-8.91,20.59-20.15,28.62-32.19,2.77-4.15,4.43-8.91,4.43-14.06,4.78-.06,3.98,3.52,3.7,6.21-.71,6.9-5.21,12.11-8.6,17.78-1.02,1.7-2.28,3.27-3.27,5Z"/><path class="cls-31" d="m289.98,132.05c6.63,3.35,10.91,9.22,14.89,15.04,12.26,17.96,16.58,38.77,20.03,59.71,2.46,14.97,4.53,30.04,5.83,45.14.78,9.05.95,18.16,2.19,27.18.2,1.43.27,2.67,2.03,2.85-1.41,1.48-3.24.81-4.91.96-2.83-5.54-2.23-11.64-2.6-17.51-1.39-21.73-5.27-43.14-8.03-64.69-1.45-11.28-5.53-21.78-8.51-32.6-.81-6.96-3.88-12.76-9.01-17.5-.83-.59-1.4-1.39-1.77-2.33-1.21-4.71-5.14-7.43-7.99-10.95-1.24-1.53-3.57-2.69-2.15-5.32Z"/><path class="cls-40" d="m314.93,287.97c-.93-8.84-1.7-17.69-2.82-26.5-1.38-10.92-1.73-21.98-4.24-32.75-.14-.61-.45-1.19-.68-1.78-2.62-3.5-2.49-7.83-3.39-11.8-2.36-10.37-3.86-20.91-7.25-31.08-2.39-7.17-5.06-14.08-9.83-20.02-.65-1.04-1.16-2.17-1.76-3.24-1.45-2.94-4.52-4.78-5.54-8.03-.01-1.09.29-1.93,1.56-2.02,7.54,9.29,9.92,12.57,13.65,19.03,2.65,4.58,3.78,7.37,5.91,13.43,4.55,17.66,7.86,35.59,10.84,53.56,1.8,10.85,3.06,21.81,3.7,32.84.28,4.75,1.01,9.48.99,14.28,0,1.56.3,3.62,2.93,2.96-1.01,1.63-2.64,1.01-4.07,1.12Z"/><path class="cls-40" d="m311.88,167.27c7.71,20.42,9.91,41.97,13.07,63.34,2.57,17.37,3.45,34.89,5.09,52.34-.76.32-1.52.65-2.29.97-.93-11.39-1.6-22.82-2.86-34.17-1.23-11.08-2.81-22.11-4.71-33.12-1.58-9.19-2.41-18.52-4.03-27.74-.44-2.51-.55-2.17-2.06-6.1-3.08-8-6.43-16.79-9.84-24.64-.05-1.09.18-2.03,1.4-2.37,3.82,2.88,4.48,7.48,6.22,11.49Z"/><path class="cls-33" d="m331.98,291.19c-5.67,3.54-11.34,7.08-17.01,10.62.02-.49.05-.99.07-1.48.07-1.88,2.85-3.59,1.03-5.37-1.91-1.87-4.65-1.18-7.02-.47-5.47,1.64-10.91,3.39-16.36,5.11-1.3.41-2.56.7-3.66-.44,17.51-6.66,35.19-12.75,53.95-15.63-3.67,2.55-7.34,5.1-11.01,7.65Z"/><path class="cls-33" d="m275.94,303.16c-11.38,5.38-23.41,7.78-35.95,7.82,11.93-2.83,23.66-6.59,35.95-7.82Z"/><path class="cls-15" d="m368.86,157.04c-2.25-5.2-6.43-9.11-9.31-13.88,5.91,2.17,7.97,7.97,11.6,12.28,4.13,4.9,5.49,11.29,9.04,16.51,1.51,2.23.56,4.86.67,7.31-3.79-7.52-7.11-15.3-12.01-22.23Z"/><path class="cls-15" d="m381.1,180.03c3.57,2.14,5.92,9.06,4.8,14.1-1.6-4.7-3.2-9.4-4.8-14.1Z"/><path class="cls-15" d="m392.79,225.07c3.25,2.55,3.8,8.11,1.38,13.88-.46-4.63-.92-9.26-1.38-13.88Z"/><path class="cls-15" d="m389.99,211.01c2.75,4.34,3.77,9.04,2.86,14.13-1.76-4.55-2.43-9.31-2.86-14.13Z"/><path class="cls-15" d="m388.1,203.04c4.23,1.79,1.36,5.25,1.87,7.92-.62-2.64-1.24-5.28-1.87-7.92Z"/><path class="cls-15" d="m399.77,226.98c-4.93-3.01-.58-6.71-.74-10.08,1.71,3.25.78,6.7.74,10.08Z"/><path class="cls-15" d="m400.74,235.01c-5.23-1.8-2.11-4.52-.78-7.05,2,2.16.7,4.68.78,7.05Z"/><path class="cls-15" d="m395.79,198.99c-2.88-2.66-3.74-5.92-2.85-9.68,1.7,3.01,2.32,6.33,2.85,9.68Z"/><path class="cls-15" d="m397.9,209.02c-1.31-2.16-4.58-3.8-1.89-7.04,1.65,2.07,1.56,4.61,1.89,7.04Z"/><path class="cls-15" d="m391.99,187.02c-4.22-1.37-1.69-4.64-2-7.1.86,2.31,2.23,4.48,2,7.1Z"/><path class="cls-15" d="m399.08,216.94c-1.42-.04-1.95-.52-1.61-2.13.39-1.87.32-3.83.45-5.75,1.53,2.46.8,5.24,1.16,7.87Z"/><path class="cls-15" d="m402.04,244c-4.63-1.68.49-4.87-1.09-7.02,1.78,2.12.93,4.65,1.09,7.02Z"/><path class="cls-36" d="m289.98,132.05c1.58,4.67,6.06,7.01,8.79,10.79,1.2,1.66,2.26,3.09,2.22,5.15-2.21.65-2.89-1.27-3.85-2.46-11.4-14.19-26.2-20.91-44.36-20.54-2.93.06-5.98.72-8.84-.66-.56-.76-.48-1.5.06-2.22,8.83-4.63,18.41-7.12,27.93-9.77,1.45-.41,2.96-.49,4.26.59-6.08,2.14-12.17,4.29-19.43,6.85,4.88,1.27,8.7,2.45,12.6,3.23,7.55,1.52,14.69,3.87,20.62,9.05Z"/><path class="cls-47" d="m305.82,156.04c-.4.95-.47,2.15-1.6,1.94-1.31-.24-1.73-1.29-2.27-2.34-.72-1.43-1.51-2.84-2.34-4.21-4.78-7.86-11.74-13.72-19.55-18.47-1.6-.97-3.24-1.91-4.96-2.64s-3.5-1.04-5.25-1.45c-3.82-.89-7.67-1.61-11.54-2.2-3.77-.58-6.46-.44-10.41-.44-1.42,0-4.81-.05-6.23,0-.57.02-1.49.56-2.65.6.33-.54.66-1.07.99-1.6.99-1.33,2.31-1.2,3.68-.84.1.05.21.08.33.11.02-.09.03-.18.04-.27,6.8-.01,13.61-.93,20.37.23,14.39,2.46,25.8,9.77,34.54,21.38.59.78,1.34,1.44,2.02,2.15.42.68.83,1.36,1.25,2.04,2.06,1.49,4.01,3.04,3.58,6.01Z"/><path class="cls-32" d="m243.88,125c-1.29.08-2.58.15-3.87.23-.28-.39-2.15-.06-.78-1.09,1.34-1.01,3.16-1.38,4.78-2.03.02.71.04,1.42.06,2.12.27.25.33.44.19.59-.12.12-.24.18-.37.18Z"/><path class="cls-10" d="m142.04,344.78c1.58,3.59,5.36,1.72,7.88,3.12,1.52.84,3.94.25,3.98,3.01-2.8,3.76-7.76,5.02-12.86,3.27-2.38,1.04-4.71,1.26-6.94-.37-1.78.44-3.51.53-5.05-.71-1.93-.74-3.87-1.48-5.8-2.22-8.92-2.09-17.02-5.68-23.19-12.77-.38-.38-.77-.77-1.15-1.15-.31-.41-.58-.83-.83-1.27-.57-2.45-2.38-5.3.52-7.11,2.87-1.79,5.68-.62,7.73,2,1.27,1.63,3.24,1.32,4.87,1.94,2.74.31,4.56,1.91,5.86,4.23.33.09.66.17,1,.26,7.71,1.51,14.72,5.5,22.61,6.42.64.07.94.88,1.38,1.36Z"/><path class="cls-9" d="m111.44,333.79c-2.54-.62-5.43-.11-6.91-3.43-.94-2.11-3.52-1.75-5.32-1.04-1.83.72-.97,2.44-.59,3.86.25.94.28,1.93.4,2.9-4.87-.41-7.69-3.51-9.81-7.51-6.55-8.28-11.13-17.4-12.13-28.08-.3-3.22,2.39-7.41,4.79-7.48,3.3-.1,5.23,2.04,5.14,6.31-.13,6.41,2.19,11.92,5.98,16.82,1.46,1.89,1.36,4.9,4.16,5.79,5.2,2.09,8.91,6.41,13.64,9.21.82.48,1.08,1.6.64,2.65Z"/><path class="cls-16" d="m182.03,361.96c-2.8,1.58-5.58,3.25-9,3-4.25.05-8.04-1.74-12.01-2.88-2.04-.59-3.85-.65-3.97-3.3-.13-2.75,1.17-3.95,3.85-3.81,3.26,5.17,7.94,4.29,12.69,2.91,1.27-.37,2.68-.91,2.56-2.59-.12-1.58-1.55-1.95-2.76-2.53-2.97-1.41-6.25,1.45-9.15-.7-1.93-1.56-1.28-3.04.54-3.75,5.17-2.04,10.29-1.6,15.08,1.22,1.65.97,2.21,2.4,1.74,4.6-.55,2.53-1.96,5.37.43,7.84Z"/><path class="cls-11" d="m164.24,352.05c3.81.28,7.68-2.79,11.47.2,1.09.86,2.54,1.13,2.4,3.18-.13,1.89-1.13,2.8-2.54,3.17-3.41.89-6.93,2.17-10.34,1.98-2.34-.12-4.49-2.49-4.32-5.62,1.11-.97,2.23-1.94,3.34-2.91Z"/><path class="cls-16" d="m142.04,344.78c-6.87-.99-13.58-2.54-19.98-5.37-1.49-.66-3.02-1-4.01-2.41.6-3.07,3.19-2.39,4.71-1.8,4.68,1.83,9.44,3.22,14.32,4.44,2.35.59,5.33,1.49,4.97,5.14Z"/><path class="cls-16" d="m100.06,338.12c7.26,5.1,14.98,9.39,23.19,12.77-1.42.01-2.39,1-3.54,1.61-1.37.72-3.61,1.03-4.17-.05-2.66-5.14-8.37-4.41-12.43-6.77-3.5-2.03-2.97-4.69-3.05-7.56Z"/><path class="cls-16" d="m111.44,333.79c-4.18-4.66-10.33-6.93-14.29-11.85,4.47-.86,7.53,2.22,10.89,4.16,2.06,1.19,3.72,3.05,6.07,3.97,3.05,1.2,3.12,3.94,2.94,6.68-2.19-.38-3.16-3.06-5.61-2.96Z"/><path class="cls-16" d="m141.04,354.18c4.43-.54,9.13.01,12.86-3.27,1.07.52,2.18,1.13,1.71,2.55-.33,1.01-1.35,1.71-2.34,1.33-2.17-.82-2.7.77-3.83,1.97-3.36,3.59-7.09,2.38-8.41-2.59Z"/><path class="cls-16" d="m89.2,328.57c3.27,2.5,6.54,5,9.81,7.51.09.31.05.61-.11.89-7.53.46-10.14-.91-10.3-5.53-.03-.95.38-1.92.59-2.88Z"/><path class="cls-16" d="m129.05,353.11c1.72-.03,3.54-.78,5.05.71-2.15,3.12-3.87,3.1-5.05-.71Z"/><path class="cls-66" d="m169.07,178.03c-2.04,10.27-1.33,19.93,7.11,27.36,11.89,10.46,17.25,23.6,16.96,39.25,0,.45.14.9.31,1.96,3.17-2.94,4.46-6.5,6.09-9.83.42-.87.49-2.15,1.65-2.3,1.52-.2,1.73,1.29,2.24,2.24,6.44,12.14,4.49,30.75-4.86,40.57-5.23,5.49-12.49,8-19.61,10.19-5.82,1.79-11.71,3.28-18.03,1.88-5.88-1.31-10.3-4.45-13.84-9.06-14.65-19.01-16.48-39.63-7.65-61.56.47-1.18.75-2.89,2.53-2.47,1.45.35,1,1.95,1.08,3,.42,5.61.72,11.23,1.14,18.02,2.26-6.39,4.15-11.74,6.05-17.1,1.07-3.89-.59-7.49-1.15-11.22,1.28-8.08-1.27-16.33,1.59-24.42,2.61-7.39,6.24-13.86,12.61-18.52,2.06-1.51,4.43-3.3,6.97-.54.08.93-.39,1.61-1,2.22-14.81,9.54-16.89,24.21-15.41,39.87.71,7.49.45,14.5-2.68,21.37-2.92,6.41-3.71,13.02-1.64,19.88.52,1.72,1.26,4.1-.67,4.96-2.12.95-3.07-1.44-3.81-3-2.51-5.25-4.35-10.72-4.62-16.6.56-2.72.2-5.51.62-8.25.06-.39.06-.55.04-.49-.02.07-.06.13-.09.27-.86,4.3-2.07,8.42-2.82,12.7-2.87,16.39,3.77,29.67,13.64,41.67,4.18,5.09,10.27,7.01,17.12,5.94,6.14-.96,11.88-3.11,17.64-5.26,10.15-3.8,14.77-11.81,16.57-21.94.87-3.43.77-6.88.12-10.32-.48-2.55-.8-5.15-1.96-7.62-1.52,3.38-3.37,6.51-6.07,9.02-1.44,1.34-3.09,3.05-5.2,2-2.41-1.2-1.06-3.46-.8-5.34.63-3.43.99-6.84-.33-10.2-1.77-12.65-8.86-22.12-17.58-30.95-7.8-7.89-9.03-25.16-3.29-34.55,1.5-.03,1.8,1.1,2.14,2.21.3,1.8.14,3.49-1.09,4.95Z"/><path class="cls-29" d="m170.11,166.03c-2.03-2.3-3.68-.76-5.41.49-10.25,7.39-13.86,18.07-14.7,30.01-.29,4.1.07,8.25.13,12.38.55,2.04.71,4.08-.1,6.1-4.63-3.95-5.07-6.23-2.1-10.95,1.67-2.65,1.99-5.21-.63-7.48-.98-.85-1.56-1.98-1.21-3.1,2.43-7.68,1.93-16.61,9.68-22.04,1.52-1.07,2.7-3.05,3.36-4.85,1.57-4.3,5.52-4.98,8.98-6.35,1.64-.65,3.39.08,4.44,1.52,2.1,2.87,1.36,12.96-1.16,15.7-.45.49-1.53.39-2.32.57-.01-1.68-.02-3.37-.03-5.05.76-2.25-.74-4.85,1.07-6.94Z"/><path class="cls-64" d="m150.04,215.01c.03-2.03.06-4.06.1-6.1,1.44,3.74,1.55,7.49.1,11.26-.06-1.72-.13-3.44-.19-5.16Z"/><path class="cls-35" d="m139.03,374.96c-.67-.04-1.34-.09-2.01-.13-5.62-2.5-11.87-1.92-17.69-3.65-3.55-1.05-6.58-2.89-9.8-4.47-1.04-.51-1.88-1.37-1.47-2.77,7.41,1.51,14.36,4.99,21.98,5.45,5.86.36,11.57,1.96,17.65.83,4.93-.91,10.17,0,15.24-.32,5.42-.34,10.82-1.07,16.05-2.77,11.97-3.88,24-7.6,35.43-12.88,7.95-3.67,15.52-8.16,23.51-11.72,16.33-7.28,31.33-16.89,46.73-25.81.69-.4,1.56-.51,2.34-.76.58,2.58-1.5,3.36-3.08,4.34-2.36,1.46-4.69,2.93-6.78,4.75-10.64,7.32-21.5,14.11-33.68,18.87-8.94,3.49-17.19,8.65-25.89,12.82-14.63,7.02-30.16,11.33-45.61,15.92-4.61,1.37-9.58.58-14.37,1.33-6.12.95-12.42-.53-18.55.99Z"/><path class="cls-33" d="m108.06,363.93c6.18,4.81,13.08,7.73,20.99,8.02,2.95.11,5.92.23,7.96,2.87-21.49-2.77-42.83-5.94-58.89-22.72-2.95-3.09-5.7-6.38-7.81-10.15,2.67-.06,4.61,1.36,6.41,3.13,1.25,1.23,2.27,2.89,4.36,2.87,2.29-.04,3.45,1.9,4.93,3.07,6.74,5.37,14.72,8.57,22.05,12.91Z"/><path class="cls-33" d="m276.99,323.97c1.45-2.31,3.93-3.26,6.13-4.53,1.57-.9,3.09-1.76,3.86-3.5.99-.66,1.99-1.32,2.98-1.97,1.01,0,2.01,0,3.02,0-1.69,4.3-5.87,5.8-9.32,8.01-1.92,1.24-3.82,3.5-6.67,1.98Z"/><path class="cls-33" d="m276.99,323.97c6.54-1.4,10.76-6.51,15.99-10,2.65-1.05,4.9-3.19,8.02-2.99-6.15,5.78-13.5,9.81-20.66,14.12-10.17,6.13-20.29,12.36-30.43,18.54-22.78,11.01-45.2,22.86-70.14,28.65-12.37,2.87-24.79,4.34-37.47,3.52-1.15-.07-2.35.07-3.28-.86,3.47-2.64,7.32-2.28,11.45-2.14,13.51.45,26.44-2.58,39.28-6.8,17.65-5.8,34.46-13.26,50.52-22.54,1.98-1.14,4.32-1.65,6.51-2.42,11.09-3.9,20.5-10.74,30.2-17.09Z"/><path class="cls-37" d="m226.02,277.01c1.74-5.71,5.53-10.33,8.37-15.44,1.69-3.05,2.04-6.22,2.5-9.41.26-1.76-.43-3.66-2.7-4.15,1.14-2.35-.43-4.74.12-7.1,5.78-6.68,2.31-13.57-.8-19.39-6.08-11.36-10.86-23.4-17.87-34.27-3.76-5.82-7.31-11.79-11.32-17.44-3.42-4.83-5.67-9.97-6.32-15.83,5.84-5.02,11.66-10.07,17.54-15.03,2.15-1.81,4.74-2.12,7.45-1.65-3.73.46-5.94,3.29-8.54,5.5-3.91,3.33-7.8,6.67-11.7,9.99-2.2,1.87-2.07,4-.72,6.25,5.37,8.91,10.86,17.75,16.13,26.72,7.97,13.56,15.75,27.36,20.92,42.16,4.25,12.14,3.41,24.9-3.74,36.38-2.78,4.46-4.95,9.4-9.34,12.7Z"/><path class="cls-16" d="m308.97,279.49c.18-.44.03-1.01.18-1.47,1.5-4.84-.34-9.71-.88-14.3-.53-4.46-1.48-9.41-1.77-13.75-.42-6.25-1.55-12.3-2.43-18.43-.35-2.42.19-4.36,3.12-4.61-2.15-13.09-4.36-26.18-8-38.95-1.64-5.76-3.32-11.59-6.17-16.89-1.49-2.77-3.37-5.07-5.33-7.49-.86-1.06-1.16-2.47-1.95-3.57-.89-1.25-1.87-2.48-2.79-3.72-1.9-2.56-3.57-4.12-5.98-6.22-3.74-3.25-8.86-5.35-13.52-7.04-5.78-2.1-9.34-3.7-15.43-4.5-3.05-.4-4.46-.67-8.17-1-1.53-.14-5.91-.05-7.44-.1-.75-.02-2.81-.23-4.53-.22-1.15,0-.08,2.39-.96,2.68-5.2,1.76-8.62,6.06-13.11,8.85-7.3,4.54-7.56,7.4-3.68,15.07,3.2,6.34,7.24,12.15,10.76,18.27,6.61,11.48,12.16,23.48,18.03,35.33,6.71,13.57,8.25,27.18,3.58,41.52-2.4,7.4-7.5,12.91-12.28,18.9-5.39,6.77-12,12.21-17.4,18.8-2.74,3.34-7.26,4.63-9.37,8.94,1.47.39,2.73,1.07,3.96,1,8.23-.45,16.44-1.21,24.68-1.54,2.77-.11,4.97-2.85,7.58-1.86,3.54,1.33,6.43.24,9.54-1.1,2.12-.91,4.38-1.71,6.65-2.03,10.48-1.48,20.49-4.69,30.6-7.65,5.21-1.53,10.09-4.1,15.68-4.63,2.63-.24,5.36-1.81,7.57-3.43,1.98-1.46-1.48-3.03-.74-4.87Zm-64.34-139.98c.13,0,.25,0,.37.03v.5c-.17-.17-.3-.35-.37-.53Zm37.36,20.52c.22.05.42.16.59.29-.2-.08-.39-.18-.59-.29Z"/><path class="cls-16" d="m244.63,139.51c.13,0,.25,0,.37.03v.5c-.17-.17-.3-.35-.37-.53Z"/><path class="cls-16" d="m282.58,160.32c-.2-.08-.39-.18-.59-.29.22.05.42.16.59.29Z"/><path class="cls-20" d="m233,133.96c.32.26.64.51.95.77-4.14,0-8.29,0-12.82,0,1.32-1.63,3.06-2.26,4.79-2.89,1.39,3.94,4.66,1.61,7.07,2.13Z"/><path class="cls-14" d="m298.14,149.16c2.35,1.64,4.87,7.06,6.78,9.02,3.78,7.63,9.52,20.11,10.79,28.68-1.93-.85-4.87-7.16-5.72-9.15-2.99-6.97-3.5-15.05-9.32-20.8-1.38-1.36-2.55-5.95-2.53-7.75Z"/><path class="cls-36" d="m305.82,156.04c-1.19-2-2.39-4.01-3.58-6.01.8.15,2.12.06,2.31.48,2.51,5.55,7.56,10.02,7.34,16.76-2.02-3.74-4.04-7.48-6.07-11.23Z"/><path class="cls-16" d="m282.58,160.32c-.2-.08-.39-.18-.59-.29.22.05.42.16.59.29Z"/><path class="cls-7" d="m190.23,247.03c-.05.5-.2,1-.14,1.48.11,1-1.72,2.09,0,2.95,1.2.6,2.15-.47,2.93-1.13,2.55-2.17,4.59-4.77,6.07-7.81.65-1.32,1.51-2.54,2.42-4.06,1.67,3.14,2.59,6.17,2.61,9.47.71,3.73.47,7.46.13,11.2-1.59,9.86-5.76,17.81-15.54,22-7.91,3.39-15.86,7.12-24.6,6.45-11.58-.88-16.85-9.91-21.79-18.86-7.97-14.47-7.49-29.38-2.13-44.51,2.65.57,1.01,2.62,1.27,3.95.37,1.94-.26,3.98.38,5.93-.62,3.74,3.61,15.97,6.74,19.28,1.27-3.08-1.32-5.3-1.53-7.98-.47-6.07.12-11.98,2.89-17.42,3.23-6.35,3.33-12.85,2.55-19.76-1.47-13.14-.19-25.81,9.3-36.19,1.93-2.12,3.88-4.49,7.15-4.73.25,1.35.19,2.64-.71,3.77-2.1,7.88-3.44,15.78-1.17,23.89,1.42,5.09,4.07,9.38,7.94,12.98,6.27,5.85,11.4,12.41,13.58,21,.59,2.34-.5,5.09,1.63,7.05.49,3.69.45,7.37.02,11.06Z"/><path class="cls-22" d="m141.85,234.1c-1.87-3.07.33-6.83-1.65-9.88.28-.73.57-1.46,1.33-3.42.6,5.27.76,9.27.32,13.3Z"/><path class="cls-5" d="m190.23,247.03c0-3.69-.01-7.37-.02-11.06,1.16,3.68,1.45,7.37.02,11.06Z"/><path class="cls-21" d="m204.25,259.14c-.04-3.73-.09-7.47-.13-11.2,1.41,3.72,1.38,7.45.13,11.2Z"/><path class="cls-61" d="m168.24,171.06c-.39-1.38.09-2.59.71-3.77.39-.42.78-.84,1.17-1.26.21,2.4.33,4.79-1.07,6.94-.27-.64-.53-1.28-.8-1.92Z"/><path class="cls-16" d="m245,139.54v.5c-.17-.17-.3-.35-.37-.53.13,0,.25,0,.37.03Z"/><path class="cls-16" d="m245,139.54v.5c-.17-.17-.3-.35-.37-.53.13,0,.25,0,.37.03Z"/><path class="cls-17" d="m196.93,254.42c-.53,6.46-3.1,11.86-7.23,16.51-3.91,4.41-8.92,7.4-14.08,10.14-8,4.24-15.3,1.45-21.15-3.62-8.6-7.45-12.76-17.6-13.48-29.03-.05-.78-.18-1.67,1.47-2.51,2.23,6.42,4.37,13.12,12.07,15.96-.18-6.17-1.8-11.76-1.56-17.54.21-5.05,1.11-9.92,2.74-14.64,2.08-6.02,1.71-11.98.73-18.16-1.32-8.28-1.08-16.6,1.86-24.61.42-1.14.78-2.91,2.44-2.78,1.88.15,1.55,2.01,1.55,3.19.03,6.38,2.11,12.23,3.88,18.26,1.92,6.54,5.99,11.82,9.01,17.68,5.07,9.84,7.15,20.3,7.75,31.13.19,3.51.28,5.21,4.63,3.71,3.06-1.05,5.7-3.05,9.38-3.69Z"/><path class="cls-25" d="m190.44,261.54c-1.1,6.64-14.94,16.38-22.82,16.07-8.39-.33-18.37-8.13-19.27-15.71,3.56,3.29,6.59,6.58,11.47,7.56-.59-3.17-.88-6.29-1.77-9.21-2.87-9.4.92-17.95,3.02-26.75,1.8-7.55,1.53-15.16-.25-22.69-.49-2.08-1.33-4.07-.03-6.68,2.97,3.84,3.08,8.45,4.84,12.37,3.32,7.41,6.49,14.92,9.16,22.58,2.54,7.29,3.32,14.91,1.09,22.51-.98,3.34-.24,3.72,2.95,2.71,3.78-1.19,7.55-2.69,11.63-2.74Z"/><path class="cls-18" d="m175.66,278.11c-2.63,2.48-5.15,1.96-7.7,1.2,2.38-.37,4.76-.74,7.7-1.2Z"/><path class="cls-1" d="m168.98,267.04c-.12,1.18-.45,2.45-1.74,2.53-1.35.08-1.17-1.27-1.18-2.18-.01-.96,0-2.05,1.31-2.2,1.33-.15,1.6.76,1.61,1.85Z"/></svg>