<?xml version="1.0" encoding="UTF-8"?><svg id="Calque_9" xmlns="http://www.w3.org/2000/svg" viewBox="0 0 500 500"><defs><style>.cls-1{fill:#f3fffe;}.cls-2{fill:#f9ffff;}.cls-3{fill:#686265;}.cls-4{fill:#6a696a;}.cls-5{fill:#e7fffe;}.cls-6{fill:#fff;}.cls-7{fill:#fefefe;}.cls-8{fill:#fdfdfd;}.cls-9{fill:#6b6569;}.cls-10{fill:#7e7e7e;}.cls-11{fill:#656565;}.cls-12{fill:#988f94;}.cls-13{fill:#a0969c;}.cls-14{fill:#9e9e9e;}.cls-15{fill:#8f878c;}.cls-16{fill:#bababa;}.cls-17{fill:#a6a6a6;}.cls-18{fill:#aaa;}.cls-19{fill:#aeaaab;}.cls-20{fill:#aea9aa;}.cls-21{fill:#d7cad2;}.cls-22{fill:#d7cbd3;}.cls-23{fill:#bfbfbf;}.cls-24{fill:#c9c9c9;}.cls-25{fill:#d1d1d1;}.cls-26{fill:#d6d6d6;}.cls-27{fill:#d4c8d0;}.cls-28{fill:#d5c9d1;}.cls-29{fill:#d2fffd;}.cls-30{fill:#e0d9dd;}.cls-31{fill:#c8c8c8;}.cls-32{fill:#d5d5d5;}.cls-33{fill:#d6cad1;}.cls-34{fill:#d6cad2;}.cls-35{fill:#d6c9d2;}.cls-36{fill:#141313;}.cls-37{fill:#101514;}.cls-38{fill:#121212;}.cls-39{fill:#171717;}.cls-40{fill:#252525;}.cls-41{fill:#1e1e1e;}.cls-42{fill:#434343;}.cls-43{fill:#404040;}.cls-44{fill:#090909;}.cls-45{fill:#0d0d0d;}.cls-46{fill:#100f10;}.cls-47{fill:#1c5a58;}.cls-48{fill:#1c2f2e;}.cls-49{fill:#0e0e0e;}.cls-50{fill:#35a5a3;}.cls-51{fill:#363234;}.cls-52{fill:#36a19f;}.cls-53{fill:#34fdf9;}.cls-54{fill:#191919;}.cls-55{fill:#181818;}.cls-56{fill:#1b2122;}.cls-57{fill:#a3a2a2;}.cls-58{fill:#707070;}.cls-59{fill:#a2989e;}.cls-60{fill:#868686;}.cls-61{fill:#98fefb;}.cls-62{fill:#556363;}.cls-63{fill:#2a2829;}.cls-64{fill:#5c5c5c;}.cls-65{fill:#2e504f;}.cls-66{fill:#2f2d2e;}.cls-67{fill:#2d7d7b;}.cls-68{fill:#35fcf8;}.cls-69{fill:#262626;}.cls-70{fill:#313131;}.cls-71{fill:#3a3a3a;}.cls-72{fill:#3b3739;}.cls-73{fill:#59b3b1;}.cls-74{fill:#575757;}.cls-75{fill:#494949;}.cls-76{fill:#5d5d5d;}.cls-77{fill:#505353;}.cls-78{fill:#515151;}</style></defs><path class="cls-38" d="m52.07,345.13c-6,0-12,0-17.99,0-2.96,1.4-5.25.25-7.29-1.89.14-3.56,1.74-6.14,5.05-7.62,16.4-3.28,32.92-5,49.65-3.79,1.49.74,2.98,1.62,4.74.66,4.1,3.45,8.19,6.91,12.26,10.39-.26,2.31-2.39,1.13-3.49,1.88l.11.33"/><path class="cls-38" d="m81.09,345.2c-1.01-.02-2.02-.05-3.02-.07"/><path class="cls-46" d="m339.12,152.97c5.64,3.86,11.26,7.74,16.92,11.57,7.66,5.19,12.87,12.67,18.58,19.69,8.55,10.52,17.15,21.05,22.81,33.48,2.69,5.91,5.4,11.82,7.8,17.86,1.2,3.02,2.32,6.07,3.32,9.16.49,1.52,1.15,3.14,1.43,4.71.24,1.37.11,2.55,1.01,3.76.47.63,1.09,4.43,1.32,5.19,1.57,5.27,1.7,6.84,2.08,9.46.5,3.41.96,2.83,1.39,6.26s.86,6.88,1.3,10.32c.22,1.73.44,3.46.68,5.19.15,1.09,1.04,3.73.66,4.73-.59,1.56-2.23-2.25-3.51-1.17-3.4-1.39-2.71-4.71-3.06-7.26-1.26-9.06-2.12-18.17-4.13-27.12-4.86-21.73-13.89-41.58-26.92-59.61-6.64-9.09-13.34-18.14-21.14-26.3-1.1-1.15-2.19-2.31-3.38-3.36-2.51-1.91-4.86-4.02-7.45-5.84-.94-.67-1.79-1.45-2.74-2.11-2.89-2.39-7.29-2.88-8.81-7,.22-.98.26-2.18,1.84-1.62Z"/><path class="cls-49" d="m256.99,365c-.33.59-.67,1.17-1,1.75-.06.01-.11.02-.17.03-.05-.09-.08-.19-.11-.3.12-.84.5-1.47,1.14-1.89.06.13.1.27.14.41Z"/><path class="cls-44" d="m255.71,366.48c.06.09.08.18.07.29-.08.57-2.84.01-3.16-.08-.32-.09-.61-.2-.88-.34,0,0-.01,0-.01-.01-.61-.5.3-.99,4.6-1.29-.33.38-.54.85-.62,1.43Z"/><path class="cls-44" d="m298.68,343.39c-.16,2.38-.67,4.6-1.49,6.67-5.84,14.8-24.93,20.2-39.35,17.89-1.82-.29-5.26-.95-6.1-1.6.27.14.56.25.88.34.32.09,3.08.65,3.16.08,0-.11-.01-.2-.07-.29.08-.58.29-1.05.62-1.43.21-.02.43-.04.66-.05.15-.01-.08-.28-.14-.41.2-.14.44-.26.7-.35,9.28.18,17.12-2.76,23.63-9.71,4.96-5.28,7.6-11.1,7.54-18.35-.04-4.8-.6-9.64.48-14.41.27-.4.54-.66.81-.81-2.62-5.63-6.93-8.91-13.11-10.04-6.67-1.22-13.27-2.96-19.88.13-.59,1.37-1.8,2.04-3.01,2.71-4.17,2.31-7.74,5.44-10.34,9.49-.48.75-1.03,1.61-1.9,1.78.19,1.73-.51,3.22-.88,4.87-.32,1.44-.51,2.91-.58,4.39-.15,3.06.2,6.15.93,9.13,1.44,5.87,4.4,11.6,8.88,15.72.92.85,1.92,1.64,2.98,2.31,1.38.88,3.08,1.46,3.76,3.14-.2.13-.38.29-.52.46-4.3.3-5.21.79-4.6,1.29-.59-.3-1.11-.7-1.69-1.13-2-1.49-3.93-3.09-5.75-4.8-2.3-2.14-4.25-4.25-5.32-7.27-.75-2.08-1.16-4.26-1.71-6.39-.46-1.76-1.01-3.51-1.31-5.31-.29-1.78-.07-3.46-.01-5.23.12-3.57,1.27-7.67,2.88-12.26.09-.25.41-.75.59-.94.25-.27.44-.61.62-.92,1.81-3.18,4.22-5.53,7-7.9,1.38-1.18,2.84-2.26,4.35-3.28,1.23-.82,3.26-2.64,4.72-2.88,7.55-1.24,15.09-1.98,22.59.31,8.9,2.72,16.61,11.41,18.4,20.41.95,4.83,1.91,9.73,1.59,14.65Z"/><path class="cls-44" d="m255.71,366.48c.06.09.08.18.07.29-.08.57-2.84.01-3.16-.08-.32-.09-.61-.2-.88-.34,0,0-.01,0-.01-.01-.61-.5.3-.99,4.6-1.29-.33.38-.54.85-.62,1.43Z"/><path class="cls-44" d="m241.72,325.02c-.21.03-.44.02-.7-.02-.38-.79-1.06-1-1.85-1.02.08-.15.15-.3.24-.45.03-.01.05-.02.08-.03,1.17-.12,1.88.45,2.23,1.52Z"/><path class="cls-44" d="m256.99,365c-.33.59-.67,1.17-1,1.75-.06.01-.11.02-.17.03-.05-.09-.08-.19-.11-.3.12-.84.5-1.47,1.14-1.89.06.13.1.27.14.41Z"/><path class="cls-36" d="m419.83,318.07c-1.03,7.17-3.82,13.9-9.93,17.78-5.24,3.32-9.45,5.58-15.76,6.11-9.23.77-18.45,1.55-27.68,2.32-4.08.34-8.16.68-12.25,1.03-4.18.35-8.36.7-12.54,1.05-8.77.74-19.86,4.02-27.59-1.7-4.44-3.29-7.51-8.82-9.07-14.03-1.46-4.86-1.26-10.25-3.6-14.83s-6.02-7.74-10.09-10.33c-8.21-5.21-18.15-7.56-27.83-6.84-14.1,1.05-27.91,8-32.24,22.4-2.52,8.37.2,17.87-6.67,24.74-1.66,1.66-6.93,2.03-9.17,2.4-3.3.54-6.57.75-9.91.69-7.64-.13-15.29-.18-22.93-.27-15.28-.18-30.57-.36-45.85-.54-4.1-.05-8.19-.1-12.28-.15-6.37-.08-12.48-.44-18.71-1.7-1.21-.24-9.65-2.25-10.68-1.49.84-.99,2.61-.57,3.13-2.05,3.69-1.79,7.58-.54,11.12.04,5.8.95,11.98-.72,17.48,2.26,0-.02.01-.04.02-.06,1.5-1.39,3.38-1.32,5.23-1.36,2.12.06,4.24.1,6.36-.08,6.16.14,12.34-.42,18.48.39,6.66,1.44,13.39.48,20.09.63,7.55-.09,15.09.01,22.64-.06,1.13.14,2.25-.2,3.39-.15,5.52.76,10.9-.76,16.36-1.05,5.56-1.45,6.29-5.84,6.43-10.58.1-1.07.32-2.09,1.11-2.89.05-.02.1-.04.15-.06-1.91-4.79.45-9.11,1.69-13.55,1.47-2.67,2.58-5.65,5.57-7.01-.01-.05-.01-.11-.02-.16,5.72-10.24,15.6-14.66,26.21-15.84,17.06-1.9,32.28,3.31,43.61,16.87,3.6,4.31,5.91,9.59,3.86,15.56.22.19.45.42.71.7.26.48.44,1,.57,1.53,2.64,11.43,6.7,14.96,18.27,14.71,15.56-.34,31.1-1.23,46.53-3.58,6.71-1.02,13.54-1.2,20.28-2.11,4.88-.66,9.31-2.35,13.32-5.15,6.43-5.02,8.09-11.85,7.43-19.57.62-3.77,1.58-7.55-.19-11.29-.93-2.51-1.98-5.01-.08-7.55.5-.67-.18-1.96.59-2.64,1.64-1.46,1.85.39,2.34,1.68,1.26,3.32,1.8,7.12,2.17,10.63.5,4.67.66,10.02-.08,15.14Z"/><path class="cls-6" d="m81.09,345.2c4.67-.04,9.35-.07,14.02-.11"/><path class="cls-6" d="m71.09,345.19c2.32-.02,4.65-.04,6.97-.06"/><path class="cls-6" d="m52.07,345.13l4.99-.04"/><path class="cls-17" d="m81.02,308.01c-1.86-3.52-.35-7.4-1.18-11.02,0-.67,0-1.33,0-2,.68-1.98-.66-4.29,1.01-6.11,2.68,6.35,2.42,12.73.17,19.13Z"/><path class="cls-25" d="m57.06,345.08c4.68.03,9.36.07,14.03.1"/><path class="cls-41" d="m81.02,308.01c-.06-6.38-.11-12.75-.17-19.13,2.19-29.11,11.6-55.75,27.72-79.99,10.77-16.2,23.91-30.29,39.3-42.23.71.26,1.23.71,1.52,1.42.18,1.29-.31,2.36-1.1,3.33-2.31,2.07-5,3.66-7.18,5.9-12.87,12.35-25.02,25.36-33.95,40.91-7.38,12.84-13.62,26.25-16.85,40.85-1.15,5.19-3.02,10.19-4.01,15.43-3.62,19.04-2.04,38.02.45,57.01-.06.55-.27,1.03-.63,1.45-1.34.33-.61,2.8-2.3,2.47-1.07-.21-.7-1.56-.77-2.45-1.3-8.27-1.87-16.6-2.04-24.96Z"/><path class="cls-39" d="m339.12,152.97c-.91.43-1.12,1.25-1.18,2.15-1.67.63-2.92-.53-4.33-1.01-.4-.16-.79-.36-1.17-.57-2.07-1.19-4.25-2.12-6.53-2.84-.84-.33-1.66-.7-2.47-1.09-3.1-1.61-6.23-3.12-9.81-3.34-2.29-.14-4.28-1.26-6.44-1.85-9.3-3.21-18.91-5.31-28.35-8.02-.8-.1-1.58-.28-2.35-.5-5.68-.78-11.2-2.61-17.02-2.44-4.65.14-9.29.06-13.93.07-2.8-.18-5.58-.13-8.33.46-3.03.2-6,1.44-9.1.6-1.01-.68-1.75-1.47-1.21-2.82,3.08-1.77,6.65-1.08,9.91-1.56,17.02-2.54,33.79-.54,50.26,4.45,6.96,2.11,14.18,3.36,21.1,5.6,10.63,3.43,21.57,6.21,30.95,12.71Z"/><path class="cls-54" d="m226.89,131.77l1.12,2.11c-1.55,2.66-4.51,2.29-6.87,3.19-19.74,3.73-38.38,10.32-55.31,21.33-4.05,1.87-7.31,4.96-11.11,7.23-1.79.91-3.18,2.73-5.5,2.45-.45-.48-.9-.97-1.34-1.45,10.49-9.55,22.68-16.48,35.45-22.33,13.86-6.35,28.76-9.34,43.57-12.55Z"/><path class="cls-21" d="m86.13,332.94c.04-.34.08-.68.12-1.02,1.14-1.14,2.52-1.02,3.93-.78,8.21,2.46,16.57,4.08,25.13,4.65,1.76.36,3.53.37,5.32.24,3.08.49,6.18.73,9.31.6,1.35.04,2.68.13,3.89.84.68.55.9,1.29.9,2.12-.48,1.95-.23,4.3-2.78,5.13-1.63.13-3.26.27-4.89.4-7.4-.38-14.8-.68-22.18-1.17-2.25-.15-4.46-.84-6.69-1.28-5.34-1.6-9.02-5.27-12.06-9.72Z"/><path class="cls-4" d="m80.67,338.44c3.08-1.55,4.97-2.22,7.32.09-2.42.79-4.29.39-7.32-.09Z"/><path class="cls-6" d="m153.99,164.91c3.44-2.52,6.55-5.52,10.65-7.04,5.2-.15,9.51-3.7,14.72-3.82,5.2-2.99,10.79-5.02,16.5-6.74.96-.24,1.92-.26,2.88.01,3.08,1.98,5.52,1.58,7.12-1.92,1.35-1.31,2.92-1.6,4.69-1.08,2.16,1.66,4.02,1.4,5.58-.87,2.62-1.43,5.45-1.87,8.38-1.89,1.35.26,3.09,1.22,3.48-1.03.34-1.94-1.21-2.28-2.79-2.49-1.55-.21-3.73.79-4.2-1.88,2.04-1.63,4.78-1.13,6.99-2.27,2.98-.32,5.97-.64,8.95-.96,2.95,2.92,5.43.49,8.02-.7,5-.03,10.01-.05,15.01-.08,3.94,3.3,8.53,3.71,13.34,2.86,1.28-.23,2.51-.77,3.76,0,.63.07,1.26.14,1.89.21,1.81,3.15,4.59,4.38,8.16,4.67,4.14.33,7.89,2.31,11.83,3.49,3,.9,6.04,1.99,8.98-.22,2,.67,4.01,1.35,6.01,2.02,2.45,3.65,5.72,5.09,10.04,3.76.76.05,1.6-.13,2.1.69,1.18,3.42,3.37,4.73,6.88,3.33.32.11.64.22.97.32,2.48,5.72,6.67,8.56,13.04,7.74,1,.29,1.58,1.01,2,1.9,1.05,4.15,4.68,4.91,7.99,6.1,1.42.57,2.37,1.61,2.97,2.99q2.32,7.46-5.41,6.48c-2.15-.27-4.32-.16-6.48-.3-2.87-.18-5.26.57-6.73,3.29-1.37,2.54-3.48,3.27-5.79,1.54-4.37-3.26-10.54-2.79-14.33-7.46-1.46-1.79-4.13-.91-5.65,1.07-1.5,1.95-2.87,1.91-5.11.89-5.11-2.33-10.94-2.07-16.16-1.68-6.84.51-13.91.58-20.61,2.7-1.27.4-3.01.44-3.6,1.52-2.69,4.9-6.79,4.03-11.17,3.38-4.15-.61-8.34.34-12.35,1.32-9.1,2.21-13.86,15.06-8.32,21.91.38.68.45,1.4.25,2.15-4.49,7.34-3.8,9.63,1.14,13.68.86,1.96.68,3.89-.15,5.81-4.15,9.56-2.82,19.14.01,28.68,1.34,4.51,5.85,5.83,9.26,7.85,3.5,2.07,7.79,3.67,11.87,3.46,12.14-.62,24.13,1.55,36.34,1.11,12.01-.44,24.1-1.56,36.18-.81,2.85.18,5.67-.03,8.12-1.82,1.14-.83,2.28-.91,3.72-.35,9.08,3.54,19.7-1.89,22.17-11.31.89-3.38,1.76-6.81.41-10.3-.12-.31-.3-.72-.17-.97,4.38-8.55-.03-17.6,1.52-26.47,1.14-6.52.9-13.54.75-20.35-.04-1.74-.41-4.17,1.64-4.78,1.78-.53,2.59,1.74,3.6,2.96,2.36,2.84,3.78,6.27,5.39,9.55,11.66,23.82,17.49,49.08,18.4,75.53.14,4.05-.99,8.01-2.43,11.68-5.9,15.08-13.83,28.6-30.12,34.62-9.44,3.49-19.15,5.58-29.33,4.08-4.47-.66-8.98-.13-13.47-.4-7.72-.47-10.14-2.4-12.51-9.77-3.69-11.48-10.51-20.02-22.21-24.33-4.67-1.72-9.04-4.24-13.91-5.49-.96-.25-2.02-.59-2.63-1.37-5.55-7.14-12.85-5.42-19.5-3.04-10.75,3.84-20.68,9.28-27.08,19.43-1.75,2.78-2.71,5.55-1.95,8.96.71,3.18-5.02,14.65-7.71,16.13-2.73,1.5-3.57-.3-4.07-2.48-1.31-5.76-1.05-11.67-.62-17.4,1.62-21.87,2.91-43.76,5.21-65.58,1.27-12.03,1.82-24.23.96-36.32-.39-5.39-1.11-11.04-3.24-16.08-3.38-7.99-10.4-11.73-18.57-12.33-11.93-.86-23.91-1.54-35.9-1.22-5.15.14-9.99,2.53-15.29,1.73-3.33-.5-5.21-1.42-3.29-5.08,1.86-2.26,3.83-4.39,6.87-5.05,2.74-1.31,5.8-2.3,6.08-6.08Z"/><path class="cls-6" d="m237.88,207.02c-4.02-2.04-4.65-4.2-3.11-10.63,2.09-8.69,6.11-11.98,15.45-13.49,4.8-.77,9.48-1.73,14.16.28,1.5.64,2.23-.1,2.54-1.41.42-1.78,1.44-3.36,3.12-3.55,5.51-.6,10.57-4.12,16.41-2.53.47.13,1.1.32,1.45.12,5.91-3.37,12.08-.21,18.09-.77,2.7-.25,5.35-.21,6.77,2.9,3.96-6,7.6-6.38,12.08-1.41,1.43,1.59,2.67,2.78,4.97,2.53,2.27-.24,4.27.59,5.79,2.34,1.96,2.27,3.45,2.38,4.62-.71,1.27-3.34,4.06-4.17,7.25-3.91,4.57.37,9.26-.18,13.76,1.95-1.14-2.26-3.44-4.1-1.26-6.72,8.5,7.41,14.46,16.89,21.08,25.84,9.76,16.99,16.93,34.93,19.58,54.46,1.8,13.26,5.17,26.55.63,39.89-6.25,18.39-16.21,33.57-35.88,39.81-7.76,2.46-15.73,4.14-23.96,4.08-8.21-.63-16.46-.55-24.64-1.76-4.58-.68-6.57-3.99-8.62-7.41-.11-.32-.22-.63-.33-.95-.12-9.98-4.42-17.71-12.83-22.98-8.91-5.58-18.5-9.29-29.23-8.99-12.46.35-22.89,5.04-30.81,14.87-1.65,2.37-3.3,4.74-4.96,7.1-3.18,4.94-4.26,11.05-8.54,15.38-2.69,1.6-4.94,3.89-7.88,5.11-.54.02-1.05-.07-1.55-.28-2.16-1.02-3.23-2.8-3.25-5.1-.02-3.15-1.01-6.14-1.36-9.23-.8-10.96.14-21.9.55-32.84,1.02-27.23,5.85-54.23,4.68-81.62-.62-14.62-7.45-21.8-22.13-22.41-13.28-.56-26.55-.96-39.82-.12-9.36,1.92-12.75,5.83-13.33,15.42-.11,1.8-.06,3.61-.51,5.38-.72,7.34-.8,14.66.08,21.99.24.84.34,1.71.39,2.58.1,3.2.01,6.41.09,9.61.05.89.03,1.77,0,2.66-.05,5.35-.02,10.71,0,16.06-.06,3.48.21,6.95.45,10.43-.91,4.59-.31,9.23-.46,13.84-.05,2.04.07,4.08-.37,6.09-1.15,3.65-.48,7.4-.64,11.1-.04,3.2.03,6.39-.07,9.59,0,.89-.15,1.75-.37,2.61-1.1,4.03-.42,8.14-.52,12.21-.58,4.5,1.41,9.3-1.65,13.49-1.27,0-2.53,0-3.8.01-3.25-1.19-6.48-2.65-10-.93-1.33.86-2.66.84-3.98-.01-8.54-2.35-17.27-3.69-26.01-5.01-1.26-.02-2.53-.04-3.79-.06-1.52-2.44-1.82-5.31-2.1-7.99-1.31-12.69-1.46-25.45-.98-38.18.29-7.49,2.61-14.73,4.31-22.04,3.56-15.28,9.37-29.71,16.72-43.44,3.83-7.15,8.66-13.85,13.93-20.15,7.13-8.51,14.12-17.15,22.89-24.09-.16,2.73.18,4.14,3.85,3.71,9.93-1.16,19.94-2.8,29.95-1.62,9.27,1.09,18.87-.88,27.82,2.72,8.42,3.39,13.3,9.14,14.61,18.79,1.23,9.02,2.15,18.01,1.57,26.97-.73,11.21-.81,22.48-2.62,33.63-.82,5.05-.63,10.25-1.25,15.34-1.43,11.61-1.02,23.34-2.5,34.97-.77,6.02.31,12.28.58,18.43.03.64.14,1.57.96,1.47.72-.09,1.66-.55,2.02-1.15,2.21-3.69,4.28-7.46,6.39-11.2.52-.92.74-1.94.16-2.85-2.44-3.85-.32-6.89,1.63-10.03,7.59-12.23,19.82-17.66,32.68-21.9,3.11-1.03,6.75.75,10.2-.07.75-.18,2.09.54,2.63,1.25,5.8,7.61,15.42,7.52,22.98,11.54,5,2.66,9.5,5.82,12.28,10.94.23.42.23,1.23.52,1.33,5.99,2.11,5.07,8.07,6.74,12.43,2.44,6.36,3.48,8.09,10.1,8.12,11.86.06,23.83,2.33,35.58-.94,8.83-2.46,16.95-5.97,23.34-13.2,7.53-8.53,12.55-18.07,15.35-29.01,1.44-5.62.64-11.27.11-16.75-1.14-11.82-3.76-23.46-6.25-35.09-1.24-5.8-3.97-10.93-6.35-16.18-2.72-6-4.53-12.37-7.94-18.13-1.44-2.44-3.79-3.92-5.09-6.46.93,7.45-1.58,14.77-.18,22.16.15.8.25,1.81-.1,2.46-2.64,4.84-.9,9.62-.01,14.42.15.81.41,1.79.11,2.47-2.86,6.44-.71,13.36-2.03,19.94-1.49,7.41-11.05,15.19-18.73,15.51-3.1.13-6.22-3.57-7.09-2.88-2.4,1.93-4.59,2.84-7.58,2.88-4.13.06-8.67,1.05-12.31.36-8.36-1.57-16.48,2.58-24.78-.13-2.52-.82-5.81.61-8.8.8-6.97.45-13.78-1.41-20.67-1.19-6.34.2-12.29-.92-18.39-2.66-8.56-2.45-14.74-9.77-14.18-18.84.19-3.11-.81-6.07-.96-9.14-.31-6.23,4.21-11.09,3.49-17.11.28-.07.57-.14.85-.21,2.41,2.04,1.32,4.86,1.65,7.37,0,3.99,0,7.97,0,11.96-.25,4.02.9,7.91,1.1,11.91.22,4.41,4.38,5.44,7.37,7.39,2.96,2.58,6.56,3.05,10.27,3.05,14.8,0,29.56,1.54,44.36,1.34,15.46-.21,30.89-1.44,46.36-1.63,5.79-.07,9.96-3.32,11.47-9.35,1.37-5.52,2.07-11.12,2.19-16.78.29-13.31-.28-26.62.42-39.93.44-8.38-3.41-12.69-11.7-13.79-3.11-.41-6.56-2.33-9.23,1.17-2.27,1.04-4.67.84-7.06.81-3.29-.06-6.58-.03-9.87-.02-4.15.16-8.35-.54-12.44.72-21,1.9-42.11,1.72-63.11,3.27-7.27.09-8.64,1.3-11.62,10.21-1.17,2.33.33,5.39-2.01,7.39Z"/><path class="cls-35" d="m341.94,334.91c6.86.07,13.61-1.36,20.07-3.15,13.32-3.7,24.13-11.34,30.77-23.86,2.93-5.52,5.47-11.2,7.53-17.18,2.67-7.74,2.26-15.61,1.23-23.15-1.61-11.73-3.14-23.57-6.53-35-.98-3.3-2.04-6.62-3.55-9.69-3.72-7.57-5.8-15.86-10.33-23.06-.3-.48-.07-1.3-.09-1.96,11.45,13.3,17.82,29.28,23.74,45.45,4.14,11.32,6.23,23.09,7.28,35.12.43,4.95.94,10.05,2.75,14.83-.15,2.66-.11,5.3,1.2,7.74.93,3.62.29,7.28.24,10.92-.26,5.13.76,10.45-2.95,14.98-1.43,1.75-2.48,3.79-4.46,5.04-1.99,1.18-2.79-.1-3.44-1.67.49-3.85,5.17-5.76,4.49-9.49-2.42,8.01-11.68,14.22-20.16,13.04-.6-.08-1.14-.52-1.79-.32.39.4,1.29.06,1.35.94-.53,3.9-2.82,4.98-5.93,2.97-4.19-2.72-8.18-1.7-12.41-.43-8.34,2.51-17.01,2.42-25.59,2.82-2.93.14-4.68-1.58-3.44-4.89Z"/><path class="cls-6" d="m347,161.02c-1.89,1.34-3.78,2.9-6.13.94-2.89-2.41-8.24-2.91-6.91-8.69,1.32.61,2.65,1.23,3.97,1.84,3.02,1.97,6.04,3.93,9.07,5.9Z"/><path class="cls-6" d="m356.99,169.02q-7.95.03-7.99-6.1c3.14,1.41,5.57,3.75,7.99,6.1Z"/><path class="cls-66" d="m256.99,365c-14.75-5.46-18.23-21.28-17.97-33.71.04-1.72.65-3.21,1.96-4.37,2.2.92,2.11,2.79,1.98,4.68-.66,5.8,1.43,10.95,3.82,16.02,1.12,3.54,2.53,6.5,7.1,6.74,3.24.17,4.11,3.95,6.52,5.57,7.35,1.05,12.46-3.19,17.4-7.56,1.82-1.62,3.02-3.92,4.74-5.71,1.73-2.02,2.11-4.44,2.13-6.98.03-4.65.02-9.31.01-13.96,0-7.12-7.74-13.64-14.84-12.16-3.18.66-6.27.49-9.4.4-1.89-.05-3.72-.55-3.6-3.11.41-.53.89-.99,1.5-1.27,8.36-3.81,24.35-.32,30.25,6.66,1.13,1.33.71,2.39,1.44,4.74,3.23,10.37,1.02,15.56-.94,23.25-2.72,10.67-17.83,23.9-32.08,20.77Z"/><path class="cls-45" d="m241.72,325.02c-.21.03-.44.02-.7-.02-.38-.79-1.06-1-1.85-1.02.08-.15.15-.3.24-.45.03-.01.05-.02.08-.03,1.17-.12,1.88.45,2.23,1.52Z"/><path class="cls-35" d="m341.94,334.91c.48,3.19,1.72,4.26,5.4,3.59,5.89-1.07,11.98-1.33,17.99-1.41,3.14-.04,5.91-1.35,8.48-2.38,3.77-1.51,6.67-.76,9.35,1.3,3.11,2.39,4.55,1.13,5.78-1.74,5.82-.81,11.33-2.84,16.97-4.37.53,1.32,1.47,2.05,2.93,2.04-1.77,3.31-5.26,3.86-8.3,4.88-7.25,2.43-14.99,1.83-22.41,3.18-12.75,2.31-25.73,2.25-38.56,3.8-6.06.73-12.33.61-18.43.05-7.86-.72-12.66-7.74-12.98-16.93.47.13,1.24.12,1.37.4,2.58,5.52,7.81,6,12.79,6.48,6.51.62,13.07.76,19.62,1.1Z"/><path class="cls-46" d="m416.26,311.91c-.08-3.64-.16-7.28-.24-10.92,2.43,3.59.72,7.27.24,10.92Z"/><path class="cls-34" d="m213.05,336.04c.33-.03.65-.07.98-.13,2.61-1.21,4.69-3.15,6.87-4.95,3.36-4.8,4.82-10.76,9.11-14.99-.94,4.67-1.89,9.34-2.83,14.01-.12,1.01-.24,2.01-.36,3.02-.5,2.12-1.26,4.05-3.53,4.89-4.34.04-3.65,4.76-6.11,6.56-5.34-.66-10.86-.75-15-5.01-1.65-12.12.59-24.15,1.01-36.22.17-4.93.24-9.94.93-14.88.89-3.75.45-7.56.5-11.35-.36-10.18,1.59-20.18,2.34-30.27,1.14-15.28,1.55-30.58-.52-45.79-1.37-10.08-6.62-14.53-16.99-14.42-11.49.12-22.92-1.02-34.39-1.15-1.8-.02-3.72.2-5.04-1.51.9-.98,2.1-.87,3.25-.88,14.21-.05,28.47-.55,42.6,1.09,12.07,1.4,17.48,8.86,17.93,19.15.85,19.51.08,39.01-2.47,58.5-1.78,13.56-2.29,27.36-2.39,41.11-.05,6.35-.96,12.7.05,19.05-1.11,3.85.35,7.65.19,11.5-.1,2.39,2.04,2.54,3.88,2.65Z"/><path class="cls-55" d="m150,183.86c13.11.41,26.21.76,39.32,1.26,10.87.41,16.9,3.44,18.68,17.25,2.15,16.66,1.6,33.4-.06,50.06-.81,8.16-1.88,16.29-2.07,24.49-1,3.68.27,7.49-.7,11.17-.21,11.36-1.1,22.68-2.03,34-.49,5.92.05,11.93.13,17.89.68,1.71,1.39,3.43-.36,4.97-.68.31-1.37.61-2.05.92-2.6-5.71-.71-11.68-1.05-17.52.05-.57.16-1.13.32-1.68,1.05-3.5.39-7.1.55-10.65.09-3.02-.12-6.06.23-9.07.06-.55.19-1.09.33-1.62.88-3.26.3-6.59.42-9.89-.02-3.79.06-7.57-.08-11.35.04-5.58-.43-11.2,1.31-16.64.77-1.88.83-3.86.75-5.85-.58-12.83,2.16-25.5,1.94-38.32-.12-6.82-.73-13.63-1.51-20.38-1.11-9.57-4.4-12.51-13.89-13.86-3.41-1.07-6.91-.62-10.38-.55-6.96-.07-13.93.28-20.87-.81-2.94-.46-5.97-.35-8.94.11-5.8.91-8.34,3.53-9.37,9.33-1.72,9.73-1.57,19.58-.8,29.3.8,10.13.55,20.22.7,30.33-.08,1.8-.23,3.6.05,5.4.19,1.19-.11,2.36-.08,3.55.1.71.19,1.43.22,2.16,0,.52-.05,1.02-.16,1.52-.31,4.29.02,8.58-.2,12.87-1.3,14.97-.69,30.01-1.95,44.98-.11,1.89-.92,3.66-.96,5.57-.02.8-.04,1.6-.05,2.4.06,1.1,0,2.19.02,3.29-.04,2.01.26,4.1-1.4,5.72-3.73.05-2.21-2.48-2.11-4.31-.02-.67-.03-1.33-.05-2,.09-4.62.19-9.24.28-13.86,1.21-3.98-.25-8.13.79-12.12.11-.64.23-1.28.34-1.92.69-3.45.13-6.93.31-10.39.19-3.56-.39-7.14.36-10.68.08-1.95.17-3.89.25-5.84,1.06-4.69-.23-9.49.7-14.18-.9-3.26-1.19-6.56-.59-9.92.44-5.68.54-11.35-.07-17.02,0-.66.01-1.32.02-1.97.53-3.34.58-6.68-.03-10.02-.1-.65-.2-1.29-.3-1.94-.58-7.69-.52-15.39-.03-23.08.84-3.59.49-7.23,1.45-10.96,1.84-7.12,6.52-9.21,12.69-10.15Z"/><path class="cls-35" d="m201,326.96c-.05,6.31-.1,12.62-.16,18.92-7.91,0-15.82.02-23.72.02-6.66-1.28-13.43.26-20.09-.81-6.3-.12-12.61-.25-18.91-.37-.61-.37-1.48-.08-1.97-.77.02-2.01.04-4.03.06-6.04,4.67-2.37,9.56-.15,14.36-.59,2.72-.25,5.52.08,8.24-.63.56-.1,1.11-.13,1.68-.12,10.98-.07,21.96.21,32.9-.96,1.7-.18,3.79.56,4.86-1.61,1.11-2.28-.93-5.8,2.76-7.06Z"/><path class="cls-28" d="m202.89,344.97c.12-1.66.24-3.31.36-4.97,5.14.45,9.39,4.31,14.76,3.9.47-.48,1.03-.55,1.64-.32.14.15.27.3.41.44-5.7.71-11.31,3.07-17.17.95Z"/><path class="cls-28" d="m223.01,336.97c1.9-.71,2.57-2.61,3.8-3.96.18,6.57-1.76,9.73-6.75,11.02l-.1-.14c-.51-2.98,1.28-4.94,3.05-6.91Z"/><path class="cls-51" d="m157.03,345.1c6.7.21,13.47-1.25,20.09.81-6.69-.37-13.46,1.03-20.09-.81Z"/><path class="cls-15" d="m136.14,343.97c.76-.02,1.53-.04,1.97.77-2.05,0-4.1-.01-6.16-.02.64-1.6,1.28-3.2,1.93-4.8,1.04,1.19-1.42,4.34,2.26,4.05Z"/><path class="cls-66" d="m241.02,325c3.54-4.87,10.98-13.53,17.31-15.42.88.79-3.42,5.09-3.66,6.15-2.01,4.07-5.73,6.73-8.56,10.14-1.61,1.94-.85,5.4-4.1,6.1.12-1.78-1.87-.43-2.83-1.98,1.02-3.28,1.83-4.35,1.85-4.99Z"/><path class="cls-6" d="m153.99,164.91c1.2,5.41.53,6.09-6.08,6.08-.15-1.23.74-1.98,1.3-2.88,1.59-1.06,3.18-2.13,4.78-3.19Z"/><path class="cls-6" d="m307.97,143.15c-.97,2.65-2.79,3.35-5.46,2.61-6.58-1.8-12.82-4.81-19.76-5.37-3.08-.25-4.14-2.27-3.76-5.19,9.66,2.65,19.32,5.29,28.98,7.94Z"/><path class="cls-6" d="m277.1,135c-4.11,1.49-8.17,2.08-12.64,1.2-2.76-.54-4.12-1.44-4.46-4.07,5.96-.58,11.47,1.48,17.1,2.86Z"/><path class="cls-6" d="m324.01,148.93c-4.79,3.31-8.7,1.84-10.04-3.76,3.72.24,7,1.67,10.04,3.76Z"/><path class="cls-6" d="m333,152.95c-1.16,2.46-3.3,2.53-5.32,1.73-2.31-.92-1.63-3.18-1.57-5.06,2.54.59,4.84,1.71,6.88,3.33Z"/><path class="cls-6" d="m244.99,132.22c-4.42,5.08-5.74,5.2-8.02.7,2.55-1.65,5.35-.45,8.02-.7Z"/><path class="cls-6" d="m221.02,136.16c1.6,1.52,3.39.64,5.17.49,1.99-.17,2.94,1.3,3.5,2.96.68,2.01-.61,3.2-2.12,4-1.67.88-2.43-.13-2.66-1.73-10.16.67-19.9,3.5-29.75,5.78-3.64,1.58-7.61,2.32-11.16,4.16-1.59.82-3.42,1.42-3.98,3.45-3.3,1.46-7.41.12-10.3,3.51-1.02,1.21-3.44-.07-5.09-.9,11.8-8.41,24.94-13.96,38.81-17.75,5.78-1.58,11.42-3.97,17.57-3.96Z"/><path class="cls-7" d="m90.05,331.98c1.81-1.02,3.65-1.07,5.72-.69,5.14.96,10.02,3.17,15.45,2.8,1.94-.13,3.84.91,4.84,2.9-8.9-.46-17.71-1.45-26.01-5.01Z"/><path class="cls-7" d="m120.04,337c3.34-2.89,5.82-2.65,10,.93-3.37.11-6.74.17-10-.93Z"/><path class="cls-75" d="m194.05,147.12c8.95-3.43,18.39-4.62,27.77-6.11,1.04-.16,2.36-.46,3.1.86-2.73,1.7-6.03,1.22-8.9,2.35-1.53,1.05-3.14,1.63-5,.91-1.77-.14-3.54-.26-5,1.07-2.2,1.37-4.51,2.19-7.14,1.46-.91.15-1.82.29-2.73.44-1.06.44-2.12.88-2.09-.99Z"/><path class="cls-6" d="m238.88,222.15c-3.12.04-5.01-2.19-4.59-4.59.51-2.94-1.08-7.27,3.65-8.54,1.06.53,1.59,1.46,1.96,2.53.57,2.16.4,4.37.43,6.56-.05,1.43-.18,2.82-1.3,3.88l-.14.15Z"/><path class="cls-11" d="m194.05,147.12c.46.83,1.29.88,2.09.99-5.31,2.52-11.27,3.58-16.11,7.15-2.12-1.75.25-2.15.98-2.68,3.91-2.82,8.54-4.01,13.05-5.46Z"/><path class="cls-6" d="m198.87,147.66c2.28-.99,4.57-1.9,7.14-1.46.03,1.75-.25,3.36-2.33,3.72-2.09.36-3.95.08-4.81-2.26Z"/><path class="cls-6" d="m211.02,145.13c1.51-1.13,3.22-1.2,5-.91-.04,1.29-.03,2.64-1.81,2.77-1.46.1-2.95.19-3.18-1.86Z"/><path class="cls-32" d="m238.82,211.07c-.29-.68-.58-1.37-.88-2.05-.02-.67-.04-1.33-.06-2,.51-2.66-.66-5.52.97-8.04,2.36,2.28,1.25,5.22,1.52,7.9-.1,1.55-.07,3.16-1.55,4.2Z"/><path class="cls-22" d="m343.92,183.82c.24-1.73,1.23-2.54,2.98-2.76,13.03-1.59,20.38,6.5,19.35,19.41-.98,12.4-.16,24.94-.36,37.41-.09,5.78-.62,11.55-2.4,17.14-2,6.27-6.43,10.02-13.05,9.91-15.26-.25-30.46,1.5-45.69,1.51-15.84,0-31.68-.84-47.51-1.61-2.94-.14-6.42-.35-8.31-3.56,1.88-1.93,4.09-.18,6.12-.58,1.1.04,2.18.16,3.25.42,4.4.84,8.78.87,13.15-.2,8.91-.85,17.86-.51,26.8-1.16,16.71-1.22,33.45-2.21,50.24-2.26,7.78-.02,10.69-3.51,10.97-11.73.4-11.81-.02-23.62.12-35.43.03-2.49-.13-4.99.25-7.47.64-2.08.82-4.21.82-6.38-.03-8.71-3.09-11.69-11.71-11.36-1.79.07-3.7.5-5.01-1.3Z"/><path class="cls-37" d="m343.92,183.82c2.85.02,5.75-.27,8.55.14,6.57.96,9.17,3.91,9.37,10.39.08,2.58.35,5.25-.68,7.76-.49.35-.97.35-1.45-.01-1.95-2.76-.38-6.12-1.56-9-.31-.65-.6-1.3-.91-1.94-1.15-3.35-4.28-2.75-6.8-3.38-3.34-.82-6.62-.25-9.9.44-1.73.18-3.46.27-5.2.23-14.27.67-28.54,1.59-42.84,1.12-3.58-.15-7.17-.54-10.69.53-8.25.75-16.56.22-24.8,1.32-2.28.3-4.66,0-6.61-1.59-.52-.45-.65-1-.4-1.64,21.65-1.1,43.29-2.2,64.94-3.29,3.86-.76,7.76-.15,11.63-.35,3.46-.24,6.97.51,10.41-.46,2.31-.09,4.62-.18,6.93-.26Z"/><path class="cls-48" d="m250.01,188.18c.02.29.02.59,0,.88.31,1.26-.67,1.53-1.49,1.94-2.97.83-4.46,3.08-5.53,5.74-.42,1.12-.63,2.28-.65,3.49-.06,2.4.13,4.79.05,7.19.2,4.6-.59,9.24.69,13.78.69,4.73.38,9.48.33,14.23.1,1.67.04,3.34.04,5,1.4,4.65-.02,9.67,1.92,14.24,1.4,2.17,3.23,3.72,5.9,4.05,1.17.13,2.35.16,3.43.71.41.29.68.67.8,1.16,0,.5-.16.93-.51,1.3-2.1.58-4.02-.59-6.06-.62-6.59-2.46-7.7-3.87-7.78-10.59-.04-2.93-2.04-5.62-.99-8.65.53-4.35.63-8.7-.06-13.04-.79-2.26.8-4.9-1.09-6.99.06-1.32.11-2.64.17-3.97.47-3.68.62-7.36-.07-11.03-.09-2.67-.18-5.34-.28-8.02,2.56-8.77,4.87-11.01,11.17-10.8Z"/><path class="cls-40" d="m277.03,181.11c13.61-1.25,27.24-2.17,40.91-2.11,1.44,0,2.89,0,4.37.65-4.94,1.99-10.17,1.14-15.26,1.45-3.66,1.1-7.48-.22-11.15.74-4.26.09-8.52.18-12.77.27-2.09,0-4.47,1.82-6.1-1Z"/><path class="cls-70" d="m239.89,296.73c7.98-6.04,16.82-9.14,26.95-7.98-8.98,2.02-18.1,3.57-25.73,9.28-1.07.18-1.53-.2-1.22-1.3Z"/><path class="cls-71" d="m239.89,296.73c.41.43.82.87,1.22,1.3-5.12,4.3-9.95,8.92-14.3,14.06,2.59-6.75,7.03-11.77,13.08-15.37Z"/><path class="cls-8" d="m213.05,336.04c-3.45,1.92-5.33,1.08-5-3.04.29-3.71-1.01-7.55.93-11.12,1.55,4.66-.95,10.49,4.07,14.15Z"/><path class="cls-16" d="m135.87,204.97c.01,7.69.02,15.39.03,23.08-1.29-7.69-1.56-15.38-.03-23.08Z"/><path class="cls-42" d="m136.2,241.99c1.27,5.67,1.43,11.34.07,17.02-.02-5.67-.05-11.35-.07-17.02Z"/><path class="cls-78" d="m277.03,181.11c1.81,1.69,4.11.43,6.1,1-3.65,1.6-7.33.91-11.79.51,2.03-2.31,3.91-1.72,5.69-1.51Z"/><path class="cls-18" d="m136.87,268.92c-.01,4.74.94,9.53-.7,14.18.08-4.74-.86-9.52.7-14.18Z"/><path class="cls-8" d="m220.9,330.97c-1.72,2.44-3.23,5.17-6.87,4.95,1.61-2.59,4.07-4.01,6.87-4.95Z"/><path class="cls-62" d="m240.11,228.99c1.35,4.34,1.34,8.69.06,13.04-.02-4.35-.04-8.69-.06-13.04Z"/><path class="cls-31" d="m326.83,184.88c-3.96,0-7.92,0-11.88.01,3.96-1.54,8.07-.74,12.13-.78.24.27.29.47.13.61-.12.11-.24.16-.38.16Z"/><path class="cls-23" d="m134.91,311.94c.06,4.06.87,8.17-.79,12.12.12-4.05-.78-8.17.79-12.12Z"/><path class="cls-10" d="m295.9,181.84c3.65-1.19,7.41-.81,11.15-.74-3.64,1.36-7.4,1.03-11.15.74Z"/><path class="cls-16" d="m135.92,288.95v10.9c-.14.47-.38.56-.76.24.04-3.73-.87-7.52.76-11.14Z"/><path class="cls-64" d="m326.83,184.88c.09-.25.18-.51.25-.77,3.3,0,6.61-.02,9.91-.03-3.29,1.48-6.74.95-10.16.8Z"/><path class="cls-42" d="m136.2,229.99c1.28,3.34,1.24,6.68.03,10.02,0-3.34-.02-6.68-.03-10.02Z"/><path class="cls-76" d="m135.16,300.09c.25-.07.5-.15.75-.24-.21,3.39.93,6.87-.66,10.17-.03-3.31-.06-6.62-.09-9.93Z"/><path class="cls-63" d="m405.92,329.9c-5.02,3.92-10.88,4.6-16.97,4.37-.78-.17-1.56-.34-2.33-.52,3.46-.79,6.99-1.01,10.38-2.17,6.56-2.24,11.63-5.67,11.96-13.41.04-.96-.13-2.28,1.33-2.08,1.4.19,1.73,1.43,1.51,2.7-.73,4.35-2.71,8.04-5.88,11.11Z"/><path class="cls-66" d="m242,331.97c1.82-6.97,6.97-11.43,12-15.99,1.03-1.87,1.65-3.39,4.77-2.77,3.43.69,7.17.37,10.82-.09,5.73-.72,10.38,2.56,15.05,5.31.9.53.84,1.73.84,2.74,0,6.63.08,13.26-.05,19.89-.05,2.5-1.08,4.8-2.44,6.91-4.22,6.57-10.18,10.83-17.54,13.27-1.9.63-3.71,1.44-5.45-.27-2.54-3.37-4.52-7-9.96-6.77-2.98.12-2.04-4.48-4.03-6.22-3.17-4.87-5.19-10.03-4-15.99Z"/><path class="cls-66" d="m282.99,347.96c3.37-8.62,1.54-17.63,2-26.47.12-2.22-1.41-3.02-2.99-4.07-6.53-4.33-13.83-3.47-21.04-3.49-2.59,0-5.15-.43-6.95,2.04,0-1.03-.02-2.05-.02-3.08,1.02-.62,2.03-1.23,3.05-1.85,3.65,3.3,8.01,2.11,11.92,1.27,6.1-1.31,10.15,2.82,14.99,4.76,3.47,1.39,1.89,4.92,2,7.54.2,5.13.12,10.27.03,15.4-.05,2.95-.13,5.99-2.97,7.94Z"/><path class="cls-66" d="m246,347.96c2.25,3.52,4.62,6.49,9.44,6.92,2.92.26,3.18,3.9,4.55,6.08-1.65,0-2.22-1.28-2.72-2.47-.78-1.87-2.39-3.31-4.06-3.19-5.57.42-6.39-3.36-7.21-7.33Z"/><path class="cls-33" d="m223.01,336.97c-.35,2.6-1.95,4.65-3.05,6.91-.65,0-1.3,0-1.95.01-1.58-4.66,1.01-6.3,5-6.93Z"/><path class="cls-3" d="m205.16,288.1c-.06-3.74-.77-7.53.7-11.17.08,3.74.83,7.53-.7,11.17Z"/><path class="cls-6" d="m139.2,257.98c-.08-6.47.03-12.96-.29-19.42-.55-11.21-1.25-22.41-.7-33.64.17-3.41.32-6.87,1.01-10.2,1.07-5.14,5.18-8.23,11.09-8.66,2.81-.2,5.72-.48,8.45.03,7.04,1.33,14.15.52,21.19,1.12,3.34.96,6.83-.32,10.16.72,10.29.12,14.32,3.51,15.61,15.66,1.02,9.66,2.16,19.47,1.16,29.19-1,9.65-1.63,19.3-2.09,28.98-.35.49-.8.86-1.34,1.13-11.58.35-23.17,1.09-34.76-.05-6.76-.66-13.49.92-20.26.28-.96-.09-1.98.12-2.98.22-3.97.39-6.45-.92-6.27-5.36Z"/><path class="cls-6" d="m201,326.96c-1.83,2.48-.55,5.35-.98,8-4.99.83-10.01.71-15.04.81-8.34.16-16.78-.28-24.93,2.17-.34,0-.68,0-1.01.01-3.53-1.05-7.09-1.27-10.77-.9-4.17.42-8.21-.34-12.04-2.09,0-.67.01-1.33.02-2,1.25-1.48,2.45-2.98.99-5-.11-14.27,1.48-28.5.96-42.78-.04-1.03.64-2.09.99-3.14,1.06-4.68-.27-9.49.74-14.17.04-.29.01-.56-.08-.84,7.86-2,15.73-4.04,23.79-.95,4.62,3.55,9.67,3.15,14.85,1.59,3.21-3.12,7.64-1.31,11.26-2.82,3.42-.42,6.86-.33,10.28-.17,1.67.08,3.79-.23,4.16,2.34-1.69,5.55-.92,11.29-1.31,16.94-.81,4.06-.15,8.16-.36,12.24-.18,3.28.39,6.58-.33,9.83l-.18-.08c-1.07,3.41-.21,6.9-.49,10.35-.17,3.58.36,7.17-.33,10.73l-.17-.09Z"/><path class="cls-27" d="m139.2,257.98c.72,3.55,2.96,4.43,6.36,4.07,16.85-1.76,33.76.98,50.64-.53,2.47-.22,5.23.38,7.86.5.94,3.01-1.4,2.78-3.05,2.89-2.93.2-5.88.06-8.82.07-4.87.28-9.74.48-14.62.46-6.75.61-13.46-.53-20.2-.55-3.79-.82-7.62-.72-11.43-.28-2.27.26-4.31.12-6.02-1.55-1.22-1.56-.92-3.33-.73-5.09Z"/><path class="cls-9" d="m157.16,263.81c6.59.14,13.18.28,19.77.42,5.06.44,10.12.54,15.18-.06,3.08-.07,6.16-.16,9.24-.22,1.36-.02,2.67-.06,2.71-1.92.21-.19.45-.28.74-.27.16,1.8.46,3.63-.62,5.28-4.92-2.59-10.11-.2-15.14-.81-7.27.12-14.69,2.62-21.7.83-6.08-1.55-12.06-1.09-18.05-1.8-.57-2.8,1.67-1.6,2.66-1.68,1.72-.15,3.5-.33,5.21.23Z"/><path class="cls-30" d="m149.11,264.93c13.31.43,26.62.87,39.93,1.3-2.92,2.16-7.43-1.24-9.81,2.8-5.37.12-10.73-.14-16.06-.85-3.02-4.34-7.53-2.12-11.11-1.87-4.06.28-8.14.5-12.22.73-.59-.09-.83-.4-.63-.99,3-2.98,6.45-2.05,9.9-1.13Z"/><path class="cls-7" d="m136.23,334.97c6.39.33,12.78.69,19.18.97,1.61.07,2.92.44,3.62,2.01-7.61,1.77-15.22.25-22.83-.03,0-.99.02-1.97.02-2.96Z"/><path class="cls-12" d="m149.11,264.93c-3.26.71-6.76-.64-9.9,1.13.24-1,.48-1.99.72-2.99,4.03.89,8.05-.33,12.08-.07,1.73.11,3.6-.53,5.15.81-2.63.76-5.58-.77-8.05,1.12Z"/><path class="cls-14" d="m139.91,267.88c.02,4.74.84,9.52-.74,14.17.11-4.73-.89-9.52.74-14.17Z"/><path class="cls-7" d="m137.23,327.97c2.56,2.24,3.32,4.12-.99,5-.9-1.91.92-3.28.99-5Z"/><path class="cls-26" d="m202.14,296.14c.05-4.06-.87-8.19.72-12.16.01,3.97.03,7.94.04,11.9-.14.44-.39.52-.76.26Z"/><path class="cls-58" d="m201.17,327.05c0-3.63,0-7.27,0-10.9.09-.52.35-.58.73-.25.03,3.74.84,7.53-.74,11.16Z"/><path class="cls-57" d="m190.12,187.92c-3.41.04-6.87.88-10.16-.72,3.4.04,6.86-.72,10.16.72Z"/><path class="cls-24" d="m201.92,315.89c-.25.08-.49.16-.73.25.04-3.41-.95-6.9.81-10.18-.03,3.31-.05,6.62-.08,9.93Z"/><path class="cls-58" d="m202.14,296.14c.25-.09.51-.17.76-.26.15,3.42.66,6.86-.73,10.17-.01-3.3-.02-6.61-.03-9.91Z"/><path class="cls-7" d="m160.04,337.94c2.16-2.87,5.47-2.89,8.46-2.88,6.63,0,13.14-1.43,19.94-.45,3.61.52,7.7-.52,11.57.36-1.58,4.06-5.25,1.9-7.75,2.18-10.69,1.18-21.47.93-32.23.79Z"/><path class="cls-77" d="m239.12,207c1.28,3.67,1.61,7.34.07,11.03-.13-2.32-.25-4.64-.38-6.96.1-1.36.2-2.72.3-4.07Z"/><path class="cls-56" d="m255,261.89c.01-.32.02-.64.03-.96,2.48-1.98,5.42-1.13,8.19-1.3,3.14-.19,6.33.34,9.43-.59,1.17-.28,2.36-.44,3.57-.44,3.85.02,7.71.07,11.57-.06,5.76-.78,11.59-.81,17.35-1.62,3.25-.38,6.51-.41,9.77-.4,11.23-.05,22.4-1.25,33.65-1.22,5.9.02,7.91-2.49,7.88-8.42-.02-3.99.67-7.88,1.05-11.82-.13-1.79.08-3.57.07-5.35.04-7.24,0-14.47.01-21.71-.06-1.47.05-2.93.54-4.33.34-.86.93-1.44,1.85-1.66.4.03.8.06,1.2.09-.03,13.53-.05,27.07-.09,40.6,0,1.31-.01,2.62-.1,3.93-.59,8.59-4.05,12-12.77,12.32-5.62.2-11.27,0-16.89.24-11.66.51-23.39.61-34.95,2-8.48,1.02-16.93-.04-25.34.94-4.35.6-8.71.47-13.07.08-.99-.11-1.97-.22-2.96-.33Z"/><path class="cls-72" d="m331,262.16c3.1-1.56,6.25-1.28,9.42-.54-2.98,2.28-6.25,1.19-9.42.54Z"/><path class="cls-59" d="m257.96,262.21c4.36-.03,8.71-.05,13.07-.08-4.35,1.13-8.7,1.62-13.07.08Z"/><path class="cls-53" d="m241.24,199.06c-.62-1.33.36-2.13,1-3.04,2.75-1.13,4.32-3.43,5.77-5.86.68-.36,1.69-.1,2.01-1.1,4.68,1.62,9.31.52,14.03.1,5.92-.53,11.92-.25,17.89-.31,3.39-.89,6.92.31,10.3-.69,14.65-.35,29.29-.69,43.94-1.04-.18,3.2-3.13,3.78-5.12,4.86-13.93,7.55-27.08,16.36-40.51,24.71-10.12,6.3-20.26,12.6-30.09,19.36,17.04-11.15,34.43-21.73,51.71-32.49,7.9-4.92,16.31-9.03,23.93-14.43,1.53-1.08,3.35-1.42,5.11-1.94,3.27-1.78,6.59-1.71,9.93-.23.24,1.98-1.5,2.38-2.62,3.22-13.79,10.46-28.86,18.94-43.56,27.99-15.25,9.4-30.21,19.22-44.88,29.5-4.13,2.89-7.68,6.89-13.11,7.57-2.17-2.21-3.47-4.47-2.55-7.92.58-2.16-.36-4.6-2.23-6.31.01-1.68.03-3.36.04-5.03,2.66-3.23,2.64-7.01,2.26-10.88-.51-5.23.09-10.64-2.55-15.52-.21-.43-.3-.89-.27-1.36,2.15-3.15-.18-6.1-.42-9.14Z"/><path class="cls-53" d="m305.33,257.85c-.35.32-.69.9-1.06.93-5.37.4-10.75.73-16.12,1.08-4.05-.59-8.1-.66-12.15.03-.99.06-1.98.12-2.96.18-6.03.69-12.06.63-18.1.02l-3.85-.41c1.92-4.17,6.1-6.14,9.52-8.25,18.65-11.51,36.51-24.24,55.41-35.37,12.59-7.42,24.39-16.13,36.97-23.59,1.51-.89,2.71-2.64,4.86-1.78.4.43.8.87,1.21,1.3.61,3.68.63,7.36,0,11.04-.08,1.31-.16,2.62-.25,3.93-.8,7.22-.14,14.47-.35,21.7.01,2.18-1.57,3.13-3.18,4.04-14.58,8.18-29.67,15.39-44.24,23.58-1.77.99-3.84.89-5.7,1.56Z"/><path class="cls-2" d="m357.85,190.7c-10.71,6.84-21.37,13.75-32.13,20.51-9.14,5.74-18.77,10.79-27.52,17.07-13.24,9.51-27.77,17.06-40.64,27.09-2.04,1.59-4.31,2.88-6.47,4.31-2.8.23-4.67-1.28-6.24-3.35.25-1.17.94-1.72,2.15-1.57,9.31-5.07,17.33-12.03,26.21-17.74,18.75-12.04,37.52-24.03,56.6-35.56,7.35-4.44,14.23-9.65,21.32-14.51,2.61.58,6.76-1.6,6.71,3.75Z"/><path class="cls-29" d="m341.2,187.18c-16.3,11.08-33.69,20.38-50.32,30.93-9.37,5.94-18.81,11.77-28.2,17.68-1.22.77-2.28,1.84-4.33,1.79,2.12-3.21,5.16-4.85,7.96-6.69,21.89-14.35,43.96-28.42,66.68-41.43,1.14-.65,2.13-1.56,3.18-2.34,1.68.02,3.36.04,5.03.06Z"/><path class="cls-47" d="m359.05,203.04c0-3.68,0-7.36,0-11.04,1.86,3.2.48,6.69.91,10.02-.3.34-.61.68-.91,1.02Z"/><path class="cls-65" d="m292.23,188.16c-3.34,1.69-6.86.61-10.3.69,3.33-1.72,6.87-.47,10.3-.69Z"/><path class="cls-53" d="m242.07,209.01c1.63.97,2.83,2.17,2.94,4.26.28,5.55.53,11.1,1.04,16.63.29,3.16-1.01,5.01-3.82,6.07-.09-4.98-.18-9.96-.28-14.93-.62-4.01-.87-8.02.12-12.02Z"/><path class="cls-53" d="m247,254.76c-.72.52-1.43,1.05-2.15,1.57-1.92-1.12-1.64-3.01-1.64-4.78,0-3.55-.17-7.08-1.02-10.55,3.38.45,3.81,3.69,3.54,5.59-.43,3.04.6,5.5,1.27,8.17Z"/><path class="cls-53" d="m248,190.17c.3,4.14-1.56,6.15-5.77,5.86,1.01-2.85,2.36-5.36,5.77-5.86Z"/><path class="cls-53" d="m241.24,199.06c.89,1.54,2.15,2.99,2.58,4.65.39,1.55,1.01,3.82-1.8,4.3-.42-.24-.7-.6-.83-1.07.02-2.63.04-5.26.06-7.89Z"/><path class="cls-67" d="m254.94,260.09c6.03,0,12.06-.01,18.1-.02-5.93,1.87-12,.73-18.01.86-.01-.28-.04-.56-.09-.84Z"/><path class="cls-52" d="m241.18,206.95c.28.36.55.71.83,1.07.02.33.04.67.06,1-.04,4.01-.08,8.01-.12,12.02-1.69-4.62-.86-9.37-.77-14.09Z"/><path class="cls-19" d="m258.76,343.05c-2.73-4.05-2.72-8.11-.03-12.18,2.26-1.03,4.12-2.79,6.58-3.49,6.43-1.83,11.52,2.52,10.52,9.07-1.57,10.33-8.43,12.98-17.07,6.6Z"/><path class="cls-20" d="m258.76,343.05c.8.17,1.64.24,2.4.54,9.05,3.59,13.93.2,13.82-9.63-.05-4.79-4.54-7.33-9.81-5.52-2.17.75-3.96,2.51-6.44,2.44,4.95-5.62,11.02-6.54,15.48-2.36,2.47,2.31,3.98,10.6,2.48,13.54-2,3.91-8.88,6.85-13.24,5.63-2.41-.68-4.06-2.15-4.69-4.64Z"/><path class="cls-74" d="m203.01,208.27c0,8.01.04,16.02-.04,24.03-.01,1.43-.93,1.61-1.9.56-.67-.73-1.18-1.52-1.11-2.64.44-7.32,1.74-14.57,1.08-21.97.66,0,1.31.02,1.97.03Z"/><path class="cls-69" d="m142.2,272.21c2.12.18,5.64-1.83,5.55,2.28-.18,8.6-.42,8.59-5.57,8.31-.97-3.53-1.03-7.06.02-10.59Z"/><path class="cls-43" d="m163.17,268.18c5.4-.68,10.79-1.04,16.06.85-5.46,1.77-10.81,1.41-16.06-.85Z"/><path class="cls-60" d="m142.2,272.21c0,3.53-.01,7.06-.02,10.59-2.05-3.53-1.81-7.06.02-10.59Z"/><path class="cls-13" d="m192.1,264.16c-5.05,1.27-10.11,1.28-15.18.06,5.06-.02,10.12-.04,15.18-.06Z"/><path class="cls-68" d="m358.72,234.9c-.27,5.22-.42,10.44-.83,15.64-.36,4.5-3.98,6.46-7.52,6.26-11.75-.65-23.38,1.64-35.1.87,2.04-4.38,6.81-5.06,10.4-6.84,9.84-4.88,19.52-10.04,29.26-15.1,1.18-.61,2.38-1.24,3.79-.83Z"/><path class="cls-1" d="m358.72,234.9c-10.1,5.3-20.2,10.61-30.31,15.91-4.38,2.3-8.77,4.58-13.15,6.86-3.31.06-6.63.12-9.94.18,17.58-9.44,35.15-18.88,52.72-28.32.34-.12.61-.04.81.25-.05,1.71-.1,3.41-.14,5.12Z"/><path class="cls-50" d="m358.87,229.78c-.29-.03-.56-.11-.81-.25.18-7.52-.96-15.09.75-22.56.02,7.6.05,15.21.07,22.81Z"/><path class="cls-73" d="m276,259.89c4.05-1.16,8.09-1.64,12.15-.03-4.05.01-8.1.02-12.15.03Z"/><path class="cls-61" d="m297.6,235.08c5.41-5.28,12.37-7.84,18.93-11.13-5.32,5.38-12.48,7.67-18.93,11.13Z"/><path class="cls-5" d="m354.08,243.86c-3.84,5.47-8.78,7.37-13.84,9.06-.5.17-1.48-.13-1.73-.53-.25-.39-.07-1.51.29-1.76,4.38-2.94,8.48-6.59,15.27-6.78Z"/></svg>