<?xml version="1.0" encoding="UTF-8"?><svg id="Calque_7" xmlns="http://www.w3.org/2000/svg" viewBox="0 0 500 500"><defs><style>.cls-1{fill:#fd0100;}.cls-2{fill:#01d2be;}.cls-3{fill:#01aa8c;}.cls-4{fill:#003d15;}.cls-5{fill:#00d582;}.cls-6{fill:#00d381;}.cls-7{fill:#00d482;}.cls-8{fill:#01874e;}.cls-9{fill:#023e16;}.cls-10{fill:#00894f;}.cls-11{fill:#00854d;}.cls-12{fill:#00884e;}.cls-13{fill:#00874e;}.cls-14{fill:#007e49;}.cls-15{fill:#007f4a;}.cls-16{fill:#013f15;}.cls-17{fill:#ff3a3a;}.cls-18{fill:#ff5100;}.cls-19{fill:#ff4b4b;}.cls-20{fill:#f50;}.cls-21{fill:#ff4c00;}.cls-22{fill:#ff4e00;}.cls-23{fill:#ff4b00;}.cls-24{fill:#ff2626;}.cls-25{fill:#e6fbf4;}.cls-26{fill:#ffe46c;}.cls-27{fill:#ffe263;}.cls-28{fill:#ffec96;}.cls-29{fill:#ffeea5;}.cls-30{fill:#ffea8c;}.cls-31{fill:#ffe77b;}.cls-32{fill:#ffe77f;}.cls-33{fill:#ffe885;}.cls-34{fill:#ffe572;}.cls-35{fill:#ffe678;}.cls-36{fill:#ffe679;}.cls-37{fill:#ffe675;}.cls-38{fill:#ffe677;}.cls-39{fill:#ffcf93;}.cls-40{fill:#ffd094;}.cls-41{fill:red;}.cls-42{fill:#fd2222;}.cls-43{fill:#ff0100;}.cls-44{fill:#ff3f00;}.cls-45{fill:#f33;}.cls-46{fill:#ff4040;}.cls-47{fill:#ff3535;}.cls-48{fill:#ff2929;}.cls-49{fill:#ff4100;}.cls-50{fill:#ff4500;}.cls-51{fill:#ff2a2a;}.cls-52{fill:#ff2d2d;}.cls-53{fill:#ff4141;}.cls-54{fill:#ff4242;}.cls-55{fill:#f40;}.cls-56{fill:#ff4800;}.cls-57{fill:#ff3a00;}.cls-58{fill:#ff4848;}.cls-59{fill:#ff4700;}.cls-60{fill:#ff1f1f;}.cls-61{fill:#fece92;}.cls-62{fill:#fecf93;}.cls-63{fill:#ff3030;}.cls-64{fill:#ff2525;}.cls-65{fill:#ff6060;}.cls-66{fill:#f66;}.cls-67{fill:#ff5b00;}.cls-68{fill:#6c0910;}.cls-69{fill:#00a789;}.cls-70{fill:#8f0102;}.cls-71{fill:#32564e;}.cls-72{fill:#8c7861;}.cls-73{fill:#d7f9ed;}.cls-74{fill:#d7ede6;}.cls-75{fill:#a60002;}.cls-76{fill:#aab4b1;}.cls-77{fill:#c59d70;}.cls-78{fill:#cef8e9;}.cls-79{fill:#dafaee;}.cls-80{fill:#de8d48;}.cls-81{fill:#af0000;}.cls-82{fill:#dc8e4a;}.cls-83{fill:#dffbf1;}.cls-84{fill:#d3ece4;}.cls-85{fill:#df8f4b;}.cls-86{fill:#e39450;}.cls-87{fill:#c7f7e6;}.cls-88{fill:#132a21;}.cls-89{fill:#121111;}.cls-90{fill:#131212;}.cls-91{fill:#171616;}.cls-92{fill:#171617;}.cls-93{fill:#161515;}.cls-94{fill:#162d23;}.cls-95{fill:#241c1d;}.cls-96{fill:#1f3a32;}.cls-97{fill:#221d1e;}.cls-98{fill:#211c1d;}.cls-99{fill:#211d1e;}.cls-100{fill:#201c1d;}.cls-101{fill:#0b0b0b;}.cls-102{fill:#08261a;}.cls-103{fill:#0b0707;}.cls-104{fill:#120f10;}.cls-105{fill:#1b191a;}.cls-106{fill:#0d0c0c;}.cls-107{fill:#0f241b;}.cls-108{fill:#0e3123;}.cls-109{fill:#1d1b1c;}.cls-110{fill:#1c1b1b;}.cls-111{fill:#453323;}.cls-112{fill:#1a1919;}.cls-113{fill:#275845;}.cls-114{fill:#2a3b33;}.cls-115{fill:#54eabc;}.cls-116{fill:#294840;}.cls-117{fill:#2c4c41;}.cls-118{fill:#354b43;}.cls-119{fill:#2f2d2e;}.cls-120{fill:#2f483a;}.cls-121{fill:#2e2c2c;}.cls-122{fill:#584a3b;}.cls-123{fill:#3c6e5e;}.cls-124{fill:#5a4d3e;}.cls-125{fill:#57eebf;}.cls-126{fill:#56edbe;}.cls-127{fill:#3c4642;}.cls-128{fill:#624933;}.cls-129{fill:#494138;}.cls-130{fill:#5f4e3b;}.cls-131{fill:#5e2525;}.cls-132{fill:#765f46;}.cls-133{fill:#534130;}</style></defs><path class="cls-41" d="m218.01,422.03l-.42-.21-.47.08c-4.57.32-9-.58-13.44-1.48-3.18-.07-6.39-.62-9.49.63-4.98,1.22-9.52,4.05-14.87,4-1.53-.01-2.98.06-4.3-.84-2.33-.05-4.66-.1-6.99-.15-4.13,1.21-8.12.76-12-1.01-1.33,0-2.67.01-4,.02-6.43,1.73-12.12-1.47-18.1-2.69-5.16-2.12-10.68-1.15-16-1.86-1.13-.42-1.55-1.26-1.46-2.42.67-2.84,2.77-4.23,5.27-5.22,4.51-1.86,9.12-3.42,13.83-4.71,1.73-.63,3.49-1.33,4.68-2.73,9.43-11.08,21.72-19.42,30.22-31.38,2.81-3.95,6.51-7.05,9.81-10.54,2.51-2.38,4.94-4.84,7.34-7.34,6.11-5.56,11.8-11.38,14.02-19.74.46-1.72,1.66-3.19,2.87-4.55,2.23-1.08,3.72-2.59,3.1-5.32.09-.46.35-.79.77-1,2.15-.3,2.82,1.43,3.77,2.75,2.27-2.67,1.74-6.98,5.23-8.92,3.35.16,7.13-.14,5.77,5.18,1.09-3.53-.37-5.49-3.81-6.67-3.62-1.24-3.65-3.45-.99-5.92,2.7-2.52,5.03-5.18,5.91-8.99.56-2.44,3.51-4.13,4.83-2.29,2.42,3.39,3.11.3,3.67-.61,2.31-3.76,3.48-8.14,2.6-12.36-1.41-6.77-2.69-13.73-7.27-19.38-.65-3.08-.56-6.17-.13-9.26.17-.62.45-1.2.73-1.79.6-1.27,2.22-2.52,1.24-3.91-1.07-1.52-2.65.51-4.05.12-.77-.19-1.26-.69-1.53-1.41-.57-3.79,2.73-5.57,4.3-8.24.39-.34.83-.58,1.32-.74.73-.22,1.48-.32,2.25-.35,1.49-.02,2.97-.03,4.38.55,3.21,3.09,6.44,3.09,9.69.04,1.38-.59,2.8-.63,4.25-.27,3.13,1.43.73,2.81,0,4.21-.62,2.39,3.71,2.3,2.51,4.96-3.66,1.63-5.32,5.12-7.53,8.1-2.14,1.82-3.43,3.9-2.06,6.8.01.47-.1.92-.31,1.34-3.04,2.23-2.76,2.18-2.14,5.62.41,2.29,1.83,3.81,2.87,5.64.67,2.59.72,5.18-.09,7.75-3.39,4.54-1.75,10.34-3.76,15.23-1.64,4.64-5.1,8.2-7.39,12.46-4.66,5.02-5.3,11.77-1.66,17.68,1.2,5.29.82,10.47-.77,15.63-2.42,7.82-3.2,15.76-1.93,23.93.47,3.05.32,6.26-.25,9.37-1.03,4.21-.87,8.43-.18,12.66.37,6.88,2.35,13.12,6.88,18.48,1.25,1.48,2.05,3.35,2.15,5.39-.01,1.05-.34,2.02-.84,2.94-.74,1.03-1.43,2.17-3.02,1.66-.33.06-.66.12-1,.17-4.47,3.32-9.17,3.04-14,.93Z"/><path class="cls-88" d="m361.95,274.15c-2.46-2.07-5.3-.87-8-.96-5.31,1.69-10.74,2.95-15.71,5.75-2.86,1.61-4.44.08-3.57-3.22.84-3.19,2.09-6.2,4.62-8.61,4.95-4.7,9.92-9.29,17.05-10.38,3.18-.06,6.36-.26,9.53.17,9.95,2.86,18.03,8.13,22.82,17.74-.02-1.24-.42-2.41-.31-3.62.22-1.41.34-2.86,1.31-4.03,2.99-.05,2.32,2.6,3,4.19.71,1.66.12,3.61,1.06,5.71,2.21-3.02,4.99-5.4,4.39-9.45-1.88-4.56-5.19-7.74-9.49-10.01-.57-.53-.96-1.14-.95-1.94.33-.79.98-1.17,1.77-1.36,5.26-.06,8.37,3.48,10.42,7.42,2.43,4.66,4.62,3.22,7.72,1.08,11.8-8.17,27.55-6.56,36.88,3.61.68.74,1.36,1.47,1.88,2.33.96,1.58,2.02,3.29.82,5.09-1.18,1.77-3.04.91-4.59.57-5.17-1.13-10.43-1.04-15.67-1.23-1.33.07-2.66.13-3.99.2-3.44,2.16-6.87,4.35-11.15,4.41-1.66.22-2.82,1.22-3.84,2.43-1.15,2.67-4,3.41-6.38,5.72,3.43,0,6.42-.21,9.39,0,10.29.76,19.33,9.07,20.76,19.31.43,3.07.39,6.19.58,9.28.35,5.73,1.38,11.6-3.1,16-1.44,0-1.94-.96-2.2-2.17.16-3.82.77-7.59,1.44-11.34.58-2.89-.43-5.65-.76-8.46-.75-13.09-15.82-23.14-30.73-15.91-.53,3.11,2.42,2.77,3.82,3.42,15.47,7.17,23.43,28.91,21.48,39.79-.23,1.3-.23,2.67-1.31,3.66-.98.52-1.95.51-2.9-.07-.6-8.85-1.25-17.68-5.79-25.66-1.06-1.86-1.76-3.92-3.57-5.25-1.39-1-2.6-2.18-3.59-3.58-1.96-3.09-5.37-4.04-8.36-5.6-.41-.17-.81-.38-1.2-.59-2.26-1.19-4.43-2.78-7.22-1.65-.85.29-1.63.72-2.34,1.28-6.93,5.07-12.39,11.34-16.12,19.14-1.52,3.17-1.96,6.23-.62,9.55.68,1.69,1.39,3.83-.39,5.02-2.14,1.43-3.09-1.01-4.33-2.14-.85-.78-1.61-1.66-2.3-2.6-3.04-4.57-6.4-8.99-6.57-14.84-.03-3.28-.06-6.57,0-9.85.04-1.62.36-3.17,1.08-4.62,5.22-7.91,12.11-12.98,22.84-12.09-4.55-7.14-11.05-9.42-17.59-11.64Z"/><path class="cls-101" d="m397.95,358.88c4.66,1.25,7.76,4.71,10.89,7.97,4.44,4.63,8.61,9.53,12.85,14.35,5.19,5.89,11.22,10.58,18.32,14.05,8.55,4.19,14.01,11.85,19.7,19.03,3.89,4.9-1.88,7.31-3.88,10.63-2.84-.74-2.38,3.53-4.92,3.24-1.72,2.67-3.65,5.08-7.03,5.71-2.67,1.65-5.35,3.29-8.02,4.94-2.05,1.85-4.44,1.9-6.94,1.31-1.67.33-3.33.67-5,1-3.38,2.38-7.62,2.75-11.16,4.76-4.58,1.7-9.2,1.24-13.83.24-2.53,1.08-4.8.31-7-1-2-.35-3.75-2.17-6-1-7.82,1.1-15.43-.1-22.99-2-7.89-2.25-15.98-.69-23.95-1.29-2.76.65-5.48.92-8.03-.71-1.67-.31-3.34-.63-5.02-.94-1.84.88-3.79,1.43-5.8.99-5.68-1.25-11.37-2.45-17.03-3.8-1.32-.31-2.5-.93-3.15-2.23-.56-.1-1.12-.19-1.68-.29-3.23-.46-6.61-.39-9.3-2.72-.34,0-.67,0-1.01,0-3.39.17-6.21-1.34-8.98-3-.96-.46-1.68-1.51-2.95-1.18-8.01-.56-15.8-2.52-23.67-3.93-.48-.26-.94-.55-1.37-.89-3.86.42-7.04-2.92-11-2-1.84.55-3.45.15-4.84-1.17.31-.67.62-1.34.93-2,.87-.79,1.9-.96,3.02-.82,19.77,2.99,39.24,7.13,58.27,13.52,13.59,4.56,27.74,6.55,42.18,7.19,10.76.48,21.56.91,32.33,2.17,10.23,1.2,20.51,1.97,30.69,3.7,3.89.66,7.57-.72,11.2-1.99,2.2-.77,4.22-2.36,6.49-2.54,12.59-1.01,22.39-7.68,31.99-15.03,5.05-3.87,5.12-5.35,1.25-10.33-6.34-8.19-14.14-14.17-23.14-19.31-8.55-4.88-14.4-13.24-20.79-20.69-2.94-3.43-5.78-6.86-9.75-9.19-1.44-.85-2.64-2.09-2.34-4.06.15-.22.29-.44.44-.67Z"/><path class="cls-102" d="m60.06,269.03c-1.01-.01-2.02-.03-3.04-.04-1.22.74-2.02.57-2.13-1.01,3.07-3.25,6.95-2.27,10.65-1.91,4.52.44,9.04,1.43,13.5-.22.14-.42.31-.82.47-1.23.33-.62.82-1.02,1.52-1.14,1.05-.02,1.8.52,2.71,1.72-1.04-1.73-2.42-2.72-2.41-4.44-10.92-15.33-23.02-29.25-41.49-35.92-1.61-.58-3.16-.61-4.72-.95-3.2-2.22-6.7-.38-10.04-.72-1.67-1.12-1.4-2.17.12-3.16,1.58-1.24,3.45-.04,5.11-.61.47-.03.94,0,1.41.07,12.98,2.22,24.15,7.88,33.4,17.32,6.03,6.15,12.65,11.74,17.53,18.94,2.22,3.27,4.4,6.56,5.88,10.26.25.61.96-.32.41.06-.16.11-.27,0-.39-.31-.93-2.42-1.2-4.8.47-7.04.75-.34,1.48-.31,2.19.1.72.77.93,1.74,1.03,2.73.38,2.26-.62,4.61.41,6.83.94.37,1.89.69,2.66,1.36,3.11,2.1,6.96-.53,10.07,1.57,14.14,5.61,21.69,16.59,25.16,30.89-.35.74-.78,1.32-1.73.91-3.4-6.69-6.21-13.69-11.15-19.53-5.68-6.71-12.57-10.35-21.55-9.34-.87.05-1.62.47-2.41.75-2.55.85-4.88,2.37-7.66,2.55-.75-.19-1.22-.63-1.29-1.44.6-1.59,1.53-2.64,3.2-2.41-.61-.66-1.9-.04-2.86-.59-6.2-3.34-12.89-2.04-19.45-2.05-1.96-.4-3.59-1.73-5.6-2.02Z"/><path class="cls-105" d="m48.24,382.95c1.77-4.1,4.43-7.71,7.87-10.34,4.78-3.65,7.96-8.59,11.91-12.89,3.65-3.96,8-7.29,12.03-10.89,1.43.06.82-1.16,1.14-1.8,1.79-.12,2.19,1.28,2.76,2.51.57,3.46,1.01,6.9-1.13,10.05q-2.48-.34-3.18-4.43c-2.89.88-3.83,2.41-2.7,5.41,1.67,4.45,3.32,8.88,5.8,12.96-.04,6-.53,11.9-4,17.09-1.24,1.21-2.05.78-3.25-.39-4.16-4.07-6.07-9.21-7.52-14.62-.17-.64-.32-1.29-.5-1.92-1.66-5.83-1.92-5.87-6.27-1.67-3.23,3.12-6.06,6.57-8.86,10.07-.95,1.19-2.13,3.55-4.1.86Z"/><path class="cls-94" d="m91.92,247.75c-.19-10.8-1.43-21.52-3.1-32.17-.47-3-2.33-5.79-4.83-7.94-1.31-1.12-3.1-1.91-3.56-3.89,12.87-2.38,30.05,8.67,30.83,31.43,6.17-3.55,12.29-6.78,19.51-6.18,7.91.65,14.08,4.34,18.52,10.82,1.54,2.24,1.4,4.15-2.06,4.14-1.82,0-3.65-.01-5.18,1.21-4.66-1.34-8.64,1.56-12.99,2.12-1.44,2.18-4,1.84-6.04,2.68,0,0,.02-.01.02-.01-1.33.34-2.66.69-3.99,1.03-1.07.75-1.86.59-2.27-.72.75-2.37,2.95-2.99,4.87-3.81,6.56-2.83,13.38-4.68,20.54-5.14,1.79-.12,1.78-.22,2.02-1.83-8.4-8.4-16.86-9.38-27.34-3.68-3.86,2.1-6.75,5.92-11.44,6.52-1.93-1.6-.41-2.89.47-4.14,1-1.42,2.71-2.47,2.24-4.6-1-12.8-7.28-21.73-20.15-26.74,2.15,2.04,3.24,3.89,3.64,6.09,2.66,11.35,5.03,22.73,2.87,34.47-.33,1.8.32,4.19-2.51,4.67-.73-1.44-.46-2.88-.06-4.33Z"/><path class="cls-89" d="m94.06,417.11c-4.01-2.1-8.34-.75-12.52-1.14-2.13-.2-4.29-.12-6.43-.17.1-1.87,1.63-1.99,2.87-2.05,4.95-.22,9.82-1.33,14.86-.58,8.58,1.27,17.15,1.69,25.27-2.49,1.31-.67,3.28-1.44,3.93,1.15-1.9,1.07-3.82,2.1-4.92,4.12-2.19,1.7-4.62,1.49-7.1.87-.65.11-1.31.22-1.96.33-3.56,1.77-7.22,1.58-10.93.61-.77-1.41-1.99-.69-3.06-.65Z"/><path class="cls-120" d="m82.53,279.41c-6.39,4.32-12.63,8.8-16.94,15.4-.52.69-1.04,1.37-1.56,2.06-1.01,1.23-2.02,2.47-3.03,3.7-1.69-2.17-.7-4.29.67-5.88,5.62-6.53,11.49-12.84,18.76-17.61,1.34-.88,2.83-1.83,4.62-1.03.32.35.63.69.95,1.04-.02,2.48-1.81,2.3-3.47,2.32Z"/><path class="cls-117" d="m55.14,268.12c.63.29,1.25.58,1.88.87-6.75,2.83-14.14,4.23-20.04,8.96-.8-.05-1.63-.15-1.96.87-1.27-.24-2.4,2.93-3.78.15.91-1.93,2.02-3.65,4.32-4.12,4.47-2.77,9.11-5.17,14.11-6.82,1.79-.59,3.68-1.73,5.47.09Z"/><path class="cls-48" d="m138.04,189.19c-1.39-.84-1.42-1.64.01-2.5,3.35-2.01,15.7-.51,19.11,2.34-.38,1.05-1.24.99-2.11.91-4.39.66-8.78,1.36-13.02-.72-1.33-.01-2.67-.03-4-.04Z"/><path class="cls-51" d="m166.51,113.67c8.37-1.04,14.79,2.4,16.27,8.82-5.24-3.98-10.66-6.55-16.27-8.82Z"/><path class="cls-64" d="m233.04,188.92c-.94-6.08,1.5-11.18,4.51-16.13.3,5.79-.23,11.38-3.55,16.33-.3-.16-.62-.23-.96-.2Z"/><path class="cls-24" d="m134.97,136.9c-6.42.54-12.37-1.91-18.58-2.87,6.04-1.73,11.88-1.12,17.6,1.24.79.27,1.31.7.98,1.63Z"/><path class="cls-64" d="m280.98,106.99c-1.89-1.52-.69-2.51.59-3.49,2.74-2.12,5.63-4.08,8.14-6.43,1.09-1.02,2.1-1.39,2.89-.53.82.9-.36,1.82-1.05,2.4-3.2,2.63-6.47,5.17-9.71,7.74-.32,0-.61.11-.86.32Z"/><path class="cls-47" d="m226.45,123.19c-3.3-3.72-3.3-9.11-.04-14.6,1,5.12.81,9.64.04,14.6Z"/><path class="cls-52" d="m207.95,147.29c4.68.64,7.2,3.32,9.95,5.57.89.72,1.7,1.83.59,2.93-.88.87-1.86.25-2.56-.5-2.41-2.59-5.88-4.12-7.99-8Z"/><path class="cls-34" d="m306.94,160.93c-1.69.9-3.37,1.81-5.06,2.71,3.04-4.74,7.44-7.57,12.5-9.47.66-.25,1.27.15,1.57.85-3,1.97-6.01,3.94-9.01,5.91Z"/><path class="cls-122" d="m80.9,340.97c1.78-3.14.96-6.65,1.37-9.98,3.71,2,1.19,5.89,2.6,8.58.18,3.32,1.21,6.81-1.94,9.45-.58-.67-1.16-1.34-1.74-2-.1-2.02-.2-4.04-.29-6.05Z"/><path class="cls-58" d="m257.94,135.04c-1.06.31-1.11,2.5-2.57,1.69-.87-.48-.49-1.76-.14-2.72,1.21-3.33,3.1-6.16,5.95-8.42,1.53,1.18.24,2.35.12,3.47-2.13,1.42-2.25,3.97-3.35,5.97Z"/><path class="cls-32" d="m316.97,210.24c-1.08-.15-2.04,1.36-3.54-.05,3.53-2.8,7.65-3.48,11.78-4.1.82-.12.85.08-.24,2.01-2.9-.14-5.31,1.51-8,2.15Z"/><path class="cls-42" d="m123.05,420.11c-1.97-.05-3.73-.59-5.08-2.13,5.43-.92,10.77-.63,16.02,1.09-3.02.02-6.14-.89-8.94,1.03-.67,0-1.33,0-2,0Z"/><path class="cls-32" d="m280.17,227.09c3.24-.99,4.89-4.91,9.53-4.86-3.58,2.89-6.65,5.37-9.72,7.86-1.76-1.12-.51-2.04.19-3Z"/><path class="cls-35" d="m165.57,135.33c3.65-.37,6.35,1.09,9.35,2.98-4.21.61-5.78.1-9.35-2.98Z"/><path class="cls-36" d="m240.66,108.1c.5,4.09.69,8.11-1.3,12.79-.87-4.96-.36-8.94,1.3-12.79Z"/><path class="cls-30" d="m234.47,140.98c1.99,3.92.04,6.66-.11,9.55-2.06-2.99-1.48-5.91.11-9.55Z"/><path class="cls-65" d="m180.91,164.07c-.24-1.47-2.23-1.95-2.08-4.16,2.7,1.57,5.95,2.13,5.22,6.28-1.74.33-2.03-1.51-3.14-2.11Z"/><path class="cls-33" d="m272.04,141.06c-.91.3-1.08,1.7-2.7,1.48.66-2.53,1.9-4.5,3.92-6.08,1.43,1.47-.02,2.45-.31,3.58-.3.34-.61.68-.91,1.02Z"/><path class="cls-29" d="m214.24,127.53c-2.23-1.82-3.29-4.06-4.26-7.82,2.53,3.06,4.33,5,4.26,7.82Z"/><path class="cls-28" d="m238,209.08c-1.27-.86-1.2-2.18-1.12-3.46.05-.88-.15-2.28,1.21-2.06,1.02.16.81,1.58,1.06,2.47-.21,1.08.04,2.34-1.15,3.05Z"/><path class="cls-66" d="m134.97,136.9c-.33-.54-.65-1.09-.98-1.63,2.12-.08,4.04.45,6.3,1.78-2.25,1.53-3.78.62-5.32-.15Z"/><path class="cls-38" d="m231.17,225.02c-.4.73-.63,2.4-1.77,1.05-.9-1.06-1.21-3.28-.02-4.03,1.51-.95,1.45,1.03,1.81,1.97,0,.33-.01.67-.02,1Z"/><path class="cls-119" d="m122.03,411.83c-1.91-1.82-3.46-.2-4.87.71-5.68,3.66-12.17,3.08-18.2,2.63-8.04-.6-15.94-1.25-23.85.63-12.87-5.56-21.79-15.07-27.32-27.79-.59-1.36.27-3.36.45-5.06,1.63,1.04,2.22-.03,3.02-1.27,3.08-4.75,7.36-8.46,11.11-12.64,3.29-3.66,4.4-2.36,5.49,1.49,1.11,3.96,1.98,8,3.75,11.79.94,2.02.66,4.54,3.96,4.8,1.89.15-.74,3.9,2.35,3.82.53,2.28-.45,4.44-.51,6.67-4.05,2.83-5.8-.72-7.45-3.08-2.39-3.42-3.38-7.56-4.52-11.57-.58-2.03-.51-5.14-2.57-5.61-2.43-.56-3.54,2.51-5.12,4.13-2.64,2.7-2.47,5.62-.58,8.64,4.11,6.58,9.64,11.86,15.59,16.71,2.01,1.63,4.6,1.8,7.13,1.84,7.14.1,14.32-.44,21.39,1.17,1.63.37,3.32-.02,4.96-.33,7.03-1.35,13.64-4.15,20.64-5.73,6.72-1.52,10-7.93,14.37-12.64,1.46-1.58,2.59-3.47,4.31-4.82.15-.26,0-.34-.47-.22-5.43,1.34-8.59.39-9.83-2.94-1.33-3.57.4-7.25,4.73-9.91,6.25-3.85,13.39-4.87,20.4-6.23,1.63-.32,3.39-.23,4.65-1.5,6.54-6.64,14.72-11.45,20.77-18.65,3.27-3.9,5.21-8.51,7.26-13.04,5.43-12,11.44-23.6,18.89-34.54,4.91-7.19,7.21-15.68,7.72-24.45.24-4.15-.01-8.31.66-12.45.25-1.51-.12-3.24-1.6-3.92-1.95-.9-2.5,1.13-3.28,2.24-3.11,4.39-3.52,9.6-4.28,14.7-.82,5.55-4.92,9.92-9.56,9.95-2.78.01-5.73-.33-4.27-4.55.46-.63,1.05-1.12,1.73-1.48,2.61-.87,5.27-2.1,5.29-5.16.08-10.6,5.94-18.54,11.7-26.57,2.64-.91,4.79-.15,6.57,1.91,9.96,20.41,3.79,39.01-7.2,56.56-6.46,10.32-11.9,21.1-16.92,32.1-2.81,6.15-5.95,11.82-10.89,16.43-1.82,2.34-3.98,4.33-6.33,6.12-3.2,2.64-6.48,5.16-9.34,8.22-3,3.2-6.44,5.08-11.3,5.26-5.89.23-11.89,1.47-17.86,5.6,5.69-1.93,10.16-4.4,15.15-5.26,1.8-.31,3.8-1.18,5.07.6,1.38,1.93-.53,3.35-1.48,4.81-.9,1.4-1.84,2.85-3.16,3.84-8.7,6.55-14.44,15.92-22.33,23.24-4.67,1.61-9.34,3.22-14.01,4.82Z"/><path class="cls-41" d="m252.99,249.84c-.66-1.28-1.87-1.6-3.12-2.05-1.23-.44-2.5-1.26-.88-2.78,4.23.18,8.21-.43,11.31-3.72,3.37-1.28,6.76-2.46,10.46-1.77,1.95,1.31,4.15,1.8,6.42,2.35,4.88,1.2,8.69,4.09,11.13,8.59-.82,1.11-2.4,1.83-1.02,3.78,1.1,1.55,2.11,3.44,1.08,5.56.03,1.02-1.7-.59-1.16.65.66,1.52,1,3.1,1.54,4.64.24.83.34,1.68.38,2.54.19.5-.31,1.24.46,1.51.62.22-.36.04.16-.41.24-1.75-.42-4.16,1.78-4.68,2.01-.47,2.94,1.71,4.1,3.06,1.63,2.24,3.97,3.91,5.3,6.39,1.18,2.23,1.96,4.51.61,6.97-.16,4.95,5.26,6.66,6.13,11.01.24.56.79.19.63-.04-1.34-1.98-.92-2.96,1.64-2.42,3.87,1.27,4.99,4.39,5.4,8-1,2.42.25,4.39,1.25,6.43,1.04,2.12,2.28,1.02,3.5.24,3.15.88,2.88,4.6,5.18,6.2.12.49.07.96-.11,1.42-3.72,3.37-6.83,1.04-9.58-1.35-2.62-2.27-4.79-5.16-6.36-8.22-3.1-6.06-8.02-9.99-13.77-13.16-4.24-2.34-7.99-5.31-11.21-8.94-2.97-3.81-5.76-7.73-7.44-12.31-2.35-6.41-6.8-11.29-11.53-15.98-.59-1.77-1.04-3.72-3.62-2.01-1.09.72-2.27,1.34-3.58,1.64-1.84.24-3.69.55-5.07-1.16Z"/><path class="cls-100" d="m252.99,249.84c2.02-.02,4.03-.03,6.05-.05,2.53-.74,5.03-1.36,6.9,1.33,4.22,3.15,7.87,6.76,9.91,11.78,2.33,5.75,5.44,11.08,9.05,16.12-3.7-.41-7.53-.53-9.76-4.3-.79-2.2-1.34-4.47-1.94-6.72-1.76-6.58-6.14-10.62-11.1-10.36-8.34.43-12.2,3.83-13.43,11.88-.51,3.31-.52,6.67-.26,9.97.92,11.6-3.67,21.52-9.43,30.99-2.72,4.46-4.23,8.95-3.79,14.14.71,8.36-.05,16.67-1.83,24.82-4.01,18.25-3.14,36.34,1.11,54.39.59,2.49,1.83,4.6,3.1,6.76,1.13,1.93,2.92,3.82,1.41,6.38-.96,0-1.92-.02-2.89-.02,0-2.34-1.5-4.09-2.78-5.69-4.28-5.38-6.72-11.31-6.44-18.25-.54-4.36-.59-8.71.03-13.06.18-5.3.26-10.57-.7-15.85-1-5.52.65-10.96,2.15-16.1,1.75-6.03,2.11-11.93,1.48-18.03-1.05-5.84-2.16-11.68,1.95-16.92,1.5-4.53,4.99-7.86,7.25-11.92,2.87-4.63,2.2-10.15,3.79-15.1,0-3,0-6,0-9-2.06-3.66-1.65-7.31,0-10.97.08-.33.16-.67.24-1-.64-2.65.5-4.85,1.76-7.02,2.16-3.28,2.99-7.9,8.17-8.17Z"/><path class="cls-41" d="m211.97,326.98c-1.73-.46-1.8-3.09-3.95-3-.72-3.52,1.67-5.91,3.22-8.54,3.8-6.41,8.12-12.52,11.47-19.19,1.87-3.71,3.01-7.72,3.5-11.88.61-3.72.79-7.46.79-11.22.13-1.94-.33-3.93.5-5.8.38-.54.86-.66,1.45-.37,5.06,2.31,4.84,7.72,6.25,11.81,1.74,5.07,2.23,10.61.78,16.21-1,3.84-4.64,5.4-6.08,8.68-.04.09-1.04-.01-1.29-.3-1.3-1.45-.12-2.7.55-4.05-2.23-.69-3.96-.03-4.01,2.25-.09,4.6-3.42,6.82-6.27,9.44-.74.68-1.76,1.14-1.45,2.33.28,1.09,1.27,1.34,2.28,1.61,2.79.74,6.07,7.23,5.05,9.88-.26.68-.78,1.06-1.54.91-1.29-.27-1.66-1.75-1.39-2.31,2.72-5.63-2.38-4.32-4.7-5.46-3.47,1.99-2.08,6.78-5.16,9Z"/><path class="cls-97" d="m227.16,285.15c-.06,5.5-2.37,10.27-4.96,14.9-4.52,8.09-10.39,15.39-14.18,23.92,0,0,0,.01,0,.01-.22,2.31-.48,4.6-2.71,5.99-2.12,4-3.82,8.18-5.44,12.42-1.38,3.6-4.56,5.93-7.21,8.59-1.39,1.4-2.83,2.75-4.24,4.13-.51.32-.98.27-1.41-.15.33-3.36,3.64-4.56,5.16-7.12,4.18-7.02,7.06-14.65,10.68-21.93,4-8.02,7.87-16.08,13.69-23.01,1.05-1.25,1.98-2.71,2.57-4.23,4.85-12.48,8.2-25.23,6.94-38.82-.15-1.59-.58-2.86-1.67-4.01-1.54-1.61-2.51-3.51-2.37-5.84.36-.47.51-1.11,1.17-1.31.99-.06,1.34.73,1.81,1.36.32.33.64.65.96.98,1.63,1.26,2.74,2.79,2.57,4.97-.24,3.69.35,7.4-.36,11.07-.1,1.97-.21,3.93-.31,5.9-.97,4.02.23,8.16-.69,12.18Z"/><path class="cls-98" d="m136.05,407.01c-.63-.23-2.04-.09-.58-1.28,4.94-4,8.48-9.24,12.47-14.09,3.89-4.72,9.89-7.35,12.92-12.95.57-1.06,2.6-1.75,1.4-3.21-.94-1.13-2.44-.19-3.72.13-3.85.96-7.62,2-11.17,3.95-1.87,1.03-4.15,2.17-6.87.81,2.21-3.16,5.64-4.26,8.79-5.26,3.73-1.18,7.76-2.13,11.63-2.02,4.81.14,7.73-2.52,10.6-5.42,2.9-2.94,5.72-5.91,9.5-7.73.62.64.56,1.28-.03,1.9-6.61,7.66-12.82,15.73-19.95,22.88-6.54,6.56-13.74,12.45-19.79,19.53-1.27,1.49-3.12,2.49-5.2,2.74Z"/><path class="cls-103" d="m270.99,240.05c-3.67.71-7.33,1.42-11,2.13-3.31,2.34-6.27-.13-9.37-.69-6.2,1.27-12.45.01-18.67.44-.64-.03-1.28-.06-1.92-.09.18-3.63,3.4-1.61,4.96-2.67,9.29-2.72,18.62.53,27.91-.2,2.94-.23,5.89-2.42,8.75.23.59.9.09.98-.66.85Z"/><path class="cls-106" d="m234.99,239.18c-1.35,1.46-4.12.26-4.96,2.67-.34.15-.68.3-1.03.46-1.84,2.29-4.62,3.72-5.9,6.51-.37.4-.74.79-1.11,1.19-1.75-1.43-3.78-1.99-6-2-.9-.89-.51-1.96-.43-2.99.09-1.04-.23-2.07-.12-3.11.24-1.4,1.55-1.24,2.45-1.68,3.37-.46,6.73-.92,10.1-1.38,2.33.11,4.66.22,6.99.33Z"/><path class="cls-67" d="m179.45,386.72c-.82,2.54-3.09,3.94-3.13,7.01-.04,2.74-3.41.3-5.03,1.98-2.84,2.95-6.21,5.42-9.5,7.92-3.82,2.9-7.78,5.62-12.04,7.94,9.28-9.03,20.64-15.53,29.7-24.85Z"/><path class="cls-41" d="m233.09,256.9c.29-.81-.52-3.36.71-2.93,2.96,1.04,5.63-2.92,8.33-.1,1.14,1.19.97,3.26-.2,3.35-4.01.31-2.73,6.97-6.96,5.8-1.87-.52-2.21-3.52-1.89-6.12Z"/><path class="cls-41" d="m218.92,331.2c-.45,1.88-1.39,3.86-1.1,6.22.23,1.93-1.19,3.74-2.89,4.95-1.31.93-2.51.46-3.55-.59-.84-.84-1.97-2.27-.97-2.94,3.24-2.2,2.41-8.28,8.51-7.64Z"/><path class="cls-43" d="m251.11,241.18c2.96.33,5.92.67,8.88,1-1.34,3.42-8.03,5.14-11,2.82.02-1.39,3.32-.76,1.88-3.05-.25-.26-.3-.47-.14-.61.12-.11.25-.16.38-.16Z"/><path class="cls-41" d="m231.79,313.02c-2.58,5.42-1.77,11.23-1.95,16.92-2.36-.93-3.79-2.69-2.45-5,.97-1.66.61-2.62.3-4.3-.59-3.2.76-6.15,4.11-7.63Z"/><path class="cls-55" d="m211.77,373.88c-3.05-6.67-1.76-12.63,3.26-18.45-.83,6.54-3.11,12.33-3.26,18.45Z"/><path class="cls-41" d="m242.83,285.99c.34,5.44.56,10.84-3.79,15.1-.84-4.35,2.93-8.24,1.17-12.81-.47-1.23,1.16-2.16,2.62-2.3Z"/><path class="cls-41" d="m242.83,266.03c0,3.66,0,7.31,0,10.97-2.3-.23-2.94-1.76-2.81-3.76.13-1.95-.43-3.5-2.37-4.58,1.82-.92,3.5-1.77,5.18-2.62Z"/><path class="cls-41" d="m227.98,255.02c-.68-1.33-1.35-2.66-2.03-3.98,1.79-.79,3.73-3.58,5.46-1.19,1.64,2.26-.23,4.56-2.3,6.16-.64-.03-.77-.64-1.13-.99Z"/><path class="cls-57" d="m200.7,378.08c3.55-4.16,3.08-10.27,6.71-14.4-2.3,4.77-1.75,10.91-6.71,14.4Z"/><path class="cls-41" d="m246,242.14c-.38,3.98-3.5,2.16-5.53,2.61-2.31.51-3.28-.68-3.47-2.81,3.01-.52,6.02-.92,9,.21Z"/><path class="cls-49" d="m166.7,419.42c3.68-2.47,7.85-3.56,12.14-4.31-3.68,2.47-7.71,3.96-12.14,4.31Z"/><path class="cls-41" d="m223.11,248.82c-1.09-4.94,3.61-4.63,5.9-6.51.08,3.32-4.44,4.25-4.02,7.75-.62-.41-1.25-.82-1.87-1.24Z"/><path class="cls-23" d="m203.71,364.24c.72-4.41,2.03-8.49,7.24-12.03-2.68,4.96-5.67,8.1-7.24,12.03Z"/><path class="cls-41" d="m241.88,280.32c-.08,1.57-.88,2.48-2.41,2.52-1.05.03-1.99-.55-2.08-1.64-.13-1.53,1.02-2.45,2.26-2.79,1.36-.37,1.99.7,2.23,1.91Z"/><path class="cls-70" d="m246,242.14c-3-.07-6-.14-9-.2-1.68,0-3.37,0-5.05,0,6.32-1.99,12.77-.52,19.16-.76-.07.26-.15.52-.24.77-1.63.06-3.25.12-4.88.19Z"/><path class="cls-49" d="m211.97,326.98c.89-2.41,1.72-4.86,2.71-7.23.41-.99.47-2.81,2.45-1.77-2.01,3.66-2.63,8.01-5.35,11.55-.84-1.22.13-1.8.18-2.56Z"/><path class="cls-41" d="m244.83,258.01c-.06,2.47-.5,4.85-1.76,7.02-3.77-3.43-.6-5.13,1.76-7.02Z"/><path class="cls-59" d="m198.4,369.24c.42,4.06-2.02,6.72-2.99,10.37-1.11-4.29.58-7.19,2.99-10.37Z"/><path class="cls-22" d="m174.21,384.86c1.74-2.48,2.31-6.22,7.63-6.84-3.23,2.9-5.43,4.87-7.63,6.84Z"/><path class="cls-21" d="m200.96,407.18c-2.94-2.76-1.47-5.19,0-8.89v8.89Z"/><path class="cls-95" d="m180.99,361.86c0-.63.02-1.27.03-1.9,2-1.67,3.99-3.33,5.99-5,.47.05.94.1,1.4.15-1.93,2.85-4.97,4.47-7.42,6.75Z"/><path class="cls-41" d="m205.3,329.98c.64-2.12,1.29-4.23,2.71-5.99,1.36,3.02,2.03,5.73-2.71,5.99Z"/><path class="cls-50" d="m177.95,374.04c-1.63,2.16-3.25,4.31-4.88,6.47-.3-3.45,2.08-5.12,4.03-7.06.28.19.56.39.85.58Z"/><path class="cls-75" d="m226.9,379.93c-.01,4.35-.02,8.71-.03,13.06-1.43-4.36-1.42-8.71.03-13.06Z"/><path class="cls-20" d="m133.56,414.69c-2.84.33-4.91.56-8.02.92,2.98-2.57,5.16-2.85,8.02-.92Z"/><path class="cls-81" d="m227.98,255.02c.38.33.75.66,1.13.99-.05,3.66-.1,7.32-.15,10.98-.27.02-.54.05-.8.09-.06-4.02-.12-8.04-.18-12.06Z"/><path class="cls-46" d="m204.29,419.14c-3.34,1.59-6.86.56-10.3.66,3.34-1.64,6.84-.76,10.3-.66Z"/><path class="cls-107" d="m124.14,258.92c10.79,2.65,16.58,10.32,15.77,21.76-.43,6.02-1.43,12.08-4.98,17.3-1.14,1.79-1.95,1.36-2.57-.38.83-4.71,3.48-8.85,4-13.74.71-6.83-.17-12.96-5.73-17.53-5.93-4.87-12.53-6.13-19.98-3.66-4.29,1.42-7.6,4.68-12.03,5.68-.55-.1-.89-.42-1.03-.96,0-2.99,2.39-3.53,4.48-4.38,3.57-1.47,6.64-4.24,10.81-4.19,3.76-.41,7.52-.6,11.28.1Z"/><path class="cls-93" d="m102.01,332.85c4.81-5.23,11.19-8.5,16.38-13.35,6.1-5.7,13.07-10.48,19.45-15.91,1.86-1.58,4.05-2.01,6.07-2.88,4.32-1.87,8.46-3.98,12.28-6.71,1.01-.16,1.23.5,1.33,1.28-1.64,4.71-6.33,5.86-10,7.48-9.47,4.17-16.92,10.9-24.52,17.51-5.39,4.68-11.26,8.69-16.97,12.94-1.19.88-2.43,1.85-4.06.96-.31-.45-.3-.88.04-1.31Z"/><path class="cls-124" d="m94.06,273.94c.84-.98,1.52-.87,2.06.29.15,18.41-2.57,36.7-2.14,55.12.07,2.9-1.05,5.83.97,8.48-.27,2.74-1.48,3.22-3.61,1.51-1.45-9.88-1.11-19.83-.59-29.71.57-10.74,1.63-21.45,1.93-32.21,0-1.35.55-2.47,1.37-3.49Z"/><path class="cls-104" d="m157.04,295.05c-.28-.35-.57-.7-.85-1.04,7.12-7,16.07-11.6,23.63-18.05,3.82-3.27,7-7.01,9.59-11.17,2.6-4.17,5.71-7.9,8.64-11.79.95-.27,1.28.31,1.47,1.07-.8,3.32-2.75,6.04-4.65,8.78-8.11,14.12-21.64,22.39-34.25,31.64-1.04.76-2.19,1.62-3.57.55Z"/><path class="cls-90" d="m92.2,340.03c.92-.73,1.84-1.46,2.76-2.19,1.75-2.51,4.23-3.99,7.05-4.98.02.38.04.76.05,1.15.46,2.5-1.63,3.39-3.02,4.67-4.83,4.45-5.14,10-.76,15,.8.91,1.84,2.07.87,3-5.63,5.36-1.86,11.75-2.16,17.68-.13,2.53,1.81,5.77-2.36,6.95-2.15-1.22-1.83-3.36-2.01-5.32-.03-3.75.51-7.53-.62-11.23-.56-5.92-1.82-11.78-1.36-17.78.05-2.42-.51-4.98,1.56-6.94Z"/><path class="cls-114" d="m98.01,266.91c.02.36.03.72.05,1.08.07,2.27-.98,2.92-3.05,2.11-.95-.36-1.9-.72-2.84-1.09-.65-1.45.1-2.69.95-3.58,6.41-6.77,13.97-11.92,22.5-15.65.44-.19.97.01,1.41.25.43.81,1.23.86,2,.96-6.04,3.56-12.33,6.73-17.82,11.17-.43,2.01-3.64,2.14-3.2,4.74Z"/><path class="cls-131" d="m199.03,253.72c-.33-.24-.66-.48-.99-.72.53-1.01,1.22-1.97,1.57-3.04,3.01-9.09,9.89-10.83,18.29-9.73-.67.58-1.35,1.17-2.02,1.75-.82.97-1.97,1.23-3.13,1.27-5.04.16-8.29,2.63-10.2,7.3-.57,1.39-.93,3.72-3.52,3.17Z"/><path class="cls-127" d="m132.93,298.07c.72,1.11,1.33-.12,1.99-.1-.27,2.55-2.48,4.08-3.34,6.33-.31.81-.6,2.08-1.95,1.37-.99-.52-1.01-1.56-.81-2.56.4-.39.8-.77,1.19-1.16.48-.44.44-1.09.65-1.64.61-.9.46-2.56,2.27-2.24Z"/><path class="cls-108" d="m31.06,215.03c9.48-6.4,19.27-4.62,29-.9,15.56,5.94,22.78,19,28.17,33.54.34,1.06.51,2.07-.85,2.58-2.98-1.11-3.06-4.13-4.15-6.43-5.29-11.19-11.88-21.11-23.84-26.34-7.8-3.41-15.62-4.28-23.77-1.66-1.4.45-2.79,1.19-4.34.53-.48-.37-.56-.81-.23-1.32Z"/><path class="cls-118" d="m87.29,250.04c.32-.79.64-1.58.95-2.37,1.13.74.48,2.97,2.03,3.02,1.8.06.55-2.23,1.65-2.94.09,1.42.17,2.85.26,4.27,1.63,2.65,1.83,5.07-1.13,6.98-.6.02-1.19.04-1.79.06-1.5-.91-1.47-2.61-2.07-3.98-.25-1.68-1.59-3.4.1-5.04Z"/><path class="cls-113" d="m31.06,215.03c0,.49.02.99.03,1.48.15,1.38-1.23,2.33-1.02,3.73-1.7,1.6-3.24-.27-4.86-.22,1.46-2.24,2.99-4.4,5.86-4.99Z"/><path class="cls-125" d="m429.74,316.75c-.59,3.76-1.18,7.53-1.77,11.29-.86,1.7-.28,3.8-1.49,5.4-.69,1.07-1.36,2.17-2.92,1.92-2.43-2.02-.73-4.68-.81-6.93-.59-16.96-8.51-28.52-24.24-34.73-1.08-.43-2.23-.73-2.89-1.82,7.63-5.77,22.27-3.68,28.19,4.32,2.6,3.52,5.45,7.17,5.14,12.04-2.43-.11-2.57-2.24-3.24-3.8-.95-2.25-1.76-4.55-3.71-5.58,4.61,4.8,5.49,11.66,7.74,17.9Z"/><path class="cls-14" d="m363.81,260.8c5.58-.94,9.65,2.21,13.61,5.29,5.25,4.09,8.4,9.72,10.6,15.91.5,1.11.83,2.32-.38,3.1-1.25.81-2.21-.11-2.98-.99-2.82-3.25-5.35-6.74-9.01-9.22-10.62-7.19-21.6-8.82-33.23-2.53-.84.45-1.97,1.79-2.52-.35,2.78-4.98,6.88-8.36,12.31-10.13,3.96.61,7.89.91,11.6-1.07Z"/><path class="cls-6" d="m363.93,323.85c-4.27-5.71-5.7-12.25-5.16-19.18.53-6.86,4.12-12.19,10.54-14.47,6.3-2.24,12.99-3.08,18.45,2.61-1.66,1.17-3.66,1.42-5.54,1.96-12,3.44-18.68,12.97-17.68,25.33.11,1.32.55,2.65-.6,3.74Z"/><path class="cls-6" d="m393.72,284.9c4.65-10.72,11.58-18.9,23.07-23.02,7.89-2.84,14.54-1.06,21.11,3.12-.3,2.75-2.6,2.1-4.19,2.26-14.55,1.49-27.4,6.5-37.38,17.64-.77.86-.83.81-2.61,0Z"/><path class="cls-69" d="m395.62,291.88c11.9,1.48,18.92,9.11,24.22,19.04,3.88,7.29,5.2,14.86,3.36,22.96-.07.32.48.79.74,1.19.27,2.29-.48,3.8-3.02,3.93.74-8.21-.4-15.94-3.82-23.64-4.42-9.94-11.6-16.36-21.4-20.34-.96-.39-2.57-.38-2.15-2.06.21-.83,1.19-1.08,2.07-1.08Z"/><path class="cls-9" d="m339.9,272c3.24-1.32,6.38-2.98,9.73-3.9,11.64-3.18,25.28,1.78,32.7,11.56,1,1.32,2.15,2.53,3.3,3.73,2.64,2.75,2.1-.06,2.4-1.4,1.27,1.62,1.78,3.53,1.87,5.53.04.9.53,2.28-.65,2.57-.76.18-1.99-.41-2.6-1.05-1.25-1.31-2.33-2.8-3.28-4.35-8.45-13.73-28.36-17.15-41.42-10.74-1.08.53-2.43,1.86-3.46.25-.68-1.05.59-1.68,1.42-2.2Z"/><path class="cls-12" d="m363.93,323.85c-3.1-17.48,6.61-30.13,23.82-31.04-6.04,4.76-12.57,8.95-16.81,15.69-2.85,4.53-5.45,9.03-5.1,14.65.13,2.06-.08,3.74-1.91.7Z"/><path class="cls-11" d="m393.72,284.9c.29.14.79.46.83.4,10.94-13.31,25.49-18.72,42.22-19.43.39-.02.75-.57,1.13-.87q2.52,1.38,5.61,5.97c-20.87-3.86-37.04,4.38-51.3,19.07.24-2.25.33-3.84,1.51-5.14Z"/><path class="cls-3" d="m399.12,267.08c1.85,6.05-3.73,8.42-5.98,13.73-1.78-5.39-.61-10.09-3.16-13.9-2.63-2.86-2.37-6.89-4.12-10.2-1.21-2.29.83-2.06,2.27-.92l.79.93c2.82,2.41,4.89,5.39,5.88,8.92.84,2.97,2.38,2.49,4.32,1.44Z"/><path class="cls-82" d="m388.14,296.15c3.36-2.62,5.45.38,7.9,1.78,1.16,1.79,1.44,3.53-.27,5.16-.95.18-2.33-1.42-2.66,1.21-.56,4.51-.22,8.97-.06,13.45.11,3.16.17,6.33.22,9.5-.05,1.86.14,3.75-.87,5.45-.39.47-.88.63-1.47.48-.43-.37-.74-.83-.93-1.36-.73-11.88-2.79-23.7-1.85-35.67Z"/><path class="cls-128" d="m388.14,296.15c.66,11.99,2.77,23.87,2.58,35.92-.49.89-.28,3.12-2.24,1.16-.24-4.16.37-8.34-.34-12.48-1.76-7.86-.29-16.02-2.17-23.87.5-.9,1.28-.96,2.17-.73Z"/><path class="cls-83" d="m429.74,316.75c-2.99-1.56-2.59-4.83-3.48-7.34-1.72-4.85-3.83-9.36-7.71-13,3.69.18,5.6,2.41,7.13,5.2,1.18,2.16,1.45,4.78,3.28,6.63.1,2.86,1.73,5.57.79,8.52Z"/><path class="cls-115" d="m399.12,267.08c-.42,2.08-2.17,2.61-4.02,3.45-.84-5.23-4.05-9.26-6.19-13.8,5.22,1.66,8.45,5.27,10.21,10.35Z"/><path class="cls-130" d="m395.12,303.01c1.32-1.51.2-3.47.92-5.09.35.05.69.1,1.04.15,1.62,2.97,1.74,5.94.01,8.91-.01,2.67-.02,5.33-.03,8,1.12,1.43,1.14,3.05.81,4.73-1.05,2.56-.1,5.49-1.49,7.99-.43.49-.94.62-1.56.42-.43-.44-.74-.95-.94-1.53-.83-6.53-.36-13.09-.35-19.63,0-1.47.23-2.97,1.59-3.95Z"/><path class="cls-116" d="m388.12,255.8c-1.07-.14-2.69-.88-1.4,1.4,1.7,3.03,3.03,6.19,3.25,9.72-.1,1.4.44,2.92-.84,4.08-.65-4.36-2.17-8.47-3.67-12.58-.48-1.3-2.53-2.6-1.14-3.87,1.26-1.14,3.36-1.08,4.96.25-.39.33-.78.67-1.16,1Z"/><path class="cls-84" d="m363.81,260.8c1.48.81,1.72,1.9-.15,2.04-3.61.28-7.21.3-10.79,1.04-1.75.36-.9-1.15-.66-2,3.75-1.68,7.75-.57,11.61-1.07Z"/><path class="cls-71" d="m419.95,343.12c-3.56-.09-1.31-2.76-1.85-4.18.94.02,1.88.04,2.82.07,1.98-.56,2.02-2.62,3.02-3.93,1.02-.36,1.6-1.13,1.97-2.1.9-.24,1.37-.03,1.05,1.01-1.34,3.81-5.13,5.74-7,9.15Z"/><path class="cls-123" d="m426.96,333.97c-.35-.34-.7-.67-1.05-1.01.41-1.76.84-3.5,2.05-4.92.31.65.62,1.3.93,1.95-.15,1.57-.84,2.87-1.93,3.98Z"/><path class="cls-110" d="m352.92,328.07c5.11,5.34,10.09,10.81,15.78,15.56,2.28,1.9,4.98,3.15,7.77,3.74,4.52.97,7.68,4.05,11.33,6.38.63-.21,1.15-.06,1.58.44,1.57,3.06.64,6.37.94,9.56.23,11.19-2.2,21.9-5.83,32.4-.49,1.4-1.01,2.8-2.21,3.79-2.8.09-2.46-2.19-2.61-3.79-.32-3.49-.89-6.94-1.53-10.38-1.08-5.8-2.04-6.43-7.72-5.42-2.29.41-4.56,1.03-6.92.9-9.77-3.55-15.15,2.83-20.49,9.15-2.25,2.66-4.28,5.52-6.61,8.12-1.07,1.2-2.48,2.71-4.24,1.41-1.51-1.11-.66-2.83.05-4.08,4.49-7.94,10.59-14.46,18.09-19.58,2.53-1.73,5.75-2.04,8.69-1.35,4.69,1.1,9.24.17,13.86-.18,3.11-.24,4-1.79,3.65-4.61-.81-6.44-3.31-12.54-3.76-19.05-.07-1.07-.91-1.73-1.8-2.25-10.07-5.83-17.48-14.77-25.73-22.64-5.74-5.48-11.51-10.49-18.93-13.41-.69-.42-1.17-1-1.32-1.81-.06-.33-.11-.67-.17-1-.12-.85.27-1.28,1.12-1.3,10.95,3.75,18.27,12.56,27.01,19.39Z"/><path class="cls-43" d="m325.91,308.68c-.37.43-.75.87-1.12,1.3-3.77-.26-2.36-4.67-4.81-5.99-4.2-.45-6.16-2.55-5.05-6.89-1.47-2.48-1.7-5.83-4.95-7.07-.54-2.8-3.31-1.4-4.65-2.46-2.49-1.98-3.88-4.88-5.38-7.64,2.88-2.73.46-4.99-.85-7.12-1.08-1.75-2.73-3.14-4.13-4.69-.76-5-3.62-9.12-5.71-13.55-.54-1.14-1.85-1.98-1.3-3.51-3.71-3.36-6.5-8.07-12.44-8.09-2.01,0-4.05-.35-4.54-2.92.22-.28.44-.57.66-.85,7.04-1.44,11.83,1.9,16.38,6.89,4.66,5.11,8.17,10.67,10.79,17.06,2.3,5.6,5.95,10.53,10.32,14.8,2.56,2.5,4.49,5.21,5.11,8.84.38,2.23,1.32,4.22,2.9,6.02,4.05,4.64,6.62,10.16,8.76,15.89Z"/><path class="cls-17" d="m256.37,194.49c-1.8,8.61-3.35,17.13-3.68,25.84-.03.87-.36,1.76-1.34,1.7-.45-.03-1.17-.82-1.21-1.31-.75-9.42,1.36-18.19,6.23-26.23Z"/><path class="cls-45" d="m273.85,222.85c-2.04.88-2.62-.32-1.96-1.82,1.91-4.33,4.43-8.27,8.63-10.89-1.03,4.93-4.72,8.39-6.7,12.74,0,0,.03-.04.03-.04Z"/><path class="cls-129" d="m396.82,320.01c.12,4.66.24,9.31.36,13.97-.79,1.26.98,2.59-.1,3.84.88,3.37-.16,6.85.59,10.22-1.39,3.65-.92,7.25.27,10.84,0,0,.22.17.22.17l-.12.25c-.55.25-1.11.31-1.7.16-.56-.25-.97-.66-1.24-1.22-.24-.56-.39-1.15-.45-1.75-.23-7.72-.09-15.43-.09-23.15,0-1.78-.19-3.65,1.21-5.12.69-2.69-.82-5.67,1.04-8.21Z"/><path class="cls-119" d="m396.87,358.98c.39.11.78.21,1.17.32.2.61.21,1.54.63,1.79,10.8,6.5,16.72,17.81,25.74,26.1,4.11,3.78,8.51,6.91,13.47,9.15,8.97,4.05,13.27,12.73,19.74,19.24,2.61,2.62-.04,5.39-1.95,6.69-10.4,7.1-19.75,16.45-33.6,16.74-1.55.03-3.11,1.02-4.62,1.68-6.66,2.93-13.25,4-20.71,2.52-14.11-2.8-28.53-3.84-42.9-4.19-25.36-.62-49.96-4.66-73.84-13.42-8.52-3.12-17.66-4.24-26.64-5.72-4.83-.8-9.6-1.95-14.39-2.94-.3-.94-.38-2.04-.92-2.8-6.66-9.2-6.43-20.16-8.15-30.68-2.01-12.23.6-24.02,2.4-35.92,1.24-8.2,2.25-16.33,1.31-24.68-.48-4.25.85-8.44,3.46-12.12,4.45-6.27,7.37-13.27,9.36-20.67,1.23-4.58.35-9.27.55-13.9.14-3.31.33-6.56.85-9.87,1.16-7.36,6.37-9.03,14.39-10.25,4.14-.63,9.32,3.12,11.29,8.12,1.36,3.45,2.23,7.07,2.48,10.81-2.02.83-3.51-.48-5.06-1.34-2.46-1.37-4.82-2.85-7.48-3.9-2.67-1.06-5.45-1.47-8.26-1.98,5.63.93,10.93,2.67,15.59,6.03,1.58,1.14,3.83,1.94,3.52,4.37-.26,2.03-2.45,1.97-3.91,2.58-2.25.95-4.23,2.27-5.91,4.08,3.02-2.44,6.96-3.12,10.09-5.34,2.01-1.43,3.9-.74,5.49.6,5.46,4.59,11.25,8.42,17.82,11.47,5.24,2.43,8.69,7.58,11.1,13.08,3.79,8.63,8.4,10.59,17,7.37,7.57,1.31,13.13,5.98,18.07,11.35,7.1,7.7,15.29,14.2,22.77,21.48,1.48,1.44,3.66,2.2,5.6,3.11,1.09.51,2.42.85,2.15,2.29-1.2,6.33,2.48,11.82,2.92,17.86.12,1.64.31,3.28.44,4.93.16,2.14-.91,3.01-2.99,2.92-5.4-.24-10.64,1.78-16.24.2-4.04-1.14-7.95.45-11.27,3.67-4.51,4.38-8.98,8.75-12.62,13.88-1.19,1.68-2.39,3.46-2.54,6.11,4.34-1.27,5.37-5.25,7.78-7.73,1.93-1.98,3.83-4.12,5.55-6.32,4.56-5.84,10.05-8.41,17.35-5.75,1.2,2.03-.45,2.68-1.7,3.53-4.19.68-8.46,1.21-11.42,4.82-2.39,2.24-4.84,4.42-6.53,7.28-1.9,2.08-3.32,4.51-5.01,6.74-2.15,2.84-4.92,4.49-8.58,2.61-3.26-1.68-3.94-4.61-2.63-8.83,1.63-5.23,4.63-9.41,8.77-12.87,2.61-1.67,4.69-3.88,6.47-6.39,2.94-2.83,6.05-5.39,10.23-6.18,2.86-.09,5.72-.27,8.57.19,1.13.22,2.24.62,3.41.65,5.4.18,7.05-1.49,6.16-6.73-1.22-7.16-2.75-13.48-10.23-17.95-8.46-5.05-13.72-14.26-21.31-20.76-4.91-4.2-9.38-7.53-16.75-6.23-10.07,1.78-15.04-1.95-19.12-11.12-2.7-6.07-6.98-10.94-13.46-13.25-3.68-1.31-7.06-2.95-9.55-6.01-2.45-3.02-5.22-2.98-8.4-1.29-2.2,1.17-4.36,2.42-6.54,3.62-2.21,1.22-4.36,1.65-6.36-.42-2.04-2.27-2.51-4.94-2.04-7.86.28-1.49,1.18-2.63,2.14-3.76,2.76-3.26,2.62-3.72-1.58-4.55-1.52-.3-3.15-1.15-4.64.18-1.18,4.48,0,9.07-.72,13.56-2.02,9.03-5.66,17.37-10.72,25.09-1.87,2.87-3.34,5.92-2.79,9.35,1.62,10.09-.78,19.85-2.16,29.68-.67,4.77-1.93,9.45-2.04,14.3.18,6.05-.58,12.11.52,18.13.52,5.47,2.06,10.77,2.79,16.22.82,6.15,5.56,10.87,11.74,11.86,17.15,2.72,33.74,7.51,50.31,12.6,13.2,4.05,26.74,7.02,40.77,6.32,1.83-.09,3.66.02,5.47.39,3.6,1.05,7.27.5,10.92.55,4.27.17,8.46,1.06,12.71,1.39,3.15,1.06,6.42.56,9.63.71,7.04,1.16,14.24,1.25,21.22,2.99,5.18,1.29,9.83-.88,14.48-2.68,2.17-.84,4.22-2.1,6.58-2.27,11.31-.8,19.75-7.26,28.1-14,2.09-1.69,1.75-2.62.28-4.77-6.64-9.67-16.57-15.09-26.04-21.17-7.01-4.5-11.35-11.6-16.85-17.56-.79-.85-1.38-1.88-2.27-2.65-.51-.44-1.11-.88-1.78-.41-.62.43-.68,1.18-.38,1.78,2.79,5.62,1.23,11.82,2.31,17.69.51,2.78.6,7.07-4.86,5.27-2.23-2.51-2.93-5.7-3.15-8.79-.43-6.13-1.39-12.22-1.41-18.39.55-3.88-1.05-8.01,1.38-11.66Z"/><path class="cls-96" d="m35.03,276.49c-2.33-.8-1.75,2.83-3.78,2.48-1.08-3.08,1.71-4.59,3.07-6.3,5.9-7.43,12.31-14.64,22.47-15.85,7.92-.94,15.52.75,22.36,5.11.43.9,2.43.26,1.99,2.03-.39.41-.78.81-1.17,1.22-1.64.5-2.84-.55-4.2-1.13-16.56-7.03-21.59-6.3-35.81,6.41-1.89,1.8-3.42,3.9-4.92,6.03Z"/><path class="cls-76" d="m81.13,263.97c-.66-.68-1.33-1.35-1.99-2.03.95.02,1.83-.1,2.19-1.18,2.16,1.78,3.56,4.04,4.18,6.83-1.46-1.21-2.92-2.42-4.38-3.63Z"/><path class="cls-10" d="m85.05,276.05c-9.27,4.19-15.47,11.98-22.3,19.02-1.41,1.45-1.87,3.44-1.75,5.5-.12.29-.35.42-.68.38-5.53,7.09-3.79,16.13-6.26,24.07-2,.02-2.68-1.33-3.43-2.58-.91-14.26,2.77-27.15,12.3-37.89,6.03-6.79,13.17-12.22,22.95-12.36.85.41,1.71.83,2.56,1.24-1.13.88-2.26,1.75-3.39,2.63Z"/><path class="cls-117" d="m51.04,321.96c.4,1.14,1.13,1.97,2.66,2.58.81-5.64,1.45-11.21,2.48-16.7.5-2.67,1.31-5.47,4.14-6.89-2.93,7.93-4.36,16.19-5.25,24.57-.25,2.32-1.95,1.85-2.75.95-5.9-6.72-11.92-13.46-11.09-23.4.99-3.35-.25-6.85.7-10.21,1.8-9.41,7.12-16.41,14.9-21.71,1.06-.72,2.15-1.41,3.23-2.11,2.36-2.59,3.42.59,5.07,1.14-.41,2.38-2.65,1.97-4.14,2.62-2.23.98-4.4,1.98-5.95,3.96-.77.95-1.65,1.79-2.62,2.54-9.3,9.66-10.91,26.24-3.68,37.37,1.05,1.61,2.78,2.98,2.29,5.29Z"/><path class="cls-60" d="m216.71,216.94c-1.62-.24-2.54-.79-2.63-1.86-.39-4.83-1.93-9.24-4.58-13.27-.51-.78-.67-1.7-.08-2.27,1.08-1.04,1.89.12,2.32.83,3.03,5.04,6.5,9.98,4.97,16.57Z"/><path class="cls-5" d="m53.5,276.92c2.57-4.51,7.4-5.12,11.63-6.75,7.04-.58,14.15-1.92,20.75,2.01-9.01,2.73-17.14,6.8-23.05,14.52-6.59,8.63-10.85,18.05-10.85,29.14,0,2.03,1.01,4.34-.94,6.12-11.88-12.45-9.12-30.82-2.04-40.77,1.06-1.49,2-3.06,3.91-3.59-.57,5.42-5.08,9.14-6.07,14.48-.75,4.02-2.36,7.87-1.66,11.3-.05-8.06,2.63-15.95,7.63-23.18.53-.77,3.42-1.63.68-3.27Z"/><path class="cls-15" d="m132.93,298.07c-.62.96-1.23,1.91-1.85,2.87-1.79-2.29-1.25-5.02-1.39-7.61-.55-10.46-5.87-16.83-16.1-19.13-2.88-.65-5.7-1.48-8.55-2.22-2.76-.72-5.54-.38-8.32-.11-1.32.13-2.4.05-1.7-1.76,1.43-.11,2.46-.79,3.05-2.11,3.57-1.7,6.57-4.29,10.29-5.86,8.7-3.68,16.61-2.38,23.57,3.47,6.04,5.07,6.56,11.98,5.46,19.48-.7,4.72-2.83,8.72-4.45,12.99Z"/><path class="cls-7" d="m30.07,220.23c-4.71-2.63,1.66-2.22,1.02-3.73,15.35-9.31,37.81,1.2,45.6,13.37,4.13,6.45,7.65,13.13,10.59,20.16.34,1.68.67,3.36,1.01,5.04.32,1.38.26,2.54-1.59,1.65-1.23-.58-1.89-1.84-2.57-2.99-11.92-20.37-29.35-32.02-53.16-33.56l-.46-.02-.45.08Z"/><path class="cls-13" d="m30.98,220.18c15.22-1.61,27.5,4.82,38.76,14.1,6.57,5.41,12.04,11.7,15.79,19.41.86,1.76,1.29,1.83,2.76,1.38,1.06,1.15.56,2.68.96,3.99,0,2.63,0,5.26,0,8.77-15.02-22.24-30.85-42.13-58.28-47.65Z"/><path class="cls-4" d="m91.05,259c1.35-2.17.97-4.62,1.12-6.98,2.98-10.86,1.52-21.66-.43-32.45-.46-2.57-1.09-5.11-1.64-7.67,2.37-.21,2.98,1.74,3.86,3.25,2.7,4.63,4.27,9.68,5.19,14.91,1.17,6.63,1.33,6.8,7.44,4.53.78-.29,1.54-.6,2.39-.58,1.96,1.71-.14,2.44-.88,3.41-1.15,1.49-3.1,2.44-3.04,4.71.41,2.6-1.77,3.71-3.13,5.19-4.03,4.38-6.91,9.46-9.52,14.74-.44.27-.88.27-1.32-.02-.01-1.01-.02-2.02-.04-3.03Z"/><path class="cls-8" d="m91.09,262.03c.24-.08.49-.13.75-.16,10.79-11.69,24.35-18.36,39.61-22.08,4.58-1.12,9.15-1.19,13.78-.89.86.71,1.71,1.41,3.52,2.9-11.96.82-22.29,2.93-31.7,8.23-9.15,5.2-18.8,9.74-24.86,18.98q-1.34-1.76-1.08-6.99Z"/><path class="cls-16" d="m105.04,271.98c4.35-.26,8.64.31,12.66,1.89,9.05,3.56,13.29,10.48,13.35,20.09.01,2.33.02,4.65.03,6.98-.36.33-.71.67-1.07,1-2.68-8.24-7.18-15.44-12.66-22.07-3.26-3.94-8.48-4.85-12.31-7.9Z"/><path class="cls-126" d="m38.94,270.07c3.91-4.86,9-8.45,14.63-10.57,8.05-3.03,15.71.02,23,3.64,1.18.58,2.26,1.36,3.38,2.04.02.25.05.5.1.74-1.84,1.72-4.1,1.26-6.1.77-10.39-2.54-20.29-1.07-29.91,3.27-1.68.76-3.38,1.46-5.11.1Z"/><path class="cls-85" d="m94.06,273.94c0,1.03.01,2.06.02,3.09-4.84,6.25-5.53,13.53-5.65,21.12-.13,7.57,1.13,15.21-.86,22.71-.83,1.02-1.85,1.58-3.2,1.3-1.4-1.59-.61-3.42-.58-5.18.2-12.38,1-24.76-.4-37.12-.29-.15-.58-.29-.86-.45,1.17-.78,2.32-1.55,3.48-2.33,2.52-1.49,5.08-2.86,8.06-3.15Z"/><path class="cls-2" d="m38.94,270.07c4.82-.44,8.92-3.1,13.46-4.46,7.23-2.17,14.24-1.91,21.32-.21,2.14.52,4.21.55,6.34.52,1.39,1.96,1.36,2.21.13,2.08-5.08-.53-10.21.7-15.31-.75-3.2-.91-6.59-.55-9.74.86-5.36.33-9.88,3.04-14.59,5.2-1.92.88-3.69,2.11-5.53,3.17-.03-2.95,1.91-4.7,3.91-6.42Z"/><path class="cls-86" d="m84.94,322.21c.37-.89,1.12-1.18,2.01-1.24,2.65,3.27,1.28,7.12,1.53,10.73.09,2.12.02,4.24,0,6.37.19,3.9,0,7.79.03,11.69.13,14.73-2.42,29.14-5.11,43.54-1.71,5.11-2.41,5.51-6.31,3.62-2.34-2.35.38-4.01.82-5.97,2.64-5.71,3.25-11.87,3.99-18-1.87-4.34-1.56-8.68.03-13.02,1.73-3.5.8-7.25,1.01-10.89.77-2.99,1.34-6,1-9.12-.06-5.92-2.03-11.95,1.01-17.7Z"/><path class="cls-121" d="m81.93,359.92c-.01,4.34-.02,8.68-.03,13.02-4.71-3.87-5.3-9.84-6.93-15.03-.87-2.8,3.69-3.36,5.48-5.5,1.39,2.66-.45,5.42,1.47,7.51Z"/><path class="cls-7" d="m145.21,238.9c-5.07,2.25-10.65,1.19-15.97,2.75-12.99,3.8-24.89,9.15-34.39,19.08-.71.75-1.29,2.71-3.02,1.15,1.96-8.22,7.98-13.73,13.22-19.76,6.11-3.81,11.5-8.72,18.92-10.38,8.73-1.95,15.62.45,21.24,7.17Z"/><path class="cls-14" d="m108.98,234c-1.46,2.65-4.42,3.13-6.77,3.59-3.86.77-3.87-2.81-4.1-5.33-.64-6.9-3.21-13.09-6.57-19.03-.31-.54-.95-.9-1.44-1.34-.28-2.89-3.49-3.86-4.32-6.46,11.89,1.57,23.54,13.3,23.2,28.57Z"/><path class="cls-53" d="m281.33,150.07c-1.02,5.08-4.99,8.27-7.38,12.42-.16.27-1.04.46-1.29.28-.75-.54-.86-1.53-.44-2.21,2.48-3.96,5.42-7.54,9.11-10.49Z"/><path class="cls-19" d="m311.04,123.77c4.64-4.35,9.63-7.53,15.5-10.13-1.72,3.74-11.04,9.77-15.5,10.13Z"/><path class="cls-63" d="m187.58,210.92c6.49.4,10.86,2.72,13.83,7.69-4.58-1.92-9.21-3.75-13.83-7.69Z"/><path class="cls-31" d="m213,171.88c-3.23-2-6.46-4.01-9.69-6.01,4.51-.04,7.58,2.23,9.69,6.01Z"/><path class="cls-38" d="m160,165.68c-3.88.41-7.66.38-11.89-2.55,5.04-.75,8.36,1.38,11.89,2.55Z"/><path class="cls-27" d="m282.72,179.17c-3.41,4.31-6.82,8.62-10.22,12.93,1.07-6.12,4.55-10.35,10.22-12.93Z"/><path class="cls-37" d="m193.23,189.57c-2.98.01-5.13-1.46-8.03-4.35,3.98.85,6.13,2.35,8.03,4.35Z"/><path class="cls-26" d="m182.1,241.54c-1.56,2.96-4.27,4.22-7.11,5.29,1-3.66,4.16-4.33,7.11-5.29Z"/><path class="cls-30" d="m255.68,168.94c-.33,2.8-.66,4.85-2.42,6.67-.92-2.75.47-4.44,2.42-6.67Z"/><path class="cls-54" d="m323.21,186.63c-3.32,2.21-6.8,2.85-11.27,1.89,3.82-2.88,7.5-2.87,11.27-1.89Z"/><path class="cls-111" d="m84.94,322.21c-1.77,5.82-.36,11.82-1.01,17.7-2.16-2.67.5-6.25-1.66-8.92,0-.96,0-1.92,0-2.88,1.52-5.01.58-10.14.68-15.22-.01-1.96-.02-3.92-.03-5.88.03-8.01.06-16.03.09-24.04.12-1.04.25-2.08.37-3.12,2.52.84,1.69,2.99,1.65,4.65-.28,11.63.88,23.29-.63,34.9-.12.94-.36,2.01.54,2.8Z"/><path class="cls-119" d="m77.09,396.91c2.74,1.1,4.61.58,4.98-2.7.82-2.21,1.39-4.95,4.56-2.1.37.33,1.13.72,1.33.49,4.09-4.58,8.15-.12,12.21-.03,3.72-1.11,2.58-3.94,1.78-6.09-2.27-6.1-3.99-12.2-3.85-18.82.06-3.04-.45-5.85,2.16-8.26,2.23-2.05,1.44-4.47.03-6.81-4.06-6.79-3.58-10.97,2.81-15.39,13.03-9.01,24.33-20.23,37.48-29.02,5.93-3.96,12.65-6.67,18.54-10.79,1.53-1.07,3.3-1.68,5.18-1.61,3.38.12,6.19-1.17,8.62-3.34,3.15-2.81,6.17-2.65,9.4-.08,2.69,2.15,6.19,5.5,8.98,1.79,2.58-3.44-1.37-6.25-3.94-8.52-4.89-4.32-4.96-4.29-.88-9.5,1.15-1.47,1.82-3.16,2.72-4.75.84-1.48,1.45-3.65,4.02-2.56,1.64,4.11,1.92,8.75,4.8,12.38-1.27,3.52,1.56,3.07,3.27,3.05,4.49-.05,8.26-4.26,8.73-9.22.53-5.63,1.25-11.21,4.88-15.91,1.01-1.31,2.18-3.71,3.36-3.21,1.74.74,3.79,2.61,3.63,4.89-.9,13.35-.59,27.27-8.49,38.77-6.15,8.96-11.22,18.39-16.17,27.96-.91,1.76-1.65,3.62-2.35,5.49-4.15,11.11-11.44,19.73-21.07,26.48-.14.1-.32.15-.42.27-6.58,8.69-16.65,9.24-26.11,11.37-3.39.76-6.45,2.66-9.19,4.88-2.42,1.95-2.81,4.79-1.62,7.22,1.29,2.65,3.93,3.17,6.88,2.13,1.49-.53,2.96-1.55,5.71-.97-6.55,5.77-10.2,13.34-17.03,18.15-2.76,1.94-5.57,3.4-9.12,3.5-4.85.14-8.97,3.07-13.66,4.12-4.48,1-8.68.95-13.19.11-4.19-.78-8.64-.53-12.94-.27-6.15.36-11.34-.84-15.56-5.87-3.17-3.78-7.18-6.85-9.98-11.01-5.13-7.63-4.69-9.83,2.1-16.06,3.28-3.01,4.71-2.87,5.84,1.63,1.17,4.64,2.69,9.25,4.61,13.63,1.18,2.67,2.33,6.58,6.93,4.58Z"/><path class="cls-1" d="m198.02,281.22c-5.32-2.57-4.39-7.72-5.06-12.22-.76-2.5.22-4.71,1.14-6.92,1.64-2.78,3.28-5.57,4.92-8.36.76-1.05,1.86-1.99,2.23-3.16,2.29-7.38,7.68-9.27,14.63-8.58.48.98,1.42,1.8,1.11,3.07-8.19,8.8-12.8,19.47-16.1,30.83-.41,1.43-.7,2.91-1.64,4.13-.41.4-.83.8-1.24,1.2Z"/><path class="cls-99" d="m199.26,280.01c2.02-9.47,3.75-19.13,10.1-26.87,2.32-2.83,3.54-6.88,7.63-8.09-.33.98-.66,1.97-.99,2.95.14,2.32-.8,4.24-2.36,5.83-5.31,5.38-7.36,11.98-7.68,19.37-.18,4.09-1.88,7.1-6.71,6.81Z"/><path class="cls-109" d="m325.98,312.02c-5.81,5.4-14.46,2.79-17.65-5.59-1.46-3.84-3.6-7.03-6.35-9.98-2.66-2.86-5.51-5.5-9.44-6.12-5.77-.92-8.26-6.19-12.6-8.99-2.2-1.42-3.43-1.89-5.97-.19-3.77,2.53-8.27,3.97-12.34,6.33,1.76-4.46,5.29-6.91,9.67-8.38.88-.3,2.28.01,2.19-1.38-.04-.61-.95-1.31-1.61-1.71-4.35-2.64-8.33-6.02-13.9-6.11-2.36-.04-4.73-.96-6.97-2.74,5.6-1.86,6.32-1.62,24.97,7.85,2.97,1.34,5.94,2.67,8.92,4.01,3.87,3.88,8.02,7.46,13.06,9.68,8.56,3.77,11.47,12.48,16.88,18.98,1.32,1.59,2.74,2.69,4.53,3.63,2.03,1.06,3.79.91,5.59-.31.34.34.68.69,1.02,1.03Z"/><path class="cls-21" d="m287.96,251.06c3.78,3.81,5.3,8.84,7.38,13.58.55,1.26,1.11,2.47-.37,3.49-1.29-.94-1.47-3.02-4.02-3.46v6.18c-1.51.7-1.64-.57-1.71-1.4-.08-.92-.33-1.41-1.26-1.47,0-.99-.02-1.99-.03-2.98-.36-1.67.18-3.33.11-5,.19-3.6-2.95-6.05-3.44-9.73,1.26.3,2.3.54,3.34.79Z"/><path class="cls-18" d="m299.95,279.93c2.94.74,2.64,4.17,4.73,5.68.93.67.74,2.9,2.85.48.98-1.13,2.48,1.93,2.44,3.94-.57.14-1.68-1.36-1.66.32.02,1.54,2.71,1.99,1.73,5.32-3.66-5.73-9.17-9.09-10.1-15.73Z"/><path class="cls-56" d="m314.93,297.09c-.39,3.82,2.61,5.15,5.05,6.89-.85.79.01,2.55-1.29,2.85-1.51.35-2.46-.89-2.82-2.16-.7-2.46-4.13-4.64-.95-7.58Z"/><path class="cls-18" d="m281.31,262.14c-1.37-3.62-4.87-5.8-5.58-9.61,2.74,2.74,5.42,5.51,5.58,9.61Z"/><path class="cls-43" d="m265.95,251.12c-2.3-.44-4.6-.88-6.9-1.33.65-.46,1.27-.95,1.94-1.36,3.86-2.4,4.57-2.01,4.96,2.69Z"/><path class="cls-43" d="m287.99,267.97c.7-.01,2.01-2.83,1.98.44,0,.93-.02,1.89.99,2.42-4.11,2.28-2.61-1.26-2.97-2.87Z"/><path class="cls-43" d="m288.07,260c1.77,1.7.7,3.35-.11,5-1.53-1.21-1.14-3.17-1.6-4.73-.31-1.06,1.08-.26,1.71-.26Z"/><path class="cls-68" d="m227.16,285.15c.09-4.07-.96-8.2.69-12.18-.03,4.07,1,8.2-.69,12.18Z"/><path class="cls-119" d="m194.11,262.08c-.23,2.33.08,4.76-1.14,6.92-1.66.06-2.33,1.32-2.64,2.59-.69,2.88-2.26,5.13-4.44,7.04-1.93,1.69-2.17,3.01.37,4.57,2.52,1.54,5.08,3.37,6.28,6.2.83,1.96,2.67,4.29.13,6.33-2.46,1.97-5.21,1.74-7.9.39-.57-.29-1.01-.86-1.46-1.35-3.43-3.71-6.96-4.73-10.78-.51-2.03,2.24-4.56,3.27-7.59,2.72-2.58-.46-4.55.89-6.36,2.27-5.2,3.95-11.19,6.45-16.85,9.55-6.76,3.71-11.98,9.35-17.88,14.11-6.7,5.41-13.7,10.39-20.59,15.54-5.24,3.92-5.78,8.32-1.71,13.51,2.44,3.11,2.32,6.89-.83,8.87-2.39,1.51-1.78,3.51-1.51,5.24.46,2.95,1.43,5.78.1,8.76-.44,1,.43,1.83.78,2.74,1.38,3.54,2.88,7.08,3.78,10.75.71,2.9.5,5.92-3.92,5.58-2.15-4.11-6.13-7.49-5.05-12.87,1.72-1.19,1.45-3.11,1.07-4.57-1.34-5.09-.33-10.3-1.11-15.36-.54-3.45.23-5.16,4.61-5.26-6.58-1.27-5.05-5.87-5.46-9.77-.42-4.06,1.43-6.69,4.48-8.75,1.4-.94,2.82-1.76,3.59-3.34,6.99-3.78,13.33-8.57,19.13-13.86,9.35-8.53,19.37-15.88,30.88-21.16,1.96-.9,3.93-1.83,4.97-3.93,14.05-9.09,27.99-18.29,37.07-32.97Z"/><path class="cls-62" d="m87.15,349.94c0-3.99,0-7.98,0-11.98,1.43-2,3.15-4,0-5.99-.06-3.67-.13-7.34-.19-11.01.05-9.32-.1-18.64.23-27.94.22-6.09.41-12.48,6.9-16,.06,17.55-2.59,34.98-2.07,52.55.1,3.48.13,6.97.19,10.45-.1,2.31-.2,4.63-.31,6.94-1.38,1.31-2.23,3.47-4.74,2.97Z"/><path class="cls-40" d="m87.15,349.94c1.75-.72,2.53-2.98,4.74-2.97.41,5.98.83,11.97,1.24,17.95,1.18,3.62-.41,7.46.89,11.06.62,1.63-.75,3.6.87,5.05,1.05,3.79,1.99,7.67,5.15,10.37,1.21,1.03.2,1.68-.1,2.5-.99,0-2.21.36-2.94-.08-2.68-1.62-5.2-5.68-7.42.64-.47,1.33-3.68-.65-3.73-.77-2.06-5.16-2.59.32-3.78.51,1.46-10.29,2.74-20.61,4.46-30.86.75-4.49.11-8.95.62-13.4Z"/><path class="cls-132" d="m94.03,375.99c-1.75-3.57-.84-7.36-.89-11.06,1.68,3.58.69,7.37.89,11.06Z"/><path class="cls-133" d="m389.15,364.16l-.28-10.45c-.7-3.94-.65-7.88-.04-11.82-1.27-1.62-1.04-3.25-.03-4.88-.33-1.08-.86-2.19.44-3.04.49-.64.98-1.27,1.47-1.91.13.3.25.6.35.91.41.53.93,1.11.9,1.75-.41,9.11-.63,18.24-1,27.35-.04,1-.67,1.87-1.82,2.1Z"/><path class="cls-78" d="m360.66,306.21c-.74-5.43,2.47-10.02,7.66-10.94-2.62,3.74-5.03,7.19-7.66,10.94Z"/><path class="cls-87" d="m421.38,265.04c-3.34,1.27-6.68,2.53-10.02,3.8,2.44-3.57,5.56-5.56,10.02-3.8Z"/><path class="cls-39" d="m396.78,371.05c1.12,8.95.21,18.18,3.76,26.79.17.67.26,1.6-.32,1.81-2.06.77-4.02,1.08-6.04,2.64-1.97,1.52-5.3,2.2-8.06,3.16-1.71.59-2.78-.57-2.75-2.47,8.26-21.52,7.32-44.15,8.1-66.58.04-1.15-.19-2.32.34-3.42.07-1.99.13-3.99.2-5.98,1.32-.7,2.09.19,2.89,1l.14-.1c.88,8.06.13,16.15.41,24.22.07,1.96-.41,3.96.4,5.88.08.3.15.61.2.92,1.08,3.99-.29,8.14.75,12.14Z"/><path class="cls-80" d="m391.8,332.97c.34,17.77.87,35.55-2.02,53.18-1.02,6.21-3.12,12.21-5.93,17.89-.49.31-1.01.38-1.57.2-1.57-1.29-1.66-2.75-.49-4.36,4.14-11.56,7.01-23.38,7.36-35.72,1.38-3.53.59-7.22.78-10.83.36-6.79.76-13.57,1.14-20.36.24,0,.48,0,.73,0Z"/><path class="cls-61" d="m394.89,328c-.96-.33-1.93-.67-2.89-1,.06-7.96-1.24-15.91-.09-23.88.21-1.43-.13-3.55,1.65-3.61,2.17-.07.94,2.33,1.56,3.5-.08,8.33-.16,16.66-.23,24.98Z"/><path class="cls-77" d="m395.83,357.99c-1.7-4.82-.68-9.8-.82-14.7-.15-5.13,0-10.26.02-15.4.26.09.51.2.75.32.02,9.93.04,19.85.05,29.77Z"/><path class="cls-119" d="m381.79,399.89c.49,1.38-.53,3.15,1.1,4.23-3.42,2.84-7.07,1.23-7.99-3.72-.69-3.71-.46-7.54-1.15-11.29-.54-2.93-1.66-4.29-4.88-4.09-2.75.17-5.61-.11-7.92-2.06.59-1.04,2.15-1.42,2-2.96,3.09-.42,6.23-.59,9.24-1.32,4-.96,6.29-.13,6.85,4.37.71,5.64,1.81,11.23,2.75,16.84Z"/><path class="cls-44" d="m304.58,278.69c3.85,1.49,5.9,4.48,6.89,8.37-2.3-2.79-4.59-5.58-6.89-8.37Z"/><path class="cls-72" d="m396.78,371.05c-1.11-3.99-.91-8.06-.75-12.14.28.04.56.06.84.07-.03,4.02-.06,8.04-.09,12.07Z"/><path class="cls-119" d="m360.95,382.95c3.73-.59,7.26,1.76,11.23.37,2.06-.72,2.48,2.07,2.73,3.85.57,4.07,1.1,8.13,1.13,12.28.03,4.37,2.38,5.75,6.85,4.67.31-.12.63-.15.96-.08.08.14.13.35.25.41,3.65,1.8,3.81-3.09,5.83-3.2,2.35-.12,5.02,2.22,6.04-1.94.47-1.93.63-.28,1.08.07,2.04,1.57,2.74-.09,3.49-1.55,4.34-.06,4-3.6,3.2-5.73-2.14-5.72,1.53-12.39-3.29-17.65-1.09-1.19.89-2.76,1.85-3.68,1.45-1.38,2.43.39,3.15,1.27,3.77,4.61,7.81,9.01,11.52,13.64,5.15,6.43,12.22,10.01,18.91,14.11,4.32,2.65,8.35,5.28,10.93,9.8.88,1.55,2.16,2.96,3.5,4.15,4.33,3.85,4.32,3.74-.62,7.31-6.52,4.73-12.21,10.83-20.66,12.32-5.53.97-10.97,2.22-16.11,4.64-5.26,2.48-10.59,2.62-16.34,1.15-5.39-1.38-11.08-1.55-16.64-2.25-3.22-1.42-6.77.37-10-1-4.41.64-8.63-1.11-12.99-1-3.57-1.4-7.42.34-11-1-17.44.9-34.23-2.27-50.74-7.73-15.54-5.14-31.4-9.1-47.64-11.31-6.97-.95-9.89-6.6-11-11.85-1.17-5.54-3.03-11.22-2.58-17.1-1.06-4.53-.19-9.13-.5-13.69-.12-1.77.49-3.61-.5-5.3,1.16-7.64,2.59-15.24,3.38-22.92.67-6.48,2.79-12.9.79-19.58-.98-3.28,0-6.84,1.95-9.49,5.78-7.87,9.04-16.81,11.87-25.98,1.48-5.26-.43-10.73,1-15.99.81.09,1.66.03,2.41.28,2.88.98,7.27.28,8.37,3.01,1.15,2.87-3.83,3.88-4.78,6.7-.77,3.02-1.55,6.05,2,8,1.45,1.59,2.9,1.04,4.43.07,1.4-.89,2.88-1.65,4.3-2.5,7.69-4.55,7.73-4.6,13.72,1.45,1.69,1.71,3.5,2.95,5.81,3.61,8.39,2.4,13.52,8.15,16.62,16.08,2.87,7.33,9.45,11.29,18.28,8.96,7.02-1.85,11.52,1.44,15.46,5.31,5.04,4.95,10.79,9.18,15.02,15.04,3.62,5.01,8.88,8.39,14.05,11.71.8.52,2.13.54,2.12,1.78-.04,5.87,2.61,11.29,2.82,17.11.03.93-.39,1.82-1.23,1.94-3.13.44-6.2,2.88-9.45.41-3.33-.85-6.66-.85-10,0-3.51,1.24-6.42,3.37-9,6-2.38,1.61-4.38,3.61-6,6-4.9,3.46-7.5,8.61-9.64,13.92-1.04,2.59.49,4.78,2.88,6.16,3.22,1.86,5.53.03,7.19-2.3,1.72-2.4,2.71-5.33,5.57-6.78,1.65-2.64,4.39-4.33,6-7,2.84-4.45,7.1-5.47,12-5Z"/><path class="cls-119" d="m256.05,261.77c7.57-2.98,10.62-2.04,13.49,4.13-4.38-1.78-8.88-1.6-13.49-4.13Z"/><path class="cls-119" d="m233,366.96c2.02,3.71.66,7.71.96,11.57.19,2.46.04,4.95.04,7.42-2.18-6.23-.43-12.67-1-18.99Z"/><path class="cls-119" d="m251.99,273c-.54,5.32,1.12,10.77-1,15.99.54-5.32-1.12-10.77,1-15.99Z"/><path class="cls-119" d="m348.95,387.95c-.74,3.42-3.58,5.02-6,7,.74-3.42,3.58-5.02,6-7Z"/><path class="cls-119" d="m345.95,433.93c3.65.53,7.49-1.14,11,1-3.65-.53-7.49,1.14-11-1Z"/><path class="cls-119" d="m336.96,383.95c.84-3.16,2.84-5.16,6-6-1.6,2.4-3.6,4.39-6,6Z"/><path class="cls-119" d="m369.94,435.93c3.32.46,6.83-1.04,10,1-3.32-.46-6.83,1.04-10-1Z"/><path class="cls-119" d="m351.95,371.96c3.33-1.57,6.66-1.57,10,0h-10Z"/><path class="cls-119" d="m259.99,290.99c-4.81-1.63-3.24-4.86-2-8-.14,2.87-.19,5.71,2,8Z"/><path class="cls-79" d="m53.5,276.92c1.31-.26,2.35-2.69,3.76-.99,1.17,1.4-.9,2.02-1.61,2.89-6.43,7.92-10.22,16.68-8.8,27.14.08.6-.07,1.23-.13,2.02-2.61-2.09-3.35-5.82-2.39-10.6,1.45-7.21,4.27-13.82,8.58-19.79.24-.19.44-.42.59-.68Z"/><path class="cls-74" d="m130.59,269.5c-3.64-1.61-6.14-2.69-8.61-3.84-.75-.35-1.43-1-1.06-1.94.38-.98,1.38-.86,2.1-.6,2.86,1.01,5.82,1.95,7.56,6.38Z"/><path class="cls-73" d="m48.52,216.07c7.41,1.06,13.56,5.08,20.07,8.25-.23.56-.47,1.13-.7,1.69-6.66-2.73-13.32-5.47-19.98-8.2.2-.58.41-1.16.61-1.74Z"/><path class="cls-40" d="m87.14,331.97c1.19.33,3.37-1.51,3.31-.07-.09,2.15.61,5.65-3.31,6.07,0-2,0-4,0-5.99Z"/><path class="cls-25" d="m118.54,238.72c-.74.17-1.27-.14-1.64-.76-.45-.76.17-1.23.55-1.71,1.9-2.4,12.88-4.6,15.61-3.11.37.2.89.88.81,1-.33.51-.87,1.28-1.3,1.26-5-.21-9.68.83-14.03,3.32Z"/><path class="cls-119" d="m174.94,332.17c-1.45-.3-3.06-.28-4.31-.95-4.95-2.65-8.56.66-11.18,3.45-4.2,4.49-8.57,8.81-12.89,13.16-2.66,2.68-3.76,6.52-7.32,8.62-2.42,1.43-4.84,2.34-6.87.82-2.51-1.88-1.73-4.97-.28-7.25,4.3-6.75,9.74-12.56,15.5-18.09,4.17-4.01,8.03-8.44,13.64-10.54,3.99-1.5,7.9-2.59,12.47-1.89,4.12.63,8.52-.32,12.76-.89,4.4-.59,7.71.85,8.33,4.07.56,2.93-1.84,5.68-6.32,6.12-4.68.46-8.69,3.48-13.53,3.36Z"/><path class="cls-59" d="m197.8,270.57c-1.52-2.03-.09-3.38.33-4.88.3-1.06,1.62-1.96-.17-3.26-1.73-1.25.47-2.03,1.06-2.91.42-.62,1.08-1.46,2.02-.78,1.31.94.59,2.04.06,3.07-1.41,2.71-1.19,6.09-3.3,8.75Z"/><path class="cls-119" d="m307.96,372.17c.15,2.86-.39,5.52-3.49,6.4-2.57.73-4.21-.88-5.71-2.93-3.12-4.26-7.01-7.1-12.61-7.97-6-.93-11.05-3.87-14.25-9.66-2.79-5.06-7.77-6.13-12.97-3.66-1.19.57-2.45,1.16-3.73,1.34-2.21.31-5.07,1.24-5.93-1.83-.75-2.68-1.01-5.84,2.13-7.52,11.49-6.17,21.7-7.33,31.18,4.64,3.05,3.85,7.82,4.09,11.83,5.86,5.14,2.26,9.57,4.98,12.31,10.15.92,1.73,1.31,3.33,1.24,5.17Z"/><path class="cls-119" d="m337.21,341.96c-.14-.01-1.55.27-2.4-.29-3.37-2.21-5.93-1.29-8.79,1.15-2.18,1.85-5.12,1.79-7.32-.24-2.21-2.03-2.19-4.65-.86-7.3,3.74-7.44,16.17-10.66,22.88-5.81,1.3.94,2.48,2.27,3.26,3.67,2.93,5.28.53,8.87-6.76,8.82Z"/><path class="cls-91" d="m165.02,326.95c-.89.39-1.92.61-2.65,1.19-8.92,7.14-17.63,14.51-24.35,23.89-.58.82-1.06,1.65-2.47,1.5-.3-3.57,2.73-5.12,4.43-7.3,5.64-7.21,12.39-13.35,19.61-18.93,1.51-1.17,3.35-2.18,5.44-2.3.62.65.58,1.31,0,1.96Z"/><path class="cls-112" d="m165.02,326.95c0-.65,0-1.31,0-1.96,2.27-1.44,4.81-.98,7.27-1,5.63-.06,11.26.3,16.89-.59-7.63,4.56-15.86,4.35-24.16,3.55Z"/><path class="cls-92" d="m252.63,351.81c6.39-6.94,17.38-7.93,22.41-2.09,5.46,6.34,12.21,9.83,19.97,12.21,4.71,1.44,7.12,5.73,9.62,9.64.54.84.62,2.16-.29,2.74-1.09.7-1.71-.4-2.3-1.22-4.09-5.72-9.36-9.07-16.67-9.34-3.81-.14-6.66-2.69-8.55-6.11-1.04-1.89-2.2-3.71-3.37-5.52-1.86-2.88-4.51-3.66-7.79-2.94-3.98.88-8,1.62-13.04,2.63Z"/><path class="cls-92" d="m322.18,338.97c3.51-7.37,12.34-9.27,17.01-4.23.65.7,1.75,1.35,1.2,2.48-.53,1.07-1.73.71-2.69.69-.48,0-.98-.18-1.44-.34q-6.98-2.35-14.08,1.4Z"/></svg>