<?xml version="1.0" encoding="UTF-8"?><svg id="Calque_1" xmlns="http://www.w3.org/2000/svg" viewBox="0 0 500 500"><defs><style>.cls-1{fill:#f70000;}.cls-2{fill:#fa0101;}.cls-3{fill:#6a2222;}.cls-4{fill:#fe0000;}.cls-5{fill:#e49956;}.cls-6{fill:#fffcf8;}.cls-7{fill:#fffbf7;}.cls-8{fill:#fffbf6;}.cls-9{fill:#fff2f3;}.cls-10{fill:#fff1df;}.cls-11{fill:#ffeaeb;}.cls-12{fill:#ffd094;}.cls-13{fill:red;}.cls-14{fill:#7f7f7f;}.cls-15{fill:#660001;}.cls-16{fill:#753320;}.cls-17{fill:#9a0304;}.cls-18{fill:#880202;}.cls-19{fill:#875329;}.cls-20{fill:#940000;}.cls-21{fill:#b80101;}.cls-22{fill:#330e0e;}.cls-23{fill:#340909;}.cls-24{fill:#bb956a;}.cls-25{fill:#8e0000;}.cls-26{fill:#aaa;}.cls-27{fill:#da0000;}.cls-28{fill:#d30001;}.cls-29{fill:#de8b45;}.cls-30{fill:#d50000;}.cls-31{fill:#e50101;}.cls-32{fill:#dc8842;}.cls-33{fill:#da9151;}.cls-34{fill:#d60001;}.cls-35{fill:#d70001;}.cls-36{fill:#d70000;}.cls-37{fill:#dd8a43;}.cls-38{fill:#dd8a44;}.cls-39{fill:#dd8b45;}.cls-40{fill:#d90000;}.cls-41{fill:#d80000;}.cls-42{fill:#d80001;}.cls-43{fill:#d80606;}.cls-44{fill:#141313;}.cls-45{fill:#121111;}.cls-46{fill:#131313;}.cls-47{fill:#171617;}.cls-48{fill:#170d0d;}.cls-49{fill:#430203;}.cls-50{fill:#410002;}.cls-51{fill:#413c3c;}.cls-52{fill:#111110;}.cls-53{fill:#111;}.cls-54{fill:#450101;}.cls-55{fill:#3e241b;}.cls-56{fill:#1a1414;}.cls-57{fill:#a50000;}.cls-58{fill:#72675a;}.cls-59{fill:#55291b;}.cls-60{fill:#560001;}.cls-61{fill:#544a41;}.cls-62{fill:#544a3d;}.cls-63{fill:#541813;}.cls-64{fill:#542a2a;}.cls-65{fill:#652828;}.cls-66{fill:#641818;}.cls-67{fill:#5c0e0e;}.cls-68{fill:#5c1c1c;}.cls-69{fill:#5d4141;}.cls-70{fill:#580202;}.cls-71{fill:#565252;}.cls-72{fill:#5d2e1f;}.cls-73{fill:#2f0f10;}.cls-74{fill:#2f2d2e;}.cls-75{fill:#383838;}.cls-76{fill:#381c15;}.cls-77{fill:#390000;}.cls-78{fill:#3b0000;}.cls-79{fill:#5b3424;}.cls-80{fill:#5a0002;}.cls-81{fill:#5a0102;}.cls-82{fill:#583c33;}.cls-83{fill:#57291f;}.cls-84{fill:#593333;}.cls-85{fill:#2f1e10;}.cls-86{fill:#720404;}.cls-87{fill:#604040;}.cls-88{fill:#4a1b12;}.cls-89{fill:#4a1f16;}.cls-90{fill:#4a0101;}.cls-91{fill:#610101;}.cls-92{fill:#541c1c;}.cls-93{fill:#5e2828;}.cls-94{fill:#5d4e3e;}.cls-95{fill:#5d5c5c;}.cls-96{fill:#613024;}.cls-97{fill:#786e61;}.cls-98{fill:#511a12;}.cls-99{fill:#512d22;}.cls-100{fill:#7c5039;}.cls-101{fill:#4e1818;}.cls-102{fill:#280c0d;}.cls-103{fill:#4e110b;}</style></defs><path class="cls-74" d="m161.91,375.11c-.39.26-.75.54-1.09.84-3.15,0-4.31,1.71-4.9,4.79-1,5.14-1.72,10.45-4.43,15.07-.93,1.59-1.49,2.43-.52,4.32,1.42,2.76,6.9-.89,4.76,2.68-3.83,6.37-15.08,15.78-20.48,17.05-5.12,1.2-10.47,1.08-15.68.37-13.9-1.91-27.78-9.45-37.71-19.47-.33-.33-.1.49,0,0,.07.06.15.12.22.18,3.83-2.09,3.71-3.81-.35-7.64-10.54-9.95-19.5-21.12-24.77-34.75-6.02-15.56-13.15-30.89-13.03-48.05,0-.99.04-1.98.09-2.98.05-.74-.12-1.56-.4-2.3-.02-.47-.04-.93-.05-1.4-.02-.99-.36-2.14.69-2.7,1.29-.69,2.27.32,2.97,1.18,3.26,4.01,6.07,8.39,8.25,13.05,5,10.72,11.87,20.4,16.94,31.09,3.01,6.34,8.65,10.5,15.1,13.13,6.08,2.48,11.81,5.98,18.92,5.59,3.79-.21,5.96-1.52,7.22-4.81,2.32-6.06,4.7-12.12,6.57-18.32,4.05-13.38,10.49-25.42,19.36-36.13,2.42-2.93,5.45-5.53,9.52-3.01.24.14.48.31.72.49,3.71,8.88,7.59,17.69,10.9,26.72.63,1.72,1.39,3.46,1.44,5.27.34,13.25.86,26.51-.25,39.75Z"/><path class="cls-74" d="m43.61,305.21c.28.74.45,1.56.4,2.3-.05,1-.09,1.99-.09,2.98-.15-1.75-.25-3.51-.31-5.28Z"/><path class="cls-74" d="m160.82,375.95c-3.15,2.71-4.1,6.57-4.9,10.56-.58,2.92-1.02,6.04-2.73,8.46-2.65,3.74-2.32,6.56,1.56,8.96-6.83-2.19-6.76-2.14-3.26-8.12,2.71-4.62,3.43-9.93,4.43-15.07.59-3.08,1.75-4.79,4.9-4.79Z"/><path class="cls-46" d="m272.03,169.15c-.07.32-.04.63.08.93-.16.13-.33.25-.49.39-.4.15-.8.28-1.21.4-2.27,1.04-3.95,2.8-5.6,4.59-.59.71-1.13,1.49-2.01,1.9-.49.04-.94-.09-1.34-.38-1.81-2.01-3.25-4.2-3.52-6.98.51-5.13,2.47-2.57,4.16-.83-2.89-6.25-5.12-12.74-5.21-19.15-.17,2.21-.33,2.45-2.94,3.75-.52-.1-.96-.33-1.35-.69-.47-.66-.74-1.41-.92-2.19-1.03-6.22-2.1-12.42-2.01-18.76.1-7.86,4.16-13.4,10.25-17.79,1.23-.89,2.67-1.71,4.1-1.64,5.27.23,10.46.02,15.52-1.65.44-.15.99.05,1.47.18,6.25,1.7,14.38,17.68,12.14,23.85.11,3.54-1.18,6.64-3.11,9.49-3.3,4.86-5.66,10.37-10,14.51-2.05,3.86-5.62,6.51-8.01,10.09Z"/><path class="cls-74" d="m149.1,302.88c-4.07-2.52-7.1.08-9.52,3.01-8.87,10.71-15.31,22.75-19.36,36.13-1.87,6.2-4.25,12.26-6.57,18.32-1.26,3.29-3.43,4.6-7.22,4.81-7.11.39-12.84-3.11-18.92-5.59-6.45-2.63-12.09-6.79-15.1-13.13-5.07-10.69-11.94-20.37-16.94-31.09-2.18-4.66-4.99-9.04-8.25-13.05-.7-.86-1.68-1.87-2.97-1.18-1.05.56-.71,1.71-.69,2.7.01.47.03.93.05,1.4.28.74.45,1.56.4,2.3-.05,1-.09,1.99-.09,2.98-.12,17.16,7.01,32.49,13.03,48.05,5.27,13.63,14.23,24.8,24.77,34.75,4.06,3.83,4.18,5.55.35,7.64-.07-.06-.15-.12-.22-.18h0c2.05-2.86.6-4.85-1.47-6.91-8.03-7.99-15.46-16.42-20.65-26.67-5.88-11.61-9.99-23.85-14.11-36.13-3.17-9.44-1.88-19.44-4.27-28.95-.49-1.94-.05-4.4,2.11-5.08.25-.08.5-.11.73-.11,1.55.01,2.58,1.71,3.52,2.97,6.49,8.7,10.31,19.01,16.35,27.93,5.38,7.96,7.55,17.85,15.04,24.5,3.48,3.09,7.43,4.99,11.93,5.81.09.02.19.03.28.05,3.86.32,7.22,2.36,10.98,3.1,3.72.73,6.06-.42,7.49-3.93,3.02-7.37,5.22-15.05,8.43-22.36,5.26-9.99,8.84-20.86,16.13-29.79,3.22-3.95,7.45-6.03,11.85-8,2.09-.94,3.58-.37,3.95,2.11.09,1.34.02,2.62-1.04,3.59Z"/><path class="cls-74" d="m152.06,109.07c-3.02,2.96-6.04,5.92-9.06,8.88-.31.37-.7.62-1.16.77-.58.33.09-.22-.48.12q-7.71,4.63-15.17-1.19c-1.05-.82-2.13-1.58-3.15-2.43-7.97-6.63-7.9-6.56-.87-14.49,5.6-6.32,13.32-10.54,17.71-18.07.91-1.56,2.73-1.63,4.5-1.05,5.51,1.82,10.86,4.04,16.2,6.3,3.62,1.53,3.54,3.79,1.76,6.75-1.51,2.53-3.98,4.48-4.61,7.54-.63,3.33-2.82,5.37-5.66,6.87Z"/><path class="cls-53" d="m467.73,373.08c-.52,1.89-1.19,3.73-2.15,5.47-2.4,4.35-6.93,7.9-11.89,7.66-2.19-.1-4.28-.92-6.27-1.84-13.29-6.14-24.22-17.03-36.05-25.48-12.21-8.73-24.74-17-37.64-24.69-9.73-5.8-20.81-8.86-30.35-15.04-11.3-7.32-23.82-16.69-30.33-28.21-1.22-2.16-1.91-4.84-5.03-5.16-1.1-1.77.2-2.21,1.47-2.67,5.15.63,9.07,3.91,13.21,6.51,5.75,3.62,11.63,6.99,17.52,10.37-.18,4.82-3.47,2.71-5.25,1.93-6.08-2.65-11.84-5.95-16.86-10.09,5.62,6.97,14.17,10.97,19.85,18.13.03.05.07.11.11.16.03-.16.08-.33.14-.51,1.91-.75,3.61.11,5.27.8,17.26,7.11,33.55,15.99,49,26.47,6.47,4.4,14,6.9,20.59,11.13,2.52,1.62,5.22,2.99,7.51,4.9,10.43,8.71,23.01,12.35,35.87,15.24,7.18,1.61,8.44.51,9.14-6.87.11-1.15,0-2.35.39-3.45.96-2.72,4.08-23.17,3.65-.3-.05,2.81-.27,6.84-.67,9.36-.33,2.07-.69,4.16-1.24,6.18Z"/><path class="cls-74" d="m275.04,279.11c-8.42.71-13.98,2.99-19.48,1.96-13.85-2.59-27.17-7.59-39.84-13.77-4.96-2.42-9.85-5.04-14.23-8.39-11.7-8.97-22.85-23.87-19.76-39.25,3.72-18.56,16.2-28.29,33.19-33.68.61-.48,1.27-.57,1.99-.26.34.37.49.8.46,1.3-.36,1.18-1.12,2.12-1.87,3.06-4.42,2.96-4.41,6.72-2.64,11.33,4.25,11.07,10.2,21.27,15.62,31.75,2.97,5.75,5.93,11.52,9.34,17.04.29.44.46.91.54,1.42-.04.53-.22,1.01-.51,1.45-5.89,5.12-13.36,5.09-20.47,6.25-1.39.23-2.82-.46-4.11.07,11.45,3.08,22.63,7.44,34.61,8.45,5.46.25,10.87.76,15.59,3.97.01.04.03.08.04.12,2.94-1.22,4.38.89,5.85,2.95,2.47-.78,4.81-.54,6.95,1.11.68,1.49-.03,3.02-1.27,3.12Z"/><path class="cls-46" d="m161.05,305.93c1.75,6.26,3.45,12.53,3.83,19.06-1.88,4.69-.62,9.3.36,13.91.37,1.75,1.06,3.43,1.28,5.23-.21,3.69.43,7.39-.36,11.05-1.8,16.24-3.12,32.59-10.43,47.62-.24-.02-.47.02-.69.13-2.39-.1-2.12-2.05-1.61-3.15,3.5-7.65,4.75-15.98,7.54-23.84.02-12.64.27-25.28-.02-37.91-.18-7.97-4.71-14.73-7.39-21.99-1.6-4.33-4.1-8.34-4.56-13.07.02-1.33.05-2.67.07-4,5.57-3.6,7.25-3.03,9.24,2.93.51,1.54.1,3.87,2.74,4.01Z"/><path class="cls-45" d="m142.12,118.21c-1.32,1.58-2.65,3.15-3.97,4.73.35.82-.09,1.35-.65,1.85-.81.58-1.71.92-2.72.9-6.14-1.51-9.53-6.94-14.42-10.24-2.69-1.82-5.71-3.49-6.83-6.93-.11-1.25.7-2.08,1.36-2.98.62-.86,1.1-1.8,1.57-2.74.59-1.15,1.27-2.22,2.49-2.82,3.26-5.99,7.44-11.3,12.07-16.26,3.8-4.06,8.16-5.81,13.7-3.37,4.89,2.15,9.99,3.83,14.9,5.94,6.51,2.79,6.67,3.51,3.19,9.69-.32.34-.64.68-.95,1.02-.63,2.59-1.43,5.03-4.77,5.09-2.1-2.14.49-2.83,1.34-3.85,6.02-7.18,5.97-7.66-2.66-11.24-3.8-1.58-7.75-2.81-11.57-4.35-1.89-.76-3.2-.46-4.11,1.38-2.27,4.61-6.17,7.62-10.07,10.76-4.39,3.54-7.92,7.97-11.54,12.29-1.83,2.18.01,3.01,1.14,3.92,4.23,3.42,8.74,6.53,12.82,10.11,1.97,1.73,2.81,1.06,4.45-.26,1.47-1.19,2.09-4.65,5.24-2.65Z"/><path class="cls-74" d="m461.77,310.98c2.59,7.5,5.58,14.89,6.67,22.83.2,2.69.4,5.37.6,8.06.46,1.67.74,3.36.17,5.07-5.1,1.4-7.71.35-8.11-4.54-.73-8.79-2.97-17.19-4.95-25.71-1.01-4.33,1.28-6.36,5.62-5.71Z"/><path class="cls-74" d="m155.89,396.73c-.85,1.91-2.87,3.84-.85,6.21-.1.33-.19.66-.29.99-6.83-2.19-6.76-2.14-3.26-8.12,2.71-4.62,3.43-9.93,4.43-15.07.59-3.08,1.75-4.79,4.9-4.79h.14c-.1,7.31-2.15,14.14-5.07,20.78Z"/><path class="cls-85" d="m310,283.98c-1.15.07-1.95.53-1.98,1.81-2.7-.53-4.25-3.3-7.04-3.64-4.86.23-8.73-2.55-12.96-4.26-.97-1.8-2.78-.38-4.05-1.05-.56-.77-.5-1.5.1-2.22,6.88-2.47,12.54,1.51,18.4,3.8,2.82,1.1,6.58,1.62,7.53,5.55Z"/><path class="cls-94" d="m159.83,279.06c-1.07,1.63-.58,3.52-.87,5.28-3.44-1.69-2.29-4.85-2.02-7.4.4-3.95.81-7.88.72-11.85-.04-2.01-.12-3.99-1.77-5.47-.67-.82-1.48-1.6-.74-2.79,4.63-.65,5.73,2.53,5.92,5.98.26,4.73.22,9.5-.73,14.19.13.76-1.84,1.01-.5,2.07Z"/><path class="cls-52" d="m283.97,275.07c0,.59,0,1.18,0,1.77-2.82,1.38-5.91,1.69-8.94,2.27.32-1.01.64-2.01.95-3.02,2.47-1.82,5.05-2.77,7.98-1.03Z"/><path class="cls-44" d="m272.03,169.15c1.61-4.21,4.94-7.05,8.01-10.09-.98,4.71-4.91,7.07-8.01,10.09Z"/><path class="cls-14" d="m38.13,289.1c.23-.13.48-.23.74-.31,2.79,4.87,2.5,11.08-.67,14.24-.02-4.35-.05-8.7-.07-13.04.12-.29.12-.59,0-.88Z"/><path class="cls-74" d="m44.29,99.12c4.8-4.17,10.36-7.26,15.44-11.01,3.54-2.61,6-2.89,8.29,1.14.56.99,1.26,1.9,1.9,2.84,4.62,6.7,10.7,12.01,17.02,16.94,3.61,2.82,4.12,5.04.52,7.68-4.22,3.09-7,7.53-10.87,10.93-1.69,1.49-3.41,2.93-5.6.79-7.59-7.43-16.61-13.25-23.6-21.38-2.08-2.42-3.34-4.79-3.1-7.94Z"/><path class="cls-88" d="m40.14,248.12c1.97-1.76.59-4.11,1.09-6.13.49-6.01.8-12.02-.15-18.01-1.62-3.02-3.51-5.95-3.13-9.63-.28-1.36-1.12-2.89,1.05-3.52,1.44.81,2.04,2.19,2.3,3.68,1.02,5.77,5.1,8.83,9.96,10.94,10.47,4.54,21.25,7.71,32.88,7.19,9.3-.42,18.64.57,27.92-.89,2.26-.36,4.67-.45,6.79.9.43.46.51.98.25,1.55-4.73,3.09-10.31,2.84-15.44,2.96-12.08.29-24.22,1.29-36.26-1.56-6.36-1.5-12.5-3.29-18.41-6.05-1.29-.6-2.98-2.77-4.45-.02-.09,1.91-.02,3.81-.07,5.72.07,3.2.2,6.4-.35,9.58-1.16,3.67-.54,7.45-.64,11.18.07,3.19.06,6.38-.02,9.56,0,1.45.07,2.9-.23,4.34-.34,1.12-.66,2.26-2.17,2.24-2.2-2.15.2-4.86-.86-7.15-.02-5.63-.05-11.25-.07-16.88Z"/><path class="cls-99" d="m39.01,211.03c-1.19.84-.76,2.19-1.06,3.31-2.47-5.48-2.57-11.38-2.87-17.21-.23-4.44,1.51-6.02,5.64-4.74,2.91.9,3.01.13,3.5-2.43.5-2.63.25-5.55,1.95-7.91,1.52-.07,1.69,1.11,2.02,2.15.06.32.13.65.12.98-.32,8.92-.38,9.11,8.25,11.63,8.22,2.4,16.51,4.66,25.19,4.82,7.56-.39,15.15.62,22.68-.5,3.9-.64,7.77-1.5,11.66-2.21,1.48-.12,2.92-.08,4.09,1.03-.86,3.86-4.29,3.76-7.05,4.29-23.81,4.61-46.95,2.45-69.27-7.26-1.07-.46-2.15-.88-3.25-1.23-3.61.54-1.77,3.11-1.74,4.9.06,3.46,1.99,6.88.14,10.37Z"/><path class="cls-56" d="m44.29,99.12c.96,4.15,3.26,7.42,6.48,10.18,7.02,6,14.08,11.97,20.87,18.22,1.68,1.55,2.39,1.04,3.57-.1,4.36-4.25,8-9.23,12.91-12.93,2.31-1.74.59-2.62-.74-3.55-6.85-4.74-12.09-11.16-17.91-16.99-.84-.84-1.3-1.63.45-1.86,3.41,3.02,6.82,6.04,10.23,9.06.62.28,1.29.44,1.84.88,2.97,3.2,6.78,5.3,10.27,7.83.21.43.31.89.31,1.37-.2,2.8-1.57,4.81-3.77,6.57-5.75,4.61-9.27,11.44-15.41,15.7-1.07.08-1.7-.54-2.18-1.39-.65-1.38-1.58-2.54-2.71-3.56-.83-.71-1.48-1.59-2.2-2.4-3-4.03-7.29-6.64-10.97-9.92-3.73-3.33-7.12-6.9-10.39-10.66-1.97-2.26-2.33-4.1-.65-6.44Z"/><path class="cls-68" d="m66.29,126.15c1.29-.02,2.22.56,2.8,1.7-.89,1.86-2.52,3.24-3.28,5.18-3.37,5.09-5.37,10.79-7.47,16.46-.65,1.76-.71,3.96-2.93,4.78-1.5-.68-.39-2.28-1.14-3.23,2.74-8.91,6.84-17.16,12.02-24.89Z"/><path class="cls-67" d="m81.11,102.07c-.32-.31-.65-.61-.97-.92,5.51-5.77,12.07-9.16,20.23-9.22,2.35-.02,4.47.58,6.62,1.3.94.54,2.01,1.04.66,2.26-1.98.63-3.94-.02-5.9-.15-5.69-.37-10.76,1.14-15.42,4.4-1.56,1.09-2.93,2.81-5.23,2.33Z"/><path class="cls-93" d="m47.12,184.11c-.31-.69-.63-1.38-.94-2.06.7-5.62,2.37-10.95,4.86-16.03.85.22,1.4.74,1.65,1.58-1.28,5.69-1.22,11.85-5.56,16.51Z"/><path class="cls-64" d="m51.92,167.03c-.3-.34-.59-.67-.89-1.01,1.08-4.99,2.16-9.99,3.24-14.98,1.02.81.76,1.97.8,3.04,2.58,5.2.11,9.17-3.16,12.95Z"/><path class="cls-84" d="m108.12,95.07c-.37-.61-.75-1.22-1.12-1.83,5.08.31,7.97,4.51,11.96,6.75-.58.98-1.15,1.97-1.73,2.95-2.9-2.78-6.51-4.74-9.1-7.88Z"/><path class="cls-95" d="m41.08,223.97c1.85,5.99,1.29,12,.15,18.02-.12-2.34-.23-4.69-.35-7.03.07-3.66.13-7.32.2-10.99Z"/><path class="cls-13" d="m258.96,170.15c.08,2.73,2.58,4.33,3.16,6.83,3.97,6.01,8.2,11.41,15.92,13.26,11.81,2.81,23.52,4.14,35.3.43,6.84-2.16,13.73-3.79,20.92-3.92,1.33-.02,2.66.01,3.95.4,1.12.34,2.32.77,2.7,1.98.52,1.66-1.01,2.29-1.98,3.07-1.55,1.25-3.27,2.27-4.91,3.39-14.17,9.86-29.38,18.16-43.16,28.61-1.19.9-2.55,1.57-4.11,1.67-6.77-2.46-10.1-8.84-15.18-13.23-11.96-10.37-14.42-24.99-17.81-39.21-1.29-5.56-4.52-10.45-5.56-16.1.95-2.12,2.19-3.94,4.67-4.45.34.08.67.15,1.01.23.58.47,1.06,1.01,1.39,1.69,1.03,2.97,1.62,6.07,2.79,8.99,1.16,2.01-.2,4.36.9,6.38Z"/><path class="cls-40" d="m263.29,177.04c-.1-.79-.13-1.55.71-2.01,2.24-1.38,3.47.34,4.49,1.73,2.75,3.73,6.51,5.47,10.94,6.08.8.18,1.64.27,2.36.67,5.84,3.26,11.99,3.89,18.42,2.2,5.57.57,10.75-1.3,16.06-2.42,9.87-2.09,19.8-3.58,29.91-1.74,1.96,1.24,2.11,2.99.89,4.66-1.32,1.82-3.2,3.06-5.6,2.18-9.09-3.33-17.82-.54-26.24,2.17-14.45,4.66-28.47,3.33-42.27-1.79-5.08-1.88-8.54-6.1-9.67-11.74Z"/><path class="cls-74" d="m254.24,143.39c-.54-5.63-2.29-10.74-.26-16.07,1.33-3.51,3.42-6.5,5.77-9.23,3.17-3.68,8.37-2.45,10.16,2.11.36.93.67,1.87,1.08,2.78,1.96,4.37,1.91,4.1-3,5.16-5.47,1.19-9.57,4.33-11.51,9.88-.59,1.68-.19,3.73-2.23,5.36Z"/><path class="cls-70" d="m263.29,177.04c4.96,11.4,15.28,13.2,25.94,15.04,11.74,2.03,22.56-1.58,33.53-4.3,6.24-1.55,12.26-2.18,18.55-.54,3.9,1.02,5.78-1.31,4.83-5.39-.41-.24-.68-.59-.82-1.04-.11-.71.02-1.37.49-1.94.44-.24.84-.18,1.17.21.14,1.82,1.06,3.3,2.06,4.75.53.62.65,1.33.47,2.11-3.95,4.57-8.69,8-14.49,9.87-.79.01-1.5-.19-2.03-.81,2.4-1.74,4.8-3.48,7.88-5.71-4.57-2-8.8-1.57-12.82-.78-6.79,1.33-13.43,3.38-20.21,4.74-12.33,2.48-24.42.85-35.87-3.97-5.07-2.13-8.82-6.4-9.84-12.31.39.02.78.04,1.17.06Z"/><path class="cls-74" d="m290.32,129.02c-4.71-2.33-8.47-2.86-11.96.13-.68.58-1.7.95-2.07-.02-1.19-3.08-3.79-5.48-4.25-8.89-.46-3.35,1.83-4.66,4.33-5.84,2.44-1.14,4.53-.88,5.91,1.59,2.3,4.11,6.46,7.06,8.04,13.04Z"/><path class="cls-92" d="m300.07,186.33c-5.33,1.81-10.5,1.37-15.62-.89-1.62-.71-3.42-1-5.13-1.49-3.06-1.2-5.98-2.69-7.91-5.45-1.89-2.7-2.52-5.59-.36-8.53.25-.03.51-.03.76,0,1.54,9.32,13.96,17.55,23.13,15.45,3.05-.7,6.07-1.33,8.89-2.8,7.67-4.02,8.98-10.81,8.25-18.53.73-.66,1.47-.58,2.23-.05,3.31,10.42-3.62,21.27-14.22,22.28Z"/><path class="cls-44" d="m258.96,170.15c-1.28-1.83-1.39-4-1.79-6.08.29-3.43-.66-6.46-3-9.02-.1-.65-.19-1.3-.29-1.95,3.88-.77,1.03-4.36,2.95-6.53,1.1,4.69,2.04,9.11,3.2,13.48.75,2.82,1.07,5.88,3.28,8.11.91.92,2.53,1.93,1.11,3.09-1.1.89-2.86.5-3.53-1.4-.26-.74-.76-1.4-1.59-2.88-.18,1.67-.26,2.43-.34,3.2Z"/><path class="cls-2" d="m271.04,169.98c-1.69,7.29,3.82,10.32,8.27,13.98-4.63-.6-8.98-1.67-11.49-6.22-.81-1.46-1.94-2.66-3.82-2.7,1.79-2.46,3.62-4.86,7.04-5.05Z"/><path class="cls-82" d="m252.87,152.86c-1.3,1.37-2.6,2.74-3.9,4.11-1.18,3.21,2.5,5.63,1.46,8.82-.75.96-2.03,1.09-2.49.27-3.27-5.73-5.72-1.79-8.32.59-1.85,1.44-3.05,3.89-5.87,3.84-.72-.33-1.27-.75-.82-1.66,6.11-6.58,13.45-11.77,19.93-17.93,0,.66.01,1.31.02,1.97Z"/><path class="cls-74" d="m468.94,346.96c-.08,1.67-.16,3.33-.24,5-3.69,2.09-5.93,4.79-5.66,9.5.28,4.88-3.44,5.2-6.94,4.46-9.77-2.08-19.42-4.54-27.91-10.23-21.95-14.73-45.27-27.16-68.2-40.22-4.63-2.64-9.67-4.42-14.56-6.51-3.56-1.52-4.73-3.66-1.84-6.73,6.09-6.48,13.35-11.4,21.75-14.21,11.34-3.79,21.93-.96,31.87,4.96,2.47,1.47,4.96,1.71,7.66,1.12,2.2-.12,3.65,1.35,5.27,2.47,8.66,5.98,18.07,10.43,28.25,13.05,6.35,1.64,9.71-1.04,10.21-7.63.21-2.82.1-5.61-1.02-8.3-.5-1.21-.89-2.85.57-3.55,1.68-.8,2.09,1.02,2.82,2.02,3.39,4.7,5.58,10.14,9.04,14.8l1.78,4.02c-4.51.37-5.34,2.61-4.11,6.79,2.19,7.4,4.52,14.81,4.3,22.7-.13,4.64,2.62,6.5,6.97,6.5Z"/><path class="cls-48" d="m459.99,306.96c-3.84-1.51-4.03-5.73-6.2-8.49-1.9-2.41-3.26-5.25-5.21-7.77-.18,3.41,1.63,6.36,1.48,9.81-.4,9.14-4.86,12.94-13.37,10.17-10.55-3.44-20.76-7.68-29.49-14.82-.6-.49-1.49-.63-2.25-.93-3.32-.76-6.01-2.84-8.81-4.55-17.12-10.5-36.01-5.57-48.93,6.55-1.7,1.6-3.17,5.35-6.71,2.39.2-4.23,4.09-5.41,6.58-7.62,5.4-4.78,11.42-8.62,18.71-9.93,1.48-.08,2.96-.14,4.35-.73,7.62-2.61,14.84-.49,21.87,2.17,4.82,1.82,9.17,4.67,13.39,7.71,9.76,7.03,19.92,13.37,31.89,16.06,6.94,1.56,10.25-1.54,9.01-8.55-.55-3.12-1.68-6.1-3.1-8.94-1.14-3.81-3.72-7.12-3.98-11.24.24-.78.64-1.37,1.58-1.3,7.26,7.92,12.81,17.01,17.94,26.37.61,1.12,1.51,2.2,1.23,3.65Z"/><path class="cls-58" d="m391.62,225.02c1.11-.29,2.38-.32,3.31-.9,2.68-1.67,4.63-.74,6.56,1.29,5.34,5.63,10.13,11.72,15.01,17.74,2.39,2.95.5,4.33-1.52,5.91-.21-.01-.42-.03-.63-.04-.8-.29-1.64-.54-1.64-1.63.27-.9,1.3-1.59.74-2.72-3.28-5.04-7.49-9.3-11.22-13.96-2.28-2.85-4.6-5.56-8.57-2.28-.65.54-1.58.38-2.39.09-.41-.26-.7-.62-.83-1.1-.09-1.05.28-1.86,1.19-2.41Z"/><path class="cls-61" d="m357.17,181.88c6.31,6.07,11.52,12.97,15.7,20.67,1.02,1.88,1.63,3.55.11,5.38-.16.15-.31.31-.47.46-.67.2-1.27.11-1.78-.4-.36-1.42.09-2.98-.77-4.32-3.4-5.9-7.68-11.14-11.96-16.39-1.12-1.38-2.73-2.5-2.5-4.62.33-.75.78-1.22,1.66-.77Z"/><path class="cls-101" d="m440.82,276.94c-.32.38-.63.76-.95,1.14-5.28-3.73-8.56-9.46-13.54-13.5-2.3-2.73-4.4-5.62-6.99-8.12-1.11-1.07-2.51-2.26-1.49-4.19,8.42,7.52,16.7,15.17,22.98,24.68Z"/><path class="cls-17" d="m417.84,252.26c2.14,4.61,6.94,7.13,9.18,11.67-.28.33-.63.54-1.05.62-1.23-.18-2.56.08-3.66-.77-2.76-4.93-7.89-7.51-11.55-11.54.04-2.49,1.76-3.06,3.78-3.27,0,0,.44.08.44.08.96,1.07,1.91,2.13,2.87,3.2Z"/><path class="cls-66" d="m329.17,140.96c3.24,1.88,4.22,5.66,6.8,8.09,1.2,4.12,4.37,7.39,5.07,11.73.4.69.45,1.41.21,2.17-2.12.79-2.36-1.17-3.24-2.2-2.18-4.4-4.66-8.65-7.03-12.96-.95-2.34-3.54-3.94-3.13-6.9.45-.24.9-.22,1.32.07Z"/><path class="cls-43" d="m391.62,225.02c-.22.53-.45,1.06-.67,1.6-.46,1.3-1.48,1.2-2.53,1.01-3.42-3.98-8.79-6.51-9.38-12.61,3.49-1.08,4.15,2.47,6.15,3.82,1.63,1.1,2.63,2.93,4.19,4.17.75.67,1.5,1.35,2.25,2.02Z"/><path class="cls-87" d="m389.37,223c-2.87-.73-4.06-3.49-6.2-5.11-1.36-1.03-2.08-2.99-4.21-2.91-.23-.04-.45-.08-.68-.12-1.88-.97-3.15-2.63-4.6-4.08-.6-.72-1.1-1.49-1-2.49,0,0,.3-.35.3-.35,6.4,4.01,12.3,8.55,16.39,15.07Z"/><path class="cls-69" d="m340.73,163.32c.1-.84.21-1.69.31-2.53,2.19,6.03,5.26,11.78,5.93,18.31-.34-.05-.68-.11-1.02-.16-3.79-4.52-5.97-9.57-5.22-15.61Z"/><path class="cls-97" d="m357.17,181.88c-.41.38-.83.76-1.24,1.14-2,1.8-3.74,4.19-7.02,3.09.04-.76.08-1.52.11-2.28,2.61-1.1,4.78-4.01,8.14-1.96Z"/><path class="cls-74" d="m91.07,358.92c-.55.31-1.29,1.02-1.62.87-6.35-2.97-12.72-5.88-16.29-12.54-6.25-11.68-12.49-23.36-18.99-34.9-2.9-5.14-6.4-9.95-9.98-15.45-1.8,2.81-2.55,4.82-1.07,7.31.18.31.35.65.49,1,.28.74.45,1.56.4,2.3-.05,1-.09,1.99-.09,2.98-.12,17.16,7.01,32.49,13.03,48.05,5.27,13.63,14.23,24.8,24.77,34.75,4.06,3.83,4.18,5.55.35,7.64-.07-.06-.15-.12-.22-.18-5.89-4.64-10.55-10.4-14.89-16.46-2.62-6.34-7.47-11.33-10.52-17.45-8.42-16.9-15.17-34.26-16.36-53.34-.11-1.74-.57-3.27-1.83-4.5-.02-1.99-.04-3.98-.06-5.97,1.05-4.71,1.16-9.46.67-14.24.14-1.89.28-3.78.41-5.67.45-.32.87-.28,1.24.13.73,3.47,3.65,5.43,5.6,8.06,7.83,10.59,13.88,22.24,20.03,33.82,2.89,5.43,5.92,10.77,8.93,16.13,2.29,6.38,7.2,10.38,12.56,14.04,1.18.81,3.06,1.11,3.4,2.81.04.24.06.51.04.81Z"/><path class="cls-44" d="m161.05,305.93c-.62,2.37-1.74,2.78-2.88.44-.69-1.42-.81-3.12-1.16-4.7-.7-3.13-1.84-5.33-5.56-3.01-.62.39-1.58.23-2.38.32-.19-2.09-1.41-1.26-2.42-.81-5.63,2.5-10.45,5.78-13.96,11.2-4.24,6.55-7.28,13.63-10.65,20.57-.85,1.76-1.97,3.39-2.97,5.07-.91-.72-1.11-1.73-1.2-2.8,2.35-10.5,7.55-19.56,14.2-27.87,4.09-4.14,8.95-7.09,14.33-9.23,3.17-1.26,5.03-4.13,7.69-6.01.96-.58,1.65-1.83,3.08-1.26,1.4,6,3.8,11.79,3.87,18.07Z"/><path class="cls-102" d="m119.09,332.08c0,.98,0,1.96-.01,2.94-3.01,8.31-5.85,16.68-9.11,24.88-1.18,2.97-4.26,3.56-7.2,2.76-3.95-1.08-7.8-2.48-11.7-3.75-6.81-4.51-13.98-8.65-16.98-16.96.36-.35.78-.53,1.28-.54,1.59.27,2.68,1.32,3.38,2.63,4.18,7.86,11.56,11.27,19.38,14.08.8.23,1.59.49,2.4.69,6,1.47,6.71,1.07,8.53-4.88.24-.8.49-1.59.81-2.36.16-.44.35-.86.54-1.28,1.05-2.61,2.02-5.25,2.4-8.06.41-2.59,1.47-4.97,2.56-7.3.69-1.48,1.23-3.54,3.71-2.86Z"/><path class="cls-62" d="m232.92,168.83c.39.42.79.83,1.18,1.25.25.39.31.79.14,1.23-.98,1.48-2.69,2.16-3.84,3.46-2.08,2.26-4.87,3.67-6.92,5.96-2.4,1.47-3.15,4.97-6.48,5.31-.69-.01-1.39-.03-2.08-.04,4.83-6.95,11.34-12.13,18-17.16Z"/><path class="cls-74" d="m340.94,298.98c1.81,1.84,2.69-.17,3.5-1.06,7.94-8.69,17.97-13.13,29.44-14.76,4.57-.65,8.83.85,13.12,1.87,6.85,1.64,12.63,5.4,17.96,9.9-2.55,1.59-5.14,1.42-7.49-.25-6.4-4.56-13.81-7.1-21.33-7.15-5.24-.03-11.08.76-16.03,3.78-4.21,2.57-7.77,6.18-12.5,7.93-2.84,1.05-2.44,4.52-4.69,6.17-.9.66.82,1.5,1.63,1.79,11.46,4.1,21.79,10.46,32.4,16.24,6.4,3.49,12.66,7.11,18.61,11.37,4.23,3.03,9.48,4.61,13.98,7.31,8.22,4.94,16.08,10.51,24.38,15.3,7.22,4.17,15.43,5.81,23.52,7.48,4.04.84,4.61-1.5,4.54-4.91-.13-6.51.31-6.84,6.71-8.05.14,1.38-.14-1.38,0,0-.02.32-.23,2.93-.43,3.18-.3,2.03-.18,3.41-.3,4.73-1.09,12.43-.16,12.09-15.26,8.79-12-2.62-23.39-6.94-33.2-14.82-5.17-4.15-11.16-7.1-17.06-10.16-14.54-7.53-27.81-17.3-42.6-24.44-7.15-3.45-14.2-7.08-21.88-9.26-7.96-5.49-15.46-11.5-21.67-19.07,5.68,1.42,9.82,5.58,14.91,8,1.93.91,3.81,1.9,5.83,2.63,1.87.68,2.89.19,2.89-1.9.14-.53.49-.73,1.01-.64Z"/><path class="cls-23" d="m135.02,125.07c.7-.34,1.41-.67,2.11-1.01,1.99.78,2.15,3.64,4.52,3.99,1.91,5.9,5,11.51,4.48,18.02-3.24-1.02-.34-4.4-2.33-5.33,1.56,5.13,1.36,11.14,2.8,17.64-.73-4.63-2.05-8.46-.54-12.43,2.48,3.3,2.01,7.17,2.08,10.93,1.08,3.32-.28,6.82.77,10.14-.21,5.97-.42,11.94-.63,17.91.36,2.04.47,4.08-.07,6.12-.6.29-1.13.19-1.59-.3-1.92-4.78-.54-9.78-.96-14.65.56-4.04-1.04-8.01-.28-12.06.04-.63-.88.19-.23.05-.08,3.14-2.72,4.11-4.75,5.59-.75.23-1.51.25-2.28.12-2.65-.94-5.42-1.37-8.15-1.97-.49-.21-.86-.55-1.12-1.02,1.28-2.88,3.96-2.17,6.05-1.94,3.83.42,5.49-1.5,6.38-4.73,1.35-4.95.83-9.89-.38-14.74-1.41-5.62-2.83-11.26-5.33-16.54-.56-1.18-1.17-2.42-.53-3.79Z"/><path class="cls-55" d="m155.14,256.82c.28.62.55,1.24.83,1.86-.83,1.7-2.47,2.1-4.08,2.46-16.49,3.71-33.02,7.05-50.07,6.3-5.85-.14-11.69-.05-17.54-.03-2.77-.11-5.67.63-8.17-1.24-.13-2.45,1.83-2.28,3.3-2.45,2.4-.28,4.83-.08,7.24-.17,1.77-.13,3.55-.03,5.33-.03,5.95.07,11.9.35,17.84-.19.52-.18,1.06-.3,1.61-.4,2.14-.33,4.3-.28,6.46-.31,2.02.01,4.07.24,5.99-.66,6.77-2.24,13.95-2.32,20.85-3.94,6.29-1.47,6.33-1.33,5.77-7.61.17-1.09.62-2,1.61-2.57,1.92,2.68,2.09,5.95,3.04,8.96Z"/><path class="cls-22" d="m152.1,247.87c-.28.72-.56,1.43-.85,2.15-3.7-2.95-3.22-7.24-3.63-11.25-.14-4.65.6-9.34-.66-13.94-.26-6.04-1.42-12.01-1.39-18.08.13-3.58,0-7.16.09-10.74.05-1.77-.13-3.63,1.42-4.98.27,0,.53,0,.8-.01,1.13,1.63.66,3.36.3,5.08-.89,9.05,2.69,17.78,1.87,26.83,1.25,4.65-.27,9.45.82,14.11.41,3.61.81,7.22,1.22,10.83Z"/><path class="cls-3" d="m141.64,128.06c-4.52,2.08-3.07-2.6-4.52-3.99.34-.37.69-.75,1.03-1.12,2.07,1.08,2.75,3.12,3.49,5.11Z"/><path class="cls-51" d="m150.88,237.03c-1.61-4.62-.58-9.4-.82-14.11,1.89,4.61.86,9.39.82,14.11Z"/><path class="cls-26" d="m148.19,196.1c-.1-1.69-.2-3.39-.3-5.08.13-2.03.25-4.05.38-6.08,1.17,3.73,1.38,7.45-.08,11.16Z"/><path class="cls-71" d="m148.89,167.04c-1.42-3.29-.77-6.74-.77-10.14,1.61,3.28.91,6.73.77,10.14Z"/><path class="cls-47" d="m38.25,309c2.2-.17,2.78.98,2.85,3.02.68,18.39,7.21,35.11,14.76,51.55,2.58,5.61,6.06,10.64,9.42,15.75,1.02,1.55,2.17,2.96,1.68,4.98-11.7-13.96-18.4-30.38-23.91-47.5-2.93-9.11-3.63-18.46-4.81-27.79Z"/><path class="cls-74" d="m212.02,256.96c-5.66.05-9.44-1.02-12.86-3.81-7.26-5.93-12.82-13.02-15.05-22.18-2.93-12.03,5.45-30.96,18.13-36.56,1.21-.54,2.39-1.16,3.59-1.73,1.16-.55,1.86-.24,2.11,1.08,3.38,17.95,13.56,32.84,21.94,48.54,6.29,11.78,7.02,9.78-5.57,12.65-4.49,1.02-9.1,1.5-12.28,2.01Z"/><path class="cls-12" d="m217,186.03c2.08-1.94,3.44-4.59,5.98-6.08,1.02.88,1.26,2.12.8,3.19-1.68,3.89-.59,7.65.73,11.19,3.93,10.58,6.44,21.62,10.61,32.12,2.02,5.1,4.84,9.81,7.2,14.73,2.77,5.76,3.63,10.61-1.47,16.19,9.26,1.43,17.98,2.05,25.94,5.34,11.84,4.89,24.76,4.84,36.8,8.84,10.86,3.6,21.05,8.2,29.81,15.59,2.6,2.19,4.88,2.6,7.53.41.9-.74,1.86-1.42,2.72-2.19,2.22-1.99,6.45-2.95,6.67-5.51.25-2.84-4.13-3.62-6.31-5.53-1.69-1.48-2.55-3.04-1.42-5.22.5-.46,1.18-.9,1.76-.59,6.55,3.51,13.68,6.11,18.88,11.77-.88,2.37-3.33,2.53-5.14,3.57-4.91,2.82-9.43,6.19-13.94,9.59-4.94,3.71-9.58,3.85-14.01-.18-11.62-10.56-26.08-14.86-40.62-19.04-2.39-.69-4.97-.3-7.45-.37-6.34-.17-11.72-3.52-17.65-5.02-11.46-3.86-23.38-4.73-35.31-5.38-3.04-.16-5.82-1.27-8.78-1.66-1.39-.18-2.45-1.01-2.32-2.81,6.91-1.65,14.73-.74,20.08-6.89l-.17-.2c1.15-2.28.03-4.27-.99-6.13-9.28-16.87-13.36-35.71-20.19-53.5-.7-1.81-.84-3.54.13-5.27.09-.32.13-.64.13-.97Z"/><path class="cls-32" d="m265,267.99c.17,0,.35-.04.5.02,12.59,5.32,26.63,4.65,39.3,9.48,9.25,3.53,18.43,7.26,25.73,14.42,4.17,4.09,8.09,4.05,12.72.53,6.18-4.69,12.33-9.41,19.67-12.23,2.38-.6,3.13.57,2.98,2.74-10.3,2.26-17.87,8.76-24.96,16.02-.34.21-.67.43-1.01.64-1.76,1.83-2.97-.02-4.27-.71-8.73-4.66-16.46-11.05-25.65-14.93-8.09-4.68-16.14-9.48-26.03-8.91-2.66.34-5.32.68-7.98,1.03-2.33-.37-4.67-.74-7-1.1-1.87-1.22-3.75-2.42-6-2.82-4.73-2.28-9.86-2.75-14.96-3.35.45-3.3,2.77-4.05,5.27-2.98,3.8,1.64,7.8,1.48,11.7,2.16Z"/><path class="cls-36" d="m236.97,250.78c-3.32-5.82-6.92-11.5-9.89-17.49-5.32-10.73-11.74-20.92-15.64-32.34-2.44-7.16-2.38-7.38,3.77-11.78,2.38.39,1.48,2.58,2.01,3.9,3.91,9.67,6.93,19.63,9.72,29.68,2.28,8.2,7.72,15.02,10.42,23.06.57,1.71,2.56,3.53-.38,4.96Z"/><path class="cls-39" d="m265,267.99c-3.99.55-7.95,1.58-11.73-1.09-2.32-1.63-3.84.28-5.23,1.91-12.89-.34-24.66-5.02-37.79-9.6,10.2-2.03,19.88-1.47,27.85-7.12-3.14,5.79-9.04,5.87-14.44,6.94-1.55.31-3.24-.45-5.27.77,3.36,1.4,6.43,1.99,9.67,2.15,12.09.57,24.09,1.73,35.75,5.21.44.13.8.55,1.2.83Z"/><path class="cls-83" d="m236.97,250.78c1.67-1.84.39-3.52-.48-5-9.6-16.18-13.4-34.57-19.99-51.9-.59-1.54.11-3.41-1.3-4.7.12-1.06.85-1.66,1.67-2.19-.37,2.79,1.27,5.05,2.13,7.47,6.22,17.34,10.13,35.56,19.59,51.71.77,1.32,4,4.4-.67,5.73-.32-.37-.64-.74-.95-1.11Z"/><path class="cls-12" d="m102.11,266.21c18.34.29,36.14-3.36,53.86-7.52,3.23-.58,3.08,1.95,3.14,3.77.15,4.47-.1,8.93-.85,13.38-.47,2.81-1.45,5.83.7,8.49.17.68.07,1.23-.69,1.47-2.74-.09-4.59,2.35-7.23,2.55-22.25,6.9-44.89,7.94-68.06,6.46-13.82-.88-15.95-1.93-17-16.49-.32-4.47-.56-8.95-.12-13.43,3.63-2.23,6.94-.87,10.21.9,2.65.11,5.3.23,7.94.34,6.03.66,12.05.51,18.08.07Z"/><path class="cls-44" d="m166.03,342.96c-4.04-4.18-2.43-9.85-3.76-14.74-.38-1.38,1.35-2.44,2.62-3.23.61,2.2,1.51,4.35,1.29,6.71.46,3.76.73,7.52-.15,11.26Z"/><path class="cls-75" d="m166.03,342.96c.05-3.75.1-7.51.15-11.26,1.65,7.83,1.4,15.65-.02,23.48-.04-4.07-.08-8.15-.13-12.22Z"/><path class="cls-16" d="m152.07,286.99c2.09-.25,3.65-3.32,6.2-1.19-.98.35-1.1,1.17-1.09,2.05-.7.62-1.41,1.25-2.11,1.87-.67-.42-1.48-.17-2.18-.44-.54-.29-.95-.71-1.21-1.27-.1-.43.05-.77.4-1.03Z"/><path class="cls-65" d="m329.17,140.96c-.4.04-.8.08-1.2.12-1.04,1.14-2.54,1.26-3.87,1.76-8.23,2.94-11.65,6.63-11.66,12.62.39,2.27,1.49,4.58-.49,6.67-3.87-5.86-4.22-10.43-1.08-14.16,5.12-6.08,13.14-9.15,18.29-7.01Z"/><path class="cls-13" d="m311.95,162.14c.94-2.5-.87-4.69-.82-7.09,2.46-1.12,3.71.5,4.44,2.31,1.04,2.57.75,5.07-1.69,6.9-.6-.06-1.21-.11-1.81-.17-.04-.65-.08-1.31-.12-1.96Z"/><path class="cls-20" d="m135.02,125.07c5.1,10.5,9.12,21.27,7.96,33.25-.16,1.61-.78,3.21-1.41,4.72-.98,2.35-2.02,4.15-5.46,3.19-2.09-.59-4.93-1.16-7.06.83-.97,3.17-2.77,2.67-4.83,1.11-2.67-3.32-3.3-7.58-5.03-11.34-2.05-4.45-5.42-6.17-9.83-6.35-10-.4-19.92.58-29.79,2.08-7.27,1.11-8.67,6.84-9.62,12.81-.48,1.25-.33,2.65-.84,3.86-1.29,3.04-2.72,3.12-4.13.04-.64-10.31.06-20.46,3.89-30.19.91-2.32,2.04-4.54,4.29-5.92,5.13-5.74,9.63-12.12,15.76-16.85,1.99-1.54,1.5-3.9,3.1-5.3,5.81-5.55,16.79-6.98,21.99-2.86,6.42,6.37,13.3,12.18,21.01,16.94Z"/><path class="cls-4" d="m108.12,95.07c3.7,1.85,7.52,3.58,9.1,7.88-.42.96-.85,1.93-1.27,2.89-.31.4-.68.81-1.21.7-7.98-1.63-15.4.57-22.74,3.29-4.92-.77-8.11-3.97-10.89-7.75,7.83-6.85,16.58-10.16,27.01-7.01Z"/><path class="cls-78" d="m92,109.83c7.39-4.92,15.48-5.59,23.95-3.99-.65.76-1.3,1.53-1.95,2.29-7.83-2.86-14.89.17-21.99,2.86,0-.39,0-.78-.01-1.17Z"/><path class="cls-73" d="m75.18,341.92c-.37.01-.73.02-1.1.04-5.62-9.7-10.48-19.84-16.06-29.53-4.9-8.5-9.11-17.69-16.76-24.36-1.75-1.52-.88-3.37-1.26-5.07-.73-5.36-.59-10.73-.06-16.1.09-.64.18-1.28.26-1.91,1.65,2.12.45,4.59.85,6.87,2.23,2.7,1.21,5.93,1.45,8.95-.34,2.31.55,4.26,1.99,5.95,11.3,13.3,18.48,29.09,26.89,44.14,1.05,1.89,2.06,3.79,3.29,5.57,1.15,1.69,2.1,3.47.5,5.45Z"/><path class="cls-13" d="m42.96,244.92c.09-3.3.19-6.6.28-9.91,3.01-2.23,5.91-.87,8.92.12,7,2.3,13.96,4.74,21.54,4.34,3.26-.17,5.68,3.3,5.31,6.81-.35,3.36-1.53,6.69-.6,10.13.13.48.15.96.08,1.44-1.41,2.23-3.73,3.56-5.42,5.52-.68.29-1.37.29-2.06.03-2.15-1.04-4.53-4.48-6.07.61-1.12,3.12.09,6.53-1.18,9.63-4.02,3.58-4.15,8.04-2.71,12.75.49,1.6.83,3.16.94,4.84.46,6.92,3.51,10.32,10.56,11.53,2.71.47,4.46,2.11,6.13,3.94,2.33,2.56,5.04,4.28,8.54,4.58,6.02,2.35,11.37,6.15,17.61,8.03,1.44.95,2.84,3.67,4.38.09,2.43-3.08,2.94-6.82,3.73-10.48.4-1.84.13-4.06,2.55-4.87,2.28-.51,4.63-.4,6.92-.88,1.31-.28,2.76-.36,3.67.87,1.12,1.52.16,2.93-.7,4.09-4.21,5.62-7.62,11.67-10.56,18.04-3.28,7.1-6.55,14.17-9.03,21.61-2.19,6.54-5.08,7.48-11.35,4.42-8.7-4.26-14.08-11.57-17.85-20.01-7.71-17.24-16.52-33.74-29.73-47.48-3.36-3.5-3.06-7.91-3.92-12.06-.2-.97-.04-2-.99-2.66.07-1.33.14-2.66.2-3.99,2.74-3.89,1.64-7.91.43-11.95.2-3.04-.41-6.11.37-9.13Z"/><path class="cls-13" d="m41.95,269.99c3.65.98,2.44,4.49,2.83,6.63.62,3.46,1.91,5.76,4.35,8.38,7.3,7.86,13.34,16.76,18.54,26.18,4.08,7.39,7.07,15.33,10.87,22.77,4.08,7.99,10.14,15.14,19.11,18.66,3.48,1.36,5.4-.62,6.37-3.64,2.8-8.69,6.65-16.93,10.53-25.17,2.69-5.71,5.83-11.1,9.61-16.15.63-.84,2.05-1.7,1.27-2.96-.73-1.18-2.1-.71-3.16-.28-2.43.96-4.93.45-7.4.53-1.02-1.18-.94-2.46-.31-3.78,4.13-2.24,8.72-1.55,13.05-1.5,3.24.04,4.07,3.87,1.76,7.53-6.22,9.87-11.75,20.09-16.17,30.9-1.76,4.31-3.72,8.53-5.16,12.97-2.25,6.94-4.5,7.89-11.59,5.79-9.92-2.94-15.31-10.61-20.42-18.75-4-6.37-6.75-13.34-10.01-20.06-6.45-13.3-15.43-24.78-24.77-36.05-.07-3.37-.13-6.75-.2-10.12.3-.63.6-1.25.9-1.87Z"/><path class="cls-42" d="m117.78,263.84l-6.72.11c.99-5.58,3.93-10.71,2.72-16.82-1.22-6.18-2.05-7.34-8.33-6.96-1.49.09-2.98.1-4.46.25-8.51.83-11.22,3.29-13.05,11.66-.88,4.01-.52,8.29-2.63,12.03-5.97.68-7.45-.63-6.08-6.32,1.17-4.86,1.44-9.88,2.87-14.65.69-2.3-.9-.58-1.23-.98-4.46-3.65-10.16-2.1-15.15-3.65-5.98-1.87-12.13-3.14-17.81-5.94-1.81-.89-3.53-1.77-4.67-3.5-.19-2.41-1.07-5.09,3.2-2.56,10.8,6.4,22.76,8.97,35.19,9.45,12.45.49,24.88-.02,37.25-1.58,4.64,9.23,3.68,18.63.81,28.07-.24.8-1.11,1.17-1.92,1.41Z"/><path class="cls-37" d="m39.01,211.03c-.61-3.73-1.53-7.45-1.7-11.2-.1-2.05-2.16-5.74,2.69-5.73,2.36,4.4,2.07,9.3,2.41,14.02.59,8.18,3.95,12.96,11.83,15.09,24.14,6.51,48.37,8.03,72.71.9,6.8-1.99,6.85-1.85,7.78-8.79.18-1.32.26-2.67,1.55-3.5,2.83,1.23,1.98,3.83,2.09,5.97.13,2.44.2,4.91-.26,7.34-.92,3.64-3.67,5.13-7,5.97-2.99.76-6.03,1.29-9.05,1.92-1.09.17-2.14-.01-3.15-.46-13.4,1.62-26.86,1.97-40.32,1.4-10.76-.46-20.8-3.82-30.49-8.54-6.23-3.03-7.99-8.4-9.1-14.41Z"/><path class="cls-13" d="m43.24,229.06c8.86,4.62,18.45,7.12,28.07,9.48,2.06.51,4.28.49,6.42.43,2.3-.06,3.47.76,3.38,3.12.5,5.27.78,10.5-2.98,14.93-1.32-.61-2.7-1.9-1.79-3.02,2.23-2.74-.44-6.15,1.81-8.96,1.09-1.36-3.36-5.44-4.91-4.33-2.33,1.67-4.05.13-6.05-.12-8.18-1.03-15.5-5.7-23.94-5.58,0-1.98,0-3.97,0-5.95Z"/><path class="cls-90" d="m118.92,232.57c.53-.7,1.24-.87,2.07-.67.47.53,1.25.75,1.45,1.53.08,2.13-.22,4.31.64,6.37,1.47,5.66,1.81,11.35.29,17.06-.58,2.17-.34,4.22.7,6.19-1.92,1.66-4.17.75-6.29.8,3.06-7.67,3.58-15.56,2.01-23.63-.38-1.93-.61-3.9-.91-5.85.01-.6.03-1.2.04-1.8Z"/><path class="cls-13" d="m43.06,255c3.36,3.12,2.9,8.77-.9,10.99-.02-3.31-.03-6.63-.05-9.94.34-.33.35-.96.95-1.05Z"/><path class="cls-57" d="m43.06,255c-.32.35-.64.7-.95,1.05.24-3.71-.78-7.53.85-11.13.03,3.36.07,6.72.1,10.08Z"/><path class="cls-12" d="m136.18,212.19c-.05.33-.15.65-.15.98-.04,10.16-.07,10.06-9.76,12.69-15.03,4.09-30.17,4.84-45.72,3.51-10.44-.89-20.41-3.4-30.52-5.53-3.24-.68-8.59-8.39-8.89-12.43-.43-5.77-.76-11.54-1.14-17.32,11.8,4.95,23.88,8.99,36.67,10.34,13.81,1.46,27.53.9,41-2.82.89-.25,1.64-1.01,2.45-1.53,1.05-1.83,2.83-2.07,4.69-2.13,1.83.21,3.48-.47,5.18-.98,1.65-.5,3.44-1.36,4.81.62,1.01,4.81,2.92,9.53,1.39,14.58Z"/><path class="cls-13" d="m124.93,167.92c1.66,1.08,3,.65,4.11-.87.33-.01.65.04.96.14,1.6,1.97.31,3.42-1,4.69-6.46,6.21-10.07,13.74-10.89,22.67-.18,1.95-.6,3.93-2.1,5.43-3.47,1.38-7.08,2.05-10.82,2.11-4.76.92-9.57.18-14.36.4-1.99.09-3.02-1.21-3.72-2.78-1.28-2.88-3.08-5.51-3.9-8.59-.31-3.99-1.85-7.35-5.28-9.61-6.28-4.12-8.72-9.64-6.16-16.9.81-2.3.41-4.55.46-6.83,1.23-4.23,4.65-5.12,8.4-5.49,4.6,3.48,8.79,1.99,12.87-1.06,2.97-.33,5.92-.94,8.92-.84,3.12,2.84,6.62-.32,9.87.6,1.45.07,2.87.21,3.87,1.45.9,2.79.7,6.2,4.26,7.48,1.6,2.6,1.35,6.25,4.5,7.98Z"/><path class="cls-13" d="m51.92,167.03c.97-4.34,3.92-8.19,3.16-12.95,2.38-5.83,4.7-11.69,7.19-17.48.7-1.62,1.9-3.02,2.87-4.51,2.24-.23,2.6,1.25,2.69,2.97-2.7,6.11-7.28,11.42-7.95,18.42-.75,4-.72,8.01-.02,12.01,1.46,10.28,6.5,18.24,14.98,24.32,3.64,2.6,6.62,6.13,7.14,11.01-.07.79-.38,1.47-.99,1.99-11.48-.27-22.27-3.63-32.96-7.43-2.31-.82-2.21-2.62-1.97-4.45.29-2.28.71-4.54,1.08-6.8,1.6-5.69,3.2-11.39,4.8-17.08Z"/><path class="cls-34" d="m80.98,202.79c.05-.63.11-1.27.16-1.9,1.5-4.18-1.9-6.25-3.98-8.69-3.86-4.52-9.5-7.28-12.61-12.62-1.01-1.73-2.25-3.28-1.97-5.44.43-.92,1.17-1.44,2.13-1.7,1.59.02,3.22-.22,4.71.62,2.81,4.47,6.91,7.79,10.47,11.59,1.57,1.68,3.1,3.34,4.16,5.39,1.48,3.26,3.01,6.49,4.42,9.78.78,1.81,2.11,2.24,3.92,2.22,4.26-.05,8.53.03,12.8.06-8.02,1.97-16.13.71-24.21.69Z"/><path class="cls-41" d="m116.01,199.99c1.18-11.26,3.31-22.11,13.03-29.62,1.04-.8,1.01-2,.96-3.17,2.8-.2,5.52-.04,7.86,1.8-2.81,5.28-7.83,8.92-10.67,14.17-2.28,4.22-5.55,8.23-3.58,13.57.61.31,1.19.67,1.65,1.2.18.5.02.84-.48,1.02-1.55.37-3.1.75-4.65,1.13-1.37-.04-2.74-.07-4.11-.11Z"/><path class="cls-49" d="m59.01,153.07c.52-6.93,4.19-12.4,8.17-17.74.92-2.19,1.81-4.4,4.72-4.49.15.91.34,1.81,1.25,2.31-6.4,11.16-7.2,23.43-7.13,35.87-1.25.42-1.99-.25-2.61-1.2-1.17-8.97-1.65-17.87,2.83-26.2-3.03,5.37-3.88,11.29-4.08,17.37-.06,1.79.36,3.68-1.05,5.2-1.35.24-2.06-.49-2.49-1.64.15-3.16-.52-6.35.38-9.48Z"/><path class="cls-1" d="m71.9,130.83c-1.57,1.5-3.15,2.99-4.72,4.49-.12-1.43-.61-2.63-2.04-3.24.86-1.84,1.57-3.82,3.96-4.23.93.99,1.87,1.99,2.81,2.98Z"/><path class="cls-79" d="m332.98,195c.72.05,1.45.1,2.17.16.19,2.03-1.3,2.93-2.67,3.83-9.57,6.25-19.35,12.19-28.9,18.48-5.13,3.38-10.09,6.97-15.04,10.61-1.65,1.21-2.33,2.44-.42,3.91,6.88,5.3,12.83,12.09,21.96,13.84.27.43.4.89.38,1.4-1.21,2.66-3.45,3.26-5.78,2.11-8.28-4.09-15.16-10.08-21.71-16.47-.59-.58-.76-1.46-.85-2.3.25-2.33-1.43-3.34-2.87-4.75-2.58-2.51-6.71-3.66-7.33-7.97.58-.47,1.26-.63,1.99-.58,3.73.84,5.8,4.03,8.68,6.08,1.34.96,2.33,3.01,4.56,1.79,14.84-10.7,30.53-20.1,45.83-30.1Z"/><path class="cls-27" d="m287.15,225.1c-1.54,1.58-2.81.81-4.22-.32-2.9-2.33-5.89-4.53-8.85-6.79-10.76-5.66-17.65-14.22-19.33-26.43-.87-6.35-2.33-12.65-2.2-19.12,1.2-1.4,1.75-.18,2.42.6,1.9,7.35,3.26,14.88,5.82,21.99,3.44,9.55,11.19,16.16,18.05,23.24,2.48,2.55,4.41,5.95,8.31,6.84Z"/><path class="cls-31" d="m254.98,173.04c-.6-.34-1.2-.68-1.79-1.02-1.97-.96-2.15-3.22-3.42-4.69-.18-.44-.11-.85.16-1.23.35-3.11-2.98-5.84-.96-9.12,2.01,5.36,4.01,10.71,6.02,16.07Z"/><path class="cls-46" d="m254.17,155.05c2.65,1.61,5.18,6.88,4.34,9.22-.03.08-.88-.13-1.34-.2-1.87-2.72-1.79-6.08-3-9.02Z"/><path class="cls-13" d="m313.88,164.26c.79-3.58,3.05-7.6-2.75-9.21-.34-5.98,4.97-11.46,12.77-13.16,3.26.68,2.89,2.48,1.44,4.61.62,4.91,4.33,8.31,6.11,13.95,1.39-4.96-1.29-8.04-1.38-11.49.22-.96.4-1.97,1.75-1.86,2.61,4.18,5.16,8.38,7.05,12.95.28,6.25,1.09,12.35,5.19,17.45.85,1.06,1.33,2.24,1.75,3.48.16.27.27.56.33.87-.53.34-1.13,1.05-1.59.97-11.87-2.13-23.23.75-34.64,3.37-2.87.66-5.8,1.1-8.72,1.52-.75.11-1.01-.69-1.12-1.37,9.87-4.62,15.38-9.54,13.81-22.07Z"/><path class="cls-12" d="m309.87,245.79c-2.03,1.2-3.68,1.03-5.84-.36-6.15-3.93-11.92-8.31-17.45-13.06-2.07-1.78-2.21-2.88,0-4.46,9.68-6.97,19.49-13.74,29.69-19.95,6.49-3.96,13.05-7.86,18.88-12.8,4.59-3.01,9.18-6.03,13.77-9.04,2.67-.28,4.15-3.26,7.02-3.09,4.32,5.52,9.09,10.68,12.91,16.6.89,1.38,1.88,2.66,2.21,4.31-3.26,4.14-8.12,6.1-12.35,8.87-14.51,9.55-28.99,19.12-43.23,29.08-.81.57-1.49,1.31-2.22,1.98-.49.47-1,.91-1.54,1.32-.55.41-1.13.7-1.85.6Z"/><path class="cls-13" d="m345.81,180.98c-6.34-4.38-6.55-11.62-8.43-18.08-.45-1.54-.35-2.6,1.49-2.85.62,1.09,1.24,2.18,1.86,3.27,1.74,5.2,3.48,10.41,5.22,15.61-.05.68-.1,1.37-.14,2.06Z"/><path class="cls-12" d="m343.05,268.73c-.63,5.93,4.86,6.69,8.12,8.56,3.9,2.24,2.21,3.29,0,4.52-3.51,1.95-6.59,4.41-9.62,7.02-2.65,2.28-5.12,2.98-8.27.1-8.81-8.04-19.29-12.9-30.8-16.13-14.62-4.1-29.71-6.18-44.18-11-6.15-2.05-12.89-2.37-19.41-3.48-.34-1.7,1.26-1.83,1.92-2.6,3.69-4.37,3.96-7.99.79-12.59-.28-.41-.81-.72-.94-1.15-2.31-8.08-8.19-14.75-9.88-22.89-2.06-9.9-6.23-19.04-8.94-28.69-1.14-4.06,1.76-6.9,1.15-10.45,1.73-2.69,4.58-4.05,7.03-5.88,2.49.41,3.87-.47,3.71-3.16.07-.3.19-.58.37-.83,1.63-1.37,3.25-2.73,4.88-4.1,1.96,3.46.85,8.04,4.02,11.08.59,3.32.48,6.65.16,9.98-3.19,4.97-.65,9.5,1.14,14.06.61,1.55,1.74,2.41,3.5,1.43.3-.34.6-.68.89-1.03,2.24-3.33,4.26-2.02,5.57.61,1.57,3.16,3.78,5.81,5.7,8.7,1.81,2.72,4.16,4.43,6.95,6.11,4.44,2.69,7.62,7.14,12.23,9.77.67.38.89,1.47.76,2.28-1.35,8.65,4.89,12.9,10.42,17.22,3.09,2.41,6.73,4.22,10.15,6.27,3.47,2.08,7.1,2.83,10.98,2.02,2.99-.62,5.5.12,8.04,1.63,5.19,3.08,11.55,4.24,15.24,9.8,1.02,1.54,3.07,1.91,4.96.83,1.64-.19,3,.08,3.37,2.01Z"/><path class="cls-12" d="m340,266.89c-2.13,2.46-5.11,2.66-6.88-.52-2.56-4.59-7.06-5.48-11.06-7.49-1.47-.74-2.88-1.62-4.31-2.43-1.6-.91-3.08-1.44-5.14-.92-4.44,1.12-8.62.57-12.79-1.99-7.2-4.41-14.74-8.2-19.51-15.64-1.49-2.32-2.94-4.34-1.72-7.29.88-2.13.25-3.65-2.16-4.69-3.17-1.37-6.33-3.03-7.59-6.69-.41-1.19-1.53-1.04-2.46-1.3-3.4-.94-5.52-3.28-7.41-6.19-2.11-3.25-4.34-6.37-6.17-9.83-2.14-4.06-2.53.51-3.74,1.14-2.07-4.25-1.7-8.96-2.36-13.46-.84-5.71-.86-11.53-2.11-17.67-1.89,1.11-1.17,3.37-2.66,4.12-2.77-1.93-4.68-4.11-2.66-7.76.3-.55-.17-1.53-.28-2.31.52-.63.97-1.33,1.57-1.88,4.37-4.04,4.36-4.02,7.76,1.02.32.48,1.07.66,1.62.98,0,.31.04.62.14.92,3.38,7.33,3.82,15.32,4.7,23.1,1.14,10.1,6.06,17.64,13.5,23.99,1.36,1.16,3.02,2.08,3.6,3.97,3.01,3.04,6.27,5.81,9.97,7.94,2.09,1.2,2.44,2.34.95,4.14.05,5.45,4.37,8.16,7.56,11.53,1.93,2.04,4.78,2.96,7,4.66,5.41,4.14,10.95,6.81,17.66,2.98,6.42,2.41,11.43,7.11,17.14,10.68,2.95,1.84,6.74,2.91,7.87,6.9Z"/><path class="cls-13" d="m425.67,263.95c.45,0,.9-.01,1.35-.02,4.63,4.4,9.38,8.69,12.85,14.15,1.37,3.61,2.74,7.22,4.11,10.83,1.4,3.84,1.42,7.84,1.15,11.82-.32,4.78-2.77,6.77-7.65,6.26-7.06-.75-12.75-4.46-18.23-8.63-7.27-5.54-14.61-10.94-22.7-15.36-5.48-2.99-11.19-4.72-17.15-4.55-11.35.33-21.28-3.22-30.32-9.64-8.82-6.27-18.04-11.93-26.88-18.15-5.01-3.53-5.07-5.18-.07-8.23,12.35-7.52,24.2-15.84,36.88-22.82,1.73-.95,3.3-2.31,5.43-2.34,5.78,4.81,12.13,9.12,15.08,16.53-1.59,3.27-4.59,5.13-7.31,7.26-2.44,1.91-3.16,3.61-.8,6.51,4.52,5.55,9.82,10.3,14.73,15.45,1.35,1.42,3.14,1.76,4.86,2.3,3.41,2.45,6.3,1.63,9.17-1.13,1.72-1.65,3.58-3.59,6.47-2.42,5.91,4.51,12.48,3.22,19.03,2.19Z"/><path class="cls-40" d="m364.88,218.05c-8.16,4.59-16.6,8.64-24.13,14.42-5.85,4.49-12.53,7.95-19.01,11.54-3.32,1.84-2.7,3.12-.14,4.8,12.56,8.26,24.98,16.75,37.77,24.65,4.3,2.66,9.73,3.64,14.81,3.4,13.36-.62,24.41,4.46,34.69,12.36,6.28,4.83,12.88,9.28,19.53,13.6,3.03,1.96,6.55,3.13,10.31,3.16,3.5.03,5.25-1.58,5.23-5.11-.02-3.99.02-7.98.04-11.97,2.57,3.76,3.84,8.01,3.79,12.48-.06,6.38-3.11,8.72-9.28,7.38-10.01-2.17-18.89-6.87-27.4-12.38-5.83-3.77-11.2-8.28-17.61-11.16-7.56-3.4-15.28-5.29-23.57-3.14-7.12-2.06-12.97-6.52-19.17-10.26-11.8-7.11-23.38-14.58-34.55-22.66-1.07-.77-2.3-1.4-2.67-2.84.23-2.92,2.96-3.35,4.78-4.55,3.17-2.11,6.73-3.59,9.72-6.01.37-.3.77-.56,1.17-.81,11.57-7.51,23.26-14.83,34.86-22.29,1.52-.98,3.04-2.06,4.85-2.52,2.17-.41,3.84.54,5.29,2.01,3.82,3.85,7.41,7.93,11.11,11.9,1.29,1.39,2.73,3.06,1.29,5.27-1.45,1.71-2.87,3.47-5.43,3.44-5.35-3.62-8.85-9.15-13.68-13.31-.75-.65-.97-2.35-2.6-1.42Z"/><path class="cls-76" d="m313.74,245.95c16.23,11.96,33.2,22.78,50.68,32.82,1.86,1.07,3.67,2.22,5.5,3.33-1.12,1.31-2.62.85-4.02.86-.32-1.65-1.71-2.13-2.98-2.74-6.62-3.83-13.24-7.66-19.86-11.49-1.02-.61-2.03-1.23-3.05-1.84-8.33-5.65-16.67-11.3-25-16.95-1.9-.43-3.73-.98-4.99-2.63-.04-.51-.09-1.02-.13-1.53.37-.26.75-.52,1.12-.77,1.34-.93,2.2-.48,2.74.93Z"/><path class="cls-12" d="m391.04,228.11q7.74-2.9,13.86,4.03c3.62,4.06,6.99,8.31,10.01,12.82-4.05,4.05-9.18,6.85-13.02,11.14-.36.31-.75.57-1.15.81-2.79,1.19-4.87,3.29-6.97,5.38-1.4,1.4-2.84,2.8-5.11,2.44-7.64-4.69-12.82-11.83-18.42-18.56-.78-.94-1.41-2.33-.38-3.14,6.8-5.34,12.39-12.41,21.19-14.92Z"/><path class="cls-89" d="m391.04,228.11c-6.95,4.14-13.36,8.98-19.34,14.44-1.21,1.1-2.36,1.47-.75,3.29,5.68,6.42,10.83,13.33,17.96,18.31,1.75.91,2.66-.46,3.77-1.36,2.77-2.25,5.16-4.98,8.36-6.69h-.02c.64-.81,1.49-.87,2.42-.66.44.21.7.56.81,1.03-.06.99-.59,1.76-1.2,2.48-2.05,2.42-4.75,4.09-7.1,6.16-1.5,1.32-3.1,1.82-5.01,1.08-3.28.42-5.23-1.93-7.23-3.78-5.11-4.73-9.77-9.9-14.23-15.27-1.84-2.22-1.5-3.88.38-5.52,3-2.61,6.09-5.11,9.15-7.65.5-.83,1.07-1.58,1.94-2.06,2.13-.17,3.3-1.98,4.99-2.92,1.04-.41,1.31-1.56,2.12-2.19.96-.07,1.91-.13,2.87-.2.03.5.06.99.09,1.49Z"/><path class="cls-33" d="m403.65,255.69c-.87.14-1.74.29-2.61.43,3.36-5.29,8.57-8.29,13.88-11.16,1.6,2.27-1.7,1.7-1.75,3.02-2.59,3.29-5.34,6.38-9.52,7.71Z"/><path class="cls-89" d="m403.65,255.69c2.64-3.22,6.23-5.29,9.52-7.71.59.15,1.39.02,1.36,1-1.2,1.01-2.39,2.02-3.59,3.03-.98,2.67-3.3,3.67-5.71,4.55-.48-.01-.89-.18-1.24-.51l-.34-.36Z"/><path class="cls-5" d="m311.94,244.04c4.5-5.42,10.73-8.62,16.38-12.51,11.39-7.83,23.05-15.28,34.64-22.83,2.62-1.71,5.4-3.18,8.1-4.77,1.93,1.51.19,2.67-.38,3.94.08.81-.29,1.39-.91,1.84-13.75,8.54-27.63,16.87-40.83,26.26l.03-.02c-4.19,2.67-8.75,4.68-12.92,7.39-1.18.76-2.52,1.79-4.1.68Z"/><path class="cls-91" d="m369.84,208.58c.28-.23.56-.47.84-.7.67.13,1.34.27,2,.4.4.51.8,1.03,1.2,1.54,1.1,2.32,3.07,3.78,5.1,5.18,0,0-.02-.03-.02-.03,2.04,4.72,7.02,7.17,9.11,11.84-.13,1.29-.7,2.15-2.12,2.19.19-.46.68-1.12.52-1.34-4.73-6.74-9.98-12.95-17.43-16.88-.59-1.04.66-1.42.79-2.2Z"/><path class="cls-34" d="m405.12,256.09c1.94-1.36,3.88-2.72,5.82-4.08,4.95,2.98,9.93,5.93,11.91,11.88-6.72,2.64-13.4,1.45-16.92-3-1.15-1.45-2.3-2.9-.82-4.8Z"/><path class="cls-60" d="m405.12,256.09c1.83,6.27,3.74,7.82,9.78,7.83,2.65,0,5.3-.02,7.96-.03.95-.32,1.89-.58,2.81.06-.1.47-.05,1.22-.32,1.36-4.41,2.38-16.22.4-19.65-3.23-1.01-1.25-3.29-1.59-2.81-3.91.37-.71.74-1.41,1.11-2.12.38.01.75.02,1.13.04Z"/><path class="cls-13" d="m323.97,145.8c2.6-1.35,1.21-2.63-.08-3.91,1.13-1.41,2.69-.67,4.07-.8,1.28,2,2.57,4.01,3.85,6.01-.29.68-.58,1.35-.88,2.03-2.79-.13-4.97-1.54-6.97-3.33Z"/><path class="cls-43" d="m378.99,215c-2.73-.71-4.83-2.04-5.1-5.18,1.93,1.5,4.06,2.8,5.1,5.18Z"/><path class="cls-42" d="m41.25,281.98c7.36,5.57,12.58,13.04,17.49,20.61,7.18,11.08,11.95,23.5,18.46,34.95,4.94,8.68,10.94,16.37,21.83,18.77,4.59,1.01,6.21-.66,7.34-4.12,2.88-8.79,6.74-17.17,10.61-25.55,3.34-7.24,7.7-13.88,11.75-20.7.79-1.33,1.77-2.43.64-4.01-1.13-1.59-2.41-1.77-4.3-1.16-3.19,1.03-6.55.13-9.84.27-.79-.7-.79-1.53-.39-2.42,2.88-3.14,6.69-1.58,10.11-2,7.36.5,9.58,2.77,8.1,8.29-5.33,6.87-9.34,14.49-12.69,22.47-.62,1.48-.85,3.13-1.27,4.71-3.24,2.92-3.85,7.06-5.12,10.9-1.91,2.31-2.1,5.25-2.93,7.95v.02c-.46.69-1.17,1.3-1.4,2.05-1.87,6.13-6.44,6.84-11.82,6.03-8.24-2-15.15-5.98-19.5-13.51-.85-1.48-1.86-2.61-3.15-3.6-.62-5.32-4.26-9.26-6.68-13.65-6.32-11.45-11.82-23.42-19.75-33.93-1.7-2.25-3.52-4.4-5.22-6.64-1.28-1.68-3.06-3.2-2.28-5.72Z"/><path class="cls-42" d="m133.04,304.9c-.46-5.6-1.77-6.72-8.23-7.03.15-1.48,1.31-1.82,2.45-2.02,8.02-1.4,15.88-3.31,23.26-6.86.74-.36,1.63-.27,2.46-.17.91-.2,2.1-1.03,2.08.91-3.06,3.23-6.35,6.06-10.68,7.58-4.39,1.54-7.84,4.64-11.34,7.59Z"/><path class="cls-41" d="m97.83,359.04c6.25.32,9.73-3.87,13.2-8.08-.19.79-.34,1.58-.56,2.36-2.57,8.91-3.69,9.42-12.64,5.72Z"/><path class="cls-41" d="m111.04,350.94c-.05-3.03-.1-6.06,2.93-7.95-.47,2.84-1.29,5.55-2.93,7.95Z"/><path class="cls-12" d="m233.73,170.9c2.39,1.79.83,3.18-.59,4.33-1.48,1.2-2.77,1.05-3.12-1.17.7-1.68,2.35-2.26,3.71-3.16Z"/><path class="cls-13" d="m125.08,198.02c-.68,0-1.35,0-2.03,0-2.09-3.25.03-6.2,1.1-8.89,3.29-8.3,8.37-15.32,16.31-19.91.53-3.19,4.83-3.2,5.28-6.49.25,4.16,1.76,8.07,1.2,12.18-.67,10.74-.69,21.49.01,32.23.35,5.91,1.6,11.75,1.27,17.7.92,4.7-.34,9.5.68,14.2.16,3.79,1.11,7.41,2.36,10.97q1.87,7.68-6.19,9.16c-7,1.28-13.99,2.58-20.99,3.88-2.16.12-3.76-.48-2.84-3.04,2.5-6.9,1.82-13.87.72-20.88-1.08-2.65,1.09-3.09,2.68-3.75,2.59-1.08,5.38-1.67,7.92-2.88,1.76-.83,3.68-1.65,4.21-3.88.27-.97.5-1.95.92-2.87,1.61-9.65-1.55-18.82-2.84-28.17-.13-.94-.91-1.28-1.85-1.14-2.63.6-4.99,2.56-7.94,1.59Z"/><path class="cls-54" d="m140.45,169.22c-7.58,7.18-15.04,14.45-16.99,25.39-.2,1.13-.28,2.28-.41,3.41-3.13-.43-1.71-2.5-1.45-4.11,1.26-7.89,5.84-13.95,10.96-19.68,1.65-1.85,3.53-3.5,5.31-5.24.86.07,1.73.15,2.59.22Z"/><path class="cls-86" d="m146.94,207.14c-.91-.91-.92-2.08-.88-3.23.37-9.66-1.04-19.38.87-29,.05,5.37.1,10.75.16,16.12-.05,5.37-.1,10.74-.15,16.11Z"/><path class="cls-18" d="m146.05,145.97c.31,4.41.62,8.81.93,13.22-.33.04-.67.08-1,.12-.97-6.78-1.94-13.56-2.98-20.81,2.59,2.34,1.15,5.59,3.12,7.58,0,0-.07-.11-.07-.11Z"/><path class="cls-13" d="m85.05,264.02c.62-4.39,1.37-8.77,1.84-13.18.78-7.31,5.31-10.59,12.06-11.64,3.1-.48,6.26-.45,9.37-.69,2.72-.21,5.41.69,6.15,4.82,1.34,7.44,1.54,14.36-3.4,20.61,0,0,.03.12.03.12-6.32,1.19-12.75-.38-19.07.82-1.56,0-3.11,0-4.67-.01-.72-.4-1.66-.24-2.3-.86Z"/><path class="cls-103" d="m85.05,264.02c.77.29,1.53.57,2.3.86-3.72.71-7.64-.91-11.27.93-3.42.93-6.62-1.99-10.07-.59-.1,5.8.42,11.61-.4,17.39-.31,2.17.46,4.27.73,6.4.45,3.56,2.48,5.22,5.96,5.45,2.32.16,4.65.09,6.94.59,3.28.96,6.64.45,9.97.52,10.79-.34,21.59.49,32.37-.93,9.4-1.25,18.63-3.01,27.51-6.4.92-.35,1.78-.97,2.81-.36.36.31.73.62,1.09.94-7.63,4.83-16.26,6.62-24.97,8.14-1.11.19-2.32-.06-3.2.92-3.23.25-6.62-.71-9.64,1.21-4.35.95-8.85-.54-13.17.88-7.33,1.01-14.6.17-21.89-.58-.88,0-1.75-.01-2.63,0-13.21-.35-15.84-2.99-15.87-16.25,0-3.08-.7-6.33,1.34-9.14.72-3.55-.49-7.32,1.19-10.77,2.23-2.19,4.55-1.76,6.91-.25.65.06,1.31.13,1.96.19,3.33-.11,3.9-2.88,4.99-5.16.04-.33.08-.66.12-.99,1.62-4.85,2.08-9.93,2.98-14.93,1.5-1.1.14-3.71,3.11-4.91-1.04,6.12-1.96,11.66-2.93,17.2-.23,1.3-.71,2.55-.96,3.84-.97,4.98-.47,5.58,4.72,5.8Z"/><path class="cls-25" d="m92.02,264.89c6.29-1.8,12.71-.54,19.07-.82-6.29,1.84-12.71.62-19.07.82Z"/><path class="cls-24" d="m102.11,266.21c-6.03,1.42-12.06,1.29-18.08-.07,6.03.02,12.06.04,18.08.07Z"/><path class="cls-21" d="m148.89,239.04c-1.66-4.66-.67-9.45-.68-14.2,1.5,4.67.62,9.46.68,14.2Z"/><path class="cls-29" d="m151.9,287.88c-15.48,7.26-31.97,9.1-48.8,9.08-4.65,0-9.29-.07-13.94-.1-3.34-1.04-6.83.22-10.18-.71-3.44-.31-6.88-.67-10.32-.9-1.75-.12-2.43-.93-2.92-2.61-2.66-9.19-.88-18.29.28-27.41,1.89,6.41,1.16,13.1,1.98,19.63.69,5.51,2.91,7.88,8.35,8.23,11.42.73,22.84,1.11,34.29.91,13.03-.23,25.57-3.04,38.05-6.4,1.1-.3,2.25-.4,3.38-.6-.04.3-.09.6-.17.89Z"/><path class="cls-7" d="m114.77,276.03c-10.53-1.08-21.67-.64-32.58-2.91-.81-.17-1.69-.11-2.45-.4-1.1-.41-2.28-1.08-1.95-2.46.27-1.14,1.49-1.24,2.49-1.17,4.62.32,9.26.55,13.86,1.08,12.1,1.39,24.15,1.36,36.18-.7,3.42-.59,6.88-1.04,10.33-1.39.99-.1,2.68-.66,2.85,1.02.14,1.35-1.32,1.69-2.45,2.03-8.42,2.55-16.9,4.74-26.29,4.91Z"/><path class="cls-77" d="m103.05,151.22c-3.34.34-6.69.67-10.03,1.01-3.88,1.84-7.92,1.39-11.96.82-3.52.32-6.79,1.04-7.98,5.05-1.03,3.74-.67,7.88-3.28,11.16-2.1-1.08-1.2-2.72-.79-4.26.53-9.9,4.61-13.84,16.05-14.83,7.42-.64,14.87-.99,22.32-1.11,8.35-.13,11.99,2.34,14.43,10.01.96,3,2.2,5.87,3.13,8.87-2.53.84-3.09-1.07-3.67-2.75-.57-1.67-.94-3.42-1.4-5.13-1.99-1.84-2.43-4.56-3.83-6.74-1.14-.86-2.25-1.81-3.85-1.31-2.92-1.69-6.24,1.22-9.14-.78Z"/><path class="cls-81" d="m69,164.99c.25,1.36-.42,2.93.93,4.03,1.25,1.68.51,2.89-.92,3.94-1.28.89-2.57.93-3.86.04-2.33-1.25-2.65-2.9-1.02-4.96.63.33,1.27.66,1.9.99.32,1.17.73,2.71,1.84.59.71-1.37-.34-3.32,1.14-4.62Z"/><path class="cls-13" d="m62.96,273.99c.17,5.15.21,10.31.56,15.45.33,4.77,2.07,8.19,7.86,8.14,2.07-.02,4.26.44,6.41.54.77,6.15,7.07,8.5,9.34,13.61-3.25,1.7-5.84-.49-7.58-2.3-2.93-3.03-5.37-5.52-10.17-5.78-4.82-.26-7.41-4.72-8.09-9.02-.8-5.06-2.69-9.97-2.28-15.25.22-2.8.87-4.88,3.96-5.39Z"/><path class="cls-15" d="m87.13,311.74c-.99-1.33-2.35-2.18-3.73-3.07-3.77-2.45-6.17-5.74-5.61-10.54.81-.01,1.62-.02,2.42-.04,4.53,11,14.65,14.62,24.54,18.48,2.27.88,3.82-.5,4.77-2.52,1.5-3.21,2.22-6.6,2.23-10.16,0-2.52-1.22-3.54-3.68-3.64-2.08-.09-4.4.56-6.07-1.41,4.42-1.4,8.81-1.46,13.16.25.02.65.04,1.3.06,1.95-.12,1.3-.24,2.59-.36,3.89-1.66,4.9-.58,10.71-4.94,14.71-1.45,1.87-3.12,1.58-4.88.5-6.74-1.17-12.31-4.82-17.92-8.4Z"/><path class="cls-13" d="m78.01,258.01q.2,6.36-4.99,5.15c.19-3.14,2.76-3.98,4.99-5.15Z"/><path class="cls-13" d="m71.06,262.97c-2.3.08-4.61.17-6.91.25-.06-1.51-.19-3.14,1.99-3.16,2.18-.02,4.34.16,4.92,2.91Z"/><path class="cls-13" d="m105.05,320.13c1.63-.16,3.25-.33,4.88-.5.11,1.62-.37,2.98-2.16,3.17-1.79.18-2.54-1.03-2.72-2.67Z"/><path class="cls-98" d="m132.84,195.98c1.47-1.41,2.7-.6,2.93.85,1.56,9.71,4.57,19.3,2.55,29.32-.54.34-1.03.28-1.46-.2-.13-4.59,1.01-9.25-.69-13.76-.75-5-1.49-9.99-2.24-14.99-.26-.5-.87-.68-1.1-1.21Z"/><path class="cls-59" d="m136.87,225.95c.49.07.97.13,1.46.2-.11.93-.23,1.85-.34,2.77-4.77,3.23-9.46,6.78-15.78,4.18-.41-.4-.81-.8-1.22-1.2,3.82-.85,7.63-1.79,11.48-2.53,2.12-.41,3.54-1.49,4.4-3.42Z"/><path class="cls-30" d="m122.21,233.1c5.74.42,10.53-2.75,15.78-4.18-.85,4.22-4.8,4.39-7.72,5.93-2.76,1.45-6.74.52-8.31,4.27-1.22-2.06-1.18-4.07.26-6.03Z"/><path class="cls-8" d="m115.1,207.29c-5.28,4.51-10.9,5.17-16.2,5.48-14.92.87-29.75-.12-44.19-4.47-.16-.05-.31-.11-.47-.15-1.76-.49-4.25-1.08-3.63-3.16.62-2.06,3.22-1.06,4.82-.69,12.25,2.85,24.65,4.59,37.2,4.53,6.07-.03,12.14-1.2,18.21-1.79,1.09-.11,2.21.12,4.26.25Z"/><path class="cls-100" d="m132.84,195.98c.37.4.73.81,1.1,1.21-3.22-.25-5.75,3.01-9.16,1.77.1-.31.2-.63.3-.94,2.59-.68,5.18-1.36,7.77-2.04Z"/><path class="cls-9" d="m96.4,164.03c-4.62-.47-9.05,1.39-13.73.92-2.29-.23-4.22-.89-4.36-2.91-.14-2.05,2.52-2.91,3.96-2.83,6.32.33,12.38-1.07,18.53-2.02,2.8-.44,6.52-.21,6.93,3.02.42,3.31-3.83,2.59-5.92,3.68-1.43.75-3.58.14-5.41.15Z"/><path class="cls-4" d="m69.01,172.95c.24-1.33,1.4-2.44.92-3.94.71-3.74.96-7.61,3.14-10.92,2.07,3.18.52,6.89-.41,9.35-2.57,6.84,1.87,9.52,5.81,12.79,3.13,2.6,6.06,5.22,5.57,9.82-4.62-4.48-9.24-8.96-13.88-13.42-1.07-1.03-1.14-2.34-1.16-3.67Z"/><path class="cls-4" d="m81.06,153.04c3.88-1.8,7.97-.68,11.96-.82-4.48,4.75-7.65,4.97-11.96.82Z"/><path class="cls-4" d="m116.04,153.3c2.7,1.44,3.35,4.04,3.83,6.74-4.88-.2-4.31-3.49-3.83-6.74Z"/><path class="cls-4" d="m103.05,151.22c3.06.05,6.19-.68,9.14.78-1.89.22-3.82-.26-5.64.97-1.82,1.22-3,.19-3.49-1.75Z"/><path class="cls-50" d="m59.15,163.04c.59.33,1.17.67,1.76,1,2.47,2.94,2.05,6.52,2.2,9.98,1.53,5.98,6.05,9.6,10.49,13.29,4.08,3.39,7.85,7.07,9.45,12.35.69,2.29.07,2.9-1.91,1.24-1.28-4.9-4.43-8.46-8.38-11.34-8.05-5.86-12.87-13.58-13.88-23.56-.33-1.02-.6-2.04.27-2.95Z"/><path class="cls-1" d="m59.15,163.04c-.09.98-.18,1.97-.27,2.95-1.29-4.32-1.47-8.63.13-12.92.05,3.33.1,6.65.14,9.98Z"/><path class="cls-28" d="m63.11,174.02c-1.72-3.11-1.9-6.56-2.2-9.98-.33-8.49.21-16.8,5.23-24.13.36-.52.82-.98,1.68-1.37-4.33,9.5-4,19.49-3.69,29.48-.22,1.77-.12,3.47,1.02,4.96-.68.34-1.36.69-2.04,1.03Z"/><path class="cls-38" d="m310.01,247.32c2.24-.23,3.45,1.53,4.99,2.63-4.83,3.55-9.46,3.56-14.48,0-5.89-4.17-12.51-7.32-16.81-13.52-1.45-2.09-2.28-3.94-.92-6.29,5.21,7.52,12.93,12,20.25,17.03,2.57,1.77,4.6,2.27,6.98.14Z"/><path class="cls-63" d="m271.86,218.07c-12.78-8.43-18.65-20.6-19.14-35.62-.17-5.28-3.21-10.05-2.66-15.44,2.85.54,1.86,3.48,3.12,5.01.97,6.98,1.87,13.97,2.93,20.93,1.5,9.8,7.94,16.37,15,22.48.99.85,1.98,1.71,2.97,2.56-.74.02-1.49.05-2.23.07Z"/><path class="cls-11" d="m323.97,145.8c3.04-.4,4.98,1.51,6.97,3.33.99,4.09,3.83,7.92,1.62,12.81-4.8-4.13-5.72-10.47-9.41-15.02-.08-.09.53-.74.81-1.13Z"/><path class="cls-6" d="m353.76,190.07c.4.05,1.36-.26,1.78.71.4.94-.32,1.56-.88,2.13-1.17,1.17-2.24,2.56-3.64,3.37-9.74,5.64-18.43,12.79-27.73,19.05-1.51,1.02-3.12,2.63-4.69.56-1.77-2.33.86-3.14,2.08-4.16,8.86-7.4,18.05-14.35,28.1-20.1,1.44-.82,2.85-1.71,4.99-1.57Z"/><path class="cls-72" d="m311.94,244.04c4.45-1.27,8.04-4.19,12.08-6.26,1.59-.81,3.03-1.93,4.95-1.82-4.11,4.79-10.45,6.2-15.22,9.99-.92-.31-1.83-.62-2.74-.94.31-.32.63-.65.94-.97Z"/><path class="cls-10" d="m360.13,192.36c1.31.37,1.82,1.31,1.8,2.56-.02,1.08-.41,2-1.68,1.89-1.57-.14-2.31-1.17-2.11-2.7.14-1.07.86-1.71,1.99-1.75Z"/><path class="cls-7" d="m241.92,176.03c.81-2.24-1.91-6.29,1.88-6.64,3.78-.35,2.64,4.2,2.9,6.24,1.18,9.08,1.63,18.26,2.34,27.41,0,0-.05.04-.05.04-2.82,1.2-3.87-.81-4.92-2.75-2.1-3.91-2.79-8.06-2-12.44-.06-3.95-.12-7.91-.17-11.86Z"/><path class="cls-12" d="m242.1,187.89c1.62,3.63.47,7.88,2.76,11.44,1.11,1.72,1.79,3.56,4.15,3.75-1.39,2.76-3.72,1.85-4.73.33-2.51-3.81-3.93-8.21-4.09-12.83-.03-.87,1.24-1.79,1.91-2.68Z"/><path class="cls-40" d="m402.88,258.17c.94,1.3,1.87,2.61,2.81,3.91-2.64.36-4.19,2.41-5.96,4.03-2.99,2.73-5.82,3.35-8.78.09,5.11-.99,7.79-5.6,11.93-8.03Z"/><path class="cls-80" d="m380.96,231.92c-.37.95-.98,1.67-1.94,2.06-1.74-4.65-6.1-7.06-9.11-10.64-1.57-1.86-3.35-3.54-5.04-5.3.69-2.89,1.81-.76,2.47-.1,4.58,4.61,9.08,9.3,13.61,13.97Z"/><path class="cls-96" d="m369.84,208.58c-.27.74-.53,1.47-.79,2.2-12.89,8.34-25.77,16.68-38.67,25-.37.24-.95.14-1.44.19,2.15-3.53,5.92-5.11,9.15-7.22,10.48-6.89,21.16-13.47,31.76-20.17Z"/><path class="cls-8" d="m393.82,231.91c1.49.39,4.4-.71,4.23,1.76-.19,2.78-3.12,3.36-5.69,3.64-1.96.21-3.44-.37-3.38-2.46.09-3.11,2.6-2.84,4.84-2.93Z"/><path class="cls-33" d="m401.05,256.11c-3.61,3.33-6.11,8.36-12.14,8.05,2.72-.46,4.03-2.8,5.85-4.44,1.85-1.67,3.52-3.57,6.29-3.61Z"/><path class="cls-35" d="m102.01,298.83c1.65.02,3.31.05,4.96.05q6.45.01,6.04,6.67c-.81,12.92-4.52,15.04-15.95,9.39-4.63-2.29-8.56-5.57-12.93-8.21-3.46-2.08-4.75-4.8-3.91-8.65,7.25.72,14.5,1.15,21.79.75Z"/><path class="cls-19" d="m78.98,296.15c3.42-.11,6.88-.85,10.18.71-3.41,0-6.87.77-10.18-.71Z"/></svg>